%TF.GenerationSoftware,KiCad,Pcbnew,5.1.5+dfsg1-2build2*%
%TF.CreationDate,2021-09-07T02:56:07-04:00*%
%TF.ProjectId,rasp_heltec_lora_hat,72617370-5f68-4656-9c74-65635f6c6f72,rev?*%
%TF.SameCoordinates,PXbebc200PY8f0d180*%
%TF.FileFunction,Copper,L2,Bot*%
%TF.FilePolarity,Positive*%
%FSLAX46Y46*%
G04 Gerber Fmt 4.6, Leading zero omitted, Abs format (unit mm)*
G04 Created by KiCad (PCBNEW 5.1.5+dfsg1-2build2) date 2021-09-07 02:56:07*
%MOMM*%
%LPD*%
G04 APERTURE LIST*
%TA.AperFunction,Profile*%
%ADD10C,0.100000*%
%TD*%
%TA.AperFunction,ComponentPad*%
%ADD11R,1.700000X1.700000*%
%TD*%
%TA.AperFunction,ComponentPad*%
%ADD12O,1.700000X1.700000*%
%TD*%
%TA.AperFunction,ComponentPad*%
%ADD13R,1.800000X1.800000*%
%TD*%
%TA.AperFunction,ComponentPad*%
%ADD14C,1.800000*%
%TD*%
%TA.AperFunction,ComponentPad*%
%ADD15C,0.100000*%
%TD*%
%TA.AperFunction,ComponentPad*%
%ADD16O,1.800000X3.600000*%
%TD*%
%TA.AperFunction,ComponentPad*%
%ADD17O,1.600000X1.600000*%
%TD*%
%TA.AperFunction,ComponentPad*%
%ADD18C,1.600000*%
%TD*%
%TA.AperFunction,ComponentPad*%
%ADD19C,1.524000*%
%TD*%
%TA.AperFunction,ComponentPad*%
%ADD20R,2.200000X2.200000*%
%TD*%
%TA.AperFunction,ComponentPad*%
%ADD21O,2.200000X2.200000*%
%TD*%
%TA.AperFunction,Conductor*%
%ADD22C,0.200000*%
%TD*%
%TA.AperFunction,Conductor*%
%ADD23C,0.700000*%
%TD*%
%TA.AperFunction,Conductor*%
%ADD24C,0.254000*%
%TD*%
G04 APERTURE END LIST*
D10*
X-190000Y36578171D02*
X-40000Y36500000D01*
X-14130098Y36578171D02*
X-190000Y36578171D01*
X-14130098Y36578171D02*
G75*
G02X-16256000Y38608000I-93902J2029829D01*
G01*
X-16256000Y51308000D02*
G75*
G02X-14224000Y53340000I2032000J0D01*
G01*
X-40000Y36500000D02*
X500000Y36500000D01*
X-16256000Y51308000D02*
X-16256000Y38608000D01*
X0Y53340000D02*
X-14224000Y53340000D01*
X44000000Y4000000D02*
X44000000Y19000000D01*
X46000000Y19000000D02*
X46000000Y4000000D01*
X46000000Y19000000D02*
G75*
G03X44000000Y19000000I-1000000J0D01*
G01*
X44000000Y4000000D02*
G75*
G03X46000000Y4000000I1000000J0D01*
G01*
X499127Y19499999D02*
G75*
G03X0Y19000000I873J-499999D01*
G01*
X4500000Y19500000D02*
G75*
G03X5000000Y20000000I0J500000D01*
G01*
X5000000Y36000000D02*
G75*
G03X4500000Y36500000I-500000J0D01*
G01*
X65000000Y53000000D02*
G75*
G03X62000000Y56000000I-3000000J0D01*
G01*
X62000000Y0D02*
G75*
G03X65000000Y3000000I0J3000000D01*
G01*
X0Y3000000D02*
G75*
G03X3000000Y0I3000000J0D01*
G01*
X2794452Y56012200D02*
G75*
G03X0Y53340000I205548J-3012200D01*
G01*
X62000000Y56000000D02*
X2794452Y56012200D01*
X4500000Y19500000D02*
X500000Y19500000D01*
X5000000Y36000000D02*
X5000000Y20000000D01*
X500000Y36500000D02*
X4500000Y36500000D01*
X65000000Y3000000D02*
X65000000Y53000000D01*
X3000000Y0D02*
X62000000Y0D01*
X0Y19000000D02*
X0Y3000000D01*
D11*
%TO.P,P1,1*%
%TO.N,+3V3*%
X8370000Y51230000D03*
D12*
%TO.P,P1,2*%
%TO.N,+5V*%
X8370000Y53770000D03*
%TO.P,P1,3*%
%TO.N,/GPIO2(SDA1)*%
X10910000Y51230000D03*
%TO.P,P1,4*%
%TO.N,+5V*%
X10910000Y53770000D03*
%TO.P,P1,5*%
%TO.N,/GPIO3(SCL1)*%
X13450000Y51230000D03*
%TO.P,P1,6*%
%TO.N,GND*%
X13450000Y53770000D03*
%TO.P,P1,7*%
%TO.N,N/C*%
X15990000Y51230000D03*
%TO.P,P1,8*%
%TO.N,HELTEC_RX*%
X15990000Y53770000D03*
%TO.P,P1,9*%
%TO.N,GND*%
X18530000Y51230000D03*
%TO.P,P1,10*%
%TO.N,HELTEC_TX*%
X18530000Y53770000D03*
%TO.P,P1,11*%
%TO.N,N/C*%
X21070000Y51230000D03*
%TO.P,P1,12*%
X21070000Y53770000D03*
%TO.P,P1,13*%
X23610000Y51230000D03*
%TO.P,P1,14*%
%TO.N,GND*%
X23610000Y53770000D03*
%TO.P,P1,15*%
%TO.N,N/C*%
X26150000Y51230000D03*
%TO.P,P1,16*%
X26150000Y53770000D03*
%TO.P,P1,17*%
%TO.N,+3V3*%
X28690000Y51230000D03*
%TO.P,P1,18*%
%TO.N,N/C*%
X28690000Y53770000D03*
%TO.P,P1,19*%
X31230000Y51230000D03*
%TO.P,P1,20*%
%TO.N,GND*%
X31230000Y53770000D03*
%TO.P,P1,21*%
%TO.N,N/C*%
X33770000Y51230000D03*
%TO.P,P1,22*%
X33770000Y53770000D03*
%TO.P,P1,23*%
X36310000Y51230000D03*
%TO.P,P1,24*%
X36310000Y53770000D03*
%TO.P,P1,25*%
%TO.N,GND*%
X38850000Y51230000D03*
%TO.P,P1,26*%
%TO.N,N/C*%
X38850000Y53770000D03*
%TO.P,P1,27*%
X41390000Y51230000D03*
%TO.P,P1,28*%
X41390000Y53770000D03*
%TO.P,P1,29*%
X43930000Y51230000D03*
%TO.P,P1,30*%
%TO.N,GND*%
X43930000Y53770000D03*
%TO.P,P1,31*%
%TO.N,N/C*%
X46470000Y51230000D03*
%TO.P,P1,32*%
X46470000Y53770000D03*
%TO.P,P1,33*%
X49010000Y51230000D03*
%TO.P,P1,34*%
%TO.N,GND*%
X49010000Y53770000D03*
%TO.P,P1,35*%
%TO.N,N/C*%
X51550000Y51230000D03*
%TO.P,P1,36*%
X51550000Y53770000D03*
%TO.P,P1,37*%
X54090000Y51230000D03*
%TO.P,P1,38*%
X54090000Y53770000D03*
%TO.P,P1,39*%
%TO.N,GND*%
X56630000Y51230000D03*
%TO.P,P1,40*%
%TO.N,N/C*%
X56630000Y53770000D03*
%TD*%
D13*
%TO.P,D1,1*%
%TO.N,GND*%
X62738000Y18542000D03*
D14*
%TO.P,D1,2*%
%TO.N,Net-(D1-Pad2)*%
X60198000Y18542000D03*
%TD*%
D11*
%TO.P,J1,1*%
%TO.N,+3V3*%
X22860000Y13462000D03*
D12*
%TO.P,J1,2*%
%TO.N,GND*%
X20320000Y13462000D03*
%TO.P,J1,3*%
%TO.N,I2C_SCL*%
X17780000Y13462000D03*
%TO.P,J1,4*%
%TO.N,I2C_SDA*%
X15240000Y13462000D03*
%TD*%
%TO.P,J2,4*%
%TO.N,I2C_SDA*%
X15240000Y18542000D03*
%TO.P,J2,3*%
%TO.N,I2C_SCL*%
X17780000Y18542000D03*
%TO.P,J2,2*%
%TO.N,GND*%
X20320000Y18542000D03*
D11*
%TO.P,J2,1*%
%TO.N,+3V3*%
X22860000Y18542000D03*
%TD*%
%TA.AperFunction,ComponentPad*%
D15*
%TO.P,J3,1*%
%TO.N,GND*%
G36*
X55538504Y8148796D02*
G01*
X55562773Y8145196D01*
X55586571Y8139235D01*
X55609671Y8130970D01*
X55631849Y8120480D01*
X55652893Y8107867D01*
X55672598Y8093253D01*
X55690777Y8076777D01*
X55707253Y8058598D01*
X55721867Y8038893D01*
X55734480Y8017849D01*
X55744970Y7995671D01*
X55753235Y7972571D01*
X55759196Y7948773D01*
X55762796Y7924504D01*
X55764000Y7900000D01*
X55764000Y4800000D01*
X55762796Y4775496D01*
X55759196Y4751227D01*
X55753235Y4727429D01*
X55744970Y4704329D01*
X55734480Y4682151D01*
X55721867Y4661107D01*
X55707253Y4641402D01*
X55690777Y4623223D01*
X55672598Y4606747D01*
X55652893Y4592133D01*
X55631849Y4579520D01*
X55609671Y4569030D01*
X55586571Y4560765D01*
X55562773Y4554804D01*
X55538504Y4551204D01*
X55514000Y4550000D01*
X54214000Y4550000D01*
X54189496Y4551204D01*
X54165227Y4554804D01*
X54141429Y4560765D01*
X54118329Y4569030D01*
X54096151Y4579520D01*
X54075107Y4592133D01*
X54055402Y4606747D01*
X54037223Y4623223D01*
X54020747Y4641402D01*
X54006133Y4661107D01*
X53993520Y4682151D01*
X53983030Y4704329D01*
X53974765Y4727429D01*
X53968804Y4751227D01*
X53965204Y4775496D01*
X53964000Y4800000D01*
X53964000Y7900000D01*
X53965204Y7924504D01*
X53968804Y7948773D01*
X53974765Y7972571D01*
X53983030Y7995671D01*
X53993520Y8017849D01*
X54006133Y8038893D01*
X54020747Y8058598D01*
X54037223Y8076777D01*
X54055402Y8093253D01*
X54075107Y8107867D01*
X54096151Y8120480D01*
X54118329Y8130970D01*
X54141429Y8139235D01*
X54165227Y8145196D01*
X54189496Y8148796D01*
X54214000Y8150000D01*
X55514000Y8150000D01*
X55538504Y8148796D01*
G37*
%TD.AperFunction*%
D16*
%TO.P,J3,2*%
%TO.N,DAC_OUTPUT*%
X49784000Y6350000D03*
%TD*%
%TO.P,J4,3*%
%TO.N,+5V*%
X40132000Y4826000D03*
%TO.P,J4,2*%
%TO.N,+3V3*%
X35052000Y4826000D03*
%TA.AperFunction,ComponentPad*%
D15*
%TO.P,J4,1*%
%TO.N,GND*%
G36*
X30646504Y6624796D02*
G01*
X30670773Y6621196D01*
X30694571Y6615235D01*
X30717671Y6606970D01*
X30739849Y6596480D01*
X30760893Y6583867D01*
X30780598Y6569253D01*
X30798777Y6552777D01*
X30815253Y6534598D01*
X30829867Y6514893D01*
X30842480Y6493849D01*
X30852970Y6471671D01*
X30861235Y6448571D01*
X30867196Y6424773D01*
X30870796Y6400504D01*
X30872000Y6376000D01*
X30872000Y3276000D01*
X30870796Y3251496D01*
X30867196Y3227227D01*
X30861235Y3203429D01*
X30852970Y3180329D01*
X30842480Y3158151D01*
X30829867Y3137107D01*
X30815253Y3117402D01*
X30798777Y3099223D01*
X30780598Y3082747D01*
X30760893Y3068133D01*
X30739849Y3055520D01*
X30717671Y3045030D01*
X30694571Y3036765D01*
X30670773Y3030804D01*
X30646504Y3027204D01*
X30622000Y3026000D01*
X29322000Y3026000D01*
X29297496Y3027204D01*
X29273227Y3030804D01*
X29249429Y3036765D01*
X29226329Y3045030D01*
X29204151Y3055520D01*
X29183107Y3068133D01*
X29163402Y3082747D01*
X29145223Y3099223D01*
X29128747Y3117402D01*
X29114133Y3137107D01*
X29101520Y3158151D01*
X29091030Y3180329D01*
X29082765Y3203429D01*
X29076804Y3227227D01*
X29073204Y3251496D01*
X29072000Y3276000D01*
X29072000Y6376000D01*
X29073204Y6400504D01*
X29076804Y6424773D01*
X29082765Y6448571D01*
X29091030Y6471671D01*
X29101520Y6493849D01*
X29114133Y6514893D01*
X29128747Y6534598D01*
X29145223Y6552777D01*
X29163402Y6569253D01*
X29183107Y6583867D01*
X29204151Y6596480D01*
X29226329Y6606970D01*
X29249429Y6615235D01*
X29273227Y6621196D01*
X29297496Y6624796D01*
X29322000Y6626000D01*
X30622000Y6626000D01*
X30646504Y6624796D01*
G37*
%TD.AperFunction*%
%TD*%
%TA.AperFunction,ComponentPad*%
%TO.P,J5,1*%
%TO.N,ADC1_CH_2*%
G36*
X13120504Y6624796D02*
G01*
X13144773Y6621196D01*
X13168571Y6615235D01*
X13191671Y6606970D01*
X13213849Y6596480D01*
X13234893Y6583867D01*
X13254598Y6569253D01*
X13272777Y6552777D01*
X13289253Y6534598D01*
X13303867Y6514893D01*
X13316480Y6493849D01*
X13326970Y6471671D01*
X13335235Y6448571D01*
X13341196Y6424773D01*
X13344796Y6400504D01*
X13346000Y6376000D01*
X13346000Y3276000D01*
X13344796Y3251496D01*
X13341196Y3227227D01*
X13335235Y3203429D01*
X13326970Y3180329D01*
X13316480Y3158151D01*
X13303867Y3137107D01*
X13289253Y3117402D01*
X13272777Y3099223D01*
X13254598Y3082747D01*
X13234893Y3068133D01*
X13213849Y3055520D01*
X13191671Y3045030D01*
X13168571Y3036765D01*
X13144773Y3030804D01*
X13120504Y3027204D01*
X13096000Y3026000D01*
X11796000Y3026000D01*
X11771496Y3027204D01*
X11747227Y3030804D01*
X11723429Y3036765D01*
X11700329Y3045030D01*
X11678151Y3055520D01*
X11657107Y3068133D01*
X11637402Y3082747D01*
X11619223Y3099223D01*
X11602747Y3117402D01*
X11588133Y3137107D01*
X11575520Y3158151D01*
X11565030Y3180329D01*
X11556765Y3203429D01*
X11550804Y3227227D01*
X11547204Y3251496D01*
X11546000Y3276000D01*
X11546000Y6376000D01*
X11547204Y6400504D01*
X11550804Y6424773D01*
X11556765Y6448571D01*
X11565030Y6471671D01*
X11575520Y6493849D01*
X11588133Y6514893D01*
X11602747Y6534598D01*
X11619223Y6552777D01*
X11637402Y6569253D01*
X11657107Y6583867D01*
X11678151Y6596480D01*
X11700329Y6606970D01*
X11723429Y6615235D01*
X11747227Y6621196D01*
X11771496Y6624796D01*
X11796000Y6626000D01*
X13096000Y6626000D01*
X13120504Y6624796D01*
G37*
%TD.AperFunction*%
D16*
%TO.P,J5,2*%
%TO.N,ADC1_CH_1*%
X17526000Y4826000D03*
%TO.P,J5,3*%
%TO.N,ADC1_CH_0*%
X22606000Y4826000D03*
%TD*%
D11*
%TO.P,JP1,1*%
%TO.N,I2C_SDA*%
X5334000Y16764000D03*
D12*
%TO.P,JP1,2*%
%TO.N,/GPIO2(SDA1)*%
X2794000Y16764000D03*
%TD*%
%TO.P,JP2,2*%
%TO.N,/GPIO3(SCL1)*%
X2794000Y9144000D03*
D11*
%TO.P,JP2,1*%
%TO.N,I2C_SCL*%
X5334000Y9144000D03*
%TD*%
D17*
%TO.P,R1,2*%
%TO.N,I2C_SDA*%
X26670000Y14986000D03*
D18*
%TO.P,R1,1*%
%TO.N,+3V3*%
X41910000Y14986000D03*
%TD*%
%TO.P,R2,1*%
%TO.N,+3V3*%
X41910000Y18542000D03*
D17*
%TO.P,R2,2*%
%TO.N,I2C_SCL*%
X26670000Y18542000D03*
%TD*%
D18*
%TO.P,R3,1*%
%TO.N,+5V*%
X48260000Y13208000D03*
D17*
%TO.P,R3,2*%
%TO.N,Net-(D1-Pad2)*%
X63500000Y13208000D03*
%TD*%
D11*
%TO.P,JP3,1*%
%TO.N,Net-(JP3-Pad1)*%
X62484000Y27940000D03*
D12*
%TO.P,JP3,2*%
%TO.N,Net-(D2-Pad1)*%
X62484000Y30480000D03*
%TD*%
D19*
%TO.P,U1,36*%
%TO.N,GND*%
X57912000Y24066500D03*
%TO.P,U1,35*%
%TO.N,Net-(U1-Pad34)*%
X55372000Y24066500D03*
%TO.P,U1,34*%
X52895500Y24066500D03*
%TO.P,U1,33*%
%TO.N,ADC1_CH_0*%
X50355500Y24066500D03*
%TO.P,U1,32*%
%TO.N,ADC1_CH_1*%
X47815500Y24066500D03*
%TO.P,U1,31*%
%TO.N,ADC1_CH_2*%
X45275500Y24066500D03*
%TO.P,U1,30*%
%TO.N,N/C*%
X42735500Y24066500D03*
%TO.P,U1,29*%
X40195500Y24066500D03*
%TO.P,U1,28*%
X37655500Y24066500D03*
%TO.P,U1,27*%
X35052000Y24066500D03*
%TO.P,U1,26*%
X32512000Y24066500D03*
%TO.P,U1,25*%
%TO.N,DAC_OUTPUT*%
X29972000Y24066500D03*
%TO.P,U1,24*%
%TO.N,N/C*%
X27432000Y24066500D03*
%TO.P,U1,23*%
X24892000Y24066500D03*
%TO.P,U1,22*%
X22352000Y24066500D03*
%TO.P,U1,21*%
X19812000Y24066500D03*
%TO.P,U1,20*%
X17272000Y24066500D03*
%TO.P,U1,19*%
X14732000Y24066500D03*
%TO.P,U1,18*%
X14732000Y48006000D03*
%TO.P,U1,17*%
%TO.N,HELTEC_RX*%
X17272000Y48006000D03*
%TO.P,U1,16*%
%TO.N,N/C*%
X19812000Y48006000D03*
%TO.P,U1,15*%
X22352000Y48006000D03*
%TO.P,U1,14*%
X24892000Y48006000D03*
%TO.P,U1,13*%
X27432000Y48006000D03*
%TO.P,U1,12*%
X29972000Y48006000D03*
%TO.P,U1,11*%
%TO.N,HELTEC_TX*%
X32512000Y48006000D03*
%TO.P,U1,10*%
%TO.N,N/C*%
X35052000Y48006000D03*
%TO.P,U1,9*%
X37592000Y48006000D03*
%TO.P,U1,8*%
X40132000Y48006000D03*
%TO.P,U1,7*%
X42672000Y48006000D03*
%TO.P,U1,6*%
X45212000Y48006000D03*
%TO.P,U1,5*%
X47752000Y48006000D03*
%TO.P,U1,4*%
%TO.N,VEXT_HELTEC*%
X50292000Y48006000D03*
%TO.P,U1,3*%
X52832000Y48006000D03*
%TO.P,U1,2*%
%TO.N,Net-(JP3-Pad1)*%
X55372000Y48006000D03*
%TO.P,U1,1*%
%TO.N,GND*%
X57912000Y48006000D03*
%TD*%
D20*
%TO.P,D2,1*%
%TO.N,Net-(D2-Pad1)*%
X62484000Y36576000D03*
D21*
%TO.P,D2,2*%
%TO.N,+5V*%
X62484000Y46736000D03*
%TD*%
D22*
%TO.N,+3V3*%
X8370000Y50180000D02*
X8370000Y51230000D01*
X12192000Y50809998D02*
X11462001Y50079999D01*
X11462001Y50079999D02*
X8470001Y50079999D01*
X12192000Y51674002D02*
X12192000Y50809998D01*
X14002001Y52380001D02*
X12897999Y52380001D01*
X14732000Y51650002D02*
X14002001Y52380001D01*
X12897999Y52380001D02*
X12192000Y51674002D01*
X14732000Y50546000D02*
X14732000Y51650002D01*
X15198001Y50079999D02*
X14732000Y50546000D01*
X8470001Y50079999D02*
X8370000Y50180000D01*
X27539999Y50079999D02*
X15198001Y50079999D01*
X28690000Y51230000D02*
X27539999Y50079999D01*
X4398577Y18688010D02*
X8370000Y22659433D01*
X2120311Y18688010D02*
X4398577Y18688010D01*
X2241999Y7993999D02*
X869990Y9366008D01*
X869990Y17437689D02*
X2120311Y18688010D01*
X8370000Y22659433D02*
X8370000Y50180000D01*
X869990Y9366008D02*
X869990Y17437689D01*
D23*
%TO.N,+5V*%
X12480000Y55340000D02*
X10910000Y53770000D01*
X57350000Y55340000D02*
X12480000Y55340000D01*
X58340000Y50880000D02*
X58340000Y54350000D01*
X58340000Y54350000D02*
X57350000Y55340000D01*
X58340000Y49864000D02*
X60198000Y48006000D01*
X61214000Y48006000D02*
X62484000Y46736000D01*
X60198000Y48006000D02*
X61214000Y48006000D01*
X58340000Y49864000D02*
X58340000Y50880000D01*
D22*
%TO.N,GND*%
X19878000Y52578000D02*
X19379999Y52079999D01*
X19379999Y52079999D02*
X18530000Y51230000D01*
X21580002Y52578000D02*
X19878000Y52578000D01*
X22772002Y53770000D02*
X21580002Y52578000D01*
X23610000Y53770000D02*
X22772002Y53770000D01*
X62738000Y19240500D02*
X62738000Y18542000D01*
X57912000Y24066500D02*
X62738000Y19240500D01*
%TO.N,/GPIO3(SCL1)*%
X11938000Y49718000D02*
X13450000Y51230000D01*
X11938000Y20066000D02*
X11938000Y49718000D01*
X10160000Y18288000D02*
X11938000Y20066000D01*
X2286000Y18288000D02*
X10160000Y18288000D01*
X1270000Y17272000D02*
X2286000Y18288000D01*
X1270000Y10668000D02*
X1270000Y17272000D01*
X2794000Y9144000D02*
X1270000Y10668000D01*
%TO.N,I2C_SCL*%
X5334000Y10194000D02*
X7078000Y11938000D01*
X5334000Y9144000D02*
X5334000Y10194000D01*
X16256000Y11938000D02*
X17780000Y13462000D01*
X7078000Y11938000D02*
X16256000Y11938000D01*
%TO.N,I2C_SDA*%
X13462000Y16764000D02*
X15240000Y18542000D01*
X5334000Y16764000D02*
X13462000Y16764000D01*
X16764000Y14986000D02*
X26670000Y14986000D01*
X15240000Y13462000D02*
X16764000Y14986000D01*
%TO.N,DAC_OUTPUT*%
X48514000Y6350000D02*
X49784000Y6350000D01*
X46482000Y19428579D02*
X46482000Y8382000D01*
X44574579Y21336000D02*
X46482000Y19428579D01*
X31242000Y21336000D02*
X44574579Y21336000D01*
X46482000Y8382000D02*
X48514000Y6350000D01*
X29972000Y22606000D02*
X31242000Y21336000D01*
X29972000Y24066500D02*
X29972000Y22606000D01*
D23*
%TO.N,Net-(JP3-Pad1)*%
X55372000Y31750000D02*
X55372000Y48006000D01*
X59182000Y27940000D02*
X55372000Y31750000D01*
X62484000Y27940000D02*
X59182000Y27940000D01*
%TO.N,Net-(D2-Pad1)*%
X62484000Y36576000D02*
X62484000Y30480000D01*
%TD*%
D24*
%TO.N,+3V3*%
G36*
X28817000Y51357000D02*
G01*
X28837000Y51357000D01*
X28837000Y51103000D01*
X28817000Y51103000D01*
X28817000Y49909845D01*
X29046890Y49788524D01*
X29194099Y49833175D01*
X29456920Y49958359D01*
X29690269Y50132412D01*
X29885178Y50348645D01*
X29954805Y50465534D01*
X30076525Y50283368D01*
X30283368Y50076525D01*
X30526589Y49914010D01*
X30796842Y49802068D01*
X31083740Y49745000D01*
X31376260Y49745000D01*
X31663158Y49802068D01*
X31933411Y49914010D01*
X32176632Y50076525D01*
X32383475Y50283368D01*
X32500000Y50457760D01*
X32616525Y50283368D01*
X32823368Y50076525D01*
X33066589Y49914010D01*
X33336842Y49802068D01*
X33623740Y49745000D01*
X33916260Y49745000D01*
X34203158Y49802068D01*
X34473411Y49914010D01*
X34716632Y50076525D01*
X34923475Y50283368D01*
X35040000Y50457760D01*
X35156525Y50283368D01*
X35363368Y50076525D01*
X35606589Y49914010D01*
X35876842Y49802068D01*
X36163740Y49745000D01*
X36456260Y49745000D01*
X36743158Y49802068D01*
X37013411Y49914010D01*
X37256632Y50076525D01*
X37463475Y50283368D01*
X37580000Y50457760D01*
X37696525Y50283368D01*
X37903368Y50076525D01*
X38146589Y49914010D01*
X38416842Y49802068D01*
X38703740Y49745000D01*
X38996260Y49745000D01*
X39283158Y49802068D01*
X39553411Y49914010D01*
X39796632Y50076525D01*
X40003475Y50283368D01*
X40120000Y50457760D01*
X40236525Y50283368D01*
X40443368Y50076525D01*
X40686589Y49914010D01*
X40956842Y49802068D01*
X41243740Y49745000D01*
X41536260Y49745000D01*
X41823158Y49802068D01*
X42093411Y49914010D01*
X42336632Y50076525D01*
X42543475Y50283368D01*
X42660000Y50457760D01*
X42776525Y50283368D01*
X42983368Y50076525D01*
X43226589Y49914010D01*
X43496842Y49802068D01*
X43783740Y49745000D01*
X44076260Y49745000D01*
X44363158Y49802068D01*
X44633411Y49914010D01*
X44876632Y50076525D01*
X45083475Y50283368D01*
X45200000Y50457760D01*
X45316525Y50283368D01*
X45523368Y50076525D01*
X45766589Y49914010D01*
X46036842Y49802068D01*
X46323740Y49745000D01*
X46616260Y49745000D01*
X46903158Y49802068D01*
X47173411Y49914010D01*
X47416632Y50076525D01*
X47623475Y50283368D01*
X47740000Y50457760D01*
X47856525Y50283368D01*
X48063368Y50076525D01*
X48306589Y49914010D01*
X48576842Y49802068D01*
X48863740Y49745000D01*
X49156260Y49745000D01*
X49443158Y49802068D01*
X49713411Y49914010D01*
X49956632Y50076525D01*
X50163475Y50283368D01*
X50280000Y50457760D01*
X50396525Y50283368D01*
X50603368Y50076525D01*
X50846589Y49914010D01*
X51116842Y49802068D01*
X51403740Y49745000D01*
X51696260Y49745000D01*
X51983158Y49802068D01*
X52253411Y49914010D01*
X52496632Y50076525D01*
X52703475Y50283368D01*
X52820000Y50457760D01*
X52936525Y50283368D01*
X53143368Y50076525D01*
X53386589Y49914010D01*
X53656842Y49802068D01*
X53943740Y49745000D01*
X54236260Y49745000D01*
X54523158Y49802068D01*
X54793411Y49914010D01*
X55036632Y50076525D01*
X55243475Y50283368D01*
X55360000Y50457760D01*
X55476525Y50283368D01*
X55683368Y50076525D01*
X55926589Y49914010D01*
X56196842Y49802068D01*
X56483740Y49745000D01*
X56776260Y49745000D01*
X57063158Y49802068D01*
X57333411Y49914010D01*
X57355000Y49928435D01*
X57355000Y49912381D01*
X57350235Y49864000D01*
X57362258Y49741928D01*
X57369253Y49670907D01*
X57425576Y49485234D01*
X57499365Y49347183D01*
X57250273Y49244005D01*
X57021465Y49091120D01*
X56826880Y48896535D01*
X56673995Y48667727D01*
X56642000Y48590485D01*
X56610005Y48667727D01*
X56457120Y48896535D01*
X56262535Y49091120D01*
X56033727Y49244005D01*
X55779490Y49349314D01*
X55509592Y49403000D01*
X55234408Y49403000D01*
X54964510Y49349314D01*
X54710273Y49244005D01*
X54481465Y49091120D01*
X54286880Y48896535D01*
X54133995Y48667727D01*
X54102000Y48590485D01*
X54070005Y48667727D01*
X53917120Y48896535D01*
X53722535Y49091120D01*
X53493727Y49244005D01*
X53239490Y49349314D01*
X52969592Y49403000D01*
X52694408Y49403000D01*
X52424510Y49349314D01*
X52170273Y49244005D01*
X51941465Y49091120D01*
X51746880Y48896535D01*
X51593995Y48667727D01*
X51562000Y48590485D01*
X51530005Y48667727D01*
X51377120Y48896535D01*
X51182535Y49091120D01*
X50953727Y49244005D01*
X50699490Y49349314D01*
X50429592Y49403000D01*
X50154408Y49403000D01*
X49884510Y49349314D01*
X49630273Y49244005D01*
X49401465Y49091120D01*
X49206880Y48896535D01*
X49053995Y48667727D01*
X49022000Y48590485D01*
X48990005Y48667727D01*
X48837120Y48896535D01*
X48642535Y49091120D01*
X48413727Y49244005D01*
X48159490Y49349314D01*
X47889592Y49403000D01*
X47614408Y49403000D01*
X47344510Y49349314D01*
X47090273Y49244005D01*
X46861465Y49091120D01*
X46666880Y48896535D01*
X46513995Y48667727D01*
X46482000Y48590485D01*
X46450005Y48667727D01*
X46297120Y48896535D01*
X46102535Y49091120D01*
X45873727Y49244005D01*
X45619490Y49349314D01*
X45349592Y49403000D01*
X45074408Y49403000D01*
X44804510Y49349314D01*
X44550273Y49244005D01*
X44321465Y49091120D01*
X44126880Y48896535D01*
X43973995Y48667727D01*
X43942000Y48590485D01*
X43910005Y48667727D01*
X43757120Y48896535D01*
X43562535Y49091120D01*
X43333727Y49244005D01*
X43079490Y49349314D01*
X42809592Y49403000D01*
X42534408Y49403000D01*
X42264510Y49349314D01*
X42010273Y49244005D01*
X41781465Y49091120D01*
X41586880Y48896535D01*
X41433995Y48667727D01*
X41402000Y48590485D01*
X41370005Y48667727D01*
X41217120Y48896535D01*
X41022535Y49091120D01*
X40793727Y49244005D01*
X40539490Y49349314D01*
X40269592Y49403000D01*
X39994408Y49403000D01*
X39724510Y49349314D01*
X39470273Y49244005D01*
X39241465Y49091120D01*
X39046880Y48896535D01*
X38893995Y48667727D01*
X38862000Y48590485D01*
X38830005Y48667727D01*
X38677120Y48896535D01*
X38482535Y49091120D01*
X38253727Y49244005D01*
X37999490Y49349314D01*
X37729592Y49403000D01*
X37454408Y49403000D01*
X37184510Y49349314D01*
X36930273Y49244005D01*
X36701465Y49091120D01*
X36506880Y48896535D01*
X36353995Y48667727D01*
X36322000Y48590485D01*
X36290005Y48667727D01*
X36137120Y48896535D01*
X35942535Y49091120D01*
X35713727Y49244005D01*
X35459490Y49349314D01*
X35189592Y49403000D01*
X34914408Y49403000D01*
X34644510Y49349314D01*
X34390273Y49244005D01*
X34161465Y49091120D01*
X33966880Y48896535D01*
X33813995Y48667727D01*
X33782000Y48590485D01*
X33750005Y48667727D01*
X33597120Y48896535D01*
X33402535Y49091120D01*
X33173727Y49244005D01*
X32919490Y49349314D01*
X32649592Y49403000D01*
X32374408Y49403000D01*
X32104510Y49349314D01*
X31850273Y49244005D01*
X31621465Y49091120D01*
X31426880Y48896535D01*
X31273995Y48667727D01*
X31242000Y48590485D01*
X31210005Y48667727D01*
X31057120Y48896535D01*
X30862535Y49091120D01*
X30633727Y49244005D01*
X30379490Y49349314D01*
X30109592Y49403000D01*
X29834408Y49403000D01*
X29564510Y49349314D01*
X29310273Y49244005D01*
X29081465Y49091120D01*
X28886880Y48896535D01*
X28733995Y48667727D01*
X28702000Y48590485D01*
X28670005Y48667727D01*
X28517120Y48896535D01*
X28322535Y49091120D01*
X28093727Y49244005D01*
X27839490Y49349314D01*
X27569592Y49403000D01*
X27294408Y49403000D01*
X27024510Y49349314D01*
X26770273Y49244005D01*
X26541465Y49091120D01*
X26346880Y48896535D01*
X26193995Y48667727D01*
X26162000Y48590485D01*
X26130005Y48667727D01*
X25977120Y48896535D01*
X25782535Y49091120D01*
X25553727Y49244005D01*
X25299490Y49349314D01*
X25029592Y49403000D01*
X24754408Y49403000D01*
X24484510Y49349314D01*
X24230273Y49244005D01*
X24001465Y49091120D01*
X23806880Y48896535D01*
X23653995Y48667727D01*
X23622000Y48590485D01*
X23590005Y48667727D01*
X23437120Y48896535D01*
X23242535Y49091120D01*
X23013727Y49244005D01*
X22759490Y49349314D01*
X22489592Y49403000D01*
X22214408Y49403000D01*
X21944510Y49349314D01*
X21690273Y49244005D01*
X21461465Y49091120D01*
X21266880Y48896535D01*
X21113995Y48667727D01*
X21082000Y48590485D01*
X21050005Y48667727D01*
X20897120Y48896535D01*
X20702535Y49091120D01*
X20473727Y49244005D01*
X20219490Y49349314D01*
X19949592Y49403000D01*
X19674408Y49403000D01*
X19404510Y49349314D01*
X19150273Y49244005D01*
X18921465Y49091120D01*
X18726880Y48896535D01*
X18573995Y48667727D01*
X18542000Y48590485D01*
X18510005Y48667727D01*
X18357120Y48896535D01*
X18162535Y49091120D01*
X17933727Y49244005D01*
X17679490Y49349314D01*
X17409592Y49403000D01*
X17134408Y49403000D01*
X16864510Y49349314D01*
X16610273Y49244005D01*
X16381465Y49091120D01*
X16186880Y48896535D01*
X16033995Y48667727D01*
X16002000Y48590485D01*
X15970005Y48667727D01*
X15817120Y48896535D01*
X15622535Y49091120D01*
X15393727Y49244005D01*
X15139490Y49349314D01*
X14869592Y49403000D01*
X14594408Y49403000D01*
X14324510Y49349314D01*
X14070273Y49244005D01*
X13841465Y49091120D01*
X13646880Y48896535D01*
X13493995Y48667727D01*
X13388686Y48413490D01*
X13335000Y48143592D01*
X13335000Y47868408D01*
X13388686Y47598510D01*
X13493995Y47344273D01*
X13646880Y47115465D01*
X13841465Y46920880D01*
X14070273Y46767995D01*
X14324510Y46662686D01*
X14594408Y46609000D01*
X14869592Y46609000D01*
X15139490Y46662686D01*
X15393727Y46767995D01*
X15622535Y46920880D01*
X15817120Y47115465D01*
X15970005Y47344273D01*
X16002000Y47421515D01*
X16033995Y47344273D01*
X16186880Y47115465D01*
X16381465Y46920880D01*
X16610273Y46767995D01*
X16864510Y46662686D01*
X17134408Y46609000D01*
X17409592Y46609000D01*
X17679490Y46662686D01*
X17933727Y46767995D01*
X18162535Y46920880D01*
X18357120Y47115465D01*
X18510005Y47344273D01*
X18542000Y47421515D01*
X18573995Y47344273D01*
X18726880Y47115465D01*
X18921465Y46920880D01*
X19150273Y46767995D01*
X19404510Y46662686D01*
X19674408Y46609000D01*
X19949592Y46609000D01*
X20219490Y46662686D01*
X20473727Y46767995D01*
X20702535Y46920880D01*
X20897120Y47115465D01*
X21050005Y47344273D01*
X21082000Y47421515D01*
X21113995Y47344273D01*
X21266880Y47115465D01*
X21461465Y46920880D01*
X21690273Y46767995D01*
X21944510Y46662686D01*
X22214408Y46609000D01*
X22489592Y46609000D01*
X22759490Y46662686D01*
X23013727Y46767995D01*
X23242535Y46920880D01*
X23437120Y47115465D01*
X23590005Y47344273D01*
X23622000Y47421515D01*
X23653995Y47344273D01*
X23806880Y47115465D01*
X24001465Y46920880D01*
X24230273Y46767995D01*
X24484510Y46662686D01*
X24754408Y46609000D01*
X25029592Y46609000D01*
X25299490Y46662686D01*
X25553727Y46767995D01*
X25782535Y46920880D01*
X25977120Y47115465D01*
X26130005Y47344273D01*
X26162000Y47421515D01*
X26193995Y47344273D01*
X26346880Y47115465D01*
X26541465Y46920880D01*
X26770273Y46767995D01*
X27024510Y46662686D01*
X27294408Y46609000D01*
X27569592Y46609000D01*
X27839490Y46662686D01*
X28093727Y46767995D01*
X28322535Y46920880D01*
X28517120Y47115465D01*
X28670005Y47344273D01*
X28702000Y47421515D01*
X28733995Y47344273D01*
X28886880Y47115465D01*
X29081465Y46920880D01*
X29310273Y46767995D01*
X29564510Y46662686D01*
X29834408Y46609000D01*
X30109592Y46609000D01*
X30379490Y46662686D01*
X30633727Y46767995D01*
X30862535Y46920880D01*
X31057120Y47115465D01*
X31210005Y47344273D01*
X31242000Y47421515D01*
X31273995Y47344273D01*
X31426880Y47115465D01*
X31621465Y46920880D01*
X31850273Y46767995D01*
X32104510Y46662686D01*
X32374408Y46609000D01*
X32649592Y46609000D01*
X32919490Y46662686D01*
X33173727Y46767995D01*
X33402535Y46920880D01*
X33597120Y47115465D01*
X33750005Y47344273D01*
X33782000Y47421515D01*
X33813995Y47344273D01*
X33966880Y47115465D01*
X34161465Y46920880D01*
X34390273Y46767995D01*
X34644510Y46662686D01*
X34914408Y46609000D01*
X35189592Y46609000D01*
X35459490Y46662686D01*
X35713727Y46767995D01*
X35942535Y46920880D01*
X36137120Y47115465D01*
X36290005Y47344273D01*
X36322000Y47421515D01*
X36353995Y47344273D01*
X36506880Y47115465D01*
X36701465Y46920880D01*
X36930273Y46767995D01*
X37184510Y46662686D01*
X37454408Y46609000D01*
X37729592Y46609000D01*
X37999490Y46662686D01*
X38253727Y46767995D01*
X38482535Y46920880D01*
X38677120Y47115465D01*
X38830005Y47344273D01*
X38862000Y47421515D01*
X38893995Y47344273D01*
X39046880Y47115465D01*
X39241465Y46920880D01*
X39470273Y46767995D01*
X39724510Y46662686D01*
X39994408Y46609000D01*
X40269592Y46609000D01*
X40539490Y46662686D01*
X40793727Y46767995D01*
X41022535Y46920880D01*
X41217120Y47115465D01*
X41370005Y47344273D01*
X41402000Y47421515D01*
X41433995Y47344273D01*
X41586880Y47115465D01*
X41781465Y46920880D01*
X42010273Y46767995D01*
X42264510Y46662686D01*
X42534408Y46609000D01*
X42809592Y46609000D01*
X43079490Y46662686D01*
X43333727Y46767995D01*
X43562535Y46920880D01*
X43757120Y47115465D01*
X43910005Y47344273D01*
X43942000Y47421515D01*
X43973995Y47344273D01*
X44126880Y47115465D01*
X44321465Y46920880D01*
X44550273Y46767995D01*
X44804510Y46662686D01*
X45074408Y46609000D01*
X45349592Y46609000D01*
X45619490Y46662686D01*
X45873727Y46767995D01*
X46102535Y46920880D01*
X46297120Y47115465D01*
X46450005Y47344273D01*
X46482000Y47421515D01*
X46513995Y47344273D01*
X46666880Y47115465D01*
X46861465Y46920880D01*
X47090273Y46767995D01*
X47344510Y46662686D01*
X47614408Y46609000D01*
X47889592Y46609000D01*
X48159490Y46662686D01*
X48413727Y46767995D01*
X48642535Y46920880D01*
X48837120Y47115465D01*
X48990005Y47344273D01*
X49022000Y47421515D01*
X49053995Y47344273D01*
X49206880Y47115465D01*
X49401465Y46920880D01*
X49630273Y46767995D01*
X49884510Y46662686D01*
X50154408Y46609000D01*
X50429592Y46609000D01*
X50699490Y46662686D01*
X50953727Y46767995D01*
X51182535Y46920880D01*
X51377120Y47115465D01*
X51530005Y47344273D01*
X51562000Y47421515D01*
X51593995Y47344273D01*
X51746880Y47115465D01*
X51941465Y46920880D01*
X52170273Y46767995D01*
X52424510Y46662686D01*
X52694408Y46609000D01*
X52969592Y46609000D01*
X53239490Y46662686D01*
X53493727Y46767995D01*
X53722535Y46920880D01*
X53917120Y47115465D01*
X54070005Y47344273D01*
X54102000Y47421515D01*
X54133995Y47344273D01*
X54286880Y47115465D01*
X54387001Y47015344D01*
X54387000Y31798380D01*
X54382235Y31750000D01*
X54387000Y31701621D01*
X54401253Y31556907D01*
X54457576Y31371234D01*
X54549040Y31200116D01*
X54672130Y31050130D01*
X54709716Y31019284D01*
X58451289Y27277710D01*
X58482130Y27240130D01*
X58519709Y27209290D01*
X58632116Y27117040D01*
X58803233Y27025576D01*
X58988906Y26969253D01*
X59182000Y26950235D01*
X59230380Y26955000D01*
X61011379Y26955000D01*
X61044498Y26845820D01*
X61103463Y26735506D01*
X61182815Y26638815D01*
X61279506Y26559463D01*
X61389820Y26500498D01*
X61509518Y26464188D01*
X61634000Y26451928D01*
X63334000Y26451928D01*
X63458482Y26464188D01*
X63578180Y26500498D01*
X63688494Y26559463D01*
X63785185Y26638815D01*
X63864537Y26735506D01*
X63923502Y26845820D01*
X63959812Y26965518D01*
X63972072Y27090000D01*
X63972072Y28790000D01*
X63959812Y28914482D01*
X63923502Y29034180D01*
X63864537Y29144494D01*
X63785185Y29241185D01*
X63688494Y29320537D01*
X63578180Y29379502D01*
X63505620Y29401513D01*
X63637475Y29533368D01*
X63799990Y29776589D01*
X63911932Y30046842D01*
X63969000Y30333740D01*
X63969000Y30626260D01*
X63911932Y30913158D01*
X63799990Y31183411D01*
X63637475Y31426632D01*
X63469000Y31595107D01*
X63469000Y34837928D01*
X63584000Y34837928D01*
X63708482Y34850188D01*
X63828180Y34886498D01*
X63938494Y34945463D01*
X64035185Y35024815D01*
X64114537Y35121506D01*
X64173502Y35231820D01*
X64209812Y35351518D01*
X64222072Y35476000D01*
X64222072Y37676000D01*
X64209812Y37800482D01*
X64173502Y37920180D01*
X64114537Y38030494D01*
X64035185Y38127185D01*
X63938494Y38206537D01*
X63828180Y38265502D01*
X63708482Y38301812D01*
X63584000Y38314072D01*
X61384000Y38314072D01*
X61259518Y38301812D01*
X61139820Y38265502D01*
X61029506Y38206537D01*
X60932815Y38127185D01*
X60853463Y38030494D01*
X60794498Y37920180D01*
X60758188Y37800482D01*
X60745928Y37676000D01*
X60745928Y35476000D01*
X60758188Y35351518D01*
X60794498Y35231820D01*
X60853463Y35121506D01*
X60932815Y35024815D01*
X61029506Y34945463D01*
X61139820Y34886498D01*
X61259518Y34850188D01*
X61384000Y34837928D01*
X61499000Y34837928D01*
X61499001Y31595108D01*
X61330525Y31426632D01*
X61168010Y31183411D01*
X61056068Y30913158D01*
X60999000Y30626260D01*
X60999000Y30333740D01*
X61056068Y30046842D01*
X61168010Y29776589D01*
X61330525Y29533368D01*
X61462380Y29401513D01*
X61389820Y29379502D01*
X61279506Y29320537D01*
X61182815Y29241185D01*
X61103463Y29144494D01*
X61044498Y29034180D01*
X61011379Y28925000D01*
X59590001Y28925000D01*
X56357000Y32158000D01*
X56357000Y47015345D01*
X56457120Y47115465D01*
X56610005Y47344273D01*
X56642000Y47421515D01*
X56673995Y47344273D01*
X56826880Y47115465D01*
X57021465Y46920880D01*
X57250273Y46767995D01*
X57504510Y46662686D01*
X57774408Y46609000D01*
X58049592Y46609000D01*
X58319490Y46662686D01*
X58573727Y46767995D01*
X58802535Y46920880D01*
X58997120Y47115465D01*
X59150005Y47344273D01*
X59242771Y47568228D01*
X59467289Y47343710D01*
X59498130Y47306130D01*
X59535709Y47275290D01*
X59648116Y47183040D01*
X59819233Y47091576D01*
X60004906Y47035253D01*
X60198000Y47016235D01*
X60246380Y47021000D01*
X60771699Y47021000D01*
X60749000Y46906883D01*
X60749000Y46565117D01*
X60815675Y46229919D01*
X60946463Y45914169D01*
X61136337Y45630002D01*
X61378002Y45388337D01*
X61662169Y45198463D01*
X61977919Y45067675D01*
X62313117Y45001000D01*
X62654883Y45001000D01*
X62990081Y45067675D01*
X63305831Y45198463D01*
X63589998Y45388337D01*
X63831663Y45630002D01*
X64021537Y45914169D01*
X64152325Y46229919D01*
X64219000Y46565117D01*
X64219000Y46906883D01*
X64152325Y47242081D01*
X64021537Y47557831D01*
X63831663Y47841998D01*
X63589998Y48083663D01*
X63305831Y48273537D01*
X62990081Y48404325D01*
X62654883Y48471000D01*
X62313117Y48471000D01*
X62170390Y48442610D01*
X61944716Y48668284D01*
X61913870Y48705870D01*
X61763884Y48828960D01*
X61640332Y48895000D01*
X64315001Y48895000D01*
X64315000Y14389294D01*
X64179727Y14479680D01*
X63918574Y14587853D01*
X63641335Y14643000D01*
X63358665Y14643000D01*
X63081426Y14587853D01*
X62820273Y14479680D01*
X62585241Y14322637D01*
X62385363Y14122759D01*
X62228320Y13887727D01*
X62120147Y13626574D01*
X62065000Y13349335D01*
X62065000Y13066665D01*
X62120147Y12789426D01*
X62228320Y12528273D01*
X62385363Y12293241D01*
X62585241Y12093363D01*
X62820273Y11936320D01*
X63081426Y11828147D01*
X63358665Y11773000D01*
X63641335Y11773000D01*
X63918574Y11828147D01*
X64179727Y11936320D01*
X64315000Y12026706D01*
X64315000Y7493000D01*
X58420000Y7493000D01*
X58395224Y7490560D01*
X58371399Y7483333D01*
X58349443Y7471597D01*
X58330197Y7455803D01*
X58314403Y7436557D01*
X58302667Y7414601D01*
X58295440Y7390776D01*
X58293000Y7366000D01*
X58293000Y685000D01*
X7239000Y685000D01*
X7239000Y6376000D01*
X10907928Y6376000D01*
X10907928Y3276000D01*
X10924992Y3102746D01*
X10975528Y2936150D01*
X11057595Y2782614D01*
X11168038Y2648038D01*
X11302614Y2537595D01*
X11456150Y2455528D01*
X11622746Y2404992D01*
X11796000Y2387928D01*
X13096000Y2387928D01*
X13269254Y2404992D01*
X13435850Y2455528D01*
X13589386Y2537595D01*
X13723962Y2648038D01*
X13834405Y2782614D01*
X13916472Y2936150D01*
X13967008Y3102746D01*
X13984072Y3276000D01*
X13984072Y5801407D01*
X15991000Y5801407D01*
X15991000Y3850592D01*
X16013211Y3625087D01*
X16100984Y3335739D01*
X16243520Y3069073D01*
X16435340Y2835339D01*
X16669074Y2643519D01*
X16935740Y2500983D01*
X17225088Y2413210D01*
X17526000Y2383573D01*
X17826913Y2413210D01*
X18116261Y2500983D01*
X18382927Y2643519D01*
X18616661Y2835339D01*
X18808481Y3069073D01*
X18951017Y3335739D01*
X19038790Y3625087D01*
X19061000Y3850592D01*
X19061000Y5801407D01*
X21071000Y5801407D01*
X21071000Y3850592D01*
X21093211Y3625087D01*
X21180984Y3335739D01*
X21323520Y3069073D01*
X21515340Y2835339D01*
X21749074Y2643519D01*
X22015740Y2500983D01*
X22305088Y2413210D01*
X22606000Y2383573D01*
X22906913Y2413210D01*
X23196261Y2500983D01*
X23462927Y2643519D01*
X23696661Y2835339D01*
X23888481Y3069073D01*
X24031017Y3335739D01*
X24118790Y3625087D01*
X24141000Y3850592D01*
X24141000Y5801408D01*
X24118790Y6026913D01*
X24031017Y6316261D01*
X23999086Y6376000D01*
X28433928Y6376000D01*
X28433928Y3276000D01*
X28450992Y3102746D01*
X28501528Y2936150D01*
X28583595Y2782614D01*
X28694038Y2648038D01*
X28828614Y2537595D01*
X28982150Y2455528D01*
X29148746Y2404992D01*
X29322000Y2387928D01*
X30622000Y2387928D01*
X30795254Y2404992D01*
X30961850Y2455528D01*
X31115386Y2537595D01*
X31249962Y2648038D01*
X31360405Y2782614D01*
X31442472Y2936150D01*
X31493008Y3102746D01*
X31510072Y3276000D01*
X31510072Y4699000D01*
X33517000Y4699000D01*
X33517000Y3799000D01*
X33571271Y3501977D01*
X33682446Y3221249D01*
X33846252Y2967604D01*
X34056394Y2750790D01*
X34304796Y2579138D01*
X34581913Y2459245D01*
X34687260Y2434964D01*
X34925000Y2555622D01*
X34925000Y4699000D01*
X35179000Y4699000D01*
X35179000Y2555622D01*
X35416740Y2434964D01*
X35522087Y2459245D01*
X35799204Y2579138D01*
X36047606Y2750790D01*
X36257748Y2967604D01*
X36421554Y3221249D01*
X36532729Y3501977D01*
X36587000Y3799000D01*
X36587000Y4699000D01*
X35179000Y4699000D01*
X34925000Y4699000D01*
X33517000Y4699000D01*
X31510072Y4699000D01*
X31510072Y5853000D01*
X33517000Y5853000D01*
X33517000Y4953000D01*
X34925000Y4953000D01*
X34925000Y7096378D01*
X35179000Y7096378D01*
X35179000Y4953000D01*
X36587000Y4953000D01*
X36587000Y5801407D01*
X38597000Y5801407D01*
X38597000Y3850592D01*
X38619211Y3625087D01*
X38706984Y3335739D01*
X38849520Y3069073D01*
X39041340Y2835339D01*
X39275074Y2643519D01*
X39541740Y2500983D01*
X39831088Y2413210D01*
X40132000Y2383573D01*
X40432913Y2413210D01*
X40722261Y2500983D01*
X40988927Y2643519D01*
X41222661Y2835339D01*
X41414481Y3069073D01*
X41557017Y3335739D01*
X41644790Y3625087D01*
X41667000Y3850592D01*
X41667000Y5801408D01*
X41644790Y6026913D01*
X41557017Y6316261D01*
X41414481Y6582927D01*
X41222661Y6816661D01*
X40988926Y7008481D01*
X40722260Y7151017D01*
X40432912Y7238790D01*
X40132000Y7268427D01*
X39831087Y7238790D01*
X39541739Y7151017D01*
X39275073Y7008481D01*
X39041339Y6816661D01*
X38849519Y6582926D01*
X38706983Y6316260D01*
X38619210Y6026912D01*
X38597000Y5801407D01*
X36587000Y5801407D01*
X36587000Y5853000D01*
X36532729Y6150023D01*
X36421554Y6430751D01*
X36257748Y6684396D01*
X36047606Y6901210D01*
X35799204Y7072862D01*
X35522087Y7192755D01*
X35416740Y7217036D01*
X35179000Y7096378D01*
X34925000Y7096378D01*
X34687260Y7217036D01*
X34581913Y7192755D01*
X34304796Y7072862D01*
X34056394Y6901210D01*
X33846252Y6684396D01*
X33682446Y6430751D01*
X33571271Y6150023D01*
X33517000Y5853000D01*
X31510072Y5853000D01*
X31510072Y6376000D01*
X31493008Y6549254D01*
X31442472Y6715850D01*
X31360405Y6869386D01*
X31249962Y7003962D01*
X31115386Y7114405D01*
X30961850Y7196472D01*
X30795254Y7247008D01*
X30622000Y7264072D01*
X29322000Y7264072D01*
X29148746Y7247008D01*
X28982150Y7196472D01*
X28828614Y7114405D01*
X28694038Y7003962D01*
X28583595Y6869386D01*
X28501528Y6715850D01*
X28450992Y6549254D01*
X28433928Y6376000D01*
X23999086Y6376000D01*
X23888481Y6582927D01*
X23696661Y6816661D01*
X23462926Y7008481D01*
X23196260Y7151017D01*
X22906912Y7238790D01*
X22606000Y7268427D01*
X22305087Y7238790D01*
X22015739Y7151017D01*
X21749073Y7008481D01*
X21515339Y6816661D01*
X21323519Y6582926D01*
X21180983Y6316260D01*
X21093210Y6026912D01*
X21071000Y5801407D01*
X19061000Y5801407D01*
X19061000Y5801408D01*
X19038790Y6026913D01*
X18951017Y6316261D01*
X18808481Y6582927D01*
X18616661Y6816661D01*
X18382926Y7008481D01*
X18116260Y7151017D01*
X17826912Y7238790D01*
X17526000Y7268427D01*
X17225087Y7238790D01*
X16935739Y7151017D01*
X16669073Y7008481D01*
X16435339Y6816661D01*
X16243519Y6582926D01*
X16100983Y6316260D01*
X16013210Y6026912D01*
X15991000Y5801407D01*
X13984072Y5801407D01*
X13984072Y6376000D01*
X13967008Y6549254D01*
X13916472Y6715850D01*
X13834405Y6869386D01*
X13723962Y7003962D01*
X13589386Y7114405D01*
X13435850Y7196472D01*
X13269254Y7247008D01*
X13096000Y7264072D01*
X11796000Y7264072D01*
X11622746Y7247008D01*
X11456150Y7196472D01*
X11302614Y7114405D01*
X11168038Y7003962D01*
X11057595Y6869386D01*
X10975528Y6715850D01*
X10924992Y6549254D01*
X10907928Y6376000D01*
X7239000Y6376000D01*
X7239000Y7366000D01*
X7236560Y7390776D01*
X7229333Y7414601D01*
X7217597Y7436557D01*
X7201803Y7455803D01*
X7182557Y7471597D01*
X7160601Y7483333D01*
X7136776Y7490560D01*
X7112000Y7493000D01*
X889000Y7493000D01*
X889000Y10009554D01*
X1358656Y9539897D01*
X1309000Y9290260D01*
X1309000Y8997740D01*
X1366068Y8710842D01*
X1478010Y8440589D01*
X1640525Y8197368D01*
X1847368Y7990525D01*
X2090589Y7828010D01*
X2360842Y7716068D01*
X2647740Y7659000D01*
X2940260Y7659000D01*
X3227158Y7716068D01*
X3497411Y7828010D01*
X3740632Y7990525D01*
X3872487Y8122380D01*
X3894498Y8049820D01*
X3953463Y7939506D01*
X4032815Y7842815D01*
X4129506Y7763463D01*
X4239820Y7704498D01*
X4359518Y7668188D01*
X4484000Y7655928D01*
X6184000Y7655928D01*
X6308482Y7668188D01*
X6428180Y7704498D01*
X6538494Y7763463D01*
X6635185Y7842815D01*
X6714537Y7939506D01*
X6773502Y8049820D01*
X6809812Y8169518D01*
X6822072Y8294000D01*
X6822072Y9994000D01*
X6809812Y10118482D01*
X6773502Y10238180D01*
X6714537Y10348494D01*
X6635185Y10445185D01*
X6629388Y10449942D01*
X7382447Y11203000D01*
X16219895Y11203000D01*
X16256000Y11199444D01*
X16292105Y11203000D01*
X16400085Y11213635D01*
X16538633Y11255663D01*
X16666320Y11323913D01*
X16778238Y11415762D01*
X16801258Y11443812D01*
X17384103Y12026656D01*
X17633740Y11977000D01*
X17926260Y11977000D01*
X18213158Y12034068D01*
X18483411Y12146010D01*
X18726632Y12308525D01*
X18933475Y12515368D01*
X19050000Y12689760D01*
X19166525Y12515368D01*
X19373368Y12308525D01*
X19616589Y12146010D01*
X19886842Y12034068D01*
X20173740Y11977000D01*
X20466260Y11977000D01*
X20753158Y12034068D01*
X21023411Y12146010D01*
X21266632Y12308525D01*
X21398487Y12440380D01*
X21420498Y12367820D01*
X21479463Y12257506D01*
X21558815Y12160815D01*
X21655506Y12081463D01*
X21765820Y12022498D01*
X21885518Y11986188D01*
X22010000Y11973928D01*
X22574250Y11977000D01*
X22733000Y12135750D01*
X22733000Y13335000D01*
X22987000Y13335000D01*
X22987000Y12135750D01*
X23145750Y11977000D01*
X23710000Y11973928D01*
X23834482Y11986188D01*
X23954180Y12022498D01*
X24064494Y12081463D01*
X24161185Y12160815D01*
X24240537Y12257506D01*
X24299502Y12367820D01*
X24335812Y12487518D01*
X24348072Y12612000D01*
X24345000Y13176250D01*
X24186250Y13335000D01*
X22987000Y13335000D01*
X22733000Y13335000D01*
X22713000Y13335000D01*
X22713000Y13589000D01*
X22733000Y13589000D01*
X22733000Y13609000D01*
X22987000Y13609000D01*
X22987000Y13589000D01*
X24186250Y13589000D01*
X24345000Y13747750D01*
X24347740Y14251000D01*
X25435252Y14251000D01*
X25555363Y14071241D01*
X25755241Y13871363D01*
X25990273Y13714320D01*
X26251426Y13606147D01*
X26528665Y13551000D01*
X26811335Y13551000D01*
X27088574Y13606147D01*
X27349727Y13714320D01*
X27584759Y13871363D01*
X27706694Y13993298D01*
X41096903Y13993298D01*
X41168486Y13749329D01*
X41423996Y13628429D01*
X41698184Y13559700D01*
X41980512Y13545783D01*
X42260130Y13587213D01*
X42526292Y13682397D01*
X42651514Y13749329D01*
X42723097Y13993298D01*
X41910000Y14806395D01*
X41096903Y13993298D01*
X27706694Y13993298D01*
X27784637Y14071241D01*
X27941680Y14306273D01*
X28049853Y14567426D01*
X28105000Y14844665D01*
X28105000Y14915488D01*
X40469783Y14915488D01*
X40511213Y14635870D01*
X40606397Y14369708D01*
X40673329Y14244486D01*
X40917298Y14172903D01*
X41730395Y14986000D01*
X40917298Y15799097D01*
X40673329Y15727514D01*
X40552429Y15472004D01*
X40483700Y15197816D01*
X40469783Y14915488D01*
X28105000Y14915488D01*
X28105000Y15127335D01*
X28049853Y15404574D01*
X27941680Y15665727D01*
X27784637Y15900759D01*
X27706694Y15978702D01*
X41096903Y15978702D01*
X41910000Y15165605D01*
X42723097Y15978702D01*
X42651514Y16222671D01*
X42396004Y16343571D01*
X42121816Y16412300D01*
X41839488Y16426217D01*
X41559870Y16384787D01*
X41293708Y16289603D01*
X41168486Y16222671D01*
X41096903Y15978702D01*
X27706694Y15978702D01*
X27584759Y16100637D01*
X27349727Y16257680D01*
X27088574Y16365853D01*
X26811335Y16421000D01*
X26528665Y16421000D01*
X26251426Y16365853D01*
X25990273Y16257680D01*
X25755241Y16100637D01*
X25555363Y15900759D01*
X25435252Y15721000D01*
X16800094Y15721000D01*
X16763999Y15724555D01*
X16727904Y15721000D01*
X16727895Y15721000D01*
X16619915Y15710365D01*
X16481367Y15668337D01*
X16353680Y15600087D01*
X16241762Y15508238D01*
X16218746Y15480193D01*
X15635897Y14897344D01*
X15386260Y14947000D01*
X15093740Y14947000D01*
X14806842Y14889932D01*
X14536589Y14777990D01*
X14293368Y14615475D01*
X14086525Y14408632D01*
X13924010Y14165411D01*
X13812068Y13895158D01*
X13755000Y13608260D01*
X13755000Y13315740D01*
X13812068Y13028842D01*
X13924010Y12758589D01*
X13981199Y12673000D01*
X7114094Y12673000D01*
X7077999Y12676555D01*
X7041904Y12673000D01*
X7041895Y12673000D01*
X6933915Y12662365D01*
X6795367Y12620337D01*
X6667680Y12552087D01*
X6555762Y12460238D01*
X6532746Y12432193D01*
X4839808Y10739254D01*
X4811763Y10716238D01*
X4742690Y10632072D01*
X4484000Y10632072D01*
X4359518Y10619812D01*
X4239820Y10583502D01*
X4129506Y10524537D01*
X4032815Y10445185D01*
X3953463Y10348494D01*
X3894498Y10238180D01*
X3872487Y10165620D01*
X3740632Y10297475D01*
X3497411Y10459990D01*
X3227158Y10571932D01*
X2940260Y10629000D01*
X2647740Y10629000D01*
X2398103Y10579344D01*
X2005000Y10972446D01*
X2005000Y15505199D01*
X2090589Y15448010D01*
X2360842Y15336068D01*
X2647740Y15279000D01*
X2940260Y15279000D01*
X3227158Y15336068D01*
X3497411Y15448010D01*
X3740632Y15610525D01*
X3872487Y15742380D01*
X3894498Y15669820D01*
X3953463Y15559506D01*
X4032815Y15462815D01*
X4129506Y15383463D01*
X4239820Y15324498D01*
X4359518Y15288188D01*
X4484000Y15275928D01*
X6184000Y15275928D01*
X6308482Y15288188D01*
X6428180Y15324498D01*
X6538494Y15383463D01*
X6635185Y15462815D01*
X6714537Y15559506D01*
X6773502Y15669820D01*
X6809812Y15789518D01*
X6822072Y15914000D01*
X6822072Y16029000D01*
X13425895Y16029000D01*
X13462000Y16025444D01*
X13498105Y16029000D01*
X13606085Y16039635D01*
X13744633Y16081663D01*
X13872320Y16149913D01*
X13984238Y16241762D01*
X14007258Y16269812D01*
X14844103Y17106656D01*
X15093740Y17057000D01*
X15386260Y17057000D01*
X15673158Y17114068D01*
X15943411Y17226010D01*
X16186632Y17388525D01*
X16393475Y17595368D01*
X16510000Y17769760D01*
X16626525Y17595368D01*
X16833368Y17388525D01*
X17076589Y17226010D01*
X17346842Y17114068D01*
X17633740Y17057000D01*
X17926260Y17057000D01*
X18213158Y17114068D01*
X18483411Y17226010D01*
X18726632Y17388525D01*
X18933475Y17595368D01*
X19050000Y17769760D01*
X19166525Y17595368D01*
X19373368Y17388525D01*
X19616589Y17226010D01*
X19886842Y17114068D01*
X20173740Y17057000D01*
X20466260Y17057000D01*
X20753158Y17114068D01*
X21023411Y17226010D01*
X21266632Y17388525D01*
X21398487Y17520380D01*
X21420498Y17447820D01*
X21479463Y17337506D01*
X21558815Y17240815D01*
X21655506Y17161463D01*
X21765820Y17102498D01*
X21885518Y17066188D01*
X22010000Y17053928D01*
X22574250Y17057000D01*
X22733000Y17215750D01*
X22733000Y18415000D01*
X22987000Y18415000D01*
X22987000Y17215750D01*
X23145750Y17057000D01*
X23710000Y17053928D01*
X23834482Y17066188D01*
X23954180Y17102498D01*
X24064494Y17161463D01*
X24161185Y17240815D01*
X24240537Y17337506D01*
X24299502Y17447820D01*
X24335812Y17567518D01*
X24348072Y17692000D01*
X24345000Y18256250D01*
X24186250Y18415000D01*
X22987000Y18415000D01*
X22733000Y18415000D01*
X22713000Y18415000D01*
X22713000Y18669000D01*
X22733000Y18669000D01*
X22733000Y19868250D01*
X22987000Y19868250D01*
X22987000Y18669000D01*
X24186250Y18669000D01*
X24200585Y18683335D01*
X25235000Y18683335D01*
X25235000Y18400665D01*
X25290147Y18123426D01*
X25398320Y17862273D01*
X25555363Y17627241D01*
X25755241Y17427363D01*
X25990273Y17270320D01*
X26251426Y17162147D01*
X26528665Y17107000D01*
X26811335Y17107000D01*
X27088574Y17162147D01*
X27349727Y17270320D01*
X27584759Y17427363D01*
X27706694Y17549298D01*
X41096903Y17549298D01*
X41168486Y17305329D01*
X41423996Y17184429D01*
X41698184Y17115700D01*
X41980512Y17101783D01*
X42260130Y17143213D01*
X42526292Y17238397D01*
X42651514Y17305329D01*
X42723097Y17549298D01*
X41910000Y18362395D01*
X41096903Y17549298D01*
X27706694Y17549298D01*
X27784637Y17627241D01*
X27941680Y17862273D01*
X28049853Y18123426D01*
X28105000Y18400665D01*
X28105000Y18471488D01*
X40469783Y18471488D01*
X40511213Y18191870D01*
X40606397Y17925708D01*
X40673329Y17800486D01*
X40917298Y17728903D01*
X41730395Y18542000D01*
X40917298Y19355097D01*
X40673329Y19283514D01*
X40552429Y19028004D01*
X40483700Y18753816D01*
X40469783Y18471488D01*
X28105000Y18471488D01*
X28105000Y18683335D01*
X28049853Y18960574D01*
X27941680Y19221727D01*
X27784637Y19456759D01*
X27706694Y19534702D01*
X41096903Y19534702D01*
X41910000Y18721605D01*
X42723097Y19534702D01*
X42651514Y19778671D01*
X42396004Y19899571D01*
X42121816Y19968300D01*
X41839488Y19982217D01*
X41559870Y19940787D01*
X41293708Y19845603D01*
X41168486Y19778671D01*
X41096903Y19534702D01*
X27706694Y19534702D01*
X27584759Y19656637D01*
X27349727Y19813680D01*
X27088574Y19921853D01*
X26811335Y19977000D01*
X26528665Y19977000D01*
X26251426Y19921853D01*
X25990273Y19813680D01*
X25755241Y19656637D01*
X25555363Y19456759D01*
X25398320Y19221727D01*
X25290147Y18960574D01*
X25235000Y18683335D01*
X24200585Y18683335D01*
X24345000Y18827750D01*
X24348072Y19392000D01*
X24335812Y19516482D01*
X24299502Y19636180D01*
X24240537Y19746494D01*
X24161185Y19843185D01*
X24064494Y19922537D01*
X23954180Y19981502D01*
X23834482Y20017812D01*
X23710000Y20030072D01*
X23145750Y20027000D01*
X22987000Y19868250D01*
X22733000Y19868250D01*
X22574250Y20027000D01*
X22010000Y20030072D01*
X21885518Y20017812D01*
X21765820Y19981502D01*
X21655506Y19922537D01*
X21558815Y19843185D01*
X21479463Y19746494D01*
X21420498Y19636180D01*
X21398487Y19563620D01*
X21266632Y19695475D01*
X21023411Y19857990D01*
X20753158Y19969932D01*
X20466260Y20027000D01*
X20173740Y20027000D01*
X19886842Y19969932D01*
X19616589Y19857990D01*
X19373368Y19695475D01*
X19166525Y19488632D01*
X19050000Y19314240D01*
X18933475Y19488632D01*
X18726632Y19695475D01*
X18483411Y19857990D01*
X18213158Y19969932D01*
X17926260Y20027000D01*
X17633740Y20027000D01*
X17346842Y19969932D01*
X17076589Y19857990D01*
X16833368Y19695475D01*
X16626525Y19488632D01*
X16510000Y19314240D01*
X16393475Y19488632D01*
X16186632Y19695475D01*
X15943411Y19857990D01*
X15673158Y19969932D01*
X15386260Y20027000D01*
X15093740Y20027000D01*
X14806842Y19969932D01*
X14536589Y19857990D01*
X14293368Y19695475D01*
X14086525Y19488632D01*
X13924010Y19245411D01*
X13812068Y18975158D01*
X13755000Y18688260D01*
X13755000Y18395740D01*
X13804656Y18146103D01*
X13157554Y17499000D01*
X6822072Y17499000D01*
X6822072Y17553000D01*
X10123895Y17553000D01*
X10160000Y17549444D01*
X10196105Y17553000D01*
X10304085Y17563635D01*
X10442633Y17605663D01*
X10570320Y17673913D01*
X10682238Y17765762D01*
X10705258Y17793812D01*
X12432197Y19520750D01*
X12460237Y19543762D01*
X12483250Y19571803D01*
X12483253Y19571806D01*
X12552087Y19655680D01*
X12620337Y19783366D01*
X12662365Y19921915D01*
X12676556Y20066000D01*
X12673000Y20102105D01*
X12673000Y24204092D01*
X13335000Y24204092D01*
X13335000Y23928908D01*
X13388686Y23659010D01*
X13493995Y23404773D01*
X13646880Y23175965D01*
X13841465Y22981380D01*
X14070273Y22828495D01*
X14324510Y22723186D01*
X14594408Y22669500D01*
X14869592Y22669500D01*
X15139490Y22723186D01*
X15393727Y22828495D01*
X15622535Y22981380D01*
X15817120Y23175965D01*
X15970005Y23404773D01*
X16002000Y23482015D01*
X16033995Y23404773D01*
X16186880Y23175965D01*
X16381465Y22981380D01*
X16610273Y22828495D01*
X16864510Y22723186D01*
X17134408Y22669500D01*
X17409592Y22669500D01*
X17679490Y22723186D01*
X17933727Y22828495D01*
X18162535Y22981380D01*
X18357120Y23175965D01*
X18510005Y23404773D01*
X18542000Y23482015D01*
X18573995Y23404773D01*
X18726880Y23175965D01*
X18921465Y22981380D01*
X19150273Y22828495D01*
X19404510Y22723186D01*
X19674408Y22669500D01*
X19949592Y22669500D01*
X20219490Y22723186D01*
X20473727Y22828495D01*
X20702535Y22981380D01*
X20897120Y23175965D01*
X21050005Y23404773D01*
X21082000Y23482015D01*
X21113995Y23404773D01*
X21266880Y23175965D01*
X21461465Y22981380D01*
X21690273Y22828495D01*
X21944510Y22723186D01*
X22214408Y22669500D01*
X22489592Y22669500D01*
X22759490Y22723186D01*
X23013727Y22828495D01*
X23242535Y22981380D01*
X23437120Y23175965D01*
X23590005Y23404773D01*
X23622000Y23482015D01*
X23653995Y23404773D01*
X23806880Y23175965D01*
X24001465Y22981380D01*
X24230273Y22828495D01*
X24484510Y22723186D01*
X24754408Y22669500D01*
X25029592Y22669500D01*
X25299490Y22723186D01*
X25553727Y22828495D01*
X25782535Y22981380D01*
X25977120Y23175965D01*
X26130005Y23404773D01*
X26162000Y23482015D01*
X26193995Y23404773D01*
X26346880Y23175965D01*
X26541465Y22981380D01*
X26770273Y22828495D01*
X27024510Y22723186D01*
X27294408Y22669500D01*
X27569592Y22669500D01*
X27839490Y22723186D01*
X28093727Y22828495D01*
X28322535Y22981380D01*
X28517120Y23175965D01*
X28670005Y23404773D01*
X28702000Y23482015D01*
X28733995Y23404773D01*
X28886880Y23175965D01*
X29081465Y22981380D01*
X29237001Y22877454D01*
X29237001Y22642115D01*
X29233444Y22606000D01*
X29247635Y22461915D01*
X29289664Y22323367D01*
X29357914Y22195680D01*
X29449763Y22083762D01*
X29477808Y22060746D01*
X30696746Y20841807D01*
X30719762Y20813762D01*
X30831680Y20721913D01*
X30959367Y20653663D01*
X31097915Y20611635D01*
X31205895Y20601000D01*
X31205904Y20601000D01*
X31241999Y20597445D01*
X31278094Y20601000D01*
X44270133Y20601000D01*
X44328668Y20542464D01*
X44295127Y20528913D01*
X44286682Y20524423D01*
X44115006Y20431598D01*
X44063532Y20396878D01*
X44011582Y20362883D01*
X44004170Y20356838D01*
X43853793Y20232435D01*
X43810027Y20188362D01*
X43765689Y20144943D01*
X43759592Y20137574D01*
X43636242Y19986332D01*
X43601881Y19934614D01*
X43566809Y19883393D01*
X43562260Y19874980D01*
X43470635Y19702657D01*
X43446978Y19645261D01*
X43422519Y19588193D01*
X43419690Y19579057D01*
X43363281Y19392220D01*
X43351219Y19331302D01*
X43338314Y19270590D01*
X43337314Y19261078D01*
X43318269Y19066845D01*
X43318269Y19066827D01*
X43315001Y19033647D01*
X43315001Y18850191D01*
X43308787Y18892130D01*
X43213603Y19158292D01*
X43146671Y19283514D01*
X42902702Y19355097D01*
X42089605Y18542000D01*
X42902702Y17728903D01*
X43146671Y17800486D01*
X43267571Y18055996D01*
X43315001Y18245213D01*
X43315001Y15294192D01*
X43308787Y15336130D01*
X43213603Y15602292D01*
X43146671Y15727514D01*
X42902702Y15799097D01*
X42089605Y14986000D01*
X42902702Y14172903D01*
X43146671Y14244486D01*
X43267571Y14499996D01*
X43315001Y14689212D01*
X43315000Y3966354D01*
X43318366Y3932179D01*
X43318366Y3919194D01*
X43319366Y3909682D01*
X43341121Y3715732D01*
X43354025Y3655024D01*
X43366089Y3594099D01*
X43368917Y3584962D01*
X43427930Y3398932D01*
X43452377Y3341895D01*
X43476046Y3284469D01*
X43480595Y3276056D01*
X43574617Y3105031D01*
X43609692Y3053806D01*
X43644050Y3002094D01*
X43650146Y2994724D01*
X43775596Y2845218D01*
X43819974Y2801760D01*
X43863703Y2757725D01*
X43871109Y2751685D01*
X43871113Y2751681D01*
X43871115Y2751680D01*
X44023214Y2629389D01*
X44075139Y2595411D01*
X44126632Y2560678D01*
X44135077Y2556188D01*
X44308033Y2465768D01*
X44365590Y2442513D01*
X44422835Y2418450D01*
X44431991Y2415685D01*
X44619217Y2360582D01*
X44680218Y2348946D01*
X44741015Y2336466D01*
X44750533Y2335532D01*
X44944895Y2317843D01*
X45006986Y2318277D01*
X45069066Y2317844D01*
X45078585Y2318777D01*
X45272682Y2339178D01*
X45333496Y2351661D01*
X45394481Y2363295D01*
X45403637Y2366059D01*
X45590075Y2423771D01*
X45647279Y2447818D01*
X45704873Y2471087D01*
X45713317Y2475577D01*
X45884994Y2568402D01*
X45936468Y2603122D01*
X45988418Y2637117D01*
X45995829Y2643161D01*
X46146207Y2767565D01*
X46189973Y2811638D01*
X46234311Y2855057D01*
X46240408Y2862426D01*
X46363758Y3013668D01*
X46398126Y3065397D01*
X46433191Y3116608D01*
X46437739Y3125019D01*
X46437740Y3125020D01*
X46437742Y3125024D01*
X46529366Y3297343D01*
X46553022Y3354739D01*
X46577482Y3411807D01*
X46580310Y3420944D01*
X46636719Y3607780D01*
X46648780Y3668690D01*
X46661686Y3729409D01*
X46662686Y3738921D01*
X46681731Y3933155D01*
X46681731Y3933163D01*
X46685000Y3966353D01*
X46685000Y7139554D01*
X47968746Y5855807D01*
X47991762Y5827762D01*
X48103680Y5735913D01*
X48231367Y5667663D01*
X48249000Y5662314D01*
X48249000Y5374593D01*
X48271210Y5149088D01*
X48358983Y4859740D01*
X48501519Y4593074D01*
X48693339Y4359339D01*
X48927073Y4167519D01*
X49193739Y4024983D01*
X49483087Y3937210D01*
X49784000Y3907573D01*
X50084912Y3937210D01*
X50374260Y4024983D01*
X50640926Y4167519D01*
X50874661Y4359339D01*
X51066481Y4593073D01*
X51209017Y4859739D01*
X51296790Y5149087D01*
X51319000Y5374592D01*
X51319000Y7325408D01*
X51296790Y7550913D01*
X51209017Y7840261D01*
X51177086Y7900000D01*
X53325928Y7900000D01*
X53325928Y4800000D01*
X53342992Y4626746D01*
X53393528Y4460150D01*
X53475595Y4306614D01*
X53586038Y4172038D01*
X53720614Y4061595D01*
X53874150Y3979528D01*
X54040746Y3928992D01*
X54214000Y3911928D01*
X55514000Y3911928D01*
X55687254Y3928992D01*
X55853850Y3979528D01*
X56007386Y4061595D01*
X56141962Y4172038D01*
X56252405Y4306614D01*
X56334472Y4460150D01*
X56385008Y4626746D01*
X56402072Y4800000D01*
X56402072Y7900000D01*
X56385008Y8073254D01*
X56334472Y8239850D01*
X56252405Y8393386D01*
X56141962Y8527962D01*
X56007386Y8638405D01*
X55853850Y8720472D01*
X55687254Y8771008D01*
X55514000Y8788072D01*
X54214000Y8788072D01*
X54040746Y8771008D01*
X53874150Y8720472D01*
X53720614Y8638405D01*
X53586038Y8527962D01*
X53475595Y8393386D01*
X53393528Y8239850D01*
X53342992Y8073254D01*
X53325928Y7900000D01*
X51177086Y7900000D01*
X51066481Y8106927D01*
X50874661Y8340661D01*
X50640927Y8532481D01*
X50374261Y8675017D01*
X50084913Y8762790D01*
X49784000Y8792427D01*
X49483088Y8762790D01*
X49193740Y8675017D01*
X48927074Y8532481D01*
X48693340Y8340661D01*
X48501520Y8106927D01*
X48358984Y7840261D01*
X48290138Y7613308D01*
X47217000Y8686446D01*
X47217000Y12221604D01*
X47345241Y12093363D01*
X47580273Y11936320D01*
X47841426Y11828147D01*
X48118665Y11773000D01*
X48401335Y11773000D01*
X48678574Y11828147D01*
X48939727Y11936320D01*
X49174759Y12093363D01*
X49374637Y12293241D01*
X49531680Y12528273D01*
X49639853Y12789426D01*
X49695000Y13066665D01*
X49695000Y13349335D01*
X49639853Y13626574D01*
X49531680Y13887727D01*
X49374637Y14122759D01*
X49174759Y14322637D01*
X48939727Y14479680D01*
X48678574Y14587853D01*
X48401335Y14643000D01*
X48118665Y14643000D01*
X47841426Y14587853D01*
X47580273Y14479680D01*
X47345241Y14322637D01*
X47217000Y14194396D01*
X47217000Y19392474D01*
X47220556Y19428579D01*
X47206365Y19572664D01*
X47164337Y19711213D01*
X47096087Y19838899D01*
X47027253Y19922773D01*
X47027250Y19922776D01*
X47004237Y19950817D01*
X46976197Y19973829D01*
X45119837Y21830188D01*
X45096817Y21858238D01*
X44984899Y21950087D01*
X44857212Y22018337D01*
X44718664Y22060365D01*
X44610684Y22071000D01*
X44574579Y22074556D01*
X44538474Y22071000D01*
X31546447Y22071000D01*
X30726777Y22890669D01*
X30862535Y22981380D01*
X31057120Y23175965D01*
X31210005Y23404773D01*
X31242000Y23482015D01*
X31273995Y23404773D01*
X31426880Y23175965D01*
X31621465Y22981380D01*
X31850273Y22828495D01*
X32104510Y22723186D01*
X32374408Y22669500D01*
X32649592Y22669500D01*
X32919490Y22723186D01*
X33173727Y22828495D01*
X33402535Y22981380D01*
X33597120Y23175965D01*
X33750005Y23404773D01*
X33782000Y23482015D01*
X33813995Y23404773D01*
X33966880Y23175965D01*
X34161465Y22981380D01*
X34390273Y22828495D01*
X34644510Y22723186D01*
X34914408Y22669500D01*
X35189592Y22669500D01*
X35459490Y22723186D01*
X35713727Y22828495D01*
X35942535Y22981380D01*
X36137120Y23175965D01*
X36290005Y23404773D01*
X36353750Y23558666D01*
X36417495Y23404773D01*
X36570380Y23175965D01*
X36764965Y22981380D01*
X36993773Y22828495D01*
X37248010Y22723186D01*
X37517908Y22669500D01*
X37793092Y22669500D01*
X38062990Y22723186D01*
X38317227Y22828495D01*
X38546035Y22981380D01*
X38740620Y23175965D01*
X38893505Y23404773D01*
X38925500Y23482015D01*
X38957495Y23404773D01*
X39110380Y23175965D01*
X39304965Y22981380D01*
X39533773Y22828495D01*
X39788010Y22723186D01*
X40057908Y22669500D01*
X40333092Y22669500D01*
X40602990Y22723186D01*
X40857227Y22828495D01*
X41086035Y22981380D01*
X41280620Y23175965D01*
X41433505Y23404773D01*
X41465500Y23482015D01*
X41497495Y23404773D01*
X41650380Y23175965D01*
X41844965Y22981380D01*
X42073773Y22828495D01*
X42328010Y22723186D01*
X42597908Y22669500D01*
X42873092Y22669500D01*
X43142990Y22723186D01*
X43397227Y22828495D01*
X43626035Y22981380D01*
X43820620Y23175965D01*
X43973505Y23404773D01*
X44005500Y23482015D01*
X44037495Y23404773D01*
X44190380Y23175965D01*
X44384965Y22981380D01*
X44613773Y22828495D01*
X44868010Y22723186D01*
X45137908Y22669500D01*
X45413092Y22669500D01*
X45682990Y22723186D01*
X45937227Y22828495D01*
X46166035Y22981380D01*
X46360620Y23175965D01*
X46513505Y23404773D01*
X46545500Y23482015D01*
X46577495Y23404773D01*
X46730380Y23175965D01*
X46924965Y22981380D01*
X47153773Y22828495D01*
X47408010Y22723186D01*
X47677908Y22669500D01*
X47953092Y22669500D01*
X48222990Y22723186D01*
X48477227Y22828495D01*
X48706035Y22981380D01*
X48900620Y23175965D01*
X49053505Y23404773D01*
X49085500Y23482015D01*
X49117495Y23404773D01*
X49270380Y23175965D01*
X49464965Y22981380D01*
X49693773Y22828495D01*
X49948010Y22723186D01*
X50217908Y22669500D01*
X50493092Y22669500D01*
X50762990Y22723186D01*
X51017227Y22828495D01*
X51246035Y22981380D01*
X51440620Y23175965D01*
X51593505Y23404773D01*
X51625500Y23482015D01*
X51657495Y23404773D01*
X51810380Y23175965D01*
X52004965Y22981380D01*
X52233773Y22828495D01*
X52488010Y22723186D01*
X52757908Y22669500D01*
X53033092Y22669500D01*
X53302990Y22723186D01*
X53557227Y22828495D01*
X53786035Y22981380D01*
X53980620Y23175965D01*
X54133505Y23404773D01*
X54133750Y23405364D01*
X54133995Y23404773D01*
X54286880Y23175965D01*
X54481465Y22981380D01*
X54710273Y22828495D01*
X54964510Y22723186D01*
X55234408Y22669500D01*
X55509592Y22669500D01*
X55779490Y22723186D01*
X56033727Y22828495D01*
X56262535Y22981380D01*
X56457120Y23175965D01*
X56610005Y23404773D01*
X56642000Y23482015D01*
X56673995Y23404773D01*
X56826880Y23175965D01*
X57021465Y22981380D01*
X57250273Y22828495D01*
X57504510Y22723186D01*
X57774408Y22669500D01*
X58049592Y22669500D01*
X58233060Y22705994D01*
X61250022Y19689031D01*
X61248498Y19686180D01*
X61242944Y19667873D01*
X61176505Y19734312D01*
X60925095Y19902299D01*
X60645743Y20018011D01*
X60349184Y20077000D01*
X60046816Y20077000D01*
X59750257Y20018011D01*
X59470905Y19902299D01*
X59219495Y19734312D01*
X59005688Y19520505D01*
X58837701Y19269095D01*
X58721989Y18989743D01*
X58663000Y18693184D01*
X58663000Y18390816D01*
X58721989Y18094257D01*
X58837701Y17814905D01*
X59005688Y17563495D01*
X59219495Y17349688D01*
X59470905Y17181701D01*
X59750257Y17065989D01*
X60046816Y17007000D01*
X60349184Y17007000D01*
X60645743Y17065989D01*
X60925095Y17181701D01*
X61176505Y17349688D01*
X61242944Y17416127D01*
X61248498Y17397820D01*
X61307463Y17287506D01*
X61386815Y17190815D01*
X61483506Y17111463D01*
X61593820Y17052498D01*
X61713518Y17016188D01*
X61838000Y17003928D01*
X63638000Y17003928D01*
X63762482Y17016188D01*
X63882180Y17052498D01*
X63992494Y17111463D01*
X64089185Y17190815D01*
X64168537Y17287506D01*
X64227502Y17397820D01*
X64263812Y17517518D01*
X64276072Y17642000D01*
X64276072Y19442000D01*
X64263812Y19566482D01*
X64227502Y19686180D01*
X64168537Y19796494D01*
X64089185Y19893185D01*
X63992494Y19972537D01*
X63882180Y20031502D01*
X63762482Y20067812D01*
X63638000Y20080072D01*
X62937875Y20080072D01*
X59272506Y23745440D01*
X59309000Y23928908D01*
X59309000Y24204092D01*
X59255314Y24473990D01*
X59150005Y24728227D01*
X58997120Y24957035D01*
X58802535Y25151620D01*
X58573727Y25304505D01*
X58319490Y25409814D01*
X58049592Y25463500D01*
X57774408Y25463500D01*
X57504510Y25409814D01*
X57250273Y25304505D01*
X57021465Y25151620D01*
X56826880Y24957035D01*
X56673995Y24728227D01*
X56642000Y24650985D01*
X56610005Y24728227D01*
X56457120Y24957035D01*
X56262535Y25151620D01*
X56033727Y25304505D01*
X55779490Y25409814D01*
X55509592Y25463500D01*
X55234408Y25463500D01*
X54964510Y25409814D01*
X54710273Y25304505D01*
X54481465Y25151620D01*
X54286880Y24957035D01*
X54133995Y24728227D01*
X54133750Y24727636D01*
X54133505Y24728227D01*
X53980620Y24957035D01*
X53786035Y25151620D01*
X53557227Y25304505D01*
X53302990Y25409814D01*
X53033092Y25463500D01*
X52757908Y25463500D01*
X52488010Y25409814D01*
X52233773Y25304505D01*
X52004965Y25151620D01*
X51810380Y24957035D01*
X51657495Y24728227D01*
X51625500Y24650985D01*
X51593505Y24728227D01*
X51440620Y24957035D01*
X51246035Y25151620D01*
X51017227Y25304505D01*
X50762990Y25409814D01*
X50493092Y25463500D01*
X50217908Y25463500D01*
X49948010Y25409814D01*
X49693773Y25304505D01*
X49464965Y25151620D01*
X49270380Y24957035D01*
X49117495Y24728227D01*
X49085500Y24650985D01*
X49053505Y24728227D01*
X48900620Y24957035D01*
X48706035Y25151620D01*
X48477227Y25304505D01*
X48222990Y25409814D01*
X47953092Y25463500D01*
X47677908Y25463500D01*
X47408010Y25409814D01*
X47153773Y25304505D01*
X46924965Y25151620D01*
X46730380Y24957035D01*
X46577495Y24728227D01*
X46545500Y24650985D01*
X46513505Y24728227D01*
X46360620Y24957035D01*
X46166035Y25151620D01*
X45937227Y25304505D01*
X45682990Y25409814D01*
X45413092Y25463500D01*
X45137908Y25463500D01*
X44868010Y25409814D01*
X44613773Y25304505D01*
X44384965Y25151620D01*
X44190380Y24957035D01*
X44037495Y24728227D01*
X44005500Y24650985D01*
X43973505Y24728227D01*
X43820620Y24957035D01*
X43626035Y25151620D01*
X43397227Y25304505D01*
X43142990Y25409814D01*
X42873092Y25463500D01*
X42597908Y25463500D01*
X42328010Y25409814D01*
X42073773Y25304505D01*
X41844965Y25151620D01*
X41650380Y24957035D01*
X41497495Y24728227D01*
X41465500Y24650985D01*
X41433505Y24728227D01*
X41280620Y24957035D01*
X41086035Y25151620D01*
X40857227Y25304505D01*
X40602990Y25409814D01*
X40333092Y25463500D01*
X40057908Y25463500D01*
X39788010Y25409814D01*
X39533773Y25304505D01*
X39304965Y25151620D01*
X39110380Y24957035D01*
X38957495Y24728227D01*
X38925500Y24650985D01*
X38893505Y24728227D01*
X38740620Y24957035D01*
X38546035Y25151620D01*
X38317227Y25304505D01*
X38062990Y25409814D01*
X37793092Y25463500D01*
X37517908Y25463500D01*
X37248010Y25409814D01*
X36993773Y25304505D01*
X36764965Y25151620D01*
X36570380Y24957035D01*
X36417495Y24728227D01*
X36353750Y24574334D01*
X36290005Y24728227D01*
X36137120Y24957035D01*
X35942535Y25151620D01*
X35713727Y25304505D01*
X35459490Y25409814D01*
X35189592Y25463500D01*
X34914408Y25463500D01*
X34644510Y25409814D01*
X34390273Y25304505D01*
X34161465Y25151620D01*
X33966880Y24957035D01*
X33813995Y24728227D01*
X33782000Y24650985D01*
X33750005Y24728227D01*
X33597120Y24957035D01*
X33402535Y25151620D01*
X33173727Y25304505D01*
X32919490Y25409814D01*
X32649592Y25463500D01*
X32374408Y25463500D01*
X32104510Y25409814D01*
X31850273Y25304505D01*
X31621465Y25151620D01*
X31426880Y24957035D01*
X31273995Y24728227D01*
X31242000Y24650985D01*
X31210005Y24728227D01*
X31057120Y24957035D01*
X30862535Y25151620D01*
X30633727Y25304505D01*
X30379490Y25409814D01*
X30109592Y25463500D01*
X29834408Y25463500D01*
X29564510Y25409814D01*
X29310273Y25304505D01*
X29081465Y25151620D01*
X28886880Y24957035D01*
X28733995Y24728227D01*
X28702000Y24650985D01*
X28670005Y24728227D01*
X28517120Y24957035D01*
X28322535Y25151620D01*
X28093727Y25304505D01*
X27839490Y25409814D01*
X27569592Y25463500D01*
X27294408Y25463500D01*
X27024510Y25409814D01*
X26770273Y25304505D01*
X26541465Y25151620D01*
X26346880Y24957035D01*
X26193995Y24728227D01*
X26162000Y24650985D01*
X26130005Y24728227D01*
X25977120Y24957035D01*
X25782535Y25151620D01*
X25553727Y25304505D01*
X25299490Y25409814D01*
X25029592Y25463500D01*
X24754408Y25463500D01*
X24484510Y25409814D01*
X24230273Y25304505D01*
X24001465Y25151620D01*
X23806880Y24957035D01*
X23653995Y24728227D01*
X23622000Y24650985D01*
X23590005Y24728227D01*
X23437120Y24957035D01*
X23242535Y25151620D01*
X23013727Y25304505D01*
X22759490Y25409814D01*
X22489592Y25463500D01*
X22214408Y25463500D01*
X21944510Y25409814D01*
X21690273Y25304505D01*
X21461465Y25151620D01*
X21266880Y24957035D01*
X21113995Y24728227D01*
X21082000Y24650985D01*
X21050005Y24728227D01*
X20897120Y24957035D01*
X20702535Y25151620D01*
X20473727Y25304505D01*
X20219490Y25409814D01*
X19949592Y25463500D01*
X19674408Y25463500D01*
X19404510Y25409814D01*
X19150273Y25304505D01*
X18921465Y25151620D01*
X18726880Y24957035D01*
X18573995Y24728227D01*
X18542000Y24650985D01*
X18510005Y24728227D01*
X18357120Y24957035D01*
X18162535Y25151620D01*
X17933727Y25304505D01*
X17679490Y25409814D01*
X17409592Y25463500D01*
X17134408Y25463500D01*
X16864510Y25409814D01*
X16610273Y25304505D01*
X16381465Y25151620D01*
X16186880Y24957035D01*
X16033995Y24728227D01*
X16002000Y24650985D01*
X15970005Y24728227D01*
X15817120Y24957035D01*
X15622535Y25151620D01*
X15393727Y25304505D01*
X15139490Y25409814D01*
X14869592Y25463500D01*
X14594408Y25463500D01*
X14324510Y25409814D01*
X14070273Y25304505D01*
X13841465Y25151620D01*
X13646880Y24957035D01*
X13493995Y24728227D01*
X13388686Y24473990D01*
X13335000Y24204092D01*
X12673000Y24204092D01*
X12673000Y49413554D01*
X13054103Y49794656D01*
X13303740Y49745000D01*
X13596260Y49745000D01*
X13883158Y49802068D01*
X14153411Y49914010D01*
X14396632Y50076525D01*
X14603475Y50283368D01*
X14720000Y50457760D01*
X14836525Y50283368D01*
X15043368Y50076525D01*
X15286589Y49914010D01*
X15556842Y49802068D01*
X15843740Y49745000D01*
X16136260Y49745000D01*
X16423158Y49802068D01*
X16693411Y49914010D01*
X16936632Y50076525D01*
X17143475Y50283368D01*
X17260000Y50457760D01*
X17376525Y50283368D01*
X17583368Y50076525D01*
X17826589Y49914010D01*
X18096842Y49802068D01*
X18383740Y49745000D01*
X18676260Y49745000D01*
X18963158Y49802068D01*
X19233411Y49914010D01*
X19476632Y50076525D01*
X19683475Y50283368D01*
X19800000Y50457760D01*
X19916525Y50283368D01*
X20123368Y50076525D01*
X20366589Y49914010D01*
X20636842Y49802068D01*
X20923740Y49745000D01*
X21216260Y49745000D01*
X21503158Y49802068D01*
X21773411Y49914010D01*
X22016632Y50076525D01*
X22223475Y50283368D01*
X22340000Y50457760D01*
X22456525Y50283368D01*
X22663368Y50076525D01*
X22906589Y49914010D01*
X23176842Y49802068D01*
X23463740Y49745000D01*
X23756260Y49745000D01*
X24043158Y49802068D01*
X24313411Y49914010D01*
X24556632Y50076525D01*
X24763475Y50283368D01*
X24880000Y50457760D01*
X24996525Y50283368D01*
X25203368Y50076525D01*
X25446589Y49914010D01*
X25716842Y49802068D01*
X26003740Y49745000D01*
X26296260Y49745000D01*
X26583158Y49802068D01*
X26853411Y49914010D01*
X27096632Y50076525D01*
X27303475Y50283368D01*
X27425195Y50465534D01*
X27494822Y50348645D01*
X27689731Y50132412D01*
X27923080Y49958359D01*
X28185901Y49833175D01*
X28333110Y49788524D01*
X28563000Y49909845D01*
X28563000Y51103000D01*
X28543000Y51103000D01*
X28543000Y51357000D01*
X28563000Y51357000D01*
X28563000Y51377000D01*
X28817000Y51377000D01*
X28817000Y51357000D01*
G37*
X28817000Y51357000D02*
X28837000Y51357000D01*
X28837000Y51103000D01*
X28817000Y51103000D01*
X28817000Y49909845D01*
X29046890Y49788524D01*
X29194099Y49833175D01*
X29456920Y49958359D01*
X29690269Y50132412D01*
X29885178Y50348645D01*
X29954805Y50465534D01*
X30076525Y50283368D01*
X30283368Y50076525D01*
X30526589Y49914010D01*
X30796842Y49802068D01*
X31083740Y49745000D01*
X31376260Y49745000D01*
X31663158Y49802068D01*
X31933411Y49914010D01*
X32176632Y50076525D01*
X32383475Y50283368D01*
X32500000Y50457760D01*
X32616525Y50283368D01*
X32823368Y50076525D01*
X33066589Y49914010D01*
X33336842Y49802068D01*
X33623740Y49745000D01*
X33916260Y49745000D01*
X34203158Y49802068D01*
X34473411Y49914010D01*
X34716632Y50076525D01*
X34923475Y50283368D01*
X35040000Y50457760D01*
X35156525Y50283368D01*
X35363368Y50076525D01*
X35606589Y49914010D01*
X35876842Y49802068D01*
X36163740Y49745000D01*
X36456260Y49745000D01*
X36743158Y49802068D01*
X37013411Y49914010D01*
X37256632Y50076525D01*
X37463475Y50283368D01*
X37580000Y50457760D01*
X37696525Y50283368D01*
X37903368Y50076525D01*
X38146589Y49914010D01*
X38416842Y49802068D01*
X38703740Y49745000D01*
X38996260Y49745000D01*
X39283158Y49802068D01*
X39553411Y49914010D01*
X39796632Y50076525D01*
X40003475Y50283368D01*
X40120000Y50457760D01*
X40236525Y50283368D01*
X40443368Y50076525D01*
X40686589Y49914010D01*
X40956842Y49802068D01*
X41243740Y49745000D01*
X41536260Y49745000D01*
X41823158Y49802068D01*
X42093411Y49914010D01*
X42336632Y50076525D01*
X42543475Y50283368D01*
X42660000Y50457760D01*
X42776525Y50283368D01*
X42983368Y50076525D01*
X43226589Y49914010D01*
X43496842Y49802068D01*
X43783740Y49745000D01*
X44076260Y49745000D01*
X44363158Y49802068D01*
X44633411Y49914010D01*
X44876632Y50076525D01*
X45083475Y50283368D01*
X45200000Y50457760D01*
X45316525Y50283368D01*
X45523368Y50076525D01*
X45766589Y49914010D01*
X46036842Y49802068D01*
X46323740Y49745000D01*
X46616260Y49745000D01*
X46903158Y49802068D01*
X47173411Y49914010D01*
X47416632Y50076525D01*
X47623475Y50283368D01*
X47740000Y50457760D01*
X47856525Y50283368D01*
X48063368Y50076525D01*
X48306589Y49914010D01*
X48576842Y49802068D01*
X48863740Y49745000D01*
X49156260Y49745000D01*
X49443158Y49802068D01*
X49713411Y49914010D01*
X49956632Y50076525D01*
X50163475Y50283368D01*
X50280000Y50457760D01*
X50396525Y50283368D01*
X50603368Y50076525D01*
X50846589Y49914010D01*
X51116842Y49802068D01*
X51403740Y49745000D01*
X51696260Y49745000D01*
X51983158Y49802068D01*
X52253411Y49914010D01*
X52496632Y50076525D01*
X52703475Y50283368D01*
X52820000Y50457760D01*
X52936525Y50283368D01*
X53143368Y50076525D01*
X53386589Y49914010D01*
X53656842Y49802068D01*
X53943740Y49745000D01*
X54236260Y49745000D01*
X54523158Y49802068D01*
X54793411Y49914010D01*
X55036632Y50076525D01*
X55243475Y50283368D01*
X55360000Y50457760D01*
X55476525Y50283368D01*
X55683368Y50076525D01*
X55926589Y49914010D01*
X56196842Y49802068D01*
X56483740Y49745000D01*
X56776260Y49745000D01*
X57063158Y49802068D01*
X57333411Y49914010D01*
X57355000Y49928435D01*
X57355000Y49912381D01*
X57350235Y49864000D01*
X57362258Y49741928D01*
X57369253Y49670907D01*
X57425576Y49485234D01*
X57499365Y49347183D01*
X57250273Y49244005D01*
X57021465Y49091120D01*
X56826880Y48896535D01*
X56673995Y48667727D01*
X56642000Y48590485D01*
X56610005Y48667727D01*
X56457120Y48896535D01*
X56262535Y49091120D01*
X56033727Y49244005D01*
X55779490Y49349314D01*
X55509592Y49403000D01*
X55234408Y49403000D01*
X54964510Y49349314D01*
X54710273Y49244005D01*
X54481465Y49091120D01*
X54286880Y48896535D01*
X54133995Y48667727D01*
X54102000Y48590485D01*
X54070005Y48667727D01*
X53917120Y48896535D01*
X53722535Y49091120D01*
X53493727Y49244005D01*
X53239490Y49349314D01*
X52969592Y49403000D01*
X52694408Y49403000D01*
X52424510Y49349314D01*
X52170273Y49244005D01*
X51941465Y49091120D01*
X51746880Y48896535D01*
X51593995Y48667727D01*
X51562000Y48590485D01*
X51530005Y48667727D01*
X51377120Y48896535D01*
X51182535Y49091120D01*
X50953727Y49244005D01*
X50699490Y49349314D01*
X50429592Y49403000D01*
X50154408Y49403000D01*
X49884510Y49349314D01*
X49630273Y49244005D01*
X49401465Y49091120D01*
X49206880Y48896535D01*
X49053995Y48667727D01*
X49022000Y48590485D01*
X48990005Y48667727D01*
X48837120Y48896535D01*
X48642535Y49091120D01*
X48413727Y49244005D01*
X48159490Y49349314D01*
X47889592Y49403000D01*
X47614408Y49403000D01*
X47344510Y49349314D01*
X47090273Y49244005D01*
X46861465Y49091120D01*
X46666880Y48896535D01*
X46513995Y48667727D01*
X46482000Y48590485D01*
X46450005Y48667727D01*
X46297120Y48896535D01*
X46102535Y49091120D01*
X45873727Y49244005D01*
X45619490Y49349314D01*
X45349592Y49403000D01*
X45074408Y49403000D01*
X44804510Y49349314D01*
X44550273Y49244005D01*
X44321465Y49091120D01*
X44126880Y48896535D01*
X43973995Y48667727D01*
X43942000Y48590485D01*
X43910005Y48667727D01*
X43757120Y48896535D01*
X43562535Y49091120D01*
X43333727Y49244005D01*
X43079490Y49349314D01*
X42809592Y49403000D01*
X42534408Y49403000D01*
X42264510Y49349314D01*
X42010273Y49244005D01*
X41781465Y49091120D01*
X41586880Y48896535D01*
X41433995Y48667727D01*
X41402000Y48590485D01*
X41370005Y48667727D01*
X41217120Y48896535D01*
X41022535Y49091120D01*
X40793727Y49244005D01*
X40539490Y49349314D01*
X40269592Y49403000D01*
X39994408Y49403000D01*
X39724510Y49349314D01*
X39470273Y49244005D01*
X39241465Y49091120D01*
X39046880Y48896535D01*
X38893995Y48667727D01*
X38862000Y48590485D01*
X38830005Y48667727D01*
X38677120Y48896535D01*
X38482535Y49091120D01*
X38253727Y49244005D01*
X37999490Y49349314D01*
X37729592Y49403000D01*
X37454408Y49403000D01*
X37184510Y49349314D01*
X36930273Y49244005D01*
X36701465Y49091120D01*
X36506880Y48896535D01*
X36353995Y48667727D01*
X36322000Y48590485D01*
X36290005Y48667727D01*
X36137120Y48896535D01*
X35942535Y49091120D01*
X35713727Y49244005D01*
X35459490Y49349314D01*
X35189592Y49403000D01*
X34914408Y49403000D01*
X34644510Y49349314D01*
X34390273Y49244005D01*
X34161465Y49091120D01*
X33966880Y48896535D01*
X33813995Y48667727D01*
X33782000Y48590485D01*
X33750005Y48667727D01*
X33597120Y48896535D01*
X33402535Y49091120D01*
X33173727Y49244005D01*
X32919490Y49349314D01*
X32649592Y49403000D01*
X32374408Y49403000D01*
X32104510Y49349314D01*
X31850273Y49244005D01*
X31621465Y49091120D01*
X31426880Y48896535D01*
X31273995Y48667727D01*
X31242000Y48590485D01*
X31210005Y48667727D01*
X31057120Y48896535D01*
X30862535Y49091120D01*
X30633727Y49244005D01*
X30379490Y49349314D01*
X30109592Y49403000D01*
X29834408Y49403000D01*
X29564510Y49349314D01*
X29310273Y49244005D01*
X29081465Y49091120D01*
X28886880Y48896535D01*
X28733995Y48667727D01*
X28702000Y48590485D01*
X28670005Y48667727D01*
X28517120Y48896535D01*
X28322535Y49091120D01*
X28093727Y49244005D01*
X27839490Y49349314D01*
X27569592Y49403000D01*
X27294408Y49403000D01*
X27024510Y49349314D01*
X26770273Y49244005D01*
X26541465Y49091120D01*
X26346880Y48896535D01*
X26193995Y48667727D01*
X26162000Y48590485D01*
X26130005Y48667727D01*
X25977120Y48896535D01*
X25782535Y49091120D01*
X25553727Y49244005D01*
X25299490Y49349314D01*
X25029592Y49403000D01*
X24754408Y49403000D01*
X24484510Y49349314D01*
X24230273Y49244005D01*
X24001465Y49091120D01*
X23806880Y48896535D01*
X23653995Y48667727D01*
X23622000Y48590485D01*
X23590005Y48667727D01*
X23437120Y48896535D01*
X23242535Y49091120D01*
X23013727Y49244005D01*
X22759490Y49349314D01*
X22489592Y49403000D01*
X22214408Y49403000D01*
X21944510Y49349314D01*
X21690273Y49244005D01*
X21461465Y49091120D01*
X21266880Y48896535D01*
X21113995Y48667727D01*
X21082000Y48590485D01*
X21050005Y48667727D01*
X20897120Y48896535D01*
X20702535Y49091120D01*
X20473727Y49244005D01*
X20219490Y49349314D01*
X19949592Y49403000D01*
X19674408Y49403000D01*
X19404510Y49349314D01*
X19150273Y49244005D01*
X18921465Y49091120D01*
X18726880Y48896535D01*
X18573995Y48667727D01*
X18542000Y48590485D01*
X18510005Y48667727D01*
X18357120Y48896535D01*
X18162535Y49091120D01*
X17933727Y49244005D01*
X17679490Y49349314D01*
X17409592Y49403000D01*
X17134408Y49403000D01*
X16864510Y49349314D01*
X16610273Y49244005D01*
X16381465Y49091120D01*
X16186880Y48896535D01*
X16033995Y48667727D01*
X16002000Y48590485D01*
X15970005Y48667727D01*
X15817120Y48896535D01*
X15622535Y49091120D01*
X15393727Y49244005D01*
X15139490Y49349314D01*
X14869592Y49403000D01*
X14594408Y49403000D01*
X14324510Y49349314D01*
X14070273Y49244005D01*
X13841465Y49091120D01*
X13646880Y48896535D01*
X13493995Y48667727D01*
X13388686Y48413490D01*
X13335000Y48143592D01*
X13335000Y47868408D01*
X13388686Y47598510D01*
X13493995Y47344273D01*
X13646880Y47115465D01*
X13841465Y46920880D01*
X14070273Y46767995D01*
X14324510Y46662686D01*
X14594408Y46609000D01*
X14869592Y46609000D01*
X15139490Y46662686D01*
X15393727Y46767995D01*
X15622535Y46920880D01*
X15817120Y47115465D01*
X15970005Y47344273D01*
X16002000Y47421515D01*
X16033995Y47344273D01*
X16186880Y47115465D01*
X16381465Y46920880D01*
X16610273Y46767995D01*
X16864510Y46662686D01*
X17134408Y46609000D01*
X17409592Y46609000D01*
X17679490Y46662686D01*
X17933727Y46767995D01*
X18162535Y46920880D01*
X18357120Y47115465D01*
X18510005Y47344273D01*
X18542000Y47421515D01*
X18573995Y47344273D01*
X18726880Y47115465D01*
X18921465Y46920880D01*
X19150273Y46767995D01*
X19404510Y46662686D01*
X19674408Y46609000D01*
X19949592Y46609000D01*
X20219490Y46662686D01*
X20473727Y46767995D01*
X20702535Y46920880D01*
X20897120Y47115465D01*
X21050005Y47344273D01*
X21082000Y47421515D01*
X21113995Y47344273D01*
X21266880Y47115465D01*
X21461465Y46920880D01*
X21690273Y46767995D01*
X21944510Y46662686D01*
X22214408Y46609000D01*
X22489592Y46609000D01*
X22759490Y46662686D01*
X23013727Y46767995D01*
X23242535Y46920880D01*
X23437120Y47115465D01*
X23590005Y47344273D01*
X23622000Y47421515D01*
X23653995Y47344273D01*
X23806880Y47115465D01*
X24001465Y46920880D01*
X24230273Y46767995D01*
X24484510Y46662686D01*
X24754408Y46609000D01*
X25029592Y46609000D01*
X25299490Y46662686D01*
X25553727Y46767995D01*
X25782535Y46920880D01*
X25977120Y47115465D01*
X26130005Y47344273D01*
X26162000Y47421515D01*
X26193995Y47344273D01*
X26346880Y47115465D01*
X26541465Y46920880D01*
X26770273Y46767995D01*
X27024510Y46662686D01*
X27294408Y46609000D01*
X27569592Y46609000D01*
X27839490Y46662686D01*
X28093727Y46767995D01*
X28322535Y46920880D01*
X28517120Y47115465D01*
X28670005Y47344273D01*
X28702000Y47421515D01*
X28733995Y47344273D01*
X28886880Y47115465D01*
X29081465Y46920880D01*
X29310273Y46767995D01*
X29564510Y46662686D01*
X29834408Y46609000D01*
X30109592Y46609000D01*
X30379490Y46662686D01*
X30633727Y46767995D01*
X30862535Y46920880D01*
X31057120Y47115465D01*
X31210005Y47344273D01*
X31242000Y47421515D01*
X31273995Y47344273D01*
X31426880Y47115465D01*
X31621465Y46920880D01*
X31850273Y46767995D01*
X32104510Y46662686D01*
X32374408Y46609000D01*
X32649592Y46609000D01*
X32919490Y46662686D01*
X33173727Y46767995D01*
X33402535Y46920880D01*
X33597120Y47115465D01*
X33750005Y47344273D01*
X33782000Y47421515D01*
X33813995Y47344273D01*
X33966880Y47115465D01*
X34161465Y46920880D01*
X34390273Y46767995D01*
X34644510Y46662686D01*
X34914408Y46609000D01*
X35189592Y46609000D01*
X35459490Y46662686D01*
X35713727Y46767995D01*
X35942535Y46920880D01*
X36137120Y47115465D01*
X36290005Y47344273D01*
X36322000Y47421515D01*
X36353995Y47344273D01*
X36506880Y47115465D01*
X36701465Y46920880D01*
X36930273Y46767995D01*
X37184510Y46662686D01*
X37454408Y46609000D01*
X37729592Y46609000D01*
X37999490Y46662686D01*
X38253727Y46767995D01*
X38482535Y46920880D01*
X38677120Y47115465D01*
X38830005Y47344273D01*
X38862000Y47421515D01*
X38893995Y47344273D01*
X39046880Y47115465D01*
X39241465Y46920880D01*
X39470273Y46767995D01*
X39724510Y46662686D01*
X39994408Y46609000D01*
X40269592Y46609000D01*
X40539490Y46662686D01*
X40793727Y46767995D01*
X41022535Y46920880D01*
X41217120Y47115465D01*
X41370005Y47344273D01*
X41402000Y47421515D01*
X41433995Y47344273D01*
X41586880Y47115465D01*
X41781465Y46920880D01*
X42010273Y46767995D01*
X42264510Y46662686D01*
X42534408Y46609000D01*
X42809592Y46609000D01*
X43079490Y46662686D01*
X43333727Y46767995D01*
X43562535Y46920880D01*
X43757120Y47115465D01*
X43910005Y47344273D01*
X43942000Y47421515D01*
X43973995Y47344273D01*
X44126880Y47115465D01*
X44321465Y46920880D01*
X44550273Y46767995D01*
X44804510Y46662686D01*
X45074408Y46609000D01*
X45349592Y46609000D01*
X45619490Y46662686D01*
X45873727Y46767995D01*
X46102535Y46920880D01*
X46297120Y47115465D01*
X46450005Y47344273D01*
X46482000Y47421515D01*
X46513995Y47344273D01*
X46666880Y47115465D01*
X46861465Y46920880D01*
X47090273Y46767995D01*
X47344510Y46662686D01*
X47614408Y46609000D01*
X47889592Y46609000D01*
X48159490Y46662686D01*
X48413727Y46767995D01*
X48642535Y46920880D01*
X48837120Y47115465D01*
X48990005Y47344273D01*
X49022000Y47421515D01*
X49053995Y47344273D01*
X49206880Y47115465D01*
X49401465Y46920880D01*
X49630273Y46767995D01*
X49884510Y46662686D01*
X50154408Y46609000D01*
X50429592Y46609000D01*
X50699490Y46662686D01*
X50953727Y46767995D01*
X51182535Y46920880D01*
X51377120Y47115465D01*
X51530005Y47344273D01*
X51562000Y47421515D01*
X51593995Y47344273D01*
X51746880Y47115465D01*
X51941465Y46920880D01*
X52170273Y46767995D01*
X52424510Y46662686D01*
X52694408Y46609000D01*
X52969592Y46609000D01*
X53239490Y46662686D01*
X53493727Y46767995D01*
X53722535Y46920880D01*
X53917120Y47115465D01*
X54070005Y47344273D01*
X54102000Y47421515D01*
X54133995Y47344273D01*
X54286880Y47115465D01*
X54387001Y47015344D01*
X54387000Y31798380D01*
X54382235Y31750000D01*
X54387000Y31701621D01*
X54401253Y31556907D01*
X54457576Y31371234D01*
X54549040Y31200116D01*
X54672130Y31050130D01*
X54709716Y31019284D01*
X58451289Y27277710D01*
X58482130Y27240130D01*
X58519709Y27209290D01*
X58632116Y27117040D01*
X58803233Y27025576D01*
X58988906Y26969253D01*
X59182000Y26950235D01*
X59230380Y26955000D01*
X61011379Y26955000D01*
X61044498Y26845820D01*
X61103463Y26735506D01*
X61182815Y26638815D01*
X61279506Y26559463D01*
X61389820Y26500498D01*
X61509518Y26464188D01*
X61634000Y26451928D01*
X63334000Y26451928D01*
X63458482Y26464188D01*
X63578180Y26500498D01*
X63688494Y26559463D01*
X63785185Y26638815D01*
X63864537Y26735506D01*
X63923502Y26845820D01*
X63959812Y26965518D01*
X63972072Y27090000D01*
X63972072Y28790000D01*
X63959812Y28914482D01*
X63923502Y29034180D01*
X63864537Y29144494D01*
X63785185Y29241185D01*
X63688494Y29320537D01*
X63578180Y29379502D01*
X63505620Y29401513D01*
X63637475Y29533368D01*
X63799990Y29776589D01*
X63911932Y30046842D01*
X63969000Y30333740D01*
X63969000Y30626260D01*
X63911932Y30913158D01*
X63799990Y31183411D01*
X63637475Y31426632D01*
X63469000Y31595107D01*
X63469000Y34837928D01*
X63584000Y34837928D01*
X63708482Y34850188D01*
X63828180Y34886498D01*
X63938494Y34945463D01*
X64035185Y35024815D01*
X64114537Y35121506D01*
X64173502Y35231820D01*
X64209812Y35351518D01*
X64222072Y35476000D01*
X64222072Y37676000D01*
X64209812Y37800482D01*
X64173502Y37920180D01*
X64114537Y38030494D01*
X64035185Y38127185D01*
X63938494Y38206537D01*
X63828180Y38265502D01*
X63708482Y38301812D01*
X63584000Y38314072D01*
X61384000Y38314072D01*
X61259518Y38301812D01*
X61139820Y38265502D01*
X61029506Y38206537D01*
X60932815Y38127185D01*
X60853463Y38030494D01*
X60794498Y37920180D01*
X60758188Y37800482D01*
X60745928Y37676000D01*
X60745928Y35476000D01*
X60758188Y35351518D01*
X60794498Y35231820D01*
X60853463Y35121506D01*
X60932815Y35024815D01*
X61029506Y34945463D01*
X61139820Y34886498D01*
X61259518Y34850188D01*
X61384000Y34837928D01*
X61499000Y34837928D01*
X61499001Y31595108D01*
X61330525Y31426632D01*
X61168010Y31183411D01*
X61056068Y30913158D01*
X60999000Y30626260D01*
X60999000Y30333740D01*
X61056068Y30046842D01*
X61168010Y29776589D01*
X61330525Y29533368D01*
X61462380Y29401513D01*
X61389820Y29379502D01*
X61279506Y29320537D01*
X61182815Y29241185D01*
X61103463Y29144494D01*
X61044498Y29034180D01*
X61011379Y28925000D01*
X59590001Y28925000D01*
X56357000Y32158000D01*
X56357000Y47015345D01*
X56457120Y47115465D01*
X56610005Y47344273D01*
X56642000Y47421515D01*
X56673995Y47344273D01*
X56826880Y47115465D01*
X57021465Y46920880D01*
X57250273Y46767995D01*
X57504510Y46662686D01*
X57774408Y46609000D01*
X58049592Y46609000D01*
X58319490Y46662686D01*
X58573727Y46767995D01*
X58802535Y46920880D01*
X58997120Y47115465D01*
X59150005Y47344273D01*
X59242771Y47568228D01*
X59467289Y47343710D01*
X59498130Y47306130D01*
X59535709Y47275290D01*
X59648116Y47183040D01*
X59819233Y47091576D01*
X60004906Y47035253D01*
X60198000Y47016235D01*
X60246380Y47021000D01*
X60771699Y47021000D01*
X60749000Y46906883D01*
X60749000Y46565117D01*
X60815675Y46229919D01*
X60946463Y45914169D01*
X61136337Y45630002D01*
X61378002Y45388337D01*
X61662169Y45198463D01*
X61977919Y45067675D01*
X62313117Y45001000D01*
X62654883Y45001000D01*
X62990081Y45067675D01*
X63305831Y45198463D01*
X63589998Y45388337D01*
X63831663Y45630002D01*
X64021537Y45914169D01*
X64152325Y46229919D01*
X64219000Y46565117D01*
X64219000Y46906883D01*
X64152325Y47242081D01*
X64021537Y47557831D01*
X63831663Y47841998D01*
X63589998Y48083663D01*
X63305831Y48273537D01*
X62990081Y48404325D01*
X62654883Y48471000D01*
X62313117Y48471000D01*
X62170390Y48442610D01*
X61944716Y48668284D01*
X61913870Y48705870D01*
X61763884Y48828960D01*
X61640332Y48895000D01*
X64315001Y48895000D01*
X64315000Y14389294D01*
X64179727Y14479680D01*
X63918574Y14587853D01*
X63641335Y14643000D01*
X63358665Y14643000D01*
X63081426Y14587853D01*
X62820273Y14479680D01*
X62585241Y14322637D01*
X62385363Y14122759D01*
X62228320Y13887727D01*
X62120147Y13626574D01*
X62065000Y13349335D01*
X62065000Y13066665D01*
X62120147Y12789426D01*
X62228320Y12528273D01*
X62385363Y12293241D01*
X62585241Y12093363D01*
X62820273Y11936320D01*
X63081426Y11828147D01*
X63358665Y11773000D01*
X63641335Y11773000D01*
X63918574Y11828147D01*
X64179727Y11936320D01*
X64315000Y12026706D01*
X64315000Y7493000D01*
X58420000Y7493000D01*
X58395224Y7490560D01*
X58371399Y7483333D01*
X58349443Y7471597D01*
X58330197Y7455803D01*
X58314403Y7436557D01*
X58302667Y7414601D01*
X58295440Y7390776D01*
X58293000Y7366000D01*
X58293000Y685000D01*
X7239000Y685000D01*
X7239000Y6376000D01*
X10907928Y6376000D01*
X10907928Y3276000D01*
X10924992Y3102746D01*
X10975528Y2936150D01*
X11057595Y2782614D01*
X11168038Y2648038D01*
X11302614Y2537595D01*
X11456150Y2455528D01*
X11622746Y2404992D01*
X11796000Y2387928D01*
X13096000Y2387928D01*
X13269254Y2404992D01*
X13435850Y2455528D01*
X13589386Y2537595D01*
X13723962Y2648038D01*
X13834405Y2782614D01*
X13916472Y2936150D01*
X13967008Y3102746D01*
X13984072Y3276000D01*
X13984072Y5801407D01*
X15991000Y5801407D01*
X15991000Y3850592D01*
X16013211Y3625087D01*
X16100984Y3335739D01*
X16243520Y3069073D01*
X16435340Y2835339D01*
X16669074Y2643519D01*
X16935740Y2500983D01*
X17225088Y2413210D01*
X17526000Y2383573D01*
X17826913Y2413210D01*
X18116261Y2500983D01*
X18382927Y2643519D01*
X18616661Y2835339D01*
X18808481Y3069073D01*
X18951017Y3335739D01*
X19038790Y3625087D01*
X19061000Y3850592D01*
X19061000Y5801407D01*
X21071000Y5801407D01*
X21071000Y3850592D01*
X21093211Y3625087D01*
X21180984Y3335739D01*
X21323520Y3069073D01*
X21515340Y2835339D01*
X21749074Y2643519D01*
X22015740Y2500983D01*
X22305088Y2413210D01*
X22606000Y2383573D01*
X22906913Y2413210D01*
X23196261Y2500983D01*
X23462927Y2643519D01*
X23696661Y2835339D01*
X23888481Y3069073D01*
X24031017Y3335739D01*
X24118790Y3625087D01*
X24141000Y3850592D01*
X24141000Y5801408D01*
X24118790Y6026913D01*
X24031017Y6316261D01*
X23999086Y6376000D01*
X28433928Y6376000D01*
X28433928Y3276000D01*
X28450992Y3102746D01*
X28501528Y2936150D01*
X28583595Y2782614D01*
X28694038Y2648038D01*
X28828614Y2537595D01*
X28982150Y2455528D01*
X29148746Y2404992D01*
X29322000Y2387928D01*
X30622000Y2387928D01*
X30795254Y2404992D01*
X30961850Y2455528D01*
X31115386Y2537595D01*
X31249962Y2648038D01*
X31360405Y2782614D01*
X31442472Y2936150D01*
X31493008Y3102746D01*
X31510072Y3276000D01*
X31510072Y4699000D01*
X33517000Y4699000D01*
X33517000Y3799000D01*
X33571271Y3501977D01*
X33682446Y3221249D01*
X33846252Y2967604D01*
X34056394Y2750790D01*
X34304796Y2579138D01*
X34581913Y2459245D01*
X34687260Y2434964D01*
X34925000Y2555622D01*
X34925000Y4699000D01*
X35179000Y4699000D01*
X35179000Y2555622D01*
X35416740Y2434964D01*
X35522087Y2459245D01*
X35799204Y2579138D01*
X36047606Y2750790D01*
X36257748Y2967604D01*
X36421554Y3221249D01*
X36532729Y3501977D01*
X36587000Y3799000D01*
X36587000Y4699000D01*
X35179000Y4699000D01*
X34925000Y4699000D01*
X33517000Y4699000D01*
X31510072Y4699000D01*
X31510072Y5853000D01*
X33517000Y5853000D01*
X33517000Y4953000D01*
X34925000Y4953000D01*
X34925000Y7096378D01*
X35179000Y7096378D01*
X35179000Y4953000D01*
X36587000Y4953000D01*
X36587000Y5801407D01*
X38597000Y5801407D01*
X38597000Y3850592D01*
X38619211Y3625087D01*
X38706984Y3335739D01*
X38849520Y3069073D01*
X39041340Y2835339D01*
X39275074Y2643519D01*
X39541740Y2500983D01*
X39831088Y2413210D01*
X40132000Y2383573D01*
X40432913Y2413210D01*
X40722261Y2500983D01*
X40988927Y2643519D01*
X41222661Y2835339D01*
X41414481Y3069073D01*
X41557017Y3335739D01*
X41644790Y3625087D01*
X41667000Y3850592D01*
X41667000Y5801408D01*
X41644790Y6026913D01*
X41557017Y6316261D01*
X41414481Y6582927D01*
X41222661Y6816661D01*
X40988926Y7008481D01*
X40722260Y7151017D01*
X40432912Y7238790D01*
X40132000Y7268427D01*
X39831087Y7238790D01*
X39541739Y7151017D01*
X39275073Y7008481D01*
X39041339Y6816661D01*
X38849519Y6582926D01*
X38706983Y6316260D01*
X38619210Y6026912D01*
X38597000Y5801407D01*
X36587000Y5801407D01*
X36587000Y5853000D01*
X36532729Y6150023D01*
X36421554Y6430751D01*
X36257748Y6684396D01*
X36047606Y6901210D01*
X35799204Y7072862D01*
X35522087Y7192755D01*
X35416740Y7217036D01*
X35179000Y7096378D01*
X34925000Y7096378D01*
X34687260Y7217036D01*
X34581913Y7192755D01*
X34304796Y7072862D01*
X34056394Y6901210D01*
X33846252Y6684396D01*
X33682446Y6430751D01*
X33571271Y6150023D01*
X33517000Y5853000D01*
X31510072Y5853000D01*
X31510072Y6376000D01*
X31493008Y6549254D01*
X31442472Y6715850D01*
X31360405Y6869386D01*
X31249962Y7003962D01*
X31115386Y7114405D01*
X30961850Y7196472D01*
X30795254Y7247008D01*
X30622000Y7264072D01*
X29322000Y7264072D01*
X29148746Y7247008D01*
X28982150Y7196472D01*
X28828614Y7114405D01*
X28694038Y7003962D01*
X28583595Y6869386D01*
X28501528Y6715850D01*
X28450992Y6549254D01*
X28433928Y6376000D01*
X23999086Y6376000D01*
X23888481Y6582927D01*
X23696661Y6816661D01*
X23462926Y7008481D01*
X23196260Y7151017D01*
X22906912Y7238790D01*
X22606000Y7268427D01*
X22305087Y7238790D01*
X22015739Y7151017D01*
X21749073Y7008481D01*
X21515339Y6816661D01*
X21323519Y6582926D01*
X21180983Y6316260D01*
X21093210Y6026912D01*
X21071000Y5801407D01*
X19061000Y5801407D01*
X19061000Y5801408D01*
X19038790Y6026913D01*
X18951017Y6316261D01*
X18808481Y6582927D01*
X18616661Y6816661D01*
X18382926Y7008481D01*
X18116260Y7151017D01*
X17826912Y7238790D01*
X17526000Y7268427D01*
X17225087Y7238790D01*
X16935739Y7151017D01*
X16669073Y7008481D01*
X16435339Y6816661D01*
X16243519Y6582926D01*
X16100983Y6316260D01*
X16013210Y6026912D01*
X15991000Y5801407D01*
X13984072Y5801407D01*
X13984072Y6376000D01*
X13967008Y6549254D01*
X13916472Y6715850D01*
X13834405Y6869386D01*
X13723962Y7003962D01*
X13589386Y7114405D01*
X13435850Y7196472D01*
X13269254Y7247008D01*
X13096000Y7264072D01*
X11796000Y7264072D01*
X11622746Y7247008D01*
X11456150Y7196472D01*
X11302614Y7114405D01*
X11168038Y7003962D01*
X11057595Y6869386D01*
X10975528Y6715850D01*
X10924992Y6549254D01*
X10907928Y6376000D01*
X7239000Y6376000D01*
X7239000Y7366000D01*
X7236560Y7390776D01*
X7229333Y7414601D01*
X7217597Y7436557D01*
X7201803Y7455803D01*
X7182557Y7471597D01*
X7160601Y7483333D01*
X7136776Y7490560D01*
X7112000Y7493000D01*
X889000Y7493000D01*
X889000Y10009554D01*
X1358656Y9539897D01*
X1309000Y9290260D01*
X1309000Y8997740D01*
X1366068Y8710842D01*
X1478010Y8440589D01*
X1640525Y8197368D01*
X1847368Y7990525D01*
X2090589Y7828010D01*
X2360842Y7716068D01*
X2647740Y7659000D01*
X2940260Y7659000D01*
X3227158Y7716068D01*
X3497411Y7828010D01*
X3740632Y7990525D01*
X3872487Y8122380D01*
X3894498Y8049820D01*
X3953463Y7939506D01*
X4032815Y7842815D01*
X4129506Y7763463D01*
X4239820Y7704498D01*
X4359518Y7668188D01*
X4484000Y7655928D01*
X6184000Y7655928D01*
X6308482Y7668188D01*
X6428180Y7704498D01*
X6538494Y7763463D01*
X6635185Y7842815D01*
X6714537Y7939506D01*
X6773502Y8049820D01*
X6809812Y8169518D01*
X6822072Y8294000D01*
X6822072Y9994000D01*
X6809812Y10118482D01*
X6773502Y10238180D01*
X6714537Y10348494D01*
X6635185Y10445185D01*
X6629388Y10449942D01*
X7382447Y11203000D01*
X16219895Y11203000D01*
X16256000Y11199444D01*
X16292105Y11203000D01*
X16400085Y11213635D01*
X16538633Y11255663D01*
X16666320Y11323913D01*
X16778238Y11415762D01*
X16801258Y11443812D01*
X17384103Y12026656D01*
X17633740Y11977000D01*
X17926260Y11977000D01*
X18213158Y12034068D01*
X18483411Y12146010D01*
X18726632Y12308525D01*
X18933475Y12515368D01*
X19050000Y12689760D01*
X19166525Y12515368D01*
X19373368Y12308525D01*
X19616589Y12146010D01*
X19886842Y12034068D01*
X20173740Y11977000D01*
X20466260Y11977000D01*
X20753158Y12034068D01*
X21023411Y12146010D01*
X21266632Y12308525D01*
X21398487Y12440380D01*
X21420498Y12367820D01*
X21479463Y12257506D01*
X21558815Y12160815D01*
X21655506Y12081463D01*
X21765820Y12022498D01*
X21885518Y11986188D01*
X22010000Y11973928D01*
X22574250Y11977000D01*
X22733000Y12135750D01*
X22733000Y13335000D01*
X22987000Y13335000D01*
X22987000Y12135750D01*
X23145750Y11977000D01*
X23710000Y11973928D01*
X23834482Y11986188D01*
X23954180Y12022498D01*
X24064494Y12081463D01*
X24161185Y12160815D01*
X24240537Y12257506D01*
X24299502Y12367820D01*
X24335812Y12487518D01*
X24348072Y12612000D01*
X24345000Y13176250D01*
X24186250Y13335000D01*
X22987000Y13335000D01*
X22733000Y13335000D01*
X22713000Y13335000D01*
X22713000Y13589000D01*
X22733000Y13589000D01*
X22733000Y13609000D01*
X22987000Y13609000D01*
X22987000Y13589000D01*
X24186250Y13589000D01*
X24345000Y13747750D01*
X24347740Y14251000D01*
X25435252Y14251000D01*
X25555363Y14071241D01*
X25755241Y13871363D01*
X25990273Y13714320D01*
X26251426Y13606147D01*
X26528665Y13551000D01*
X26811335Y13551000D01*
X27088574Y13606147D01*
X27349727Y13714320D01*
X27584759Y13871363D01*
X27706694Y13993298D01*
X41096903Y13993298D01*
X41168486Y13749329D01*
X41423996Y13628429D01*
X41698184Y13559700D01*
X41980512Y13545783D01*
X42260130Y13587213D01*
X42526292Y13682397D01*
X42651514Y13749329D01*
X42723097Y13993298D01*
X41910000Y14806395D01*
X41096903Y13993298D01*
X27706694Y13993298D01*
X27784637Y14071241D01*
X27941680Y14306273D01*
X28049853Y14567426D01*
X28105000Y14844665D01*
X28105000Y14915488D01*
X40469783Y14915488D01*
X40511213Y14635870D01*
X40606397Y14369708D01*
X40673329Y14244486D01*
X40917298Y14172903D01*
X41730395Y14986000D01*
X40917298Y15799097D01*
X40673329Y15727514D01*
X40552429Y15472004D01*
X40483700Y15197816D01*
X40469783Y14915488D01*
X28105000Y14915488D01*
X28105000Y15127335D01*
X28049853Y15404574D01*
X27941680Y15665727D01*
X27784637Y15900759D01*
X27706694Y15978702D01*
X41096903Y15978702D01*
X41910000Y15165605D01*
X42723097Y15978702D01*
X42651514Y16222671D01*
X42396004Y16343571D01*
X42121816Y16412300D01*
X41839488Y16426217D01*
X41559870Y16384787D01*
X41293708Y16289603D01*
X41168486Y16222671D01*
X41096903Y15978702D01*
X27706694Y15978702D01*
X27584759Y16100637D01*
X27349727Y16257680D01*
X27088574Y16365853D01*
X26811335Y16421000D01*
X26528665Y16421000D01*
X26251426Y16365853D01*
X25990273Y16257680D01*
X25755241Y16100637D01*
X25555363Y15900759D01*
X25435252Y15721000D01*
X16800094Y15721000D01*
X16763999Y15724555D01*
X16727904Y15721000D01*
X16727895Y15721000D01*
X16619915Y15710365D01*
X16481367Y15668337D01*
X16353680Y15600087D01*
X16241762Y15508238D01*
X16218746Y15480193D01*
X15635897Y14897344D01*
X15386260Y14947000D01*
X15093740Y14947000D01*
X14806842Y14889932D01*
X14536589Y14777990D01*
X14293368Y14615475D01*
X14086525Y14408632D01*
X13924010Y14165411D01*
X13812068Y13895158D01*
X13755000Y13608260D01*
X13755000Y13315740D01*
X13812068Y13028842D01*
X13924010Y12758589D01*
X13981199Y12673000D01*
X7114094Y12673000D01*
X7077999Y12676555D01*
X7041904Y12673000D01*
X7041895Y12673000D01*
X6933915Y12662365D01*
X6795367Y12620337D01*
X6667680Y12552087D01*
X6555762Y12460238D01*
X6532746Y12432193D01*
X4839808Y10739254D01*
X4811763Y10716238D01*
X4742690Y10632072D01*
X4484000Y10632072D01*
X4359518Y10619812D01*
X4239820Y10583502D01*
X4129506Y10524537D01*
X4032815Y10445185D01*
X3953463Y10348494D01*
X3894498Y10238180D01*
X3872487Y10165620D01*
X3740632Y10297475D01*
X3497411Y10459990D01*
X3227158Y10571932D01*
X2940260Y10629000D01*
X2647740Y10629000D01*
X2398103Y10579344D01*
X2005000Y10972446D01*
X2005000Y15505199D01*
X2090589Y15448010D01*
X2360842Y15336068D01*
X2647740Y15279000D01*
X2940260Y15279000D01*
X3227158Y15336068D01*
X3497411Y15448010D01*
X3740632Y15610525D01*
X3872487Y15742380D01*
X3894498Y15669820D01*
X3953463Y15559506D01*
X4032815Y15462815D01*
X4129506Y15383463D01*
X4239820Y15324498D01*
X4359518Y15288188D01*
X4484000Y15275928D01*
X6184000Y15275928D01*
X6308482Y15288188D01*
X6428180Y15324498D01*
X6538494Y15383463D01*
X6635185Y15462815D01*
X6714537Y15559506D01*
X6773502Y15669820D01*
X6809812Y15789518D01*
X6822072Y15914000D01*
X6822072Y16029000D01*
X13425895Y16029000D01*
X13462000Y16025444D01*
X13498105Y16029000D01*
X13606085Y16039635D01*
X13744633Y16081663D01*
X13872320Y16149913D01*
X13984238Y16241762D01*
X14007258Y16269812D01*
X14844103Y17106656D01*
X15093740Y17057000D01*
X15386260Y17057000D01*
X15673158Y17114068D01*
X15943411Y17226010D01*
X16186632Y17388525D01*
X16393475Y17595368D01*
X16510000Y17769760D01*
X16626525Y17595368D01*
X16833368Y17388525D01*
X17076589Y17226010D01*
X17346842Y17114068D01*
X17633740Y17057000D01*
X17926260Y17057000D01*
X18213158Y17114068D01*
X18483411Y17226010D01*
X18726632Y17388525D01*
X18933475Y17595368D01*
X19050000Y17769760D01*
X19166525Y17595368D01*
X19373368Y17388525D01*
X19616589Y17226010D01*
X19886842Y17114068D01*
X20173740Y17057000D01*
X20466260Y17057000D01*
X20753158Y17114068D01*
X21023411Y17226010D01*
X21266632Y17388525D01*
X21398487Y17520380D01*
X21420498Y17447820D01*
X21479463Y17337506D01*
X21558815Y17240815D01*
X21655506Y17161463D01*
X21765820Y17102498D01*
X21885518Y17066188D01*
X22010000Y17053928D01*
X22574250Y17057000D01*
X22733000Y17215750D01*
X22733000Y18415000D01*
X22987000Y18415000D01*
X22987000Y17215750D01*
X23145750Y17057000D01*
X23710000Y17053928D01*
X23834482Y17066188D01*
X23954180Y17102498D01*
X24064494Y17161463D01*
X24161185Y17240815D01*
X24240537Y17337506D01*
X24299502Y17447820D01*
X24335812Y17567518D01*
X24348072Y17692000D01*
X24345000Y18256250D01*
X24186250Y18415000D01*
X22987000Y18415000D01*
X22733000Y18415000D01*
X22713000Y18415000D01*
X22713000Y18669000D01*
X22733000Y18669000D01*
X22733000Y19868250D01*
X22987000Y19868250D01*
X22987000Y18669000D01*
X24186250Y18669000D01*
X24200585Y18683335D01*
X25235000Y18683335D01*
X25235000Y18400665D01*
X25290147Y18123426D01*
X25398320Y17862273D01*
X25555363Y17627241D01*
X25755241Y17427363D01*
X25990273Y17270320D01*
X26251426Y17162147D01*
X26528665Y17107000D01*
X26811335Y17107000D01*
X27088574Y17162147D01*
X27349727Y17270320D01*
X27584759Y17427363D01*
X27706694Y17549298D01*
X41096903Y17549298D01*
X41168486Y17305329D01*
X41423996Y17184429D01*
X41698184Y17115700D01*
X41980512Y17101783D01*
X42260130Y17143213D01*
X42526292Y17238397D01*
X42651514Y17305329D01*
X42723097Y17549298D01*
X41910000Y18362395D01*
X41096903Y17549298D01*
X27706694Y17549298D01*
X27784637Y17627241D01*
X27941680Y17862273D01*
X28049853Y18123426D01*
X28105000Y18400665D01*
X28105000Y18471488D01*
X40469783Y18471488D01*
X40511213Y18191870D01*
X40606397Y17925708D01*
X40673329Y17800486D01*
X40917298Y17728903D01*
X41730395Y18542000D01*
X40917298Y19355097D01*
X40673329Y19283514D01*
X40552429Y19028004D01*
X40483700Y18753816D01*
X40469783Y18471488D01*
X28105000Y18471488D01*
X28105000Y18683335D01*
X28049853Y18960574D01*
X27941680Y19221727D01*
X27784637Y19456759D01*
X27706694Y19534702D01*
X41096903Y19534702D01*
X41910000Y18721605D01*
X42723097Y19534702D01*
X42651514Y19778671D01*
X42396004Y19899571D01*
X42121816Y19968300D01*
X41839488Y19982217D01*
X41559870Y19940787D01*
X41293708Y19845603D01*
X41168486Y19778671D01*
X41096903Y19534702D01*
X27706694Y19534702D01*
X27584759Y19656637D01*
X27349727Y19813680D01*
X27088574Y19921853D01*
X26811335Y19977000D01*
X26528665Y19977000D01*
X26251426Y19921853D01*
X25990273Y19813680D01*
X25755241Y19656637D01*
X25555363Y19456759D01*
X25398320Y19221727D01*
X25290147Y18960574D01*
X25235000Y18683335D01*
X24200585Y18683335D01*
X24345000Y18827750D01*
X24348072Y19392000D01*
X24335812Y19516482D01*
X24299502Y19636180D01*
X24240537Y19746494D01*
X24161185Y19843185D01*
X24064494Y19922537D01*
X23954180Y19981502D01*
X23834482Y20017812D01*
X23710000Y20030072D01*
X23145750Y20027000D01*
X22987000Y19868250D01*
X22733000Y19868250D01*
X22574250Y20027000D01*
X22010000Y20030072D01*
X21885518Y20017812D01*
X21765820Y19981502D01*
X21655506Y19922537D01*
X21558815Y19843185D01*
X21479463Y19746494D01*
X21420498Y19636180D01*
X21398487Y19563620D01*
X21266632Y19695475D01*
X21023411Y19857990D01*
X20753158Y19969932D01*
X20466260Y20027000D01*
X20173740Y20027000D01*
X19886842Y19969932D01*
X19616589Y19857990D01*
X19373368Y19695475D01*
X19166525Y19488632D01*
X19050000Y19314240D01*
X18933475Y19488632D01*
X18726632Y19695475D01*
X18483411Y19857990D01*
X18213158Y19969932D01*
X17926260Y20027000D01*
X17633740Y20027000D01*
X17346842Y19969932D01*
X17076589Y19857990D01*
X16833368Y19695475D01*
X16626525Y19488632D01*
X16510000Y19314240D01*
X16393475Y19488632D01*
X16186632Y19695475D01*
X15943411Y19857990D01*
X15673158Y19969932D01*
X15386260Y20027000D01*
X15093740Y20027000D01*
X14806842Y19969932D01*
X14536589Y19857990D01*
X14293368Y19695475D01*
X14086525Y19488632D01*
X13924010Y19245411D01*
X13812068Y18975158D01*
X13755000Y18688260D01*
X13755000Y18395740D01*
X13804656Y18146103D01*
X13157554Y17499000D01*
X6822072Y17499000D01*
X6822072Y17553000D01*
X10123895Y17553000D01*
X10160000Y17549444D01*
X10196105Y17553000D01*
X10304085Y17563635D01*
X10442633Y17605663D01*
X10570320Y17673913D01*
X10682238Y17765762D01*
X10705258Y17793812D01*
X12432197Y19520750D01*
X12460237Y19543762D01*
X12483250Y19571803D01*
X12483253Y19571806D01*
X12552087Y19655680D01*
X12620337Y19783366D01*
X12662365Y19921915D01*
X12676556Y20066000D01*
X12673000Y20102105D01*
X12673000Y24204092D01*
X13335000Y24204092D01*
X13335000Y23928908D01*
X13388686Y23659010D01*
X13493995Y23404773D01*
X13646880Y23175965D01*
X13841465Y22981380D01*
X14070273Y22828495D01*
X14324510Y22723186D01*
X14594408Y22669500D01*
X14869592Y22669500D01*
X15139490Y22723186D01*
X15393727Y22828495D01*
X15622535Y22981380D01*
X15817120Y23175965D01*
X15970005Y23404773D01*
X16002000Y23482015D01*
X16033995Y23404773D01*
X16186880Y23175965D01*
X16381465Y22981380D01*
X16610273Y22828495D01*
X16864510Y22723186D01*
X17134408Y22669500D01*
X17409592Y22669500D01*
X17679490Y22723186D01*
X17933727Y22828495D01*
X18162535Y22981380D01*
X18357120Y23175965D01*
X18510005Y23404773D01*
X18542000Y23482015D01*
X18573995Y23404773D01*
X18726880Y23175965D01*
X18921465Y22981380D01*
X19150273Y22828495D01*
X19404510Y22723186D01*
X19674408Y22669500D01*
X19949592Y22669500D01*
X20219490Y22723186D01*
X20473727Y22828495D01*
X20702535Y22981380D01*
X20897120Y23175965D01*
X21050005Y23404773D01*
X21082000Y23482015D01*
X21113995Y23404773D01*
X21266880Y23175965D01*
X21461465Y22981380D01*
X21690273Y22828495D01*
X21944510Y22723186D01*
X22214408Y22669500D01*
X22489592Y22669500D01*
X22759490Y22723186D01*
X23013727Y22828495D01*
X23242535Y22981380D01*
X23437120Y23175965D01*
X23590005Y23404773D01*
X23622000Y23482015D01*
X23653995Y23404773D01*
X23806880Y23175965D01*
X24001465Y22981380D01*
X24230273Y22828495D01*
X24484510Y22723186D01*
X24754408Y22669500D01*
X25029592Y22669500D01*
X25299490Y22723186D01*
X25553727Y22828495D01*
X25782535Y22981380D01*
X25977120Y23175965D01*
X26130005Y23404773D01*
X26162000Y23482015D01*
X26193995Y23404773D01*
X26346880Y23175965D01*
X26541465Y22981380D01*
X26770273Y22828495D01*
X27024510Y22723186D01*
X27294408Y22669500D01*
X27569592Y22669500D01*
X27839490Y22723186D01*
X28093727Y22828495D01*
X28322535Y22981380D01*
X28517120Y23175965D01*
X28670005Y23404773D01*
X28702000Y23482015D01*
X28733995Y23404773D01*
X28886880Y23175965D01*
X29081465Y22981380D01*
X29237001Y22877454D01*
X29237001Y22642115D01*
X29233444Y22606000D01*
X29247635Y22461915D01*
X29289664Y22323367D01*
X29357914Y22195680D01*
X29449763Y22083762D01*
X29477808Y22060746D01*
X30696746Y20841807D01*
X30719762Y20813762D01*
X30831680Y20721913D01*
X30959367Y20653663D01*
X31097915Y20611635D01*
X31205895Y20601000D01*
X31205904Y20601000D01*
X31241999Y20597445D01*
X31278094Y20601000D01*
X44270133Y20601000D01*
X44328668Y20542464D01*
X44295127Y20528913D01*
X44286682Y20524423D01*
X44115006Y20431598D01*
X44063532Y20396878D01*
X44011582Y20362883D01*
X44004170Y20356838D01*
X43853793Y20232435D01*
X43810027Y20188362D01*
X43765689Y20144943D01*
X43759592Y20137574D01*
X43636242Y19986332D01*
X43601881Y19934614D01*
X43566809Y19883393D01*
X43562260Y19874980D01*
X43470635Y19702657D01*
X43446978Y19645261D01*
X43422519Y19588193D01*
X43419690Y19579057D01*
X43363281Y19392220D01*
X43351219Y19331302D01*
X43338314Y19270590D01*
X43337314Y19261078D01*
X43318269Y19066845D01*
X43318269Y19066827D01*
X43315001Y19033647D01*
X43315001Y18850191D01*
X43308787Y18892130D01*
X43213603Y19158292D01*
X43146671Y19283514D01*
X42902702Y19355097D01*
X42089605Y18542000D01*
X42902702Y17728903D01*
X43146671Y17800486D01*
X43267571Y18055996D01*
X43315001Y18245213D01*
X43315001Y15294192D01*
X43308787Y15336130D01*
X43213603Y15602292D01*
X43146671Y15727514D01*
X42902702Y15799097D01*
X42089605Y14986000D01*
X42902702Y14172903D01*
X43146671Y14244486D01*
X43267571Y14499996D01*
X43315001Y14689212D01*
X43315000Y3966354D01*
X43318366Y3932179D01*
X43318366Y3919194D01*
X43319366Y3909682D01*
X43341121Y3715732D01*
X43354025Y3655024D01*
X43366089Y3594099D01*
X43368917Y3584962D01*
X43427930Y3398932D01*
X43452377Y3341895D01*
X43476046Y3284469D01*
X43480595Y3276056D01*
X43574617Y3105031D01*
X43609692Y3053806D01*
X43644050Y3002094D01*
X43650146Y2994724D01*
X43775596Y2845218D01*
X43819974Y2801760D01*
X43863703Y2757725D01*
X43871109Y2751685D01*
X43871113Y2751681D01*
X43871115Y2751680D01*
X44023214Y2629389D01*
X44075139Y2595411D01*
X44126632Y2560678D01*
X44135077Y2556188D01*
X44308033Y2465768D01*
X44365590Y2442513D01*
X44422835Y2418450D01*
X44431991Y2415685D01*
X44619217Y2360582D01*
X44680218Y2348946D01*
X44741015Y2336466D01*
X44750533Y2335532D01*
X44944895Y2317843D01*
X45006986Y2318277D01*
X45069066Y2317844D01*
X45078585Y2318777D01*
X45272682Y2339178D01*
X45333496Y2351661D01*
X45394481Y2363295D01*
X45403637Y2366059D01*
X45590075Y2423771D01*
X45647279Y2447818D01*
X45704873Y2471087D01*
X45713317Y2475577D01*
X45884994Y2568402D01*
X45936468Y2603122D01*
X45988418Y2637117D01*
X45995829Y2643161D01*
X46146207Y2767565D01*
X46189973Y2811638D01*
X46234311Y2855057D01*
X46240408Y2862426D01*
X46363758Y3013668D01*
X46398126Y3065397D01*
X46433191Y3116608D01*
X46437739Y3125019D01*
X46437740Y3125020D01*
X46437742Y3125024D01*
X46529366Y3297343D01*
X46553022Y3354739D01*
X46577482Y3411807D01*
X46580310Y3420944D01*
X46636719Y3607780D01*
X46648780Y3668690D01*
X46661686Y3729409D01*
X46662686Y3738921D01*
X46681731Y3933155D01*
X46681731Y3933163D01*
X46685000Y3966353D01*
X46685000Y7139554D01*
X47968746Y5855807D01*
X47991762Y5827762D01*
X48103680Y5735913D01*
X48231367Y5667663D01*
X48249000Y5662314D01*
X48249000Y5374593D01*
X48271210Y5149088D01*
X48358983Y4859740D01*
X48501519Y4593074D01*
X48693339Y4359339D01*
X48927073Y4167519D01*
X49193739Y4024983D01*
X49483087Y3937210D01*
X49784000Y3907573D01*
X50084912Y3937210D01*
X50374260Y4024983D01*
X50640926Y4167519D01*
X50874661Y4359339D01*
X51066481Y4593073D01*
X51209017Y4859739D01*
X51296790Y5149087D01*
X51319000Y5374592D01*
X51319000Y7325408D01*
X51296790Y7550913D01*
X51209017Y7840261D01*
X51177086Y7900000D01*
X53325928Y7900000D01*
X53325928Y4800000D01*
X53342992Y4626746D01*
X53393528Y4460150D01*
X53475595Y4306614D01*
X53586038Y4172038D01*
X53720614Y4061595D01*
X53874150Y3979528D01*
X54040746Y3928992D01*
X54214000Y3911928D01*
X55514000Y3911928D01*
X55687254Y3928992D01*
X55853850Y3979528D01*
X56007386Y4061595D01*
X56141962Y4172038D01*
X56252405Y4306614D01*
X56334472Y4460150D01*
X56385008Y4626746D01*
X56402072Y4800000D01*
X56402072Y7900000D01*
X56385008Y8073254D01*
X56334472Y8239850D01*
X56252405Y8393386D01*
X56141962Y8527962D01*
X56007386Y8638405D01*
X55853850Y8720472D01*
X55687254Y8771008D01*
X55514000Y8788072D01*
X54214000Y8788072D01*
X54040746Y8771008D01*
X53874150Y8720472D01*
X53720614Y8638405D01*
X53586038Y8527962D01*
X53475595Y8393386D01*
X53393528Y8239850D01*
X53342992Y8073254D01*
X53325928Y7900000D01*
X51177086Y7900000D01*
X51066481Y8106927D01*
X50874661Y8340661D01*
X50640927Y8532481D01*
X50374261Y8675017D01*
X50084913Y8762790D01*
X49784000Y8792427D01*
X49483088Y8762790D01*
X49193740Y8675017D01*
X48927074Y8532481D01*
X48693340Y8340661D01*
X48501520Y8106927D01*
X48358984Y7840261D01*
X48290138Y7613308D01*
X47217000Y8686446D01*
X47217000Y12221604D01*
X47345241Y12093363D01*
X47580273Y11936320D01*
X47841426Y11828147D01*
X48118665Y11773000D01*
X48401335Y11773000D01*
X48678574Y11828147D01*
X48939727Y11936320D01*
X49174759Y12093363D01*
X49374637Y12293241D01*
X49531680Y12528273D01*
X49639853Y12789426D01*
X49695000Y13066665D01*
X49695000Y13349335D01*
X49639853Y13626574D01*
X49531680Y13887727D01*
X49374637Y14122759D01*
X49174759Y14322637D01*
X48939727Y14479680D01*
X48678574Y14587853D01*
X48401335Y14643000D01*
X48118665Y14643000D01*
X47841426Y14587853D01*
X47580273Y14479680D01*
X47345241Y14322637D01*
X47217000Y14194396D01*
X47217000Y19392474D01*
X47220556Y19428579D01*
X47206365Y19572664D01*
X47164337Y19711213D01*
X47096087Y19838899D01*
X47027253Y19922773D01*
X47027250Y19922776D01*
X47004237Y19950817D01*
X46976197Y19973829D01*
X45119837Y21830188D01*
X45096817Y21858238D01*
X44984899Y21950087D01*
X44857212Y22018337D01*
X44718664Y22060365D01*
X44610684Y22071000D01*
X44574579Y22074556D01*
X44538474Y22071000D01*
X31546447Y22071000D01*
X30726777Y22890669D01*
X30862535Y22981380D01*
X31057120Y23175965D01*
X31210005Y23404773D01*
X31242000Y23482015D01*
X31273995Y23404773D01*
X31426880Y23175965D01*
X31621465Y22981380D01*
X31850273Y22828495D01*
X32104510Y22723186D01*
X32374408Y22669500D01*
X32649592Y22669500D01*
X32919490Y22723186D01*
X33173727Y22828495D01*
X33402535Y22981380D01*
X33597120Y23175965D01*
X33750005Y23404773D01*
X33782000Y23482015D01*
X33813995Y23404773D01*
X33966880Y23175965D01*
X34161465Y22981380D01*
X34390273Y22828495D01*
X34644510Y22723186D01*
X34914408Y22669500D01*
X35189592Y22669500D01*
X35459490Y22723186D01*
X35713727Y22828495D01*
X35942535Y22981380D01*
X36137120Y23175965D01*
X36290005Y23404773D01*
X36353750Y23558666D01*
X36417495Y23404773D01*
X36570380Y23175965D01*
X36764965Y22981380D01*
X36993773Y22828495D01*
X37248010Y22723186D01*
X37517908Y22669500D01*
X37793092Y22669500D01*
X38062990Y22723186D01*
X38317227Y22828495D01*
X38546035Y22981380D01*
X38740620Y23175965D01*
X38893505Y23404773D01*
X38925500Y23482015D01*
X38957495Y23404773D01*
X39110380Y23175965D01*
X39304965Y22981380D01*
X39533773Y22828495D01*
X39788010Y22723186D01*
X40057908Y22669500D01*
X40333092Y22669500D01*
X40602990Y22723186D01*
X40857227Y22828495D01*
X41086035Y22981380D01*
X41280620Y23175965D01*
X41433505Y23404773D01*
X41465500Y23482015D01*
X41497495Y23404773D01*
X41650380Y23175965D01*
X41844965Y22981380D01*
X42073773Y22828495D01*
X42328010Y22723186D01*
X42597908Y22669500D01*
X42873092Y22669500D01*
X43142990Y22723186D01*
X43397227Y22828495D01*
X43626035Y22981380D01*
X43820620Y23175965D01*
X43973505Y23404773D01*
X44005500Y23482015D01*
X44037495Y23404773D01*
X44190380Y23175965D01*
X44384965Y22981380D01*
X44613773Y22828495D01*
X44868010Y22723186D01*
X45137908Y22669500D01*
X45413092Y22669500D01*
X45682990Y22723186D01*
X45937227Y22828495D01*
X46166035Y22981380D01*
X46360620Y23175965D01*
X46513505Y23404773D01*
X46545500Y23482015D01*
X46577495Y23404773D01*
X46730380Y23175965D01*
X46924965Y22981380D01*
X47153773Y22828495D01*
X47408010Y22723186D01*
X47677908Y22669500D01*
X47953092Y22669500D01*
X48222990Y22723186D01*
X48477227Y22828495D01*
X48706035Y22981380D01*
X48900620Y23175965D01*
X49053505Y23404773D01*
X49085500Y23482015D01*
X49117495Y23404773D01*
X49270380Y23175965D01*
X49464965Y22981380D01*
X49693773Y22828495D01*
X49948010Y22723186D01*
X50217908Y22669500D01*
X50493092Y22669500D01*
X50762990Y22723186D01*
X51017227Y22828495D01*
X51246035Y22981380D01*
X51440620Y23175965D01*
X51593505Y23404773D01*
X51625500Y23482015D01*
X51657495Y23404773D01*
X51810380Y23175965D01*
X52004965Y22981380D01*
X52233773Y22828495D01*
X52488010Y22723186D01*
X52757908Y22669500D01*
X53033092Y22669500D01*
X53302990Y22723186D01*
X53557227Y22828495D01*
X53786035Y22981380D01*
X53980620Y23175965D01*
X54133505Y23404773D01*
X54133750Y23405364D01*
X54133995Y23404773D01*
X54286880Y23175965D01*
X54481465Y22981380D01*
X54710273Y22828495D01*
X54964510Y22723186D01*
X55234408Y22669500D01*
X55509592Y22669500D01*
X55779490Y22723186D01*
X56033727Y22828495D01*
X56262535Y22981380D01*
X56457120Y23175965D01*
X56610005Y23404773D01*
X56642000Y23482015D01*
X56673995Y23404773D01*
X56826880Y23175965D01*
X57021465Y22981380D01*
X57250273Y22828495D01*
X57504510Y22723186D01*
X57774408Y22669500D01*
X58049592Y22669500D01*
X58233060Y22705994D01*
X61250022Y19689031D01*
X61248498Y19686180D01*
X61242944Y19667873D01*
X61176505Y19734312D01*
X60925095Y19902299D01*
X60645743Y20018011D01*
X60349184Y20077000D01*
X60046816Y20077000D01*
X59750257Y20018011D01*
X59470905Y19902299D01*
X59219495Y19734312D01*
X59005688Y19520505D01*
X58837701Y19269095D01*
X58721989Y18989743D01*
X58663000Y18693184D01*
X58663000Y18390816D01*
X58721989Y18094257D01*
X58837701Y17814905D01*
X59005688Y17563495D01*
X59219495Y17349688D01*
X59470905Y17181701D01*
X59750257Y17065989D01*
X60046816Y17007000D01*
X60349184Y17007000D01*
X60645743Y17065989D01*
X60925095Y17181701D01*
X61176505Y17349688D01*
X61242944Y17416127D01*
X61248498Y17397820D01*
X61307463Y17287506D01*
X61386815Y17190815D01*
X61483506Y17111463D01*
X61593820Y17052498D01*
X61713518Y17016188D01*
X61838000Y17003928D01*
X63638000Y17003928D01*
X63762482Y17016188D01*
X63882180Y17052498D01*
X63992494Y17111463D01*
X64089185Y17190815D01*
X64168537Y17287506D01*
X64227502Y17397820D01*
X64263812Y17517518D01*
X64276072Y17642000D01*
X64276072Y19442000D01*
X64263812Y19566482D01*
X64227502Y19686180D01*
X64168537Y19796494D01*
X64089185Y19893185D01*
X63992494Y19972537D01*
X63882180Y20031502D01*
X63762482Y20067812D01*
X63638000Y20080072D01*
X62937875Y20080072D01*
X59272506Y23745440D01*
X59309000Y23928908D01*
X59309000Y24204092D01*
X59255314Y24473990D01*
X59150005Y24728227D01*
X58997120Y24957035D01*
X58802535Y25151620D01*
X58573727Y25304505D01*
X58319490Y25409814D01*
X58049592Y25463500D01*
X57774408Y25463500D01*
X57504510Y25409814D01*
X57250273Y25304505D01*
X57021465Y25151620D01*
X56826880Y24957035D01*
X56673995Y24728227D01*
X56642000Y24650985D01*
X56610005Y24728227D01*
X56457120Y24957035D01*
X56262535Y25151620D01*
X56033727Y25304505D01*
X55779490Y25409814D01*
X55509592Y25463500D01*
X55234408Y25463500D01*
X54964510Y25409814D01*
X54710273Y25304505D01*
X54481465Y25151620D01*
X54286880Y24957035D01*
X54133995Y24728227D01*
X54133750Y24727636D01*
X54133505Y24728227D01*
X53980620Y24957035D01*
X53786035Y25151620D01*
X53557227Y25304505D01*
X53302990Y25409814D01*
X53033092Y25463500D01*
X52757908Y25463500D01*
X52488010Y25409814D01*
X52233773Y25304505D01*
X52004965Y25151620D01*
X51810380Y24957035D01*
X51657495Y24728227D01*
X51625500Y24650985D01*
X51593505Y24728227D01*
X51440620Y24957035D01*
X51246035Y25151620D01*
X51017227Y25304505D01*
X50762990Y25409814D01*
X50493092Y25463500D01*
X50217908Y25463500D01*
X49948010Y25409814D01*
X49693773Y25304505D01*
X49464965Y25151620D01*
X49270380Y24957035D01*
X49117495Y24728227D01*
X49085500Y24650985D01*
X49053505Y24728227D01*
X48900620Y24957035D01*
X48706035Y25151620D01*
X48477227Y25304505D01*
X48222990Y25409814D01*
X47953092Y25463500D01*
X47677908Y25463500D01*
X47408010Y25409814D01*
X47153773Y25304505D01*
X46924965Y25151620D01*
X46730380Y24957035D01*
X46577495Y24728227D01*
X46545500Y24650985D01*
X46513505Y24728227D01*
X46360620Y24957035D01*
X46166035Y25151620D01*
X45937227Y25304505D01*
X45682990Y25409814D01*
X45413092Y25463500D01*
X45137908Y25463500D01*
X44868010Y25409814D01*
X44613773Y25304505D01*
X44384965Y25151620D01*
X44190380Y24957035D01*
X44037495Y24728227D01*
X44005500Y24650985D01*
X43973505Y24728227D01*
X43820620Y24957035D01*
X43626035Y25151620D01*
X43397227Y25304505D01*
X43142990Y25409814D01*
X42873092Y25463500D01*
X42597908Y25463500D01*
X42328010Y25409814D01*
X42073773Y25304505D01*
X41844965Y25151620D01*
X41650380Y24957035D01*
X41497495Y24728227D01*
X41465500Y24650985D01*
X41433505Y24728227D01*
X41280620Y24957035D01*
X41086035Y25151620D01*
X40857227Y25304505D01*
X40602990Y25409814D01*
X40333092Y25463500D01*
X40057908Y25463500D01*
X39788010Y25409814D01*
X39533773Y25304505D01*
X39304965Y25151620D01*
X39110380Y24957035D01*
X38957495Y24728227D01*
X38925500Y24650985D01*
X38893505Y24728227D01*
X38740620Y24957035D01*
X38546035Y25151620D01*
X38317227Y25304505D01*
X38062990Y25409814D01*
X37793092Y25463500D01*
X37517908Y25463500D01*
X37248010Y25409814D01*
X36993773Y25304505D01*
X36764965Y25151620D01*
X36570380Y24957035D01*
X36417495Y24728227D01*
X36353750Y24574334D01*
X36290005Y24728227D01*
X36137120Y24957035D01*
X35942535Y25151620D01*
X35713727Y25304505D01*
X35459490Y25409814D01*
X35189592Y25463500D01*
X34914408Y25463500D01*
X34644510Y25409814D01*
X34390273Y25304505D01*
X34161465Y25151620D01*
X33966880Y24957035D01*
X33813995Y24728227D01*
X33782000Y24650985D01*
X33750005Y24728227D01*
X33597120Y24957035D01*
X33402535Y25151620D01*
X33173727Y25304505D01*
X32919490Y25409814D01*
X32649592Y25463500D01*
X32374408Y25463500D01*
X32104510Y25409814D01*
X31850273Y25304505D01*
X31621465Y25151620D01*
X31426880Y24957035D01*
X31273995Y24728227D01*
X31242000Y24650985D01*
X31210005Y24728227D01*
X31057120Y24957035D01*
X30862535Y25151620D01*
X30633727Y25304505D01*
X30379490Y25409814D01*
X30109592Y25463500D01*
X29834408Y25463500D01*
X29564510Y25409814D01*
X29310273Y25304505D01*
X29081465Y25151620D01*
X28886880Y24957035D01*
X28733995Y24728227D01*
X28702000Y24650985D01*
X28670005Y24728227D01*
X28517120Y24957035D01*
X28322535Y25151620D01*
X28093727Y25304505D01*
X27839490Y25409814D01*
X27569592Y25463500D01*
X27294408Y25463500D01*
X27024510Y25409814D01*
X26770273Y25304505D01*
X26541465Y25151620D01*
X26346880Y24957035D01*
X26193995Y24728227D01*
X26162000Y24650985D01*
X26130005Y24728227D01*
X25977120Y24957035D01*
X25782535Y25151620D01*
X25553727Y25304505D01*
X25299490Y25409814D01*
X25029592Y25463500D01*
X24754408Y25463500D01*
X24484510Y25409814D01*
X24230273Y25304505D01*
X24001465Y25151620D01*
X23806880Y24957035D01*
X23653995Y24728227D01*
X23622000Y24650985D01*
X23590005Y24728227D01*
X23437120Y24957035D01*
X23242535Y25151620D01*
X23013727Y25304505D01*
X22759490Y25409814D01*
X22489592Y25463500D01*
X22214408Y25463500D01*
X21944510Y25409814D01*
X21690273Y25304505D01*
X21461465Y25151620D01*
X21266880Y24957035D01*
X21113995Y24728227D01*
X21082000Y24650985D01*
X21050005Y24728227D01*
X20897120Y24957035D01*
X20702535Y25151620D01*
X20473727Y25304505D01*
X20219490Y25409814D01*
X19949592Y25463500D01*
X19674408Y25463500D01*
X19404510Y25409814D01*
X19150273Y25304505D01*
X18921465Y25151620D01*
X18726880Y24957035D01*
X18573995Y24728227D01*
X18542000Y24650985D01*
X18510005Y24728227D01*
X18357120Y24957035D01*
X18162535Y25151620D01*
X17933727Y25304505D01*
X17679490Y25409814D01*
X17409592Y25463500D01*
X17134408Y25463500D01*
X16864510Y25409814D01*
X16610273Y25304505D01*
X16381465Y25151620D01*
X16186880Y24957035D01*
X16033995Y24728227D01*
X16002000Y24650985D01*
X15970005Y24728227D01*
X15817120Y24957035D01*
X15622535Y25151620D01*
X15393727Y25304505D01*
X15139490Y25409814D01*
X14869592Y25463500D01*
X14594408Y25463500D01*
X14324510Y25409814D01*
X14070273Y25304505D01*
X13841465Y25151620D01*
X13646880Y24957035D01*
X13493995Y24728227D01*
X13388686Y24473990D01*
X13335000Y24204092D01*
X12673000Y24204092D01*
X12673000Y49413554D01*
X13054103Y49794656D01*
X13303740Y49745000D01*
X13596260Y49745000D01*
X13883158Y49802068D01*
X14153411Y49914010D01*
X14396632Y50076525D01*
X14603475Y50283368D01*
X14720000Y50457760D01*
X14836525Y50283368D01*
X15043368Y50076525D01*
X15286589Y49914010D01*
X15556842Y49802068D01*
X15843740Y49745000D01*
X16136260Y49745000D01*
X16423158Y49802068D01*
X16693411Y49914010D01*
X16936632Y50076525D01*
X17143475Y50283368D01*
X17260000Y50457760D01*
X17376525Y50283368D01*
X17583368Y50076525D01*
X17826589Y49914010D01*
X18096842Y49802068D01*
X18383740Y49745000D01*
X18676260Y49745000D01*
X18963158Y49802068D01*
X19233411Y49914010D01*
X19476632Y50076525D01*
X19683475Y50283368D01*
X19800000Y50457760D01*
X19916525Y50283368D01*
X20123368Y50076525D01*
X20366589Y49914010D01*
X20636842Y49802068D01*
X20923740Y49745000D01*
X21216260Y49745000D01*
X21503158Y49802068D01*
X21773411Y49914010D01*
X22016632Y50076525D01*
X22223475Y50283368D01*
X22340000Y50457760D01*
X22456525Y50283368D01*
X22663368Y50076525D01*
X22906589Y49914010D01*
X23176842Y49802068D01*
X23463740Y49745000D01*
X23756260Y49745000D01*
X24043158Y49802068D01*
X24313411Y49914010D01*
X24556632Y50076525D01*
X24763475Y50283368D01*
X24880000Y50457760D01*
X24996525Y50283368D01*
X25203368Y50076525D01*
X25446589Y49914010D01*
X25716842Y49802068D01*
X26003740Y49745000D01*
X26296260Y49745000D01*
X26583158Y49802068D01*
X26853411Y49914010D01*
X27096632Y50076525D01*
X27303475Y50283368D01*
X27425195Y50465534D01*
X27494822Y50348645D01*
X27689731Y50132412D01*
X27923080Y49958359D01*
X28185901Y49833175D01*
X28333110Y49788524D01*
X28563000Y49909845D01*
X28563000Y51103000D01*
X28543000Y51103000D01*
X28543000Y51357000D01*
X28563000Y51357000D01*
X28563000Y51377000D01*
X28817000Y51377000D01*
X28817000Y51357000D01*
G36*
X11072494Y55325494D02*
G01*
X11002000Y55255000D01*
X10763740Y55255000D01*
X10476842Y55197932D01*
X10206589Y55085990D01*
X9963368Y54923475D01*
X9756525Y54716632D01*
X9640000Y54542240D01*
X9523475Y54716632D01*
X9316632Y54923475D01*
X9073411Y55085990D01*
X8803158Y55197932D01*
X8516260Y55255000D01*
X8223740Y55255000D01*
X7936842Y55197932D01*
X7666589Y55085990D01*
X7423368Y54923475D01*
X7216525Y54716632D01*
X7054010Y54473411D01*
X6942068Y54203158D01*
X6885000Y53916260D01*
X6885000Y53623740D01*
X6942068Y53336842D01*
X7054010Y53066589D01*
X7216525Y52823368D01*
X7348380Y52691513D01*
X7275820Y52669502D01*
X7165506Y52610537D01*
X7068815Y52531185D01*
X6989463Y52434494D01*
X6930498Y52324180D01*
X6894188Y52204482D01*
X6881928Y52080000D01*
X6885000Y51515750D01*
X7043750Y51357000D01*
X8243000Y51357000D01*
X8243000Y51377000D01*
X8497000Y51377000D01*
X8497000Y51357000D01*
X8517000Y51357000D01*
X8517000Y51103000D01*
X8497000Y51103000D01*
X8497000Y49903750D01*
X8655750Y49745000D01*
X9220000Y49741928D01*
X9344482Y49754188D01*
X9464180Y49790498D01*
X9574494Y49849463D01*
X9671185Y49928815D01*
X9750537Y50025506D01*
X9809502Y50135820D01*
X9831513Y50208380D01*
X9963368Y50076525D01*
X10206589Y49914010D01*
X10476842Y49802068D01*
X10763740Y49745000D01*
X11056260Y49745000D01*
X11205018Y49774590D01*
X11199444Y49718000D01*
X11203001Y49681885D01*
X11203000Y20370447D01*
X9855554Y19023000D01*
X5969000Y19023000D01*
X5969000Y36830000D01*
X5966560Y36854776D01*
X5959333Y36878601D01*
X5947597Y36900557D01*
X5931803Y36919803D01*
X5912557Y36935597D01*
X5890601Y36947333D01*
X5866776Y36954560D01*
X5842000Y36957000D01*
X5195032Y36957000D01*
X5157959Y36981632D01*
X5106694Y37016733D01*
X5098281Y37021282D01*
X5012120Y37067094D01*
X4954704Y37090758D01*
X4897661Y37115208D01*
X4888525Y37118036D01*
X4795107Y37146241D01*
X4734195Y37158302D01*
X4673471Y37171209D01*
X4663959Y37172209D01*
X4566841Y37181731D01*
X4566837Y37181731D01*
X4533647Y37185000D01*
X381000Y37185000D01*
X381000Y47625000D01*
X6350000Y47625000D01*
X6374776Y47627440D01*
X6398601Y47634667D01*
X6420557Y47646403D01*
X6439803Y47662197D01*
X6455597Y47681443D01*
X6467333Y47703399D01*
X6474560Y47727224D01*
X6477000Y47752000D01*
X6477000Y50380000D01*
X6881928Y50380000D01*
X6894188Y50255518D01*
X6930498Y50135820D01*
X6989463Y50025506D01*
X7068815Y49928815D01*
X7165506Y49849463D01*
X7275820Y49790498D01*
X7395518Y49754188D01*
X7520000Y49741928D01*
X8084250Y49745000D01*
X8243000Y49903750D01*
X8243000Y51103000D01*
X7043750Y51103000D01*
X6885000Y50944250D01*
X6881928Y50380000D01*
X6477000Y50380000D01*
X6477000Y55326441D01*
X11072494Y55325494D01*
G37*
X11072494Y55325494D02*
X11002000Y55255000D01*
X10763740Y55255000D01*
X10476842Y55197932D01*
X10206589Y55085990D01*
X9963368Y54923475D01*
X9756525Y54716632D01*
X9640000Y54542240D01*
X9523475Y54716632D01*
X9316632Y54923475D01*
X9073411Y55085990D01*
X8803158Y55197932D01*
X8516260Y55255000D01*
X8223740Y55255000D01*
X7936842Y55197932D01*
X7666589Y55085990D01*
X7423368Y54923475D01*
X7216525Y54716632D01*
X7054010Y54473411D01*
X6942068Y54203158D01*
X6885000Y53916260D01*
X6885000Y53623740D01*
X6942068Y53336842D01*
X7054010Y53066589D01*
X7216525Y52823368D01*
X7348380Y52691513D01*
X7275820Y52669502D01*
X7165506Y52610537D01*
X7068815Y52531185D01*
X6989463Y52434494D01*
X6930498Y52324180D01*
X6894188Y52204482D01*
X6881928Y52080000D01*
X6885000Y51515750D01*
X7043750Y51357000D01*
X8243000Y51357000D01*
X8243000Y51377000D01*
X8497000Y51377000D01*
X8497000Y51357000D01*
X8517000Y51357000D01*
X8517000Y51103000D01*
X8497000Y51103000D01*
X8497000Y49903750D01*
X8655750Y49745000D01*
X9220000Y49741928D01*
X9344482Y49754188D01*
X9464180Y49790498D01*
X9574494Y49849463D01*
X9671185Y49928815D01*
X9750537Y50025506D01*
X9809502Y50135820D01*
X9831513Y50208380D01*
X9963368Y50076525D01*
X10206589Y49914010D01*
X10476842Y49802068D01*
X10763740Y49745000D01*
X11056260Y49745000D01*
X11205018Y49774590D01*
X11199444Y49718000D01*
X11203001Y49681885D01*
X11203000Y20370447D01*
X9855554Y19023000D01*
X5969000Y19023000D01*
X5969000Y36830000D01*
X5966560Y36854776D01*
X5959333Y36878601D01*
X5947597Y36900557D01*
X5931803Y36919803D01*
X5912557Y36935597D01*
X5890601Y36947333D01*
X5866776Y36954560D01*
X5842000Y36957000D01*
X5195032Y36957000D01*
X5157959Y36981632D01*
X5106694Y37016733D01*
X5098281Y37021282D01*
X5012120Y37067094D01*
X4954704Y37090758D01*
X4897661Y37115208D01*
X4888525Y37118036D01*
X4795107Y37146241D01*
X4734195Y37158302D01*
X4673471Y37171209D01*
X4663959Y37172209D01*
X4566841Y37181731D01*
X4566837Y37181731D01*
X4533647Y37185000D01*
X381000Y37185000D01*
X381000Y47625000D01*
X6350000Y47625000D01*
X6374776Y47627440D01*
X6398601Y47634667D01*
X6420557Y47646403D01*
X6439803Y47662197D01*
X6455597Y47681443D01*
X6467333Y47703399D01*
X6474560Y47727224D01*
X6477000Y47752000D01*
X6477000Y50380000D01*
X6881928Y50380000D01*
X6894188Y50255518D01*
X6930498Y50135820D01*
X6989463Y50025506D01*
X7068815Y49928815D01*
X7165506Y49849463D01*
X7275820Y49790498D01*
X7395518Y49754188D01*
X7520000Y49741928D01*
X8084250Y49745000D01*
X8243000Y49903750D01*
X8243000Y51103000D01*
X7043750Y51103000D01*
X6885000Y50944250D01*
X6881928Y50380000D01*
X6477000Y50380000D01*
X6477000Y55326441D01*
X11072494Y55325494D01*
%TD*%
M02*
