%TF.GenerationSoftware,KiCad,Pcbnew,5.1.5+dfsg1-2build2*%
%TF.CreationDate,2021-04-13T00:34:59-04:00*%
%TF.ProjectId,rasp_heltec_lora_hat,72617370-5f68-4656-9c74-65635f6c6f72,rev?*%
%TF.SameCoordinates,PXbebc200PY8f0d180*%
%TF.FileFunction,Copper,L1,Top*%
%TF.FilePolarity,Positive*%
%FSLAX46Y46*%
G04 Gerber Fmt 4.6, Leading zero omitted, Abs format (unit mm)*
G04 Created by KiCad (PCBNEW 5.1.5+dfsg1-2build2) date 2021-04-13 00:34:59*
%MOMM*%
%LPD*%
G04 APERTURE LIST*
%TA.AperFunction,Profile*%
%ADD10C,0.100000*%
%TD*%
%TA.AperFunction,ComponentPad*%
%ADD11R,1.700000X1.700000*%
%TD*%
%TA.AperFunction,ComponentPad*%
%ADD12O,1.700000X1.700000*%
%TD*%
%TA.AperFunction,ComponentPad*%
%ADD13R,1.800000X1.800000*%
%TD*%
%TA.AperFunction,ComponentPad*%
%ADD14C,1.800000*%
%TD*%
%TA.AperFunction,ComponentPad*%
%ADD15C,0.100000*%
%TD*%
%TA.AperFunction,ComponentPad*%
%ADD16O,1.800000X3.600000*%
%TD*%
%TA.AperFunction,ComponentPad*%
%ADD17O,1.600000X1.600000*%
%TD*%
%TA.AperFunction,ComponentPad*%
%ADD18C,1.600000*%
%TD*%
%TA.AperFunction,ComponentPad*%
%ADD19C,1.524000*%
%TD*%
%TA.AperFunction,Conductor*%
%ADD20C,0.200000*%
%TD*%
%TA.AperFunction,Conductor*%
%ADD21C,0.700000*%
%TD*%
%TA.AperFunction,Conductor*%
%ADD22C,0.254000*%
%TD*%
G04 APERTURE END LIST*
D10*
X-190000Y36578171D02*
X-40000Y36500000D01*
X-14130098Y36578171D02*
X-190000Y36578171D01*
X-14130098Y36578171D02*
G75*
G02X-16256000Y38608000I-93902J2029829D01*
G01*
X-16256000Y51308000D02*
G75*
G02X-14224000Y53340000I2032000J0D01*
G01*
X-40000Y36500000D02*
X500000Y36500000D01*
X-16256000Y51308000D02*
X-16256000Y38608000D01*
X0Y53340000D02*
X-14224000Y53340000D01*
X44000000Y4000000D02*
X44000000Y19000000D01*
X46000000Y19000000D02*
X46000000Y4000000D01*
X46000000Y19000000D02*
G75*
G03X44000000Y19000000I-1000000J0D01*
G01*
X44000000Y4000000D02*
G75*
G03X46000000Y4000000I1000000J0D01*
G01*
X499127Y19499999D02*
G75*
G03X0Y19000000I873J-499999D01*
G01*
X4500000Y19500000D02*
G75*
G03X5000000Y20000000I0J500000D01*
G01*
X5000000Y36000000D02*
G75*
G03X4500000Y36500000I-500000J0D01*
G01*
X65000000Y53000000D02*
G75*
G03X62000000Y56000000I-3000000J0D01*
G01*
X62000000Y0D02*
G75*
G03X65000000Y3000000I0J3000000D01*
G01*
X0Y3000000D02*
G75*
G03X3000000Y0I3000000J0D01*
G01*
X2794452Y56012200D02*
G75*
G03X0Y53340000I205548J-3012200D01*
G01*
X62000000Y56000000D02*
X2794452Y56012200D01*
X4500000Y19500000D02*
X500000Y19500000D01*
X5000000Y36000000D02*
X5000000Y20000000D01*
X500000Y36500000D02*
X4500000Y36500000D01*
X65000000Y3000000D02*
X65000000Y53000000D01*
X3000000Y0D02*
X62000000Y0D01*
X0Y19000000D02*
X0Y3000000D01*
D11*
%TO.P,P1,1*%
%TO.N,+3V3*%
X8370000Y51230000D03*
D12*
%TO.P,P1,2*%
%TO.N,+5V*%
X8370000Y53770000D03*
%TO.P,P1,3*%
%TO.N,/GPIO2(SDA1)*%
X10910000Y51230000D03*
%TO.P,P1,4*%
%TO.N,+5V*%
X10910000Y53770000D03*
%TO.P,P1,5*%
%TO.N,/GPIO3(SCL1)*%
X13450000Y51230000D03*
%TO.P,P1,6*%
%TO.N,GND*%
X13450000Y53770000D03*
%TO.P,P1,7*%
%TO.N,N/C*%
X15990000Y51230000D03*
%TO.P,P1,8*%
%TO.N,HELTEC_RX*%
X15990000Y53770000D03*
%TO.P,P1,9*%
%TO.N,GND*%
X18530000Y51230000D03*
%TO.P,P1,10*%
%TO.N,HELTEC_TX*%
X18530000Y53770000D03*
%TO.P,P1,11*%
%TO.N,N/C*%
X21070000Y51230000D03*
%TO.P,P1,12*%
X21070000Y53770000D03*
%TO.P,P1,13*%
X23610000Y51230000D03*
%TO.P,P1,14*%
%TO.N,GND*%
X23610000Y53770000D03*
%TO.P,P1,15*%
%TO.N,N/C*%
X26150000Y51230000D03*
%TO.P,P1,16*%
X26150000Y53770000D03*
%TO.P,P1,17*%
%TO.N,+3V3*%
X28690000Y51230000D03*
%TO.P,P1,18*%
%TO.N,N/C*%
X28690000Y53770000D03*
%TO.P,P1,19*%
X31230000Y51230000D03*
%TO.P,P1,20*%
%TO.N,GND*%
X31230000Y53770000D03*
%TO.P,P1,21*%
%TO.N,N/C*%
X33770000Y51230000D03*
%TO.P,P1,22*%
X33770000Y53770000D03*
%TO.P,P1,23*%
X36310000Y51230000D03*
%TO.P,P1,24*%
X36310000Y53770000D03*
%TO.P,P1,25*%
%TO.N,GND*%
X38850000Y51230000D03*
%TO.P,P1,26*%
%TO.N,N/C*%
X38850000Y53770000D03*
%TO.P,P1,27*%
X41390000Y51230000D03*
%TO.P,P1,28*%
X41390000Y53770000D03*
%TO.P,P1,29*%
X43930000Y51230000D03*
%TO.P,P1,30*%
%TO.N,GND*%
X43930000Y53770000D03*
%TO.P,P1,31*%
%TO.N,N/C*%
X46470000Y51230000D03*
%TO.P,P1,32*%
X46470000Y53770000D03*
%TO.P,P1,33*%
X49010000Y51230000D03*
%TO.P,P1,34*%
%TO.N,GND*%
X49010000Y53770000D03*
%TO.P,P1,35*%
%TO.N,N/C*%
X51550000Y51230000D03*
%TO.P,P1,36*%
X51550000Y53770000D03*
%TO.P,P1,37*%
X54090000Y51230000D03*
%TO.P,P1,38*%
X54090000Y53770000D03*
%TO.P,P1,39*%
%TO.N,GND*%
X56630000Y51230000D03*
%TO.P,P1,40*%
%TO.N,N/C*%
X56630000Y53770000D03*
%TD*%
D13*
%TO.P,D1,1*%
%TO.N,GND*%
X62738000Y18542000D03*
D14*
%TO.P,D1,2*%
%TO.N,Net-(D1-Pad2)*%
X60198000Y18542000D03*
%TD*%
D11*
%TO.P,J1,1*%
%TO.N,+3V3*%
X14732000Y13462000D03*
D12*
%TO.P,J1,2*%
%TO.N,GND*%
X17272000Y13462000D03*
%TO.P,J1,3*%
%TO.N,I2C_SCL*%
X19812000Y13462000D03*
%TO.P,J1,4*%
%TO.N,I2C_SDA*%
X22352000Y13462000D03*
%TD*%
%TO.P,J2,4*%
%TO.N,I2C_SDA*%
X22352000Y18288000D03*
%TO.P,J2,3*%
%TO.N,I2C_SCL*%
X19812000Y18288000D03*
%TO.P,J2,2*%
%TO.N,GND*%
X17272000Y18288000D03*
D11*
%TO.P,J2,1*%
%TO.N,+3V3*%
X14732000Y18288000D03*
%TD*%
%TA.AperFunction,ComponentPad*%
D15*
%TO.P,J3 - DAC,1*%
%TO.N,GND*%
G36*
X55538504Y8148796D02*
G01*
X55562773Y8145196D01*
X55586571Y8139235D01*
X55609671Y8130970D01*
X55631849Y8120480D01*
X55652893Y8107867D01*
X55672598Y8093253D01*
X55690777Y8076777D01*
X55707253Y8058598D01*
X55721867Y8038893D01*
X55734480Y8017849D01*
X55744970Y7995671D01*
X55753235Y7972571D01*
X55759196Y7948773D01*
X55762796Y7924504D01*
X55764000Y7900000D01*
X55764000Y4800000D01*
X55762796Y4775496D01*
X55759196Y4751227D01*
X55753235Y4727429D01*
X55744970Y4704329D01*
X55734480Y4682151D01*
X55721867Y4661107D01*
X55707253Y4641402D01*
X55690777Y4623223D01*
X55672598Y4606747D01*
X55652893Y4592133D01*
X55631849Y4579520D01*
X55609671Y4569030D01*
X55586571Y4560765D01*
X55562773Y4554804D01*
X55538504Y4551204D01*
X55514000Y4550000D01*
X54214000Y4550000D01*
X54189496Y4551204D01*
X54165227Y4554804D01*
X54141429Y4560765D01*
X54118329Y4569030D01*
X54096151Y4579520D01*
X54075107Y4592133D01*
X54055402Y4606747D01*
X54037223Y4623223D01*
X54020747Y4641402D01*
X54006133Y4661107D01*
X53993520Y4682151D01*
X53983030Y4704329D01*
X53974765Y4727429D01*
X53968804Y4751227D01*
X53965204Y4775496D01*
X53964000Y4800000D01*
X53964000Y7900000D01*
X53965204Y7924504D01*
X53968804Y7948773D01*
X53974765Y7972571D01*
X53983030Y7995671D01*
X53993520Y8017849D01*
X54006133Y8038893D01*
X54020747Y8058598D01*
X54037223Y8076777D01*
X54055402Y8093253D01*
X54075107Y8107867D01*
X54096151Y8120480D01*
X54118329Y8130970D01*
X54141429Y8139235D01*
X54165227Y8145196D01*
X54189496Y8148796D01*
X54214000Y8150000D01*
X55514000Y8150000D01*
X55538504Y8148796D01*
G37*
%TD.AperFunction*%
D16*
%TO.P,J3 - DAC,2*%
%TO.N,DAC_OUTPUT*%
X49784000Y6350000D03*
%TD*%
%TO.P,J4 - ALIMENTACAO,3*%
%TO.N,+5V*%
X40132000Y4826000D03*
%TO.P,J4 - ALIMENTACAO,2*%
%TO.N,+3V3*%
X35052000Y4826000D03*
%TA.AperFunction,ComponentPad*%
D15*
%TO.P,J4 - ALIMENTACAO,1*%
%TO.N,GND*%
G36*
X30646504Y6624796D02*
G01*
X30670773Y6621196D01*
X30694571Y6615235D01*
X30717671Y6606970D01*
X30739849Y6596480D01*
X30760893Y6583867D01*
X30780598Y6569253D01*
X30798777Y6552777D01*
X30815253Y6534598D01*
X30829867Y6514893D01*
X30842480Y6493849D01*
X30852970Y6471671D01*
X30861235Y6448571D01*
X30867196Y6424773D01*
X30870796Y6400504D01*
X30872000Y6376000D01*
X30872000Y3276000D01*
X30870796Y3251496D01*
X30867196Y3227227D01*
X30861235Y3203429D01*
X30852970Y3180329D01*
X30842480Y3158151D01*
X30829867Y3137107D01*
X30815253Y3117402D01*
X30798777Y3099223D01*
X30780598Y3082747D01*
X30760893Y3068133D01*
X30739849Y3055520D01*
X30717671Y3045030D01*
X30694571Y3036765D01*
X30670773Y3030804D01*
X30646504Y3027204D01*
X30622000Y3026000D01*
X29322000Y3026000D01*
X29297496Y3027204D01*
X29273227Y3030804D01*
X29249429Y3036765D01*
X29226329Y3045030D01*
X29204151Y3055520D01*
X29183107Y3068133D01*
X29163402Y3082747D01*
X29145223Y3099223D01*
X29128747Y3117402D01*
X29114133Y3137107D01*
X29101520Y3158151D01*
X29091030Y3180329D01*
X29082765Y3203429D01*
X29076804Y3227227D01*
X29073204Y3251496D01*
X29072000Y3276000D01*
X29072000Y6376000D01*
X29073204Y6400504D01*
X29076804Y6424773D01*
X29082765Y6448571D01*
X29091030Y6471671D01*
X29101520Y6493849D01*
X29114133Y6514893D01*
X29128747Y6534598D01*
X29145223Y6552777D01*
X29163402Y6569253D01*
X29183107Y6583867D01*
X29204151Y6596480D01*
X29226329Y6606970D01*
X29249429Y6615235D01*
X29273227Y6621196D01*
X29297496Y6624796D01*
X29322000Y6626000D01*
X30622000Y6626000D01*
X30646504Y6624796D01*
G37*
%TD.AperFunction*%
%TD*%
%TA.AperFunction,ComponentPad*%
%TO.P,J5 - ADC1,1*%
%TO.N,ADC1_CH_2*%
G36*
X13120504Y6624796D02*
G01*
X13144773Y6621196D01*
X13168571Y6615235D01*
X13191671Y6606970D01*
X13213849Y6596480D01*
X13234893Y6583867D01*
X13254598Y6569253D01*
X13272777Y6552777D01*
X13289253Y6534598D01*
X13303867Y6514893D01*
X13316480Y6493849D01*
X13326970Y6471671D01*
X13335235Y6448571D01*
X13341196Y6424773D01*
X13344796Y6400504D01*
X13346000Y6376000D01*
X13346000Y3276000D01*
X13344796Y3251496D01*
X13341196Y3227227D01*
X13335235Y3203429D01*
X13326970Y3180329D01*
X13316480Y3158151D01*
X13303867Y3137107D01*
X13289253Y3117402D01*
X13272777Y3099223D01*
X13254598Y3082747D01*
X13234893Y3068133D01*
X13213849Y3055520D01*
X13191671Y3045030D01*
X13168571Y3036765D01*
X13144773Y3030804D01*
X13120504Y3027204D01*
X13096000Y3026000D01*
X11796000Y3026000D01*
X11771496Y3027204D01*
X11747227Y3030804D01*
X11723429Y3036765D01*
X11700329Y3045030D01*
X11678151Y3055520D01*
X11657107Y3068133D01*
X11637402Y3082747D01*
X11619223Y3099223D01*
X11602747Y3117402D01*
X11588133Y3137107D01*
X11575520Y3158151D01*
X11565030Y3180329D01*
X11556765Y3203429D01*
X11550804Y3227227D01*
X11547204Y3251496D01*
X11546000Y3276000D01*
X11546000Y6376000D01*
X11547204Y6400504D01*
X11550804Y6424773D01*
X11556765Y6448571D01*
X11565030Y6471671D01*
X11575520Y6493849D01*
X11588133Y6514893D01*
X11602747Y6534598D01*
X11619223Y6552777D01*
X11637402Y6569253D01*
X11657107Y6583867D01*
X11678151Y6596480D01*
X11700329Y6606970D01*
X11723429Y6615235D01*
X11747227Y6621196D01*
X11771496Y6624796D01*
X11796000Y6626000D01*
X13096000Y6626000D01*
X13120504Y6624796D01*
G37*
%TD.AperFunction*%
D16*
%TO.P,J5 - ADC1,2*%
%TO.N,ADC1_CH_1*%
X17526000Y4826000D03*
%TO.P,J5 - ADC1,3*%
%TO.N,ADC1_CH_0*%
X22606000Y4826000D03*
%TD*%
D11*
%TO.P,JP1 - SDA,1*%
%TO.N,I2C_SDA*%
X5334000Y16764000D03*
D12*
%TO.P,JP1 - SDA,2*%
%TO.N,/GPIO2(SDA1)*%
X2794000Y16764000D03*
%TD*%
%TO.P,JP2 - SCL,2*%
%TO.N,/GPIO3(SCL1)*%
X2794000Y9144000D03*
D11*
%TO.P,JP2 - SCL,1*%
%TO.N,I2C_SCL*%
X5334000Y9144000D03*
%TD*%
%TO.P,JP3 - ALIM HELTEC,1*%
%TO.N,Net-(JP3-Pad1)*%
X62992000Y44196000D03*
D12*
%TO.P,JP3 - ALIM HELTEC,2*%
%TO.N,+5V*%
X62992000Y41656000D03*
%TD*%
D17*
%TO.P,R1,2*%
%TO.N,I2C_SDA*%
X26670000Y14986000D03*
D18*
%TO.P,R1,1*%
%TO.N,+3V3*%
X41910000Y14986000D03*
%TD*%
%TO.P,R2,1*%
%TO.N,+3V3*%
X41910000Y18542000D03*
D17*
%TO.P,R2,2*%
%TO.N,I2C_SCL*%
X26670000Y18542000D03*
%TD*%
D18*
%TO.P,R3,1*%
%TO.N,+5V*%
X48260000Y13208000D03*
D17*
%TO.P,R3,2*%
%TO.N,Net-(D1-Pad2)*%
X63500000Y13208000D03*
%TD*%
D19*
%TO.P,U1,1*%
%TO.N,GND*%
X58166000Y46990000D03*
%TO.P,U1,2*%
%TO.N,Net-(JP3-Pad1)*%
X55626000Y46990000D03*
%TO.P,U1,3*%
%TO.N,Net-(U1-Pad3)*%
X53086000Y46990000D03*
%TO.P,U1,4*%
%TO.N,GND*%
X50546000Y46990000D03*
%TO.P,U1,5*%
%TO.N,N/C*%
X48006000Y46990000D03*
%TO.P,U1,6*%
X45466000Y46990000D03*
%TO.P,U1,7*%
X42926000Y46990000D03*
%TO.P,U1,8*%
X40386000Y46990000D03*
%TO.P,U1,9*%
X37846000Y46990000D03*
%TO.P,U1,10*%
X35306000Y46990000D03*
%TO.P,U1,11*%
%TO.N,HELTEC_TX*%
X32766000Y46990000D03*
%TO.P,U1,12*%
%TO.N,N/C*%
X30226000Y46990000D03*
%TO.P,U1,13*%
X27686000Y46990000D03*
%TO.P,U1,14*%
X25146000Y46990000D03*
%TO.P,U1,15*%
X22606000Y46990000D03*
%TO.P,U1,16*%
X20066000Y46990000D03*
%TO.P,U1,17*%
%TO.N,HELTEC_RX*%
X17526000Y46990000D03*
%TO.P,U1,18*%
%TO.N,N/C*%
X14986000Y46990000D03*
%TO.P,U1,19*%
X14986000Y23050500D03*
%TO.P,U1,20*%
X17526000Y23050500D03*
%TO.P,U1,21*%
X20066000Y23050500D03*
%TO.P,U1,22*%
X22606000Y23050500D03*
%TO.P,U1,23*%
X25146000Y23050500D03*
%TO.P,U1,24*%
X27686000Y23050500D03*
%TO.P,U1,25*%
%TO.N,DAC_OUTPUT*%
X30226000Y23050500D03*
%TO.P,U1,26*%
%TO.N,N/C*%
X32766000Y23050500D03*
%TO.P,U1,27*%
X35306000Y23050500D03*
%TO.P,U1,28*%
X37909500Y23050500D03*
%TO.P,U1,29*%
X40449500Y23050500D03*
%TO.P,U1,30*%
X42989500Y23050500D03*
%TO.P,U1,31*%
%TO.N,ADC1_CH_2*%
X45529500Y23050500D03*
%TO.P,U1,32*%
%TO.N,ADC1_CH_1*%
X48069500Y23050500D03*
%TO.P,U1,33*%
%TO.N,ADC1_CH_0*%
X50609500Y23050500D03*
%TO.P,U1,34*%
%TO.N,Net-(U1-Pad3)*%
X53149500Y23050500D03*
%TO.P,U1,35*%
%TO.N,Net-(JP3-Pad1)*%
X55626000Y23050500D03*
%TO.P,U1,36*%
%TO.N,GND*%
X58166000Y23050500D03*
%TD*%
D20*
%TO.N,+3V3*%
X14732000Y18288000D02*
X14732000Y13462000D01*
%TO.N,+5V*%
X8370000Y53770000D02*
X10910000Y53770000D01*
X62992000Y41656000D02*
X62992000Y25400000D01*
X62992000Y25400000D02*
X58166000Y20574000D01*
X58166000Y20574000D02*
X50800000Y20574000D01*
X48260000Y18034000D02*
X48260000Y13208000D01*
X50800000Y20574000D02*
X48260000Y18034000D01*
X40132000Y2826000D02*
X40132000Y4826000D01*
X40926000Y2032000D02*
X40132000Y2826000D01*
X46482000Y2032000D02*
X40926000Y2032000D01*
X47460001Y3010001D02*
X46482000Y2032000D01*
X47460001Y12408001D02*
X47460001Y3010001D01*
X48260000Y13208000D02*
X47460001Y12408001D01*
%TO.N,/GPIO2(SDA1)*%
X10910000Y51230000D02*
X10910000Y21324000D01*
X10910000Y19546000D02*
X10910000Y21324000D01*
X2794000Y16764000D02*
X4572000Y18542000D01*
X9906000Y18542000D02*
X10910000Y19546000D01*
X4572000Y18542000D02*
X9906000Y18542000D01*
%TO.N,Net-(D1-Pad2)*%
X60198000Y16510000D02*
X60198000Y18542000D01*
X63500000Y13208000D02*
X60198000Y16510000D01*
%TO.N,I2C_SCL*%
X19812000Y18288000D02*
X19812000Y13462000D01*
X20661999Y19137999D02*
X19812000Y18288000D01*
X20962001Y19438001D02*
X20661999Y19137999D01*
X25773999Y19438001D02*
X20962001Y19438001D01*
X26670000Y18542000D02*
X25773999Y19438001D01*
%TO.N,I2C_SDA*%
X22352000Y18288000D02*
X22352000Y13462000D01*
X23876000Y14986000D02*
X22352000Y13462000D01*
X26670000Y14986000D02*
X23876000Y14986000D01*
%TO.N,ADC1_CH_2*%
X18034000Y10414000D02*
X13346000Y5726000D01*
X44215011Y21736011D02*
X36214011Y21736011D01*
X36214011Y21736011D02*
X24892000Y10414000D01*
X24892000Y10414000D02*
X18034000Y10414000D01*
X45529500Y23050500D02*
X44215011Y21736011D01*
X13346000Y5726000D02*
X12446000Y4826000D01*
%TO.N,ADC1_CH_1*%
X17526000Y8382000D02*
X17526000Y4826000D01*
X18796000Y9652000D02*
X17526000Y8382000D01*
X36518930Y21336000D02*
X24834930Y9652000D01*
X24834930Y9652000D02*
X18796000Y9652000D01*
X48069500Y23050500D02*
X46355000Y21336000D01*
X46355000Y21336000D02*
X36518930Y21336000D01*
%TO.N,ADC1_CH_0*%
X48494990Y20935990D02*
X36684618Y20935990D01*
X50609500Y23050500D02*
X48494990Y20935990D01*
X36684618Y20935990D02*
X24892628Y9144000D01*
X24892628Y9144000D02*
X23622000Y9144000D01*
X22606000Y8128000D02*
X22606000Y4826000D01*
X23622000Y9144000D02*
X22606000Y8128000D01*
%TO.N,Net-(JP3-Pad1)*%
X55626000Y24128130D02*
X55626000Y46990000D01*
X55626000Y23050500D02*
X55626000Y24128130D01*
D21*
X58420000Y44196000D02*
X55626000Y46990000D01*
X62992000Y44196000D02*
X58420000Y44196000D01*
D20*
%TO.N,HELTEC_RX*%
X16839999Y52920001D02*
X15990000Y53770000D01*
X17272000Y52488000D02*
X16839999Y52920001D01*
X17272000Y47244000D02*
X17272000Y52488000D01*
X17526000Y46990000D02*
X17272000Y47244000D01*
%TO.N,HELTEC_TX*%
X19919999Y52380001D02*
X19919999Y50438001D01*
X18530000Y53770000D02*
X19919999Y52380001D01*
X19919999Y50438001D02*
X21590000Y48768000D01*
X30988000Y48768000D02*
X32766000Y46990000D01*
X21590000Y48768000D02*
X30988000Y48768000D01*
%TO.N,Net-(U1-Pad3)*%
X53149500Y46926500D02*
X53086000Y46990000D01*
X53149500Y23050500D02*
X53149500Y46926500D01*
%TD*%
D22*
%TO.N,GND*%
G36*
X58547000Y55315713D02*
G01*
X58547000Y49022000D01*
X58549440Y48997224D01*
X58556667Y48973399D01*
X58568403Y48951443D01*
X58584197Y48932197D01*
X58603443Y48916403D01*
X58625399Y48904667D01*
X58649224Y48897440D01*
X58674000Y48895000D01*
X64315001Y48895000D01*
X64315001Y45470602D01*
X64293185Y45497185D01*
X64196494Y45576537D01*
X64086180Y45635502D01*
X63966482Y45671812D01*
X63842000Y45684072D01*
X62142000Y45684072D01*
X62017518Y45671812D01*
X61897820Y45635502D01*
X61787506Y45576537D01*
X61690815Y45497185D01*
X61611463Y45400494D01*
X61552498Y45290180D01*
X61519379Y45181000D01*
X58828001Y45181000D01*
X58396968Y45612032D01*
X58510133Y45629078D01*
X58769023Y45722364D01*
X58884980Y45784344D01*
X58951960Y46024435D01*
X58166000Y46810395D01*
X58151858Y46796252D01*
X57972253Y46975857D01*
X57986395Y46990000D01*
X58345605Y46990000D01*
X59131565Y46204040D01*
X59371656Y46271020D01*
X59488756Y46520048D01*
X59555023Y46787135D01*
X59567910Y47062017D01*
X59526922Y47334133D01*
X59433636Y47593023D01*
X59371656Y47708980D01*
X59131565Y47775960D01*
X58345605Y46990000D01*
X57986395Y46990000D01*
X57200435Y47775960D01*
X56960344Y47708980D01*
X56896515Y47573240D01*
X56864005Y47651727D01*
X56711120Y47880535D01*
X56636090Y47955565D01*
X57380040Y47955565D01*
X58166000Y47169605D01*
X58951960Y47955565D01*
X58884980Y48195656D01*
X58635952Y48312756D01*
X58368865Y48379023D01*
X58093983Y48391910D01*
X57821867Y48350922D01*
X57562977Y48257636D01*
X57447020Y48195656D01*
X57380040Y47955565D01*
X56636090Y47955565D01*
X56516535Y48075120D01*
X56287727Y48228005D01*
X56033490Y48333314D01*
X55763592Y48387000D01*
X55488408Y48387000D01*
X55218510Y48333314D01*
X54964273Y48228005D01*
X54735465Y48075120D01*
X54540880Y47880535D01*
X54387995Y47651727D01*
X54356000Y47574485D01*
X54324005Y47651727D01*
X54171120Y47880535D01*
X53976535Y48075120D01*
X53747727Y48228005D01*
X53493490Y48333314D01*
X53223592Y48387000D01*
X52948408Y48387000D01*
X52678510Y48333314D01*
X52424273Y48228005D01*
X52195465Y48075120D01*
X52000880Y47880535D01*
X51847995Y47651727D01*
X51818308Y47580057D01*
X51813636Y47593023D01*
X51751656Y47708980D01*
X51511565Y47775960D01*
X50725605Y46990000D01*
X51511565Y46204040D01*
X51751656Y46271020D01*
X51815485Y46406760D01*
X51847995Y46328273D01*
X52000880Y46099465D01*
X52195465Y45904880D01*
X52414501Y45758524D01*
X52414500Y24239545D01*
X52258965Y24135620D01*
X52064380Y23941035D01*
X51911495Y23712227D01*
X51879500Y23634985D01*
X51847505Y23712227D01*
X51694620Y23941035D01*
X51500035Y24135620D01*
X51271227Y24288505D01*
X51016990Y24393814D01*
X50747092Y24447500D01*
X50471908Y24447500D01*
X50202010Y24393814D01*
X49947773Y24288505D01*
X49718965Y24135620D01*
X49524380Y23941035D01*
X49371495Y23712227D01*
X49339500Y23634985D01*
X49307505Y23712227D01*
X49154620Y23941035D01*
X48960035Y24135620D01*
X48731227Y24288505D01*
X48476990Y24393814D01*
X48207092Y24447500D01*
X47931908Y24447500D01*
X47662010Y24393814D01*
X47407773Y24288505D01*
X47178965Y24135620D01*
X46984380Y23941035D01*
X46831495Y23712227D01*
X46799500Y23634985D01*
X46767505Y23712227D01*
X46614620Y23941035D01*
X46420035Y24135620D01*
X46191227Y24288505D01*
X45936990Y24393814D01*
X45667092Y24447500D01*
X45391908Y24447500D01*
X45122010Y24393814D01*
X44867773Y24288505D01*
X44638965Y24135620D01*
X44444380Y23941035D01*
X44291495Y23712227D01*
X44259500Y23634985D01*
X44227505Y23712227D01*
X44074620Y23941035D01*
X43880035Y24135620D01*
X43651227Y24288505D01*
X43396990Y24393814D01*
X43127092Y24447500D01*
X42851908Y24447500D01*
X42582010Y24393814D01*
X42327773Y24288505D01*
X42098965Y24135620D01*
X41904380Y23941035D01*
X41751495Y23712227D01*
X41719500Y23634985D01*
X41687505Y23712227D01*
X41534620Y23941035D01*
X41340035Y24135620D01*
X41111227Y24288505D01*
X40856990Y24393814D01*
X40587092Y24447500D01*
X40311908Y24447500D01*
X40042010Y24393814D01*
X39787773Y24288505D01*
X39558965Y24135620D01*
X39364380Y23941035D01*
X39211495Y23712227D01*
X39179500Y23634985D01*
X39147505Y23712227D01*
X38994620Y23941035D01*
X38800035Y24135620D01*
X38571227Y24288505D01*
X38316990Y24393814D01*
X38047092Y24447500D01*
X37771908Y24447500D01*
X37502010Y24393814D01*
X37247773Y24288505D01*
X37018965Y24135620D01*
X36824380Y23941035D01*
X36671495Y23712227D01*
X36607750Y23558334D01*
X36544005Y23712227D01*
X36391120Y23941035D01*
X36196535Y24135620D01*
X35967727Y24288505D01*
X35713490Y24393814D01*
X35443592Y24447500D01*
X35168408Y24447500D01*
X34898510Y24393814D01*
X34644273Y24288505D01*
X34415465Y24135620D01*
X34220880Y23941035D01*
X34067995Y23712227D01*
X34036000Y23634985D01*
X34004005Y23712227D01*
X33851120Y23941035D01*
X33656535Y24135620D01*
X33427727Y24288505D01*
X33173490Y24393814D01*
X32903592Y24447500D01*
X32628408Y24447500D01*
X32358510Y24393814D01*
X32104273Y24288505D01*
X31875465Y24135620D01*
X31680880Y23941035D01*
X31527995Y23712227D01*
X31496000Y23634985D01*
X31464005Y23712227D01*
X31311120Y23941035D01*
X31116535Y24135620D01*
X30887727Y24288505D01*
X30633490Y24393814D01*
X30363592Y24447500D01*
X30088408Y24447500D01*
X29818510Y24393814D01*
X29564273Y24288505D01*
X29335465Y24135620D01*
X29140880Y23941035D01*
X28987995Y23712227D01*
X28956000Y23634985D01*
X28924005Y23712227D01*
X28771120Y23941035D01*
X28576535Y24135620D01*
X28347727Y24288505D01*
X28093490Y24393814D01*
X27823592Y24447500D01*
X27548408Y24447500D01*
X27278510Y24393814D01*
X27024273Y24288505D01*
X26795465Y24135620D01*
X26600880Y23941035D01*
X26447995Y23712227D01*
X26416000Y23634985D01*
X26384005Y23712227D01*
X26231120Y23941035D01*
X26036535Y24135620D01*
X25807727Y24288505D01*
X25553490Y24393814D01*
X25283592Y24447500D01*
X25008408Y24447500D01*
X24738510Y24393814D01*
X24484273Y24288505D01*
X24255465Y24135620D01*
X24060880Y23941035D01*
X23907995Y23712227D01*
X23876000Y23634985D01*
X23844005Y23712227D01*
X23691120Y23941035D01*
X23496535Y24135620D01*
X23267727Y24288505D01*
X23013490Y24393814D01*
X22743592Y24447500D01*
X22468408Y24447500D01*
X22198510Y24393814D01*
X21944273Y24288505D01*
X21715465Y24135620D01*
X21520880Y23941035D01*
X21367995Y23712227D01*
X21336000Y23634985D01*
X21304005Y23712227D01*
X21151120Y23941035D01*
X20956535Y24135620D01*
X20727727Y24288505D01*
X20473490Y24393814D01*
X20203592Y24447500D01*
X19928408Y24447500D01*
X19658510Y24393814D01*
X19404273Y24288505D01*
X19175465Y24135620D01*
X18980880Y23941035D01*
X18827995Y23712227D01*
X18796000Y23634985D01*
X18764005Y23712227D01*
X18611120Y23941035D01*
X18416535Y24135620D01*
X18187727Y24288505D01*
X17933490Y24393814D01*
X17663592Y24447500D01*
X17388408Y24447500D01*
X17118510Y24393814D01*
X16864273Y24288505D01*
X16635465Y24135620D01*
X16440880Y23941035D01*
X16287995Y23712227D01*
X16256000Y23634985D01*
X16224005Y23712227D01*
X16071120Y23941035D01*
X15876535Y24135620D01*
X15647727Y24288505D01*
X15393490Y24393814D01*
X15123592Y24447500D01*
X14848408Y24447500D01*
X14578510Y24393814D01*
X14324273Y24288505D01*
X14095465Y24135620D01*
X13900880Y23941035D01*
X13747995Y23712227D01*
X13642686Y23457990D01*
X13589000Y23188092D01*
X13589000Y22912908D01*
X13642686Y22643010D01*
X13747995Y22388773D01*
X13900880Y22159965D01*
X14095465Y21965380D01*
X14324273Y21812495D01*
X14578510Y21707186D01*
X14848408Y21653500D01*
X15123592Y21653500D01*
X15393490Y21707186D01*
X15647727Y21812495D01*
X15876535Y21965380D01*
X16071120Y22159965D01*
X16224005Y22388773D01*
X16256000Y22466015D01*
X16287995Y22388773D01*
X16440880Y22159965D01*
X16635465Y21965380D01*
X16864273Y21812495D01*
X17118510Y21707186D01*
X17388408Y21653500D01*
X17663592Y21653500D01*
X17933490Y21707186D01*
X18187727Y21812495D01*
X18416535Y21965380D01*
X18611120Y22159965D01*
X18764005Y22388773D01*
X18796000Y22466015D01*
X18827995Y22388773D01*
X18980880Y22159965D01*
X19175465Y21965380D01*
X19404273Y21812495D01*
X19658510Y21707186D01*
X19928408Y21653500D01*
X20203592Y21653500D01*
X20473490Y21707186D01*
X20727727Y21812495D01*
X20956535Y21965380D01*
X21151120Y22159965D01*
X21304005Y22388773D01*
X21336000Y22466015D01*
X21367995Y22388773D01*
X21520880Y22159965D01*
X21715465Y21965380D01*
X21944273Y21812495D01*
X22198510Y21707186D01*
X22468408Y21653500D01*
X22743592Y21653500D01*
X23013490Y21707186D01*
X23267727Y21812495D01*
X23496535Y21965380D01*
X23691120Y22159965D01*
X23844005Y22388773D01*
X23876000Y22466015D01*
X23907995Y22388773D01*
X24060880Y22159965D01*
X24255465Y21965380D01*
X24484273Y21812495D01*
X24738510Y21707186D01*
X25008408Y21653500D01*
X25283592Y21653500D01*
X25553490Y21707186D01*
X25807727Y21812495D01*
X26036535Y21965380D01*
X26231120Y22159965D01*
X26384005Y22388773D01*
X26416000Y22466015D01*
X26447995Y22388773D01*
X26600880Y22159965D01*
X26795465Y21965380D01*
X27024273Y21812495D01*
X27278510Y21707186D01*
X27548408Y21653500D01*
X27823592Y21653500D01*
X28093490Y21707186D01*
X28347727Y21812495D01*
X28576535Y21965380D01*
X28771120Y22159965D01*
X28924005Y22388773D01*
X28956000Y22466015D01*
X28987995Y22388773D01*
X29140880Y22159965D01*
X29335465Y21965380D01*
X29564273Y21812495D01*
X29818510Y21707186D01*
X30088408Y21653500D01*
X30363592Y21653500D01*
X30633490Y21707186D01*
X30887727Y21812495D01*
X31116535Y21965380D01*
X31311120Y22159965D01*
X31464005Y22388773D01*
X31496000Y22466015D01*
X31527995Y22388773D01*
X31680880Y22159965D01*
X31875465Y21965380D01*
X32104273Y21812495D01*
X32358510Y21707186D01*
X32628408Y21653500D01*
X32903592Y21653500D01*
X33173490Y21707186D01*
X33427727Y21812495D01*
X33656535Y21965380D01*
X33851120Y22159965D01*
X34004005Y22388773D01*
X34036000Y22466015D01*
X34067995Y22388773D01*
X34220880Y22159965D01*
X34415465Y21965380D01*
X34644273Y21812495D01*
X34898510Y21707186D01*
X35104721Y21666168D01*
X28060747Y14622193D01*
X28105000Y14844665D01*
X28105000Y15127335D01*
X28049853Y15404574D01*
X27941680Y15665727D01*
X27784637Y15900759D01*
X27584759Y16100637D01*
X27349727Y16257680D01*
X27088574Y16365853D01*
X26811335Y16421000D01*
X26528665Y16421000D01*
X26251426Y16365853D01*
X25990273Y16257680D01*
X25755241Y16100637D01*
X25555363Y15900759D01*
X25435252Y15721000D01*
X23912094Y15721000D01*
X23875999Y15724555D01*
X23839904Y15721000D01*
X23839895Y15721000D01*
X23731915Y15710365D01*
X23593367Y15668337D01*
X23465680Y15600087D01*
X23353762Y15508238D01*
X23330746Y15480193D01*
X23087000Y15236447D01*
X23087000Y16993117D01*
X23298632Y17134525D01*
X23505475Y17341368D01*
X23667990Y17584589D01*
X23779932Y17854842D01*
X23837000Y18141740D01*
X23837000Y18434260D01*
X23783544Y18703001D01*
X25238912Y18703001D01*
X25235000Y18683335D01*
X25235000Y18400665D01*
X25290147Y18123426D01*
X25398320Y17862273D01*
X25555363Y17627241D01*
X25755241Y17427363D01*
X25990273Y17270320D01*
X26251426Y17162147D01*
X26528665Y17107000D01*
X26811335Y17107000D01*
X27088574Y17162147D01*
X27349727Y17270320D01*
X27584759Y17427363D01*
X27784637Y17627241D01*
X27941680Y17862273D01*
X28049853Y18123426D01*
X28105000Y18400665D01*
X28105000Y18683335D01*
X28049853Y18960574D01*
X27941680Y19221727D01*
X27784637Y19456759D01*
X27584759Y19656637D01*
X27349727Y19813680D01*
X27088574Y19921853D01*
X26811335Y19977000D01*
X26528665Y19977000D01*
X26317030Y19934903D01*
X26296237Y19960239D01*
X26184319Y20052088D01*
X26056632Y20120338D01*
X25918084Y20162366D01*
X25810104Y20173001D01*
X25773999Y20176557D01*
X25737894Y20173001D01*
X20998106Y20173001D01*
X20962001Y20176557D01*
X20925896Y20173001D01*
X20817916Y20162366D01*
X20679368Y20120338D01*
X20551681Y20052088D01*
X20439763Y19960239D01*
X20416742Y19932188D01*
X20207898Y19723344D01*
X19958260Y19773000D01*
X19665740Y19773000D01*
X19378842Y19715932D01*
X19108589Y19603990D01*
X18865368Y19441475D01*
X18658525Y19234632D01*
X18536805Y19052466D01*
X18467178Y19169355D01*
X18272269Y19385588D01*
X18038920Y19559641D01*
X17776099Y19684825D01*
X17628890Y19729476D01*
X17399000Y19608155D01*
X17399000Y18415000D01*
X17419000Y18415000D01*
X17419000Y18161000D01*
X17399000Y18161000D01*
X17399000Y16967845D01*
X17628890Y16846524D01*
X17776099Y16891175D01*
X18038920Y17016359D01*
X18272269Y17190412D01*
X18467178Y17406645D01*
X18536805Y17523534D01*
X18658525Y17341368D01*
X18865368Y17134525D01*
X19077000Y16993117D01*
X19077001Y14756883D01*
X18865368Y14615475D01*
X18658525Y14408632D01*
X18536805Y14226466D01*
X18467178Y14343355D01*
X18272269Y14559588D01*
X18038920Y14733641D01*
X17776099Y14858825D01*
X17628890Y14903476D01*
X17399000Y14782155D01*
X17399000Y13589000D01*
X17419000Y13589000D01*
X17419000Y13335000D01*
X17399000Y13335000D01*
X17399000Y12141845D01*
X17628890Y12020524D01*
X17776099Y12065175D01*
X18038920Y12190359D01*
X18272269Y12364412D01*
X18467178Y12580645D01*
X18536805Y12697534D01*
X18658525Y12515368D01*
X18865368Y12308525D01*
X19108589Y12146010D01*
X19378842Y12034068D01*
X19665740Y11977000D01*
X19958260Y11977000D01*
X20245158Y12034068D01*
X20515411Y12146010D01*
X20758632Y12308525D01*
X20965475Y12515368D01*
X21082000Y12689760D01*
X21198525Y12515368D01*
X21405368Y12308525D01*
X21648589Y12146010D01*
X21918842Y12034068D01*
X22205740Y11977000D01*
X22498260Y11977000D01*
X22785158Y12034068D01*
X23055411Y12146010D01*
X23298632Y12308525D01*
X23505475Y12515368D01*
X23667990Y12758589D01*
X23779932Y13028842D01*
X23837000Y13315740D01*
X23837000Y13608260D01*
X23787344Y13857897D01*
X24180447Y14251000D01*
X25435252Y14251000D01*
X25555363Y14071241D01*
X25755241Y13871363D01*
X25990273Y13714320D01*
X26251426Y13606147D01*
X26528665Y13551000D01*
X26811335Y13551000D01*
X27033807Y13595253D01*
X24587554Y11149000D01*
X18070096Y11149000D01*
X18033999Y11152555D01*
X17997902Y11149000D01*
X17997895Y11149000D01*
X17904132Y11139765D01*
X17889914Y11138365D01*
X17847886Y11125616D01*
X17751367Y11096337D01*
X17623680Y11028087D01*
X17511762Y10936238D01*
X17488746Y10908193D01*
X13647372Y7066818D01*
X13589386Y7114405D01*
X13435850Y7196472D01*
X13269254Y7247008D01*
X13096000Y7264072D01*
X11796000Y7264072D01*
X11622746Y7247008D01*
X11456150Y7196472D01*
X11302614Y7114405D01*
X11168038Y7003962D01*
X11057595Y6869386D01*
X10975528Y6715850D01*
X10924992Y6549254D01*
X10907928Y6376000D01*
X10907928Y3276000D01*
X10924992Y3102746D01*
X10975528Y2936150D01*
X11057595Y2782614D01*
X11168038Y2648038D01*
X11302614Y2537595D01*
X11456150Y2455528D01*
X11622746Y2404992D01*
X11796000Y2387928D01*
X13096000Y2387928D01*
X13269254Y2404992D01*
X13435850Y2455528D01*
X13589386Y2537595D01*
X13723962Y2648038D01*
X13834405Y2782614D01*
X13916472Y2936150D01*
X13967008Y3102746D01*
X13984072Y3276000D01*
X13984072Y5324626D01*
X16791000Y8131553D01*
X16791000Y7073653D01*
X16669073Y7008481D01*
X16435339Y6816661D01*
X16243519Y6582926D01*
X16100983Y6316260D01*
X16013210Y6026912D01*
X15991000Y5801407D01*
X15991000Y3850592D01*
X16013211Y3625087D01*
X16100984Y3335739D01*
X16243520Y3069073D01*
X16435340Y2835339D01*
X16669074Y2643519D01*
X16935740Y2500983D01*
X17225088Y2413210D01*
X17526000Y2383573D01*
X17826913Y2413210D01*
X18116261Y2500983D01*
X18382927Y2643519D01*
X18616661Y2835339D01*
X18808481Y3069073D01*
X18951017Y3335739D01*
X19038790Y3625087D01*
X19061000Y3850592D01*
X19061000Y5801408D01*
X19038790Y6026913D01*
X18951017Y6316261D01*
X18808481Y6582927D01*
X18616661Y6816661D01*
X18382926Y7008481D01*
X18261000Y7073652D01*
X18261000Y8077554D01*
X19100447Y8917000D01*
X22355554Y8917000D01*
X22111808Y8673254D01*
X22083762Y8650237D01*
X21991913Y8538319D01*
X21923663Y8410632D01*
X21914978Y8382000D01*
X21881635Y8272085D01*
X21867444Y8128000D01*
X21871000Y8091895D01*
X21871000Y7073653D01*
X21749073Y7008481D01*
X21515339Y6816661D01*
X21323519Y6582926D01*
X21180983Y6316260D01*
X21093210Y6026912D01*
X21071000Y5801407D01*
X21071000Y3850592D01*
X21093211Y3625087D01*
X21180984Y3335739D01*
X21323520Y3069073D01*
X21515340Y2835339D01*
X21749074Y2643519D01*
X22015740Y2500983D01*
X22305088Y2413210D01*
X22606000Y2383573D01*
X22906913Y2413210D01*
X23196261Y2500983D01*
X23462927Y2643519D01*
X23696661Y2835339D01*
X23853132Y3026000D01*
X28433928Y3026000D01*
X28446188Y2901518D01*
X28482498Y2781820D01*
X28541463Y2671506D01*
X28620815Y2574815D01*
X28717506Y2495463D01*
X28827820Y2436498D01*
X28947518Y2400188D01*
X29072000Y2387928D01*
X29686250Y2391000D01*
X29845000Y2549750D01*
X29845000Y4699000D01*
X30099000Y4699000D01*
X30099000Y2549750D01*
X30257750Y2391000D01*
X30872000Y2387928D01*
X30996482Y2400188D01*
X31116180Y2436498D01*
X31226494Y2495463D01*
X31323185Y2574815D01*
X31402537Y2671506D01*
X31461502Y2781820D01*
X31497812Y2901518D01*
X31510072Y3026000D01*
X31507000Y4540250D01*
X31348250Y4699000D01*
X30099000Y4699000D01*
X29845000Y4699000D01*
X28595750Y4699000D01*
X28437000Y4540250D01*
X28433928Y3026000D01*
X23853132Y3026000D01*
X23888481Y3069073D01*
X24031017Y3335739D01*
X24118790Y3625087D01*
X24141000Y3850592D01*
X24141000Y5801408D01*
X24118790Y6026913D01*
X24031017Y6316261D01*
X23888481Y6582927D01*
X23853133Y6626000D01*
X28433928Y6626000D01*
X28437000Y5111750D01*
X28595750Y4953000D01*
X29845000Y4953000D01*
X29845000Y7102250D01*
X30099000Y7102250D01*
X30099000Y4953000D01*
X31348250Y4953000D01*
X31507000Y5111750D01*
X31508399Y5801407D01*
X33517000Y5801407D01*
X33517000Y3850592D01*
X33539211Y3625087D01*
X33626984Y3335739D01*
X33769520Y3069073D01*
X33961340Y2835339D01*
X34195074Y2643519D01*
X34461740Y2500983D01*
X34751088Y2413210D01*
X35052000Y2383573D01*
X35352913Y2413210D01*
X35642261Y2500983D01*
X35908927Y2643519D01*
X36142661Y2835339D01*
X36334481Y3069073D01*
X36477017Y3335739D01*
X36564790Y3625087D01*
X36587000Y3850592D01*
X36587000Y5801408D01*
X36564790Y6026913D01*
X36477017Y6316261D01*
X36334481Y6582927D01*
X36142661Y6816661D01*
X35908926Y7008481D01*
X35642260Y7151017D01*
X35352912Y7238790D01*
X35052000Y7268427D01*
X34751087Y7238790D01*
X34461739Y7151017D01*
X34195073Y7008481D01*
X33961339Y6816661D01*
X33769519Y6582926D01*
X33626983Y6316260D01*
X33539210Y6026912D01*
X33517000Y5801407D01*
X31508399Y5801407D01*
X31510072Y6626000D01*
X31497812Y6750482D01*
X31461502Y6870180D01*
X31402537Y6980494D01*
X31323185Y7077185D01*
X31226494Y7156537D01*
X31116180Y7215502D01*
X30996482Y7251812D01*
X30872000Y7264072D01*
X30257750Y7261000D01*
X30099000Y7102250D01*
X29845000Y7102250D01*
X29686250Y7261000D01*
X29072000Y7264072D01*
X28947518Y7251812D01*
X28827820Y7215502D01*
X28717506Y7156537D01*
X28620815Y7077185D01*
X28541463Y6980494D01*
X28482498Y6870180D01*
X28446188Y6750482D01*
X28433928Y6626000D01*
X23853133Y6626000D01*
X23696661Y6816661D01*
X23462926Y7008481D01*
X23341000Y7073652D01*
X23341000Y7823554D01*
X23926447Y8409000D01*
X24856523Y8409000D01*
X24892628Y8405444D01*
X24928733Y8409000D01*
X25036713Y8419635D01*
X25175261Y8461663D01*
X25302948Y8529913D01*
X25414866Y8621762D01*
X25437887Y8649813D01*
X36989065Y20200990D01*
X43822567Y20200990D01*
X43810027Y20188362D01*
X43765689Y20144943D01*
X43759592Y20137574D01*
X43636242Y19986332D01*
X43601881Y19934614D01*
X43566809Y19883393D01*
X43562260Y19874980D01*
X43470635Y19702657D01*
X43446978Y19645261D01*
X43422519Y19588193D01*
X43419690Y19579057D01*
X43363281Y19392220D01*
X43351219Y19331302D01*
X43338314Y19270590D01*
X43337314Y19261078D01*
X43318269Y19066845D01*
X43318269Y19066827D01*
X43315001Y19033647D01*
X43315001Y18834148D01*
X43289853Y18960574D01*
X43181680Y19221727D01*
X43024637Y19456759D01*
X42824759Y19656637D01*
X42589727Y19813680D01*
X42328574Y19921853D01*
X42051335Y19977000D01*
X41768665Y19977000D01*
X41491426Y19921853D01*
X41230273Y19813680D01*
X40995241Y19656637D01*
X40795363Y19456759D01*
X40638320Y19221727D01*
X40530147Y18960574D01*
X40475000Y18683335D01*
X40475000Y18400665D01*
X40530147Y18123426D01*
X40638320Y17862273D01*
X40795363Y17627241D01*
X40995241Y17427363D01*
X41230273Y17270320D01*
X41491426Y17162147D01*
X41768665Y17107000D01*
X42051335Y17107000D01*
X42328574Y17162147D01*
X42589727Y17270320D01*
X42824759Y17427363D01*
X43024637Y17627241D01*
X43181680Y17862273D01*
X43289853Y18123426D01*
X43315001Y18249852D01*
X43315001Y15278149D01*
X43289853Y15404574D01*
X43181680Y15665727D01*
X43024637Y15900759D01*
X42824759Y16100637D01*
X42589727Y16257680D01*
X42328574Y16365853D01*
X42051335Y16421000D01*
X41768665Y16421000D01*
X41491426Y16365853D01*
X41230273Y16257680D01*
X40995241Y16100637D01*
X40795363Y15900759D01*
X40638320Y15665727D01*
X40530147Y15404574D01*
X40475000Y15127335D01*
X40475000Y14844665D01*
X40530147Y14567426D01*
X40638320Y14306273D01*
X40795363Y14071241D01*
X40995241Y13871363D01*
X41230273Y13714320D01*
X41491426Y13606147D01*
X41768665Y13551000D01*
X42051335Y13551000D01*
X42328574Y13606147D01*
X42589727Y13714320D01*
X42824759Y13871363D01*
X43024637Y14071241D01*
X43181680Y14306273D01*
X43289853Y14567426D01*
X43315001Y14693850D01*
X43315000Y3966354D01*
X43318366Y3932179D01*
X43318366Y3919194D01*
X43319366Y3909682D01*
X43341121Y3715732D01*
X43354025Y3655024D01*
X43366089Y3594099D01*
X43368917Y3584962D01*
X43427930Y3398932D01*
X43452377Y3341895D01*
X43476046Y3284469D01*
X43480595Y3276056D01*
X43574617Y3105031D01*
X43609692Y3053806D01*
X43644050Y3002094D01*
X43650146Y2994724D01*
X43775596Y2845218D01*
X43819974Y2801760D01*
X43854492Y2767000D01*
X41230447Y2767000D01*
X41189402Y2808044D01*
X41222661Y2835339D01*
X41414481Y3069073D01*
X41557017Y3335739D01*
X41644790Y3625087D01*
X41667000Y3850592D01*
X41667000Y5801408D01*
X41644790Y6026913D01*
X41557017Y6316261D01*
X41414481Y6582927D01*
X41222661Y6816661D01*
X40988926Y7008481D01*
X40722260Y7151017D01*
X40432912Y7238790D01*
X40132000Y7268427D01*
X39831087Y7238790D01*
X39541739Y7151017D01*
X39275073Y7008481D01*
X39041339Y6816661D01*
X38849519Y6582926D01*
X38706983Y6316260D01*
X38619210Y6026912D01*
X38597000Y5801407D01*
X38597000Y3850592D01*
X38619211Y3625087D01*
X38706984Y3335739D01*
X38849520Y3069073D01*
X39041340Y2835339D01*
X39275074Y2643519D01*
X39447190Y2551521D01*
X39449663Y2543368D01*
X39517913Y2415681D01*
X39609762Y2303763D01*
X39637808Y2280746D01*
X40380746Y1537807D01*
X40403762Y1509762D01*
X40431806Y1486747D01*
X40515680Y1417913D01*
X40643366Y1349663D01*
X40781915Y1307635D01*
X40926000Y1293444D01*
X40962105Y1297000D01*
X46445895Y1297000D01*
X46482000Y1293444D01*
X46518105Y1297000D01*
X46626085Y1307635D01*
X46764633Y1349663D01*
X46892320Y1417913D01*
X47004238Y1509762D01*
X47027258Y1537812D01*
X47954194Y2464747D01*
X47982239Y2487763D01*
X48074088Y2599681D01*
X48142338Y2727368D01*
X48184366Y2865916D01*
X48195001Y2973896D01*
X48195001Y2973905D01*
X48198556Y3010000D01*
X48195001Y3046095D01*
X48195001Y7325408D01*
X48249000Y7325408D01*
X48249000Y5374593D01*
X48271210Y5149088D01*
X48358983Y4859740D01*
X48501519Y4593074D01*
X48693339Y4359339D01*
X48927073Y4167519D01*
X49193739Y4024983D01*
X49483087Y3937210D01*
X49784000Y3907573D01*
X50084912Y3937210D01*
X50374260Y4024983D01*
X50640926Y4167519D01*
X50874661Y4359339D01*
X51031132Y4550000D01*
X53325928Y4550000D01*
X53338188Y4425518D01*
X53374498Y4305820D01*
X53433463Y4195506D01*
X53512815Y4098815D01*
X53609506Y4019463D01*
X53719820Y3960498D01*
X53839518Y3924188D01*
X53964000Y3911928D01*
X54578250Y3915000D01*
X54737000Y4073750D01*
X54737000Y6223000D01*
X54991000Y6223000D01*
X54991000Y4073750D01*
X55149750Y3915000D01*
X55764000Y3911928D01*
X55888482Y3924188D01*
X56008180Y3960498D01*
X56118494Y4019463D01*
X56215185Y4098815D01*
X56294537Y4195506D01*
X56353502Y4305820D01*
X56389812Y4425518D01*
X56402072Y4550000D01*
X56399000Y6064250D01*
X56240250Y6223000D01*
X54991000Y6223000D01*
X54737000Y6223000D01*
X53487750Y6223000D01*
X53329000Y6064250D01*
X53325928Y4550000D01*
X51031132Y4550000D01*
X51066481Y4593073D01*
X51209017Y4859739D01*
X51296790Y5149087D01*
X51319000Y5374592D01*
X51319000Y7325408D01*
X51296790Y7550913D01*
X51209017Y7840261D01*
X51066481Y8106927D01*
X51031133Y8150000D01*
X53325928Y8150000D01*
X53329000Y6635750D01*
X53487750Y6477000D01*
X54737000Y6477000D01*
X54737000Y8626250D01*
X54991000Y8626250D01*
X54991000Y6477000D01*
X56240250Y6477000D01*
X56399000Y6635750D01*
X56402072Y8150000D01*
X56389812Y8274482D01*
X56353502Y8394180D01*
X56294537Y8504494D01*
X56215185Y8601185D01*
X56118494Y8680537D01*
X56008180Y8739502D01*
X55888482Y8775812D01*
X55764000Y8788072D01*
X55149750Y8785000D01*
X54991000Y8626250D01*
X54737000Y8626250D01*
X54578250Y8785000D01*
X53964000Y8788072D01*
X53839518Y8775812D01*
X53719820Y8739502D01*
X53609506Y8680537D01*
X53512815Y8601185D01*
X53433463Y8504494D01*
X53374498Y8394180D01*
X53338188Y8274482D01*
X53325928Y8150000D01*
X51031133Y8150000D01*
X50874661Y8340661D01*
X50640927Y8532481D01*
X50374261Y8675017D01*
X50084913Y8762790D01*
X49784000Y8792427D01*
X49483088Y8762790D01*
X49193740Y8675017D01*
X48927074Y8532481D01*
X48693340Y8340661D01*
X48501520Y8106927D01*
X48358984Y7840261D01*
X48271211Y7550913D01*
X48249000Y7325408D01*
X48195001Y7325408D01*
X48195001Y11773000D01*
X48401335Y11773000D01*
X48678574Y11828147D01*
X48939727Y11936320D01*
X49174759Y12093363D01*
X49374637Y12293241D01*
X49531680Y12528273D01*
X49639853Y12789426D01*
X49695000Y13066665D01*
X49695000Y13349335D01*
X49639853Y13626574D01*
X49531680Y13887727D01*
X49374637Y14122759D01*
X49174759Y14322637D01*
X48995000Y14442748D01*
X48995000Y17729554D01*
X51104447Y19839000D01*
X58129895Y19839000D01*
X58166000Y19835444D01*
X58202105Y19839000D01*
X58310085Y19849635D01*
X58448633Y19891663D01*
X58576320Y19959913D01*
X58688238Y20051762D01*
X58711259Y20079813D01*
X63486193Y24854746D01*
X63514238Y24877762D01*
X63606087Y24989680D01*
X63674337Y25117366D01*
X63716365Y25255915D01*
X63730556Y25400000D01*
X63727000Y25436105D01*
X63727000Y40361117D01*
X63938632Y40502525D01*
X64145475Y40709368D01*
X64307990Y40952589D01*
X64315001Y40969515D01*
X64315000Y14389294D01*
X64179727Y14479680D01*
X63918574Y14587853D01*
X63641335Y14643000D01*
X63358665Y14643000D01*
X63146625Y14600822D01*
X60933000Y16814446D01*
X60933000Y17186983D01*
X61176505Y17349688D01*
X61242944Y17416127D01*
X61248498Y17397820D01*
X61307463Y17287506D01*
X61386815Y17190815D01*
X61483506Y17111463D01*
X61593820Y17052498D01*
X61713518Y17016188D01*
X61838000Y17003928D01*
X62452250Y17007000D01*
X62611000Y17165750D01*
X62611000Y18415000D01*
X62865000Y18415000D01*
X62865000Y17165750D01*
X63023750Y17007000D01*
X63638000Y17003928D01*
X63762482Y17016188D01*
X63882180Y17052498D01*
X63992494Y17111463D01*
X64089185Y17190815D01*
X64168537Y17287506D01*
X64227502Y17397820D01*
X64263812Y17517518D01*
X64276072Y17642000D01*
X64273000Y18256250D01*
X64114250Y18415000D01*
X62865000Y18415000D01*
X62611000Y18415000D01*
X62591000Y18415000D01*
X62591000Y18669000D01*
X62611000Y18669000D01*
X62611000Y19918250D01*
X62865000Y19918250D01*
X62865000Y18669000D01*
X64114250Y18669000D01*
X64273000Y18827750D01*
X64276072Y19442000D01*
X64263812Y19566482D01*
X64227502Y19686180D01*
X64168537Y19796494D01*
X64089185Y19893185D01*
X63992494Y19972537D01*
X63882180Y20031502D01*
X63762482Y20067812D01*
X63638000Y20080072D01*
X63023750Y20077000D01*
X62865000Y19918250D01*
X62611000Y19918250D01*
X62452250Y20077000D01*
X61838000Y20080072D01*
X61713518Y20067812D01*
X61593820Y20031502D01*
X61483506Y19972537D01*
X61386815Y19893185D01*
X61307463Y19796494D01*
X61248498Y19686180D01*
X61242944Y19667873D01*
X61176505Y19734312D01*
X60925095Y19902299D01*
X60645743Y20018011D01*
X60349184Y20077000D01*
X60046816Y20077000D01*
X59750257Y20018011D01*
X59470905Y19902299D01*
X59219495Y19734312D01*
X59005688Y19520505D01*
X58837701Y19269095D01*
X58721989Y18989743D01*
X58663000Y18693184D01*
X58663000Y18390816D01*
X58721989Y18094257D01*
X58837701Y17814905D01*
X59005688Y17563495D01*
X59219495Y17349688D01*
X59463000Y17186983D01*
X59463000Y16546105D01*
X59459444Y16510000D01*
X59463000Y16473896D01*
X59473635Y16365916D01*
X59515663Y16227368D01*
X59583913Y16099681D01*
X59675762Y15987763D01*
X59703808Y15964746D01*
X62107178Y13561375D01*
X62065000Y13349335D01*
X62065000Y13066665D01*
X62120147Y12789426D01*
X62228320Y12528273D01*
X62385363Y12293241D01*
X62585241Y12093363D01*
X62820273Y11936320D01*
X63081426Y11828147D01*
X63358665Y11773000D01*
X63641335Y11773000D01*
X63918574Y11828147D01*
X64179727Y11936320D01*
X64315000Y12026706D01*
X64315000Y7493000D01*
X58420000Y7493000D01*
X58395224Y7490560D01*
X58371399Y7483333D01*
X58349443Y7471597D01*
X58330197Y7455803D01*
X58314403Y7436557D01*
X58302667Y7414601D01*
X58295440Y7390776D01*
X58293000Y7366000D01*
X58293000Y685000D01*
X7239000Y685000D01*
X7239000Y7366000D01*
X7236560Y7390776D01*
X7229333Y7414601D01*
X7217597Y7436557D01*
X7201803Y7455803D01*
X7182557Y7471597D01*
X7160601Y7483333D01*
X7136776Y7490560D01*
X7112000Y7493000D01*
X889000Y7493000D01*
X889000Y9290260D01*
X1309000Y9290260D01*
X1309000Y8997740D01*
X1366068Y8710842D01*
X1478010Y8440589D01*
X1640525Y8197368D01*
X1847368Y7990525D01*
X2090589Y7828010D01*
X2360842Y7716068D01*
X2647740Y7659000D01*
X2940260Y7659000D01*
X3227158Y7716068D01*
X3497411Y7828010D01*
X3740632Y7990525D01*
X3872487Y8122380D01*
X3894498Y8049820D01*
X3953463Y7939506D01*
X4032815Y7842815D01*
X4129506Y7763463D01*
X4239820Y7704498D01*
X4359518Y7668188D01*
X4484000Y7655928D01*
X6184000Y7655928D01*
X6308482Y7668188D01*
X6428180Y7704498D01*
X6538494Y7763463D01*
X6635185Y7842815D01*
X6714537Y7939506D01*
X6773502Y8049820D01*
X6809812Y8169518D01*
X6822072Y8294000D01*
X6822072Y9994000D01*
X6809812Y10118482D01*
X6773502Y10238180D01*
X6714537Y10348494D01*
X6635185Y10445185D01*
X6538494Y10524537D01*
X6428180Y10583502D01*
X6308482Y10619812D01*
X6184000Y10632072D01*
X4484000Y10632072D01*
X4359518Y10619812D01*
X4239820Y10583502D01*
X4129506Y10524537D01*
X4032815Y10445185D01*
X3953463Y10348494D01*
X3894498Y10238180D01*
X3872487Y10165620D01*
X3740632Y10297475D01*
X3497411Y10459990D01*
X3227158Y10571932D01*
X2940260Y10629000D01*
X2647740Y10629000D01*
X2360842Y10571932D01*
X2090589Y10459990D01*
X1847368Y10297475D01*
X1640525Y10090632D01*
X1478010Y9847411D01*
X1366068Y9577158D01*
X1309000Y9290260D01*
X889000Y9290260D01*
X889000Y18415000D01*
X3405553Y18415000D01*
X3189897Y18199344D01*
X2940260Y18249000D01*
X2647740Y18249000D01*
X2360842Y18191932D01*
X2090589Y18079990D01*
X1847368Y17917475D01*
X1640525Y17710632D01*
X1478010Y17467411D01*
X1366068Y17197158D01*
X1309000Y16910260D01*
X1309000Y16617740D01*
X1366068Y16330842D01*
X1478010Y16060589D01*
X1640525Y15817368D01*
X1847368Y15610525D01*
X2090589Y15448010D01*
X2360842Y15336068D01*
X2647740Y15279000D01*
X2940260Y15279000D01*
X3227158Y15336068D01*
X3497411Y15448010D01*
X3740632Y15610525D01*
X3872487Y15742380D01*
X3894498Y15669820D01*
X3953463Y15559506D01*
X4032815Y15462815D01*
X4129506Y15383463D01*
X4239820Y15324498D01*
X4359518Y15288188D01*
X4484000Y15275928D01*
X6184000Y15275928D01*
X6308482Y15288188D01*
X6428180Y15324498D01*
X6538494Y15383463D01*
X6635185Y15462815D01*
X6714537Y15559506D01*
X6773502Y15669820D01*
X6809812Y15789518D01*
X6822072Y15914000D01*
X6822072Y17614000D01*
X6809812Y17738482D01*
X6789027Y17807000D01*
X9869895Y17807000D01*
X9906000Y17803444D01*
X9942105Y17807000D01*
X10050085Y17817635D01*
X10188633Y17859663D01*
X10316320Y17927913D01*
X10428238Y18019762D01*
X10451258Y18047812D01*
X11404197Y19000750D01*
X11432237Y19023762D01*
X11455250Y19051803D01*
X11455253Y19051806D01*
X11511124Y19119885D01*
X11524087Y19135680D01*
X11525327Y19138000D01*
X13243928Y19138000D01*
X13243928Y17438000D01*
X13256188Y17313518D01*
X13292498Y17193820D01*
X13351463Y17083506D01*
X13430815Y16986815D01*
X13527506Y16907463D01*
X13637820Y16848498D01*
X13757518Y16812188D01*
X13882000Y16799928D01*
X13997000Y16799928D01*
X13997001Y14950072D01*
X13882000Y14950072D01*
X13757518Y14937812D01*
X13637820Y14901502D01*
X13527506Y14842537D01*
X13430815Y14763185D01*
X13351463Y14666494D01*
X13292498Y14556180D01*
X13256188Y14436482D01*
X13243928Y14312000D01*
X13243928Y12612000D01*
X13256188Y12487518D01*
X13292498Y12367820D01*
X13351463Y12257506D01*
X13430815Y12160815D01*
X13527506Y12081463D01*
X13637820Y12022498D01*
X13757518Y11986188D01*
X13882000Y11973928D01*
X15582000Y11973928D01*
X15706482Y11986188D01*
X15826180Y12022498D01*
X15936494Y12081463D01*
X16033185Y12160815D01*
X16112537Y12257506D01*
X16171502Y12367820D01*
X16195966Y12448466D01*
X16271731Y12364412D01*
X16505080Y12190359D01*
X16767901Y12065175D01*
X16915110Y12020524D01*
X17145000Y12141845D01*
X17145000Y13335000D01*
X17125000Y13335000D01*
X17125000Y13589000D01*
X17145000Y13589000D01*
X17145000Y14782155D01*
X16915110Y14903476D01*
X16767901Y14858825D01*
X16505080Y14733641D01*
X16271731Y14559588D01*
X16195966Y14475534D01*
X16171502Y14556180D01*
X16112537Y14666494D01*
X16033185Y14763185D01*
X15936494Y14842537D01*
X15826180Y14901502D01*
X15706482Y14937812D01*
X15582000Y14950072D01*
X15467000Y14950072D01*
X15467000Y16799928D01*
X15582000Y16799928D01*
X15706482Y16812188D01*
X15826180Y16848498D01*
X15936494Y16907463D01*
X16033185Y16986815D01*
X16112537Y17083506D01*
X16171502Y17193820D01*
X16195966Y17274466D01*
X16271731Y17190412D01*
X16505080Y17016359D01*
X16767901Y16891175D01*
X16915110Y16846524D01*
X17145000Y16967845D01*
X17145000Y18161000D01*
X17125000Y18161000D01*
X17125000Y18415000D01*
X17145000Y18415000D01*
X17145000Y19608155D01*
X16915110Y19729476D01*
X16767901Y19684825D01*
X16505080Y19559641D01*
X16271731Y19385588D01*
X16195966Y19301534D01*
X16171502Y19382180D01*
X16112537Y19492494D01*
X16033185Y19589185D01*
X15936494Y19668537D01*
X15826180Y19727502D01*
X15706482Y19763812D01*
X15582000Y19776072D01*
X13882000Y19776072D01*
X13757518Y19763812D01*
X13637820Y19727502D01*
X13527506Y19668537D01*
X13430815Y19589185D01*
X13351463Y19492494D01*
X13292498Y19382180D01*
X13256188Y19262482D01*
X13243928Y19138000D01*
X11525327Y19138000D01*
X11592337Y19263367D01*
X11634365Y19401915D01*
X11645000Y19509895D01*
X11645000Y19509904D01*
X11648555Y19545999D01*
X11645000Y19582094D01*
X11645000Y49935117D01*
X11856632Y50076525D01*
X12063475Y50283368D01*
X12180000Y50457760D01*
X12296525Y50283368D01*
X12503368Y50076525D01*
X12746589Y49914010D01*
X13016842Y49802068D01*
X13303740Y49745000D01*
X13596260Y49745000D01*
X13883158Y49802068D01*
X14153411Y49914010D01*
X14396632Y50076525D01*
X14603475Y50283368D01*
X14720000Y50457760D01*
X14836525Y50283368D01*
X15043368Y50076525D01*
X15286589Y49914010D01*
X15556842Y49802068D01*
X15843740Y49745000D01*
X16136260Y49745000D01*
X16423158Y49802068D01*
X16537000Y49849223D01*
X16537000Y47976655D01*
X16440880Y47880535D01*
X16287995Y47651727D01*
X16256000Y47574485D01*
X16224005Y47651727D01*
X16071120Y47880535D01*
X15876535Y48075120D01*
X15647727Y48228005D01*
X15393490Y48333314D01*
X15123592Y48387000D01*
X14848408Y48387000D01*
X14578510Y48333314D01*
X14324273Y48228005D01*
X14095465Y48075120D01*
X13900880Y47880535D01*
X13747995Y47651727D01*
X13642686Y47397490D01*
X13589000Y47127592D01*
X13589000Y46852408D01*
X13642686Y46582510D01*
X13747995Y46328273D01*
X13900880Y46099465D01*
X14095465Y45904880D01*
X14324273Y45751995D01*
X14578510Y45646686D01*
X14848408Y45593000D01*
X15123592Y45593000D01*
X15393490Y45646686D01*
X15647727Y45751995D01*
X15876535Y45904880D01*
X16071120Y46099465D01*
X16224005Y46328273D01*
X16256000Y46405515D01*
X16287995Y46328273D01*
X16440880Y46099465D01*
X16635465Y45904880D01*
X16864273Y45751995D01*
X17118510Y45646686D01*
X17388408Y45593000D01*
X17663592Y45593000D01*
X17933490Y45646686D01*
X18187727Y45751995D01*
X18416535Y45904880D01*
X18611120Y46099465D01*
X18764005Y46328273D01*
X18796000Y46405515D01*
X18827995Y46328273D01*
X18980880Y46099465D01*
X19175465Y45904880D01*
X19404273Y45751995D01*
X19658510Y45646686D01*
X19928408Y45593000D01*
X20203592Y45593000D01*
X20473490Y45646686D01*
X20727727Y45751995D01*
X20956535Y45904880D01*
X21151120Y46099465D01*
X21304005Y46328273D01*
X21336000Y46405515D01*
X21367995Y46328273D01*
X21520880Y46099465D01*
X21715465Y45904880D01*
X21944273Y45751995D01*
X22198510Y45646686D01*
X22468408Y45593000D01*
X22743592Y45593000D01*
X23013490Y45646686D01*
X23267727Y45751995D01*
X23496535Y45904880D01*
X23691120Y46099465D01*
X23844005Y46328273D01*
X23876000Y46405515D01*
X23907995Y46328273D01*
X24060880Y46099465D01*
X24255465Y45904880D01*
X24484273Y45751995D01*
X24738510Y45646686D01*
X25008408Y45593000D01*
X25283592Y45593000D01*
X25553490Y45646686D01*
X25807727Y45751995D01*
X26036535Y45904880D01*
X26231120Y46099465D01*
X26384005Y46328273D01*
X26416000Y46405515D01*
X26447995Y46328273D01*
X26600880Y46099465D01*
X26795465Y45904880D01*
X27024273Y45751995D01*
X27278510Y45646686D01*
X27548408Y45593000D01*
X27823592Y45593000D01*
X28093490Y45646686D01*
X28347727Y45751995D01*
X28576535Y45904880D01*
X28771120Y46099465D01*
X28924005Y46328273D01*
X28956000Y46405515D01*
X28987995Y46328273D01*
X29140880Y46099465D01*
X29335465Y45904880D01*
X29564273Y45751995D01*
X29818510Y45646686D01*
X30088408Y45593000D01*
X30363592Y45593000D01*
X30633490Y45646686D01*
X30887727Y45751995D01*
X31116535Y45904880D01*
X31311120Y46099465D01*
X31464005Y46328273D01*
X31496000Y46405515D01*
X31527995Y46328273D01*
X31680880Y46099465D01*
X31875465Y45904880D01*
X32104273Y45751995D01*
X32358510Y45646686D01*
X32628408Y45593000D01*
X32903592Y45593000D01*
X33173490Y45646686D01*
X33427727Y45751995D01*
X33656535Y45904880D01*
X33851120Y46099465D01*
X34004005Y46328273D01*
X34036000Y46405515D01*
X34067995Y46328273D01*
X34220880Y46099465D01*
X34415465Y45904880D01*
X34644273Y45751995D01*
X34898510Y45646686D01*
X35168408Y45593000D01*
X35443592Y45593000D01*
X35713490Y45646686D01*
X35967727Y45751995D01*
X36196535Y45904880D01*
X36391120Y46099465D01*
X36544005Y46328273D01*
X36576000Y46405515D01*
X36607995Y46328273D01*
X36760880Y46099465D01*
X36955465Y45904880D01*
X37184273Y45751995D01*
X37438510Y45646686D01*
X37708408Y45593000D01*
X37983592Y45593000D01*
X38253490Y45646686D01*
X38507727Y45751995D01*
X38736535Y45904880D01*
X38931120Y46099465D01*
X39084005Y46328273D01*
X39116000Y46405515D01*
X39147995Y46328273D01*
X39300880Y46099465D01*
X39495465Y45904880D01*
X39724273Y45751995D01*
X39978510Y45646686D01*
X40248408Y45593000D01*
X40523592Y45593000D01*
X40793490Y45646686D01*
X41047727Y45751995D01*
X41276535Y45904880D01*
X41471120Y46099465D01*
X41624005Y46328273D01*
X41656000Y46405515D01*
X41687995Y46328273D01*
X41840880Y46099465D01*
X42035465Y45904880D01*
X42264273Y45751995D01*
X42518510Y45646686D01*
X42788408Y45593000D01*
X43063592Y45593000D01*
X43333490Y45646686D01*
X43587727Y45751995D01*
X43816535Y45904880D01*
X44011120Y46099465D01*
X44164005Y46328273D01*
X44196000Y46405515D01*
X44227995Y46328273D01*
X44380880Y46099465D01*
X44575465Y45904880D01*
X44804273Y45751995D01*
X45058510Y45646686D01*
X45328408Y45593000D01*
X45603592Y45593000D01*
X45873490Y45646686D01*
X46127727Y45751995D01*
X46356535Y45904880D01*
X46551120Y46099465D01*
X46704005Y46328273D01*
X46736000Y46405515D01*
X46767995Y46328273D01*
X46920880Y46099465D01*
X47115465Y45904880D01*
X47344273Y45751995D01*
X47598510Y45646686D01*
X47868408Y45593000D01*
X48143592Y45593000D01*
X48413490Y45646686D01*
X48667727Y45751995D01*
X48896535Y45904880D01*
X49016090Y46024435D01*
X49760040Y46024435D01*
X49827020Y45784344D01*
X50076048Y45667244D01*
X50343135Y45600977D01*
X50618017Y45588090D01*
X50890133Y45629078D01*
X51149023Y45722364D01*
X51264980Y45784344D01*
X51331960Y46024435D01*
X50546000Y46810395D01*
X49760040Y46024435D01*
X49016090Y46024435D01*
X49091120Y46099465D01*
X49244005Y46328273D01*
X49273692Y46399943D01*
X49278364Y46386977D01*
X49340344Y46271020D01*
X49580435Y46204040D01*
X50366395Y46990000D01*
X49580435Y47775960D01*
X49340344Y47708980D01*
X49276515Y47573240D01*
X49244005Y47651727D01*
X49091120Y47880535D01*
X49016090Y47955565D01*
X49760040Y47955565D01*
X50546000Y47169605D01*
X51331960Y47955565D01*
X51264980Y48195656D01*
X51015952Y48312756D01*
X50748865Y48379023D01*
X50473983Y48391910D01*
X50201867Y48350922D01*
X49942977Y48257636D01*
X49827020Y48195656D01*
X49760040Y47955565D01*
X49016090Y47955565D01*
X48896535Y48075120D01*
X48667727Y48228005D01*
X48413490Y48333314D01*
X48143592Y48387000D01*
X47868408Y48387000D01*
X47598510Y48333314D01*
X47344273Y48228005D01*
X47115465Y48075120D01*
X46920880Y47880535D01*
X46767995Y47651727D01*
X46736000Y47574485D01*
X46704005Y47651727D01*
X46551120Y47880535D01*
X46356535Y48075120D01*
X46127727Y48228005D01*
X45873490Y48333314D01*
X45603592Y48387000D01*
X45328408Y48387000D01*
X45058510Y48333314D01*
X44804273Y48228005D01*
X44575465Y48075120D01*
X44380880Y47880535D01*
X44227995Y47651727D01*
X44196000Y47574485D01*
X44164005Y47651727D01*
X44011120Y47880535D01*
X43816535Y48075120D01*
X43587727Y48228005D01*
X43333490Y48333314D01*
X43063592Y48387000D01*
X42788408Y48387000D01*
X42518510Y48333314D01*
X42264273Y48228005D01*
X42035465Y48075120D01*
X41840880Y47880535D01*
X41687995Y47651727D01*
X41656000Y47574485D01*
X41624005Y47651727D01*
X41471120Y47880535D01*
X41276535Y48075120D01*
X41047727Y48228005D01*
X40793490Y48333314D01*
X40523592Y48387000D01*
X40248408Y48387000D01*
X39978510Y48333314D01*
X39724273Y48228005D01*
X39495465Y48075120D01*
X39300880Y47880535D01*
X39147995Y47651727D01*
X39116000Y47574485D01*
X39084005Y47651727D01*
X38931120Y47880535D01*
X38736535Y48075120D01*
X38507727Y48228005D01*
X38253490Y48333314D01*
X37983592Y48387000D01*
X37708408Y48387000D01*
X37438510Y48333314D01*
X37184273Y48228005D01*
X36955465Y48075120D01*
X36760880Y47880535D01*
X36607995Y47651727D01*
X36576000Y47574485D01*
X36544005Y47651727D01*
X36391120Y47880535D01*
X36196535Y48075120D01*
X35967727Y48228005D01*
X35713490Y48333314D01*
X35443592Y48387000D01*
X35168408Y48387000D01*
X34898510Y48333314D01*
X34644273Y48228005D01*
X34415465Y48075120D01*
X34220880Y47880535D01*
X34067995Y47651727D01*
X34036000Y47574485D01*
X34004005Y47651727D01*
X33851120Y47880535D01*
X33656535Y48075120D01*
X33427727Y48228005D01*
X33173490Y48333314D01*
X32903592Y48387000D01*
X32628408Y48387000D01*
X32444940Y48350506D01*
X31533258Y49262188D01*
X31510238Y49290238D01*
X31398320Y49382087D01*
X31270633Y49450337D01*
X31132085Y49492365D01*
X31024105Y49503000D01*
X30988000Y49506556D01*
X30951895Y49503000D01*
X21894447Y49503000D01*
X21568368Y49829079D01*
X21773411Y49914010D01*
X22016632Y50076525D01*
X22223475Y50283368D01*
X22340000Y50457760D01*
X22456525Y50283368D01*
X22663368Y50076525D01*
X22906589Y49914010D01*
X23176842Y49802068D01*
X23463740Y49745000D01*
X23756260Y49745000D01*
X24043158Y49802068D01*
X24313411Y49914010D01*
X24556632Y50076525D01*
X24763475Y50283368D01*
X24880000Y50457760D01*
X24996525Y50283368D01*
X25203368Y50076525D01*
X25446589Y49914010D01*
X25716842Y49802068D01*
X26003740Y49745000D01*
X26296260Y49745000D01*
X26583158Y49802068D01*
X26853411Y49914010D01*
X27096632Y50076525D01*
X27303475Y50283368D01*
X27420000Y50457760D01*
X27536525Y50283368D01*
X27743368Y50076525D01*
X27986589Y49914010D01*
X28256842Y49802068D01*
X28543740Y49745000D01*
X28836260Y49745000D01*
X29123158Y49802068D01*
X29393411Y49914010D01*
X29636632Y50076525D01*
X29843475Y50283368D01*
X29960000Y50457760D01*
X30076525Y50283368D01*
X30283368Y50076525D01*
X30526589Y49914010D01*
X30796842Y49802068D01*
X31083740Y49745000D01*
X31376260Y49745000D01*
X31663158Y49802068D01*
X31933411Y49914010D01*
X32176632Y50076525D01*
X32383475Y50283368D01*
X32500000Y50457760D01*
X32616525Y50283368D01*
X32823368Y50076525D01*
X33066589Y49914010D01*
X33336842Y49802068D01*
X33623740Y49745000D01*
X33916260Y49745000D01*
X34203158Y49802068D01*
X34473411Y49914010D01*
X34716632Y50076525D01*
X34923475Y50283368D01*
X35040000Y50457760D01*
X35156525Y50283368D01*
X35363368Y50076525D01*
X35606589Y49914010D01*
X35876842Y49802068D01*
X36163740Y49745000D01*
X36456260Y49745000D01*
X36743158Y49802068D01*
X37013411Y49914010D01*
X37256632Y50076525D01*
X37463475Y50283368D01*
X37585195Y50465534D01*
X37654822Y50348645D01*
X37849731Y50132412D01*
X38083080Y49958359D01*
X38345901Y49833175D01*
X38493110Y49788524D01*
X38723000Y49909845D01*
X38723000Y51103000D01*
X38703000Y51103000D01*
X38703000Y51357000D01*
X38723000Y51357000D01*
X38723000Y51377000D01*
X38977000Y51377000D01*
X38977000Y51357000D01*
X38997000Y51357000D01*
X38997000Y51103000D01*
X38977000Y51103000D01*
X38977000Y49909845D01*
X39206890Y49788524D01*
X39354099Y49833175D01*
X39616920Y49958359D01*
X39850269Y50132412D01*
X40045178Y50348645D01*
X40114805Y50465534D01*
X40236525Y50283368D01*
X40443368Y50076525D01*
X40686589Y49914010D01*
X40956842Y49802068D01*
X41243740Y49745000D01*
X41536260Y49745000D01*
X41823158Y49802068D01*
X42093411Y49914010D01*
X42336632Y50076525D01*
X42543475Y50283368D01*
X42660000Y50457760D01*
X42776525Y50283368D01*
X42983368Y50076525D01*
X43226589Y49914010D01*
X43496842Y49802068D01*
X43783740Y49745000D01*
X44076260Y49745000D01*
X44363158Y49802068D01*
X44633411Y49914010D01*
X44876632Y50076525D01*
X45083475Y50283368D01*
X45200000Y50457760D01*
X45316525Y50283368D01*
X45523368Y50076525D01*
X45766589Y49914010D01*
X46036842Y49802068D01*
X46323740Y49745000D01*
X46616260Y49745000D01*
X46903158Y49802068D01*
X47173411Y49914010D01*
X47416632Y50076525D01*
X47623475Y50283368D01*
X47740000Y50457760D01*
X47856525Y50283368D01*
X48063368Y50076525D01*
X48306589Y49914010D01*
X48576842Y49802068D01*
X48863740Y49745000D01*
X49156260Y49745000D01*
X49443158Y49802068D01*
X49713411Y49914010D01*
X49956632Y50076525D01*
X50163475Y50283368D01*
X50280000Y50457760D01*
X50396525Y50283368D01*
X50603368Y50076525D01*
X50846589Y49914010D01*
X51116842Y49802068D01*
X51403740Y49745000D01*
X51696260Y49745000D01*
X51983158Y49802068D01*
X52253411Y49914010D01*
X52496632Y50076525D01*
X52703475Y50283368D01*
X52820000Y50457760D01*
X52936525Y50283368D01*
X53143368Y50076525D01*
X53386589Y49914010D01*
X53656842Y49802068D01*
X53943740Y49745000D01*
X54236260Y49745000D01*
X54523158Y49802068D01*
X54793411Y49914010D01*
X55036632Y50076525D01*
X55243475Y50283368D01*
X55365195Y50465534D01*
X55434822Y50348645D01*
X55629731Y50132412D01*
X55863080Y49958359D01*
X56125901Y49833175D01*
X56273110Y49788524D01*
X56503000Y49909845D01*
X56503000Y51103000D01*
X56757000Y51103000D01*
X56757000Y49909845D01*
X56986890Y49788524D01*
X57134099Y49833175D01*
X57396920Y49958359D01*
X57630269Y50132412D01*
X57825178Y50348645D01*
X57974157Y50598748D01*
X58071481Y50873109D01*
X57950814Y51103000D01*
X56757000Y51103000D01*
X56503000Y51103000D01*
X56483000Y51103000D01*
X56483000Y51357000D01*
X56503000Y51357000D01*
X56503000Y51377000D01*
X56757000Y51377000D01*
X56757000Y51357000D01*
X57950814Y51357000D01*
X58071481Y51586891D01*
X57974157Y51861252D01*
X57825178Y52111355D01*
X57630269Y52327588D01*
X57400594Y52498900D01*
X57576632Y52616525D01*
X57783475Y52823368D01*
X57945990Y53066589D01*
X58057932Y53336842D01*
X58115000Y53623740D01*
X58115000Y53916260D01*
X58057932Y54203158D01*
X57945990Y54473411D01*
X57783475Y54716632D01*
X57576632Y54923475D01*
X57333411Y55085990D01*
X57063158Y55197932D01*
X56776260Y55255000D01*
X56483740Y55255000D01*
X56196842Y55197932D01*
X55926589Y55085990D01*
X55683368Y54923475D01*
X55476525Y54716632D01*
X55360000Y54542240D01*
X55243475Y54716632D01*
X55036632Y54923475D01*
X54793411Y55085990D01*
X54523158Y55197932D01*
X54236260Y55255000D01*
X53943740Y55255000D01*
X53656842Y55197932D01*
X53386589Y55085990D01*
X53143368Y54923475D01*
X52936525Y54716632D01*
X52820000Y54542240D01*
X52703475Y54716632D01*
X52496632Y54923475D01*
X52253411Y55085990D01*
X51983158Y55197932D01*
X51696260Y55255000D01*
X51403740Y55255000D01*
X51116842Y55197932D01*
X50846589Y55085990D01*
X50603368Y54923475D01*
X50396525Y54716632D01*
X50274805Y54534466D01*
X50205178Y54651355D01*
X50010269Y54867588D01*
X49776920Y55041641D01*
X49514099Y55166825D01*
X49366890Y55211476D01*
X49137000Y55090155D01*
X49137000Y53897000D01*
X49157000Y53897000D01*
X49157000Y53643000D01*
X49137000Y53643000D01*
X49137000Y53623000D01*
X48883000Y53623000D01*
X48883000Y53643000D01*
X48863000Y53643000D01*
X48863000Y53897000D01*
X48883000Y53897000D01*
X48883000Y55090155D01*
X48653110Y55211476D01*
X48505901Y55166825D01*
X48243080Y55041641D01*
X48009731Y54867588D01*
X47814822Y54651355D01*
X47745195Y54534466D01*
X47623475Y54716632D01*
X47416632Y54923475D01*
X47173411Y55085990D01*
X46903158Y55197932D01*
X46616260Y55255000D01*
X46323740Y55255000D01*
X46036842Y55197932D01*
X45766589Y55085990D01*
X45523368Y54923475D01*
X45316525Y54716632D01*
X45194805Y54534466D01*
X45125178Y54651355D01*
X44930269Y54867588D01*
X44696920Y55041641D01*
X44434099Y55166825D01*
X44286890Y55211476D01*
X44057000Y55090155D01*
X44057000Y53897000D01*
X44077000Y53897000D01*
X44077000Y53643000D01*
X44057000Y53643000D01*
X44057000Y53623000D01*
X43803000Y53623000D01*
X43803000Y53643000D01*
X43783000Y53643000D01*
X43783000Y53897000D01*
X43803000Y53897000D01*
X43803000Y55090155D01*
X43573110Y55211476D01*
X43425901Y55166825D01*
X43163080Y55041641D01*
X42929731Y54867588D01*
X42734822Y54651355D01*
X42665195Y54534466D01*
X42543475Y54716632D01*
X42336632Y54923475D01*
X42093411Y55085990D01*
X41823158Y55197932D01*
X41536260Y55255000D01*
X41243740Y55255000D01*
X40956842Y55197932D01*
X40686589Y55085990D01*
X40443368Y54923475D01*
X40236525Y54716632D01*
X40120000Y54542240D01*
X40003475Y54716632D01*
X39796632Y54923475D01*
X39553411Y55085990D01*
X39283158Y55197932D01*
X38996260Y55255000D01*
X38703740Y55255000D01*
X38416842Y55197932D01*
X38146589Y55085990D01*
X37903368Y54923475D01*
X37696525Y54716632D01*
X37580000Y54542240D01*
X37463475Y54716632D01*
X37256632Y54923475D01*
X37013411Y55085990D01*
X36743158Y55197932D01*
X36456260Y55255000D01*
X36163740Y55255000D01*
X35876842Y55197932D01*
X35606589Y55085990D01*
X35363368Y54923475D01*
X35156525Y54716632D01*
X35040000Y54542240D01*
X34923475Y54716632D01*
X34716632Y54923475D01*
X34473411Y55085990D01*
X34203158Y55197932D01*
X33916260Y55255000D01*
X33623740Y55255000D01*
X33336842Y55197932D01*
X33066589Y55085990D01*
X32823368Y54923475D01*
X32616525Y54716632D01*
X32494805Y54534466D01*
X32425178Y54651355D01*
X32230269Y54867588D01*
X31996920Y55041641D01*
X31734099Y55166825D01*
X31586890Y55211476D01*
X31357000Y55090155D01*
X31357000Y53897000D01*
X31377000Y53897000D01*
X31377000Y53643000D01*
X31357000Y53643000D01*
X31357000Y53623000D01*
X31103000Y53623000D01*
X31103000Y53643000D01*
X31083000Y53643000D01*
X31083000Y53897000D01*
X31103000Y53897000D01*
X31103000Y55090155D01*
X30873110Y55211476D01*
X30725901Y55166825D01*
X30463080Y55041641D01*
X30229731Y54867588D01*
X30034822Y54651355D01*
X29965195Y54534466D01*
X29843475Y54716632D01*
X29636632Y54923475D01*
X29393411Y55085990D01*
X29123158Y55197932D01*
X28836260Y55255000D01*
X28543740Y55255000D01*
X28256842Y55197932D01*
X27986589Y55085990D01*
X27743368Y54923475D01*
X27536525Y54716632D01*
X27420000Y54542240D01*
X27303475Y54716632D01*
X27096632Y54923475D01*
X26853411Y55085990D01*
X26583158Y55197932D01*
X26296260Y55255000D01*
X26003740Y55255000D01*
X25716842Y55197932D01*
X25446589Y55085990D01*
X25203368Y54923475D01*
X24996525Y54716632D01*
X24874805Y54534466D01*
X24805178Y54651355D01*
X24610269Y54867588D01*
X24376920Y55041641D01*
X24114099Y55166825D01*
X23966890Y55211476D01*
X23737000Y55090155D01*
X23737000Y53897000D01*
X23757000Y53897000D01*
X23757000Y53643000D01*
X23737000Y53643000D01*
X23737000Y53623000D01*
X23483000Y53623000D01*
X23483000Y53643000D01*
X23463000Y53643000D01*
X23463000Y53897000D01*
X23483000Y53897000D01*
X23483000Y55090155D01*
X23253110Y55211476D01*
X23105901Y55166825D01*
X22843080Y55041641D01*
X22609731Y54867588D01*
X22414822Y54651355D01*
X22345195Y54534466D01*
X22223475Y54716632D01*
X22016632Y54923475D01*
X21773411Y55085990D01*
X21503158Y55197932D01*
X21216260Y55255000D01*
X20923740Y55255000D01*
X20636842Y55197932D01*
X20366589Y55085990D01*
X20123368Y54923475D01*
X19916525Y54716632D01*
X19800000Y54542240D01*
X19683475Y54716632D01*
X19476632Y54923475D01*
X19233411Y55085990D01*
X18963158Y55197932D01*
X18676260Y55255000D01*
X18383740Y55255000D01*
X18096842Y55197932D01*
X17826589Y55085990D01*
X17583368Y54923475D01*
X17376525Y54716632D01*
X17260000Y54542240D01*
X17143475Y54716632D01*
X16936632Y54923475D01*
X16693411Y55085990D01*
X16423158Y55197932D01*
X16136260Y55255000D01*
X15843740Y55255000D01*
X15556842Y55197932D01*
X15286589Y55085990D01*
X15043368Y54923475D01*
X14836525Y54716632D01*
X14714805Y54534466D01*
X14645178Y54651355D01*
X14450269Y54867588D01*
X14216920Y55041641D01*
X13954099Y55166825D01*
X13806890Y55211476D01*
X13577000Y55090155D01*
X13577000Y53897000D01*
X13597000Y53897000D01*
X13597000Y53643000D01*
X13577000Y53643000D01*
X13577000Y53623000D01*
X13323000Y53623000D01*
X13323000Y53643000D01*
X13303000Y53643000D01*
X13303000Y53897000D01*
X13323000Y53897000D01*
X13323000Y55090155D01*
X13093110Y55211476D01*
X12945901Y55166825D01*
X12683080Y55041641D01*
X12449731Y54867588D01*
X12254822Y54651355D01*
X12185195Y54534466D01*
X12063475Y54716632D01*
X11856632Y54923475D01*
X11613411Y55085990D01*
X11343158Y55197932D01*
X11056260Y55255000D01*
X10763740Y55255000D01*
X10476842Y55197932D01*
X10206589Y55085990D01*
X9963368Y54923475D01*
X9756525Y54716632D01*
X9640000Y54542240D01*
X9523475Y54716632D01*
X9316632Y54923475D01*
X9073411Y55085990D01*
X8803158Y55197932D01*
X8516260Y55255000D01*
X8223740Y55255000D01*
X7936842Y55197932D01*
X7666589Y55085990D01*
X7423368Y54923475D01*
X7216525Y54716632D01*
X7054010Y54473411D01*
X6942068Y54203158D01*
X6885000Y53916260D01*
X6885000Y53623740D01*
X6942068Y53336842D01*
X7054010Y53066589D01*
X7216525Y52823368D01*
X7348380Y52691513D01*
X7275820Y52669502D01*
X7165506Y52610537D01*
X7068815Y52531185D01*
X6989463Y52434494D01*
X6930498Y52324180D01*
X6894188Y52204482D01*
X6881928Y52080000D01*
X6881928Y50380000D01*
X6894188Y50255518D01*
X6930498Y50135820D01*
X6989463Y50025506D01*
X7068815Y49928815D01*
X7165506Y49849463D01*
X7275820Y49790498D01*
X7395518Y49754188D01*
X7520000Y49741928D01*
X9220000Y49741928D01*
X9344482Y49754188D01*
X9464180Y49790498D01*
X9574494Y49849463D01*
X9671185Y49928815D01*
X9750537Y50025506D01*
X9809502Y50135820D01*
X9831513Y50208380D01*
X9963368Y50076525D01*
X10175000Y49935117D01*
X10175001Y21360105D01*
X10175000Y19850447D01*
X9601554Y19277000D01*
X5969000Y19277000D01*
X5969000Y36830000D01*
X5966560Y36854776D01*
X5959333Y36878601D01*
X5947597Y36900557D01*
X5931803Y36919803D01*
X5912557Y36935597D01*
X5890601Y36947333D01*
X5866776Y36954560D01*
X5842000Y36957000D01*
X5195032Y36957000D01*
X5157959Y36981632D01*
X5106694Y37016733D01*
X5098281Y37021282D01*
X5012120Y37067094D01*
X4954704Y37090758D01*
X4897661Y37115208D01*
X4888525Y37118036D01*
X4795107Y37146241D01*
X4734195Y37158302D01*
X4673471Y37171209D01*
X4663959Y37172209D01*
X4566841Y37181731D01*
X4566837Y37181731D01*
X4533647Y37185000D01*
X381000Y37185000D01*
X381000Y47622327D01*
X6347355Y47498028D01*
X6372177Y47499951D01*
X6396146Y47506680D01*
X6418343Y47517957D01*
X6437913Y47533346D01*
X6454104Y47552258D01*
X6466295Y47573966D01*
X6474017Y47597634D01*
X6477000Y47625000D01*
X6477000Y55326441D01*
X58547000Y55315713D01*
G37*
X58547000Y55315713D02*
X58547000Y49022000D01*
X58549440Y48997224D01*
X58556667Y48973399D01*
X58568403Y48951443D01*
X58584197Y48932197D01*
X58603443Y48916403D01*
X58625399Y48904667D01*
X58649224Y48897440D01*
X58674000Y48895000D01*
X64315001Y48895000D01*
X64315001Y45470602D01*
X64293185Y45497185D01*
X64196494Y45576537D01*
X64086180Y45635502D01*
X63966482Y45671812D01*
X63842000Y45684072D01*
X62142000Y45684072D01*
X62017518Y45671812D01*
X61897820Y45635502D01*
X61787506Y45576537D01*
X61690815Y45497185D01*
X61611463Y45400494D01*
X61552498Y45290180D01*
X61519379Y45181000D01*
X58828001Y45181000D01*
X58396968Y45612032D01*
X58510133Y45629078D01*
X58769023Y45722364D01*
X58884980Y45784344D01*
X58951960Y46024435D01*
X58166000Y46810395D01*
X58151858Y46796252D01*
X57972253Y46975857D01*
X57986395Y46990000D01*
X58345605Y46990000D01*
X59131565Y46204040D01*
X59371656Y46271020D01*
X59488756Y46520048D01*
X59555023Y46787135D01*
X59567910Y47062017D01*
X59526922Y47334133D01*
X59433636Y47593023D01*
X59371656Y47708980D01*
X59131565Y47775960D01*
X58345605Y46990000D01*
X57986395Y46990000D01*
X57200435Y47775960D01*
X56960344Y47708980D01*
X56896515Y47573240D01*
X56864005Y47651727D01*
X56711120Y47880535D01*
X56636090Y47955565D01*
X57380040Y47955565D01*
X58166000Y47169605D01*
X58951960Y47955565D01*
X58884980Y48195656D01*
X58635952Y48312756D01*
X58368865Y48379023D01*
X58093983Y48391910D01*
X57821867Y48350922D01*
X57562977Y48257636D01*
X57447020Y48195656D01*
X57380040Y47955565D01*
X56636090Y47955565D01*
X56516535Y48075120D01*
X56287727Y48228005D01*
X56033490Y48333314D01*
X55763592Y48387000D01*
X55488408Y48387000D01*
X55218510Y48333314D01*
X54964273Y48228005D01*
X54735465Y48075120D01*
X54540880Y47880535D01*
X54387995Y47651727D01*
X54356000Y47574485D01*
X54324005Y47651727D01*
X54171120Y47880535D01*
X53976535Y48075120D01*
X53747727Y48228005D01*
X53493490Y48333314D01*
X53223592Y48387000D01*
X52948408Y48387000D01*
X52678510Y48333314D01*
X52424273Y48228005D01*
X52195465Y48075120D01*
X52000880Y47880535D01*
X51847995Y47651727D01*
X51818308Y47580057D01*
X51813636Y47593023D01*
X51751656Y47708980D01*
X51511565Y47775960D01*
X50725605Y46990000D01*
X51511565Y46204040D01*
X51751656Y46271020D01*
X51815485Y46406760D01*
X51847995Y46328273D01*
X52000880Y46099465D01*
X52195465Y45904880D01*
X52414501Y45758524D01*
X52414500Y24239545D01*
X52258965Y24135620D01*
X52064380Y23941035D01*
X51911495Y23712227D01*
X51879500Y23634985D01*
X51847505Y23712227D01*
X51694620Y23941035D01*
X51500035Y24135620D01*
X51271227Y24288505D01*
X51016990Y24393814D01*
X50747092Y24447500D01*
X50471908Y24447500D01*
X50202010Y24393814D01*
X49947773Y24288505D01*
X49718965Y24135620D01*
X49524380Y23941035D01*
X49371495Y23712227D01*
X49339500Y23634985D01*
X49307505Y23712227D01*
X49154620Y23941035D01*
X48960035Y24135620D01*
X48731227Y24288505D01*
X48476990Y24393814D01*
X48207092Y24447500D01*
X47931908Y24447500D01*
X47662010Y24393814D01*
X47407773Y24288505D01*
X47178965Y24135620D01*
X46984380Y23941035D01*
X46831495Y23712227D01*
X46799500Y23634985D01*
X46767505Y23712227D01*
X46614620Y23941035D01*
X46420035Y24135620D01*
X46191227Y24288505D01*
X45936990Y24393814D01*
X45667092Y24447500D01*
X45391908Y24447500D01*
X45122010Y24393814D01*
X44867773Y24288505D01*
X44638965Y24135620D01*
X44444380Y23941035D01*
X44291495Y23712227D01*
X44259500Y23634985D01*
X44227505Y23712227D01*
X44074620Y23941035D01*
X43880035Y24135620D01*
X43651227Y24288505D01*
X43396990Y24393814D01*
X43127092Y24447500D01*
X42851908Y24447500D01*
X42582010Y24393814D01*
X42327773Y24288505D01*
X42098965Y24135620D01*
X41904380Y23941035D01*
X41751495Y23712227D01*
X41719500Y23634985D01*
X41687505Y23712227D01*
X41534620Y23941035D01*
X41340035Y24135620D01*
X41111227Y24288505D01*
X40856990Y24393814D01*
X40587092Y24447500D01*
X40311908Y24447500D01*
X40042010Y24393814D01*
X39787773Y24288505D01*
X39558965Y24135620D01*
X39364380Y23941035D01*
X39211495Y23712227D01*
X39179500Y23634985D01*
X39147505Y23712227D01*
X38994620Y23941035D01*
X38800035Y24135620D01*
X38571227Y24288505D01*
X38316990Y24393814D01*
X38047092Y24447500D01*
X37771908Y24447500D01*
X37502010Y24393814D01*
X37247773Y24288505D01*
X37018965Y24135620D01*
X36824380Y23941035D01*
X36671495Y23712227D01*
X36607750Y23558334D01*
X36544005Y23712227D01*
X36391120Y23941035D01*
X36196535Y24135620D01*
X35967727Y24288505D01*
X35713490Y24393814D01*
X35443592Y24447500D01*
X35168408Y24447500D01*
X34898510Y24393814D01*
X34644273Y24288505D01*
X34415465Y24135620D01*
X34220880Y23941035D01*
X34067995Y23712227D01*
X34036000Y23634985D01*
X34004005Y23712227D01*
X33851120Y23941035D01*
X33656535Y24135620D01*
X33427727Y24288505D01*
X33173490Y24393814D01*
X32903592Y24447500D01*
X32628408Y24447500D01*
X32358510Y24393814D01*
X32104273Y24288505D01*
X31875465Y24135620D01*
X31680880Y23941035D01*
X31527995Y23712227D01*
X31496000Y23634985D01*
X31464005Y23712227D01*
X31311120Y23941035D01*
X31116535Y24135620D01*
X30887727Y24288505D01*
X30633490Y24393814D01*
X30363592Y24447500D01*
X30088408Y24447500D01*
X29818510Y24393814D01*
X29564273Y24288505D01*
X29335465Y24135620D01*
X29140880Y23941035D01*
X28987995Y23712227D01*
X28956000Y23634985D01*
X28924005Y23712227D01*
X28771120Y23941035D01*
X28576535Y24135620D01*
X28347727Y24288505D01*
X28093490Y24393814D01*
X27823592Y24447500D01*
X27548408Y24447500D01*
X27278510Y24393814D01*
X27024273Y24288505D01*
X26795465Y24135620D01*
X26600880Y23941035D01*
X26447995Y23712227D01*
X26416000Y23634985D01*
X26384005Y23712227D01*
X26231120Y23941035D01*
X26036535Y24135620D01*
X25807727Y24288505D01*
X25553490Y24393814D01*
X25283592Y24447500D01*
X25008408Y24447500D01*
X24738510Y24393814D01*
X24484273Y24288505D01*
X24255465Y24135620D01*
X24060880Y23941035D01*
X23907995Y23712227D01*
X23876000Y23634985D01*
X23844005Y23712227D01*
X23691120Y23941035D01*
X23496535Y24135620D01*
X23267727Y24288505D01*
X23013490Y24393814D01*
X22743592Y24447500D01*
X22468408Y24447500D01*
X22198510Y24393814D01*
X21944273Y24288505D01*
X21715465Y24135620D01*
X21520880Y23941035D01*
X21367995Y23712227D01*
X21336000Y23634985D01*
X21304005Y23712227D01*
X21151120Y23941035D01*
X20956535Y24135620D01*
X20727727Y24288505D01*
X20473490Y24393814D01*
X20203592Y24447500D01*
X19928408Y24447500D01*
X19658510Y24393814D01*
X19404273Y24288505D01*
X19175465Y24135620D01*
X18980880Y23941035D01*
X18827995Y23712227D01*
X18796000Y23634985D01*
X18764005Y23712227D01*
X18611120Y23941035D01*
X18416535Y24135620D01*
X18187727Y24288505D01*
X17933490Y24393814D01*
X17663592Y24447500D01*
X17388408Y24447500D01*
X17118510Y24393814D01*
X16864273Y24288505D01*
X16635465Y24135620D01*
X16440880Y23941035D01*
X16287995Y23712227D01*
X16256000Y23634985D01*
X16224005Y23712227D01*
X16071120Y23941035D01*
X15876535Y24135620D01*
X15647727Y24288505D01*
X15393490Y24393814D01*
X15123592Y24447500D01*
X14848408Y24447500D01*
X14578510Y24393814D01*
X14324273Y24288505D01*
X14095465Y24135620D01*
X13900880Y23941035D01*
X13747995Y23712227D01*
X13642686Y23457990D01*
X13589000Y23188092D01*
X13589000Y22912908D01*
X13642686Y22643010D01*
X13747995Y22388773D01*
X13900880Y22159965D01*
X14095465Y21965380D01*
X14324273Y21812495D01*
X14578510Y21707186D01*
X14848408Y21653500D01*
X15123592Y21653500D01*
X15393490Y21707186D01*
X15647727Y21812495D01*
X15876535Y21965380D01*
X16071120Y22159965D01*
X16224005Y22388773D01*
X16256000Y22466015D01*
X16287995Y22388773D01*
X16440880Y22159965D01*
X16635465Y21965380D01*
X16864273Y21812495D01*
X17118510Y21707186D01*
X17388408Y21653500D01*
X17663592Y21653500D01*
X17933490Y21707186D01*
X18187727Y21812495D01*
X18416535Y21965380D01*
X18611120Y22159965D01*
X18764005Y22388773D01*
X18796000Y22466015D01*
X18827995Y22388773D01*
X18980880Y22159965D01*
X19175465Y21965380D01*
X19404273Y21812495D01*
X19658510Y21707186D01*
X19928408Y21653500D01*
X20203592Y21653500D01*
X20473490Y21707186D01*
X20727727Y21812495D01*
X20956535Y21965380D01*
X21151120Y22159965D01*
X21304005Y22388773D01*
X21336000Y22466015D01*
X21367995Y22388773D01*
X21520880Y22159965D01*
X21715465Y21965380D01*
X21944273Y21812495D01*
X22198510Y21707186D01*
X22468408Y21653500D01*
X22743592Y21653500D01*
X23013490Y21707186D01*
X23267727Y21812495D01*
X23496535Y21965380D01*
X23691120Y22159965D01*
X23844005Y22388773D01*
X23876000Y22466015D01*
X23907995Y22388773D01*
X24060880Y22159965D01*
X24255465Y21965380D01*
X24484273Y21812495D01*
X24738510Y21707186D01*
X25008408Y21653500D01*
X25283592Y21653500D01*
X25553490Y21707186D01*
X25807727Y21812495D01*
X26036535Y21965380D01*
X26231120Y22159965D01*
X26384005Y22388773D01*
X26416000Y22466015D01*
X26447995Y22388773D01*
X26600880Y22159965D01*
X26795465Y21965380D01*
X27024273Y21812495D01*
X27278510Y21707186D01*
X27548408Y21653500D01*
X27823592Y21653500D01*
X28093490Y21707186D01*
X28347727Y21812495D01*
X28576535Y21965380D01*
X28771120Y22159965D01*
X28924005Y22388773D01*
X28956000Y22466015D01*
X28987995Y22388773D01*
X29140880Y22159965D01*
X29335465Y21965380D01*
X29564273Y21812495D01*
X29818510Y21707186D01*
X30088408Y21653500D01*
X30363592Y21653500D01*
X30633490Y21707186D01*
X30887727Y21812495D01*
X31116535Y21965380D01*
X31311120Y22159965D01*
X31464005Y22388773D01*
X31496000Y22466015D01*
X31527995Y22388773D01*
X31680880Y22159965D01*
X31875465Y21965380D01*
X32104273Y21812495D01*
X32358510Y21707186D01*
X32628408Y21653500D01*
X32903592Y21653500D01*
X33173490Y21707186D01*
X33427727Y21812495D01*
X33656535Y21965380D01*
X33851120Y22159965D01*
X34004005Y22388773D01*
X34036000Y22466015D01*
X34067995Y22388773D01*
X34220880Y22159965D01*
X34415465Y21965380D01*
X34644273Y21812495D01*
X34898510Y21707186D01*
X35104721Y21666168D01*
X28060747Y14622193D01*
X28105000Y14844665D01*
X28105000Y15127335D01*
X28049853Y15404574D01*
X27941680Y15665727D01*
X27784637Y15900759D01*
X27584759Y16100637D01*
X27349727Y16257680D01*
X27088574Y16365853D01*
X26811335Y16421000D01*
X26528665Y16421000D01*
X26251426Y16365853D01*
X25990273Y16257680D01*
X25755241Y16100637D01*
X25555363Y15900759D01*
X25435252Y15721000D01*
X23912094Y15721000D01*
X23875999Y15724555D01*
X23839904Y15721000D01*
X23839895Y15721000D01*
X23731915Y15710365D01*
X23593367Y15668337D01*
X23465680Y15600087D01*
X23353762Y15508238D01*
X23330746Y15480193D01*
X23087000Y15236447D01*
X23087000Y16993117D01*
X23298632Y17134525D01*
X23505475Y17341368D01*
X23667990Y17584589D01*
X23779932Y17854842D01*
X23837000Y18141740D01*
X23837000Y18434260D01*
X23783544Y18703001D01*
X25238912Y18703001D01*
X25235000Y18683335D01*
X25235000Y18400665D01*
X25290147Y18123426D01*
X25398320Y17862273D01*
X25555363Y17627241D01*
X25755241Y17427363D01*
X25990273Y17270320D01*
X26251426Y17162147D01*
X26528665Y17107000D01*
X26811335Y17107000D01*
X27088574Y17162147D01*
X27349727Y17270320D01*
X27584759Y17427363D01*
X27784637Y17627241D01*
X27941680Y17862273D01*
X28049853Y18123426D01*
X28105000Y18400665D01*
X28105000Y18683335D01*
X28049853Y18960574D01*
X27941680Y19221727D01*
X27784637Y19456759D01*
X27584759Y19656637D01*
X27349727Y19813680D01*
X27088574Y19921853D01*
X26811335Y19977000D01*
X26528665Y19977000D01*
X26317030Y19934903D01*
X26296237Y19960239D01*
X26184319Y20052088D01*
X26056632Y20120338D01*
X25918084Y20162366D01*
X25810104Y20173001D01*
X25773999Y20176557D01*
X25737894Y20173001D01*
X20998106Y20173001D01*
X20962001Y20176557D01*
X20925896Y20173001D01*
X20817916Y20162366D01*
X20679368Y20120338D01*
X20551681Y20052088D01*
X20439763Y19960239D01*
X20416742Y19932188D01*
X20207898Y19723344D01*
X19958260Y19773000D01*
X19665740Y19773000D01*
X19378842Y19715932D01*
X19108589Y19603990D01*
X18865368Y19441475D01*
X18658525Y19234632D01*
X18536805Y19052466D01*
X18467178Y19169355D01*
X18272269Y19385588D01*
X18038920Y19559641D01*
X17776099Y19684825D01*
X17628890Y19729476D01*
X17399000Y19608155D01*
X17399000Y18415000D01*
X17419000Y18415000D01*
X17419000Y18161000D01*
X17399000Y18161000D01*
X17399000Y16967845D01*
X17628890Y16846524D01*
X17776099Y16891175D01*
X18038920Y17016359D01*
X18272269Y17190412D01*
X18467178Y17406645D01*
X18536805Y17523534D01*
X18658525Y17341368D01*
X18865368Y17134525D01*
X19077000Y16993117D01*
X19077001Y14756883D01*
X18865368Y14615475D01*
X18658525Y14408632D01*
X18536805Y14226466D01*
X18467178Y14343355D01*
X18272269Y14559588D01*
X18038920Y14733641D01*
X17776099Y14858825D01*
X17628890Y14903476D01*
X17399000Y14782155D01*
X17399000Y13589000D01*
X17419000Y13589000D01*
X17419000Y13335000D01*
X17399000Y13335000D01*
X17399000Y12141845D01*
X17628890Y12020524D01*
X17776099Y12065175D01*
X18038920Y12190359D01*
X18272269Y12364412D01*
X18467178Y12580645D01*
X18536805Y12697534D01*
X18658525Y12515368D01*
X18865368Y12308525D01*
X19108589Y12146010D01*
X19378842Y12034068D01*
X19665740Y11977000D01*
X19958260Y11977000D01*
X20245158Y12034068D01*
X20515411Y12146010D01*
X20758632Y12308525D01*
X20965475Y12515368D01*
X21082000Y12689760D01*
X21198525Y12515368D01*
X21405368Y12308525D01*
X21648589Y12146010D01*
X21918842Y12034068D01*
X22205740Y11977000D01*
X22498260Y11977000D01*
X22785158Y12034068D01*
X23055411Y12146010D01*
X23298632Y12308525D01*
X23505475Y12515368D01*
X23667990Y12758589D01*
X23779932Y13028842D01*
X23837000Y13315740D01*
X23837000Y13608260D01*
X23787344Y13857897D01*
X24180447Y14251000D01*
X25435252Y14251000D01*
X25555363Y14071241D01*
X25755241Y13871363D01*
X25990273Y13714320D01*
X26251426Y13606147D01*
X26528665Y13551000D01*
X26811335Y13551000D01*
X27033807Y13595253D01*
X24587554Y11149000D01*
X18070096Y11149000D01*
X18033999Y11152555D01*
X17997902Y11149000D01*
X17997895Y11149000D01*
X17904132Y11139765D01*
X17889914Y11138365D01*
X17847886Y11125616D01*
X17751367Y11096337D01*
X17623680Y11028087D01*
X17511762Y10936238D01*
X17488746Y10908193D01*
X13647372Y7066818D01*
X13589386Y7114405D01*
X13435850Y7196472D01*
X13269254Y7247008D01*
X13096000Y7264072D01*
X11796000Y7264072D01*
X11622746Y7247008D01*
X11456150Y7196472D01*
X11302614Y7114405D01*
X11168038Y7003962D01*
X11057595Y6869386D01*
X10975528Y6715850D01*
X10924992Y6549254D01*
X10907928Y6376000D01*
X10907928Y3276000D01*
X10924992Y3102746D01*
X10975528Y2936150D01*
X11057595Y2782614D01*
X11168038Y2648038D01*
X11302614Y2537595D01*
X11456150Y2455528D01*
X11622746Y2404992D01*
X11796000Y2387928D01*
X13096000Y2387928D01*
X13269254Y2404992D01*
X13435850Y2455528D01*
X13589386Y2537595D01*
X13723962Y2648038D01*
X13834405Y2782614D01*
X13916472Y2936150D01*
X13967008Y3102746D01*
X13984072Y3276000D01*
X13984072Y5324626D01*
X16791000Y8131553D01*
X16791000Y7073653D01*
X16669073Y7008481D01*
X16435339Y6816661D01*
X16243519Y6582926D01*
X16100983Y6316260D01*
X16013210Y6026912D01*
X15991000Y5801407D01*
X15991000Y3850592D01*
X16013211Y3625087D01*
X16100984Y3335739D01*
X16243520Y3069073D01*
X16435340Y2835339D01*
X16669074Y2643519D01*
X16935740Y2500983D01*
X17225088Y2413210D01*
X17526000Y2383573D01*
X17826913Y2413210D01*
X18116261Y2500983D01*
X18382927Y2643519D01*
X18616661Y2835339D01*
X18808481Y3069073D01*
X18951017Y3335739D01*
X19038790Y3625087D01*
X19061000Y3850592D01*
X19061000Y5801408D01*
X19038790Y6026913D01*
X18951017Y6316261D01*
X18808481Y6582927D01*
X18616661Y6816661D01*
X18382926Y7008481D01*
X18261000Y7073652D01*
X18261000Y8077554D01*
X19100447Y8917000D01*
X22355554Y8917000D01*
X22111808Y8673254D01*
X22083762Y8650237D01*
X21991913Y8538319D01*
X21923663Y8410632D01*
X21914978Y8382000D01*
X21881635Y8272085D01*
X21867444Y8128000D01*
X21871000Y8091895D01*
X21871000Y7073653D01*
X21749073Y7008481D01*
X21515339Y6816661D01*
X21323519Y6582926D01*
X21180983Y6316260D01*
X21093210Y6026912D01*
X21071000Y5801407D01*
X21071000Y3850592D01*
X21093211Y3625087D01*
X21180984Y3335739D01*
X21323520Y3069073D01*
X21515340Y2835339D01*
X21749074Y2643519D01*
X22015740Y2500983D01*
X22305088Y2413210D01*
X22606000Y2383573D01*
X22906913Y2413210D01*
X23196261Y2500983D01*
X23462927Y2643519D01*
X23696661Y2835339D01*
X23853132Y3026000D01*
X28433928Y3026000D01*
X28446188Y2901518D01*
X28482498Y2781820D01*
X28541463Y2671506D01*
X28620815Y2574815D01*
X28717506Y2495463D01*
X28827820Y2436498D01*
X28947518Y2400188D01*
X29072000Y2387928D01*
X29686250Y2391000D01*
X29845000Y2549750D01*
X29845000Y4699000D01*
X30099000Y4699000D01*
X30099000Y2549750D01*
X30257750Y2391000D01*
X30872000Y2387928D01*
X30996482Y2400188D01*
X31116180Y2436498D01*
X31226494Y2495463D01*
X31323185Y2574815D01*
X31402537Y2671506D01*
X31461502Y2781820D01*
X31497812Y2901518D01*
X31510072Y3026000D01*
X31507000Y4540250D01*
X31348250Y4699000D01*
X30099000Y4699000D01*
X29845000Y4699000D01*
X28595750Y4699000D01*
X28437000Y4540250D01*
X28433928Y3026000D01*
X23853132Y3026000D01*
X23888481Y3069073D01*
X24031017Y3335739D01*
X24118790Y3625087D01*
X24141000Y3850592D01*
X24141000Y5801408D01*
X24118790Y6026913D01*
X24031017Y6316261D01*
X23888481Y6582927D01*
X23853133Y6626000D01*
X28433928Y6626000D01*
X28437000Y5111750D01*
X28595750Y4953000D01*
X29845000Y4953000D01*
X29845000Y7102250D01*
X30099000Y7102250D01*
X30099000Y4953000D01*
X31348250Y4953000D01*
X31507000Y5111750D01*
X31508399Y5801407D01*
X33517000Y5801407D01*
X33517000Y3850592D01*
X33539211Y3625087D01*
X33626984Y3335739D01*
X33769520Y3069073D01*
X33961340Y2835339D01*
X34195074Y2643519D01*
X34461740Y2500983D01*
X34751088Y2413210D01*
X35052000Y2383573D01*
X35352913Y2413210D01*
X35642261Y2500983D01*
X35908927Y2643519D01*
X36142661Y2835339D01*
X36334481Y3069073D01*
X36477017Y3335739D01*
X36564790Y3625087D01*
X36587000Y3850592D01*
X36587000Y5801408D01*
X36564790Y6026913D01*
X36477017Y6316261D01*
X36334481Y6582927D01*
X36142661Y6816661D01*
X35908926Y7008481D01*
X35642260Y7151017D01*
X35352912Y7238790D01*
X35052000Y7268427D01*
X34751087Y7238790D01*
X34461739Y7151017D01*
X34195073Y7008481D01*
X33961339Y6816661D01*
X33769519Y6582926D01*
X33626983Y6316260D01*
X33539210Y6026912D01*
X33517000Y5801407D01*
X31508399Y5801407D01*
X31510072Y6626000D01*
X31497812Y6750482D01*
X31461502Y6870180D01*
X31402537Y6980494D01*
X31323185Y7077185D01*
X31226494Y7156537D01*
X31116180Y7215502D01*
X30996482Y7251812D01*
X30872000Y7264072D01*
X30257750Y7261000D01*
X30099000Y7102250D01*
X29845000Y7102250D01*
X29686250Y7261000D01*
X29072000Y7264072D01*
X28947518Y7251812D01*
X28827820Y7215502D01*
X28717506Y7156537D01*
X28620815Y7077185D01*
X28541463Y6980494D01*
X28482498Y6870180D01*
X28446188Y6750482D01*
X28433928Y6626000D01*
X23853133Y6626000D01*
X23696661Y6816661D01*
X23462926Y7008481D01*
X23341000Y7073652D01*
X23341000Y7823554D01*
X23926447Y8409000D01*
X24856523Y8409000D01*
X24892628Y8405444D01*
X24928733Y8409000D01*
X25036713Y8419635D01*
X25175261Y8461663D01*
X25302948Y8529913D01*
X25414866Y8621762D01*
X25437887Y8649813D01*
X36989065Y20200990D01*
X43822567Y20200990D01*
X43810027Y20188362D01*
X43765689Y20144943D01*
X43759592Y20137574D01*
X43636242Y19986332D01*
X43601881Y19934614D01*
X43566809Y19883393D01*
X43562260Y19874980D01*
X43470635Y19702657D01*
X43446978Y19645261D01*
X43422519Y19588193D01*
X43419690Y19579057D01*
X43363281Y19392220D01*
X43351219Y19331302D01*
X43338314Y19270590D01*
X43337314Y19261078D01*
X43318269Y19066845D01*
X43318269Y19066827D01*
X43315001Y19033647D01*
X43315001Y18834148D01*
X43289853Y18960574D01*
X43181680Y19221727D01*
X43024637Y19456759D01*
X42824759Y19656637D01*
X42589727Y19813680D01*
X42328574Y19921853D01*
X42051335Y19977000D01*
X41768665Y19977000D01*
X41491426Y19921853D01*
X41230273Y19813680D01*
X40995241Y19656637D01*
X40795363Y19456759D01*
X40638320Y19221727D01*
X40530147Y18960574D01*
X40475000Y18683335D01*
X40475000Y18400665D01*
X40530147Y18123426D01*
X40638320Y17862273D01*
X40795363Y17627241D01*
X40995241Y17427363D01*
X41230273Y17270320D01*
X41491426Y17162147D01*
X41768665Y17107000D01*
X42051335Y17107000D01*
X42328574Y17162147D01*
X42589727Y17270320D01*
X42824759Y17427363D01*
X43024637Y17627241D01*
X43181680Y17862273D01*
X43289853Y18123426D01*
X43315001Y18249852D01*
X43315001Y15278149D01*
X43289853Y15404574D01*
X43181680Y15665727D01*
X43024637Y15900759D01*
X42824759Y16100637D01*
X42589727Y16257680D01*
X42328574Y16365853D01*
X42051335Y16421000D01*
X41768665Y16421000D01*
X41491426Y16365853D01*
X41230273Y16257680D01*
X40995241Y16100637D01*
X40795363Y15900759D01*
X40638320Y15665727D01*
X40530147Y15404574D01*
X40475000Y15127335D01*
X40475000Y14844665D01*
X40530147Y14567426D01*
X40638320Y14306273D01*
X40795363Y14071241D01*
X40995241Y13871363D01*
X41230273Y13714320D01*
X41491426Y13606147D01*
X41768665Y13551000D01*
X42051335Y13551000D01*
X42328574Y13606147D01*
X42589727Y13714320D01*
X42824759Y13871363D01*
X43024637Y14071241D01*
X43181680Y14306273D01*
X43289853Y14567426D01*
X43315001Y14693850D01*
X43315000Y3966354D01*
X43318366Y3932179D01*
X43318366Y3919194D01*
X43319366Y3909682D01*
X43341121Y3715732D01*
X43354025Y3655024D01*
X43366089Y3594099D01*
X43368917Y3584962D01*
X43427930Y3398932D01*
X43452377Y3341895D01*
X43476046Y3284469D01*
X43480595Y3276056D01*
X43574617Y3105031D01*
X43609692Y3053806D01*
X43644050Y3002094D01*
X43650146Y2994724D01*
X43775596Y2845218D01*
X43819974Y2801760D01*
X43854492Y2767000D01*
X41230447Y2767000D01*
X41189402Y2808044D01*
X41222661Y2835339D01*
X41414481Y3069073D01*
X41557017Y3335739D01*
X41644790Y3625087D01*
X41667000Y3850592D01*
X41667000Y5801408D01*
X41644790Y6026913D01*
X41557017Y6316261D01*
X41414481Y6582927D01*
X41222661Y6816661D01*
X40988926Y7008481D01*
X40722260Y7151017D01*
X40432912Y7238790D01*
X40132000Y7268427D01*
X39831087Y7238790D01*
X39541739Y7151017D01*
X39275073Y7008481D01*
X39041339Y6816661D01*
X38849519Y6582926D01*
X38706983Y6316260D01*
X38619210Y6026912D01*
X38597000Y5801407D01*
X38597000Y3850592D01*
X38619211Y3625087D01*
X38706984Y3335739D01*
X38849520Y3069073D01*
X39041340Y2835339D01*
X39275074Y2643519D01*
X39447190Y2551521D01*
X39449663Y2543368D01*
X39517913Y2415681D01*
X39609762Y2303763D01*
X39637808Y2280746D01*
X40380746Y1537807D01*
X40403762Y1509762D01*
X40431806Y1486747D01*
X40515680Y1417913D01*
X40643366Y1349663D01*
X40781915Y1307635D01*
X40926000Y1293444D01*
X40962105Y1297000D01*
X46445895Y1297000D01*
X46482000Y1293444D01*
X46518105Y1297000D01*
X46626085Y1307635D01*
X46764633Y1349663D01*
X46892320Y1417913D01*
X47004238Y1509762D01*
X47027258Y1537812D01*
X47954194Y2464747D01*
X47982239Y2487763D01*
X48074088Y2599681D01*
X48142338Y2727368D01*
X48184366Y2865916D01*
X48195001Y2973896D01*
X48195001Y2973905D01*
X48198556Y3010000D01*
X48195001Y3046095D01*
X48195001Y7325408D01*
X48249000Y7325408D01*
X48249000Y5374593D01*
X48271210Y5149088D01*
X48358983Y4859740D01*
X48501519Y4593074D01*
X48693339Y4359339D01*
X48927073Y4167519D01*
X49193739Y4024983D01*
X49483087Y3937210D01*
X49784000Y3907573D01*
X50084912Y3937210D01*
X50374260Y4024983D01*
X50640926Y4167519D01*
X50874661Y4359339D01*
X51031132Y4550000D01*
X53325928Y4550000D01*
X53338188Y4425518D01*
X53374498Y4305820D01*
X53433463Y4195506D01*
X53512815Y4098815D01*
X53609506Y4019463D01*
X53719820Y3960498D01*
X53839518Y3924188D01*
X53964000Y3911928D01*
X54578250Y3915000D01*
X54737000Y4073750D01*
X54737000Y6223000D01*
X54991000Y6223000D01*
X54991000Y4073750D01*
X55149750Y3915000D01*
X55764000Y3911928D01*
X55888482Y3924188D01*
X56008180Y3960498D01*
X56118494Y4019463D01*
X56215185Y4098815D01*
X56294537Y4195506D01*
X56353502Y4305820D01*
X56389812Y4425518D01*
X56402072Y4550000D01*
X56399000Y6064250D01*
X56240250Y6223000D01*
X54991000Y6223000D01*
X54737000Y6223000D01*
X53487750Y6223000D01*
X53329000Y6064250D01*
X53325928Y4550000D01*
X51031132Y4550000D01*
X51066481Y4593073D01*
X51209017Y4859739D01*
X51296790Y5149087D01*
X51319000Y5374592D01*
X51319000Y7325408D01*
X51296790Y7550913D01*
X51209017Y7840261D01*
X51066481Y8106927D01*
X51031133Y8150000D01*
X53325928Y8150000D01*
X53329000Y6635750D01*
X53487750Y6477000D01*
X54737000Y6477000D01*
X54737000Y8626250D01*
X54991000Y8626250D01*
X54991000Y6477000D01*
X56240250Y6477000D01*
X56399000Y6635750D01*
X56402072Y8150000D01*
X56389812Y8274482D01*
X56353502Y8394180D01*
X56294537Y8504494D01*
X56215185Y8601185D01*
X56118494Y8680537D01*
X56008180Y8739502D01*
X55888482Y8775812D01*
X55764000Y8788072D01*
X55149750Y8785000D01*
X54991000Y8626250D01*
X54737000Y8626250D01*
X54578250Y8785000D01*
X53964000Y8788072D01*
X53839518Y8775812D01*
X53719820Y8739502D01*
X53609506Y8680537D01*
X53512815Y8601185D01*
X53433463Y8504494D01*
X53374498Y8394180D01*
X53338188Y8274482D01*
X53325928Y8150000D01*
X51031133Y8150000D01*
X50874661Y8340661D01*
X50640927Y8532481D01*
X50374261Y8675017D01*
X50084913Y8762790D01*
X49784000Y8792427D01*
X49483088Y8762790D01*
X49193740Y8675017D01*
X48927074Y8532481D01*
X48693340Y8340661D01*
X48501520Y8106927D01*
X48358984Y7840261D01*
X48271211Y7550913D01*
X48249000Y7325408D01*
X48195001Y7325408D01*
X48195001Y11773000D01*
X48401335Y11773000D01*
X48678574Y11828147D01*
X48939727Y11936320D01*
X49174759Y12093363D01*
X49374637Y12293241D01*
X49531680Y12528273D01*
X49639853Y12789426D01*
X49695000Y13066665D01*
X49695000Y13349335D01*
X49639853Y13626574D01*
X49531680Y13887727D01*
X49374637Y14122759D01*
X49174759Y14322637D01*
X48995000Y14442748D01*
X48995000Y17729554D01*
X51104447Y19839000D01*
X58129895Y19839000D01*
X58166000Y19835444D01*
X58202105Y19839000D01*
X58310085Y19849635D01*
X58448633Y19891663D01*
X58576320Y19959913D01*
X58688238Y20051762D01*
X58711259Y20079813D01*
X63486193Y24854746D01*
X63514238Y24877762D01*
X63606087Y24989680D01*
X63674337Y25117366D01*
X63716365Y25255915D01*
X63730556Y25400000D01*
X63727000Y25436105D01*
X63727000Y40361117D01*
X63938632Y40502525D01*
X64145475Y40709368D01*
X64307990Y40952589D01*
X64315001Y40969515D01*
X64315000Y14389294D01*
X64179727Y14479680D01*
X63918574Y14587853D01*
X63641335Y14643000D01*
X63358665Y14643000D01*
X63146625Y14600822D01*
X60933000Y16814446D01*
X60933000Y17186983D01*
X61176505Y17349688D01*
X61242944Y17416127D01*
X61248498Y17397820D01*
X61307463Y17287506D01*
X61386815Y17190815D01*
X61483506Y17111463D01*
X61593820Y17052498D01*
X61713518Y17016188D01*
X61838000Y17003928D01*
X62452250Y17007000D01*
X62611000Y17165750D01*
X62611000Y18415000D01*
X62865000Y18415000D01*
X62865000Y17165750D01*
X63023750Y17007000D01*
X63638000Y17003928D01*
X63762482Y17016188D01*
X63882180Y17052498D01*
X63992494Y17111463D01*
X64089185Y17190815D01*
X64168537Y17287506D01*
X64227502Y17397820D01*
X64263812Y17517518D01*
X64276072Y17642000D01*
X64273000Y18256250D01*
X64114250Y18415000D01*
X62865000Y18415000D01*
X62611000Y18415000D01*
X62591000Y18415000D01*
X62591000Y18669000D01*
X62611000Y18669000D01*
X62611000Y19918250D01*
X62865000Y19918250D01*
X62865000Y18669000D01*
X64114250Y18669000D01*
X64273000Y18827750D01*
X64276072Y19442000D01*
X64263812Y19566482D01*
X64227502Y19686180D01*
X64168537Y19796494D01*
X64089185Y19893185D01*
X63992494Y19972537D01*
X63882180Y20031502D01*
X63762482Y20067812D01*
X63638000Y20080072D01*
X63023750Y20077000D01*
X62865000Y19918250D01*
X62611000Y19918250D01*
X62452250Y20077000D01*
X61838000Y20080072D01*
X61713518Y20067812D01*
X61593820Y20031502D01*
X61483506Y19972537D01*
X61386815Y19893185D01*
X61307463Y19796494D01*
X61248498Y19686180D01*
X61242944Y19667873D01*
X61176505Y19734312D01*
X60925095Y19902299D01*
X60645743Y20018011D01*
X60349184Y20077000D01*
X60046816Y20077000D01*
X59750257Y20018011D01*
X59470905Y19902299D01*
X59219495Y19734312D01*
X59005688Y19520505D01*
X58837701Y19269095D01*
X58721989Y18989743D01*
X58663000Y18693184D01*
X58663000Y18390816D01*
X58721989Y18094257D01*
X58837701Y17814905D01*
X59005688Y17563495D01*
X59219495Y17349688D01*
X59463000Y17186983D01*
X59463000Y16546105D01*
X59459444Y16510000D01*
X59463000Y16473896D01*
X59473635Y16365916D01*
X59515663Y16227368D01*
X59583913Y16099681D01*
X59675762Y15987763D01*
X59703808Y15964746D01*
X62107178Y13561375D01*
X62065000Y13349335D01*
X62065000Y13066665D01*
X62120147Y12789426D01*
X62228320Y12528273D01*
X62385363Y12293241D01*
X62585241Y12093363D01*
X62820273Y11936320D01*
X63081426Y11828147D01*
X63358665Y11773000D01*
X63641335Y11773000D01*
X63918574Y11828147D01*
X64179727Y11936320D01*
X64315000Y12026706D01*
X64315000Y7493000D01*
X58420000Y7493000D01*
X58395224Y7490560D01*
X58371399Y7483333D01*
X58349443Y7471597D01*
X58330197Y7455803D01*
X58314403Y7436557D01*
X58302667Y7414601D01*
X58295440Y7390776D01*
X58293000Y7366000D01*
X58293000Y685000D01*
X7239000Y685000D01*
X7239000Y7366000D01*
X7236560Y7390776D01*
X7229333Y7414601D01*
X7217597Y7436557D01*
X7201803Y7455803D01*
X7182557Y7471597D01*
X7160601Y7483333D01*
X7136776Y7490560D01*
X7112000Y7493000D01*
X889000Y7493000D01*
X889000Y9290260D01*
X1309000Y9290260D01*
X1309000Y8997740D01*
X1366068Y8710842D01*
X1478010Y8440589D01*
X1640525Y8197368D01*
X1847368Y7990525D01*
X2090589Y7828010D01*
X2360842Y7716068D01*
X2647740Y7659000D01*
X2940260Y7659000D01*
X3227158Y7716068D01*
X3497411Y7828010D01*
X3740632Y7990525D01*
X3872487Y8122380D01*
X3894498Y8049820D01*
X3953463Y7939506D01*
X4032815Y7842815D01*
X4129506Y7763463D01*
X4239820Y7704498D01*
X4359518Y7668188D01*
X4484000Y7655928D01*
X6184000Y7655928D01*
X6308482Y7668188D01*
X6428180Y7704498D01*
X6538494Y7763463D01*
X6635185Y7842815D01*
X6714537Y7939506D01*
X6773502Y8049820D01*
X6809812Y8169518D01*
X6822072Y8294000D01*
X6822072Y9994000D01*
X6809812Y10118482D01*
X6773502Y10238180D01*
X6714537Y10348494D01*
X6635185Y10445185D01*
X6538494Y10524537D01*
X6428180Y10583502D01*
X6308482Y10619812D01*
X6184000Y10632072D01*
X4484000Y10632072D01*
X4359518Y10619812D01*
X4239820Y10583502D01*
X4129506Y10524537D01*
X4032815Y10445185D01*
X3953463Y10348494D01*
X3894498Y10238180D01*
X3872487Y10165620D01*
X3740632Y10297475D01*
X3497411Y10459990D01*
X3227158Y10571932D01*
X2940260Y10629000D01*
X2647740Y10629000D01*
X2360842Y10571932D01*
X2090589Y10459990D01*
X1847368Y10297475D01*
X1640525Y10090632D01*
X1478010Y9847411D01*
X1366068Y9577158D01*
X1309000Y9290260D01*
X889000Y9290260D01*
X889000Y18415000D01*
X3405553Y18415000D01*
X3189897Y18199344D01*
X2940260Y18249000D01*
X2647740Y18249000D01*
X2360842Y18191932D01*
X2090589Y18079990D01*
X1847368Y17917475D01*
X1640525Y17710632D01*
X1478010Y17467411D01*
X1366068Y17197158D01*
X1309000Y16910260D01*
X1309000Y16617740D01*
X1366068Y16330842D01*
X1478010Y16060589D01*
X1640525Y15817368D01*
X1847368Y15610525D01*
X2090589Y15448010D01*
X2360842Y15336068D01*
X2647740Y15279000D01*
X2940260Y15279000D01*
X3227158Y15336068D01*
X3497411Y15448010D01*
X3740632Y15610525D01*
X3872487Y15742380D01*
X3894498Y15669820D01*
X3953463Y15559506D01*
X4032815Y15462815D01*
X4129506Y15383463D01*
X4239820Y15324498D01*
X4359518Y15288188D01*
X4484000Y15275928D01*
X6184000Y15275928D01*
X6308482Y15288188D01*
X6428180Y15324498D01*
X6538494Y15383463D01*
X6635185Y15462815D01*
X6714537Y15559506D01*
X6773502Y15669820D01*
X6809812Y15789518D01*
X6822072Y15914000D01*
X6822072Y17614000D01*
X6809812Y17738482D01*
X6789027Y17807000D01*
X9869895Y17807000D01*
X9906000Y17803444D01*
X9942105Y17807000D01*
X10050085Y17817635D01*
X10188633Y17859663D01*
X10316320Y17927913D01*
X10428238Y18019762D01*
X10451258Y18047812D01*
X11404197Y19000750D01*
X11432237Y19023762D01*
X11455250Y19051803D01*
X11455253Y19051806D01*
X11511124Y19119885D01*
X11524087Y19135680D01*
X11525327Y19138000D01*
X13243928Y19138000D01*
X13243928Y17438000D01*
X13256188Y17313518D01*
X13292498Y17193820D01*
X13351463Y17083506D01*
X13430815Y16986815D01*
X13527506Y16907463D01*
X13637820Y16848498D01*
X13757518Y16812188D01*
X13882000Y16799928D01*
X13997000Y16799928D01*
X13997001Y14950072D01*
X13882000Y14950072D01*
X13757518Y14937812D01*
X13637820Y14901502D01*
X13527506Y14842537D01*
X13430815Y14763185D01*
X13351463Y14666494D01*
X13292498Y14556180D01*
X13256188Y14436482D01*
X13243928Y14312000D01*
X13243928Y12612000D01*
X13256188Y12487518D01*
X13292498Y12367820D01*
X13351463Y12257506D01*
X13430815Y12160815D01*
X13527506Y12081463D01*
X13637820Y12022498D01*
X13757518Y11986188D01*
X13882000Y11973928D01*
X15582000Y11973928D01*
X15706482Y11986188D01*
X15826180Y12022498D01*
X15936494Y12081463D01*
X16033185Y12160815D01*
X16112537Y12257506D01*
X16171502Y12367820D01*
X16195966Y12448466D01*
X16271731Y12364412D01*
X16505080Y12190359D01*
X16767901Y12065175D01*
X16915110Y12020524D01*
X17145000Y12141845D01*
X17145000Y13335000D01*
X17125000Y13335000D01*
X17125000Y13589000D01*
X17145000Y13589000D01*
X17145000Y14782155D01*
X16915110Y14903476D01*
X16767901Y14858825D01*
X16505080Y14733641D01*
X16271731Y14559588D01*
X16195966Y14475534D01*
X16171502Y14556180D01*
X16112537Y14666494D01*
X16033185Y14763185D01*
X15936494Y14842537D01*
X15826180Y14901502D01*
X15706482Y14937812D01*
X15582000Y14950072D01*
X15467000Y14950072D01*
X15467000Y16799928D01*
X15582000Y16799928D01*
X15706482Y16812188D01*
X15826180Y16848498D01*
X15936494Y16907463D01*
X16033185Y16986815D01*
X16112537Y17083506D01*
X16171502Y17193820D01*
X16195966Y17274466D01*
X16271731Y17190412D01*
X16505080Y17016359D01*
X16767901Y16891175D01*
X16915110Y16846524D01*
X17145000Y16967845D01*
X17145000Y18161000D01*
X17125000Y18161000D01*
X17125000Y18415000D01*
X17145000Y18415000D01*
X17145000Y19608155D01*
X16915110Y19729476D01*
X16767901Y19684825D01*
X16505080Y19559641D01*
X16271731Y19385588D01*
X16195966Y19301534D01*
X16171502Y19382180D01*
X16112537Y19492494D01*
X16033185Y19589185D01*
X15936494Y19668537D01*
X15826180Y19727502D01*
X15706482Y19763812D01*
X15582000Y19776072D01*
X13882000Y19776072D01*
X13757518Y19763812D01*
X13637820Y19727502D01*
X13527506Y19668537D01*
X13430815Y19589185D01*
X13351463Y19492494D01*
X13292498Y19382180D01*
X13256188Y19262482D01*
X13243928Y19138000D01*
X11525327Y19138000D01*
X11592337Y19263367D01*
X11634365Y19401915D01*
X11645000Y19509895D01*
X11645000Y19509904D01*
X11648555Y19545999D01*
X11645000Y19582094D01*
X11645000Y49935117D01*
X11856632Y50076525D01*
X12063475Y50283368D01*
X12180000Y50457760D01*
X12296525Y50283368D01*
X12503368Y50076525D01*
X12746589Y49914010D01*
X13016842Y49802068D01*
X13303740Y49745000D01*
X13596260Y49745000D01*
X13883158Y49802068D01*
X14153411Y49914010D01*
X14396632Y50076525D01*
X14603475Y50283368D01*
X14720000Y50457760D01*
X14836525Y50283368D01*
X15043368Y50076525D01*
X15286589Y49914010D01*
X15556842Y49802068D01*
X15843740Y49745000D01*
X16136260Y49745000D01*
X16423158Y49802068D01*
X16537000Y49849223D01*
X16537000Y47976655D01*
X16440880Y47880535D01*
X16287995Y47651727D01*
X16256000Y47574485D01*
X16224005Y47651727D01*
X16071120Y47880535D01*
X15876535Y48075120D01*
X15647727Y48228005D01*
X15393490Y48333314D01*
X15123592Y48387000D01*
X14848408Y48387000D01*
X14578510Y48333314D01*
X14324273Y48228005D01*
X14095465Y48075120D01*
X13900880Y47880535D01*
X13747995Y47651727D01*
X13642686Y47397490D01*
X13589000Y47127592D01*
X13589000Y46852408D01*
X13642686Y46582510D01*
X13747995Y46328273D01*
X13900880Y46099465D01*
X14095465Y45904880D01*
X14324273Y45751995D01*
X14578510Y45646686D01*
X14848408Y45593000D01*
X15123592Y45593000D01*
X15393490Y45646686D01*
X15647727Y45751995D01*
X15876535Y45904880D01*
X16071120Y46099465D01*
X16224005Y46328273D01*
X16256000Y46405515D01*
X16287995Y46328273D01*
X16440880Y46099465D01*
X16635465Y45904880D01*
X16864273Y45751995D01*
X17118510Y45646686D01*
X17388408Y45593000D01*
X17663592Y45593000D01*
X17933490Y45646686D01*
X18187727Y45751995D01*
X18416535Y45904880D01*
X18611120Y46099465D01*
X18764005Y46328273D01*
X18796000Y46405515D01*
X18827995Y46328273D01*
X18980880Y46099465D01*
X19175465Y45904880D01*
X19404273Y45751995D01*
X19658510Y45646686D01*
X19928408Y45593000D01*
X20203592Y45593000D01*
X20473490Y45646686D01*
X20727727Y45751995D01*
X20956535Y45904880D01*
X21151120Y46099465D01*
X21304005Y46328273D01*
X21336000Y46405515D01*
X21367995Y46328273D01*
X21520880Y46099465D01*
X21715465Y45904880D01*
X21944273Y45751995D01*
X22198510Y45646686D01*
X22468408Y45593000D01*
X22743592Y45593000D01*
X23013490Y45646686D01*
X23267727Y45751995D01*
X23496535Y45904880D01*
X23691120Y46099465D01*
X23844005Y46328273D01*
X23876000Y46405515D01*
X23907995Y46328273D01*
X24060880Y46099465D01*
X24255465Y45904880D01*
X24484273Y45751995D01*
X24738510Y45646686D01*
X25008408Y45593000D01*
X25283592Y45593000D01*
X25553490Y45646686D01*
X25807727Y45751995D01*
X26036535Y45904880D01*
X26231120Y46099465D01*
X26384005Y46328273D01*
X26416000Y46405515D01*
X26447995Y46328273D01*
X26600880Y46099465D01*
X26795465Y45904880D01*
X27024273Y45751995D01*
X27278510Y45646686D01*
X27548408Y45593000D01*
X27823592Y45593000D01*
X28093490Y45646686D01*
X28347727Y45751995D01*
X28576535Y45904880D01*
X28771120Y46099465D01*
X28924005Y46328273D01*
X28956000Y46405515D01*
X28987995Y46328273D01*
X29140880Y46099465D01*
X29335465Y45904880D01*
X29564273Y45751995D01*
X29818510Y45646686D01*
X30088408Y45593000D01*
X30363592Y45593000D01*
X30633490Y45646686D01*
X30887727Y45751995D01*
X31116535Y45904880D01*
X31311120Y46099465D01*
X31464005Y46328273D01*
X31496000Y46405515D01*
X31527995Y46328273D01*
X31680880Y46099465D01*
X31875465Y45904880D01*
X32104273Y45751995D01*
X32358510Y45646686D01*
X32628408Y45593000D01*
X32903592Y45593000D01*
X33173490Y45646686D01*
X33427727Y45751995D01*
X33656535Y45904880D01*
X33851120Y46099465D01*
X34004005Y46328273D01*
X34036000Y46405515D01*
X34067995Y46328273D01*
X34220880Y46099465D01*
X34415465Y45904880D01*
X34644273Y45751995D01*
X34898510Y45646686D01*
X35168408Y45593000D01*
X35443592Y45593000D01*
X35713490Y45646686D01*
X35967727Y45751995D01*
X36196535Y45904880D01*
X36391120Y46099465D01*
X36544005Y46328273D01*
X36576000Y46405515D01*
X36607995Y46328273D01*
X36760880Y46099465D01*
X36955465Y45904880D01*
X37184273Y45751995D01*
X37438510Y45646686D01*
X37708408Y45593000D01*
X37983592Y45593000D01*
X38253490Y45646686D01*
X38507727Y45751995D01*
X38736535Y45904880D01*
X38931120Y46099465D01*
X39084005Y46328273D01*
X39116000Y46405515D01*
X39147995Y46328273D01*
X39300880Y46099465D01*
X39495465Y45904880D01*
X39724273Y45751995D01*
X39978510Y45646686D01*
X40248408Y45593000D01*
X40523592Y45593000D01*
X40793490Y45646686D01*
X41047727Y45751995D01*
X41276535Y45904880D01*
X41471120Y46099465D01*
X41624005Y46328273D01*
X41656000Y46405515D01*
X41687995Y46328273D01*
X41840880Y46099465D01*
X42035465Y45904880D01*
X42264273Y45751995D01*
X42518510Y45646686D01*
X42788408Y45593000D01*
X43063592Y45593000D01*
X43333490Y45646686D01*
X43587727Y45751995D01*
X43816535Y45904880D01*
X44011120Y46099465D01*
X44164005Y46328273D01*
X44196000Y46405515D01*
X44227995Y46328273D01*
X44380880Y46099465D01*
X44575465Y45904880D01*
X44804273Y45751995D01*
X45058510Y45646686D01*
X45328408Y45593000D01*
X45603592Y45593000D01*
X45873490Y45646686D01*
X46127727Y45751995D01*
X46356535Y45904880D01*
X46551120Y46099465D01*
X46704005Y46328273D01*
X46736000Y46405515D01*
X46767995Y46328273D01*
X46920880Y46099465D01*
X47115465Y45904880D01*
X47344273Y45751995D01*
X47598510Y45646686D01*
X47868408Y45593000D01*
X48143592Y45593000D01*
X48413490Y45646686D01*
X48667727Y45751995D01*
X48896535Y45904880D01*
X49016090Y46024435D01*
X49760040Y46024435D01*
X49827020Y45784344D01*
X50076048Y45667244D01*
X50343135Y45600977D01*
X50618017Y45588090D01*
X50890133Y45629078D01*
X51149023Y45722364D01*
X51264980Y45784344D01*
X51331960Y46024435D01*
X50546000Y46810395D01*
X49760040Y46024435D01*
X49016090Y46024435D01*
X49091120Y46099465D01*
X49244005Y46328273D01*
X49273692Y46399943D01*
X49278364Y46386977D01*
X49340344Y46271020D01*
X49580435Y46204040D01*
X50366395Y46990000D01*
X49580435Y47775960D01*
X49340344Y47708980D01*
X49276515Y47573240D01*
X49244005Y47651727D01*
X49091120Y47880535D01*
X49016090Y47955565D01*
X49760040Y47955565D01*
X50546000Y47169605D01*
X51331960Y47955565D01*
X51264980Y48195656D01*
X51015952Y48312756D01*
X50748865Y48379023D01*
X50473983Y48391910D01*
X50201867Y48350922D01*
X49942977Y48257636D01*
X49827020Y48195656D01*
X49760040Y47955565D01*
X49016090Y47955565D01*
X48896535Y48075120D01*
X48667727Y48228005D01*
X48413490Y48333314D01*
X48143592Y48387000D01*
X47868408Y48387000D01*
X47598510Y48333314D01*
X47344273Y48228005D01*
X47115465Y48075120D01*
X46920880Y47880535D01*
X46767995Y47651727D01*
X46736000Y47574485D01*
X46704005Y47651727D01*
X46551120Y47880535D01*
X46356535Y48075120D01*
X46127727Y48228005D01*
X45873490Y48333314D01*
X45603592Y48387000D01*
X45328408Y48387000D01*
X45058510Y48333314D01*
X44804273Y48228005D01*
X44575465Y48075120D01*
X44380880Y47880535D01*
X44227995Y47651727D01*
X44196000Y47574485D01*
X44164005Y47651727D01*
X44011120Y47880535D01*
X43816535Y48075120D01*
X43587727Y48228005D01*
X43333490Y48333314D01*
X43063592Y48387000D01*
X42788408Y48387000D01*
X42518510Y48333314D01*
X42264273Y48228005D01*
X42035465Y48075120D01*
X41840880Y47880535D01*
X41687995Y47651727D01*
X41656000Y47574485D01*
X41624005Y47651727D01*
X41471120Y47880535D01*
X41276535Y48075120D01*
X41047727Y48228005D01*
X40793490Y48333314D01*
X40523592Y48387000D01*
X40248408Y48387000D01*
X39978510Y48333314D01*
X39724273Y48228005D01*
X39495465Y48075120D01*
X39300880Y47880535D01*
X39147995Y47651727D01*
X39116000Y47574485D01*
X39084005Y47651727D01*
X38931120Y47880535D01*
X38736535Y48075120D01*
X38507727Y48228005D01*
X38253490Y48333314D01*
X37983592Y48387000D01*
X37708408Y48387000D01*
X37438510Y48333314D01*
X37184273Y48228005D01*
X36955465Y48075120D01*
X36760880Y47880535D01*
X36607995Y47651727D01*
X36576000Y47574485D01*
X36544005Y47651727D01*
X36391120Y47880535D01*
X36196535Y48075120D01*
X35967727Y48228005D01*
X35713490Y48333314D01*
X35443592Y48387000D01*
X35168408Y48387000D01*
X34898510Y48333314D01*
X34644273Y48228005D01*
X34415465Y48075120D01*
X34220880Y47880535D01*
X34067995Y47651727D01*
X34036000Y47574485D01*
X34004005Y47651727D01*
X33851120Y47880535D01*
X33656535Y48075120D01*
X33427727Y48228005D01*
X33173490Y48333314D01*
X32903592Y48387000D01*
X32628408Y48387000D01*
X32444940Y48350506D01*
X31533258Y49262188D01*
X31510238Y49290238D01*
X31398320Y49382087D01*
X31270633Y49450337D01*
X31132085Y49492365D01*
X31024105Y49503000D01*
X30988000Y49506556D01*
X30951895Y49503000D01*
X21894447Y49503000D01*
X21568368Y49829079D01*
X21773411Y49914010D01*
X22016632Y50076525D01*
X22223475Y50283368D01*
X22340000Y50457760D01*
X22456525Y50283368D01*
X22663368Y50076525D01*
X22906589Y49914010D01*
X23176842Y49802068D01*
X23463740Y49745000D01*
X23756260Y49745000D01*
X24043158Y49802068D01*
X24313411Y49914010D01*
X24556632Y50076525D01*
X24763475Y50283368D01*
X24880000Y50457760D01*
X24996525Y50283368D01*
X25203368Y50076525D01*
X25446589Y49914010D01*
X25716842Y49802068D01*
X26003740Y49745000D01*
X26296260Y49745000D01*
X26583158Y49802068D01*
X26853411Y49914010D01*
X27096632Y50076525D01*
X27303475Y50283368D01*
X27420000Y50457760D01*
X27536525Y50283368D01*
X27743368Y50076525D01*
X27986589Y49914010D01*
X28256842Y49802068D01*
X28543740Y49745000D01*
X28836260Y49745000D01*
X29123158Y49802068D01*
X29393411Y49914010D01*
X29636632Y50076525D01*
X29843475Y50283368D01*
X29960000Y50457760D01*
X30076525Y50283368D01*
X30283368Y50076525D01*
X30526589Y49914010D01*
X30796842Y49802068D01*
X31083740Y49745000D01*
X31376260Y49745000D01*
X31663158Y49802068D01*
X31933411Y49914010D01*
X32176632Y50076525D01*
X32383475Y50283368D01*
X32500000Y50457760D01*
X32616525Y50283368D01*
X32823368Y50076525D01*
X33066589Y49914010D01*
X33336842Y49802068D01*
X33623740Y49745000D01*
X33916260Y49745000D01*
X34203158Y49802068D01*
X34473411Y49914010D01*
X34716632Y50076525D01*
X34923475Y50283368D01*
X35040000Y50457760D01*
X35156525Y50283368D01*
X35363368Y50076525D01*
X35606589Y49914010D01*
X35876842Y49802068D01*
X36163740Y49745000D01*
X36456260Y49745000D01*
X36743158Y49802068D01*
X37013411Y49914010D01*
X37256632Y50076525D01*
X37463475Y50283368D01*
X37585195Y50465534D01*
X37654822Y50348645D01*
X37849731Y50132412D01*
X38083080Y49958359D01*
X38345901Y49833175D01*
X38493110Y49788524D01*
X38723000Y49909845D01*
X38723000Y51103000D01*
X38703000Y51103000D01*
X38703000Y51357000D01*
X38723000Y51357000D01*
X38723000Y51377000D01*
X38977000Y51377000D01*
X38977000Y51357000D01*
X38997000Y51357000D01*
X38997000Y51103000D01*
X38977000Y51103000D01*
X38977000Y49909845D01*
X39206890Y49788524D01*
X39354099Y49833175D01*
X39616920Y49958359D01*
X39850269Y50132412D01*
X40045178Y50348645D01*
X40114805Y50465534D01*
X40236525Y50283368D01*
X40443368Y50076525D01*
X40686589Y49914010D01*
X40956842Y49802068D01*
X41243740Y49745000D01*
X41536260Y49745000D01*
X41823158Y49802068D01*
X42093411Y49914010D01*
X42336632Y50076525D01*
X42543475Y50283368D01*
X42660000Y50457760D01*
X42776525Y50283368D01*
X42983368Y50076525D01*
X43226589Y49914010D01*
X43496842Y49802068D01*
X43783740Y49745000D01*
X44076260Y49745000D01*
X44363158Y49802068D01*
X44633411Y49914010D01*
X44876632Y50076525D01*
X45083475Y50283368D01*
X45200000Y50457760D01*
X45316525Y50283368D01*
X45523368Y50076525D01*
X45766589Y49914010D01*
X46036842Y49802068D01*
X46323740Y49745000D01*
X46616260Y49745000D01*
X46903158Y49802068D01*
X47173411Y49914010D01*
X47416632Y50076525D01*
X47623475Y50283368D01*
X47740000Y50457760D01*
X47856525Y50283368D01*
X48063368Y50076525D01*
X48306589Y49914010D01*
X48576842Y49802068D01*
X48863740Y49745000D01*
X49156260Y49745000D01*
X49443158Y49802068D01*
X49713411Y49914010D01*
X49956632Y50076525D01*
X50163475Y50283368D01*
X50280000Y50457760D01*
X50396525Y50283368D01*
X50603368Y50076525D01*
X50846589Y49914010D01*
X51116842Y49802068D01*
X51403740Y49745000D01*
X51696260Y49745000D01*
X51983158Y49802068D01*
X52253411Y49914010D01*
X52496632Y50076525D01*
X52703475Y50283368D01*
X52820000Y50457760D01*
X52936525Y50283368D01*
X53143368Y50076525D01*
X53386589Y49914010D01*
X53656842Y49802068D01*
X53943740Y49745000D01*
X54236260Y49745000D01*
X54523158Y49802068D01*
X54793411Y49914010D01*
X55036632Y50076525D01*
X55243475Y50283368D01*
X55365195Y50465534D01*
X55434822Y50348645D01*
X55629731Y50132412D01*
X55863080Y49958359D01*
X56125901Y49833175D01*
X56273110Y49788524D01*
X56503000Y49909845D01*
X56503000Y51103000D01*
X56757000Y51103000D01*
X56757000Y49909845D01*
X56986890Y49788524D01*
X57134099Y49833175D01*
X57396920Y49958359D01*
X57630269Y50132412D01*
X57825178Y50348645D01*
X57974157Y50598748D01*
X58071481Y50873109D01*
X57950814Y51103000D01*
X56757000Y51103000D01*
X56503000Y51103000D01*
X56483000Y51103000D01*
X56483000Y51357000D01*
X56503000Y51357000D01*
X56503000Y51377000D01*
X56757000Y51377000D01*
X56757000Y51357000D01*
X57950814Y51357000D01*
X58071481Y51586891D01*
X57974157Y51861252D01*
X57825178Y52111355D01*
X57630269Y52327588D01*
X57400594Y52498900D01*
X57576632Y52616525D01*
X57783475Y52823368D01*
X57945990Y53066589D01*
X58057932Y53336842D01*
X58115000Y53623740D01*
X58115000Y53916260D01*
X58057932Y54203158D01*
X57945990Y54473411D01*
X57783475Y54716632D01*
X57576632Y54923475D01*
X57333411Y55085990D01*
X57063158Y55197932D01*
X56776260Y55255000D01*
X56483740Y55255000D01*
X56196842Y55197932D01*
X55926589Y55085990D01*
X55683368Y54923475D01*
X55476525Y54716632D01*
X55360000Y54542240D01*
X55243475Y54716632D01*
X55036632Y54923475D01*
X54793411Y55085990D01*
X54523158Y55197932D01*
X54236260Y55255000D01*
X53943740Y55255000D01*
X53656842Y55197932D01*
X53386589Y55085990D01*
X53143368Y54923475D01*
X52936525Y54716632D01*
X52820000Y54542240D01*
X52703475Y54716632D01*
X52496632Y54923475D01*
X52253411Y55085990D01*
X51983158Y55197932D01*
X51696260Y55255000D01*
X51403740Y55255000D01*
X51116842Y55197932D01*
X50846589Y55085990D01*
X50603368Y54923475D01*
X50396525Y54716632D01*
X50274805Y54534466D01*
X50205178Y54651355D01*
X50010269Y54867588D01*
X49776920Y55041641D01*
X49514099Y55166825D01*
X49366890Y55211476D01*
X49137000Y55090155D01*
X49137000Y53897000D01*
X49157000Y53897000D01*
X49157000Y53643000D01*
X49137000Y53643000D01*
X49137000Y53623000D01*
X48883000Y53623000D01*
X48883000Y53643000D01*
X48863000Y53643000D01*
X48863000Y53897000D01*
X48883000Y53897000D01*
X48883000Y55090155D01*
X48653110Y55211476D01*
X48505901Y55166825D01*
X48243080Y55041641D01*
X48009731Y54867588D01*
X47814822Y54651355D01*
X47745195Y54534466D01*
X47623475Y54716632D01*
X47416632Y54923475D01*
X47173411Y55085990D01*
X46903158Y55197932D01*
X46616260Y55255000D01*
X46323740Y55255000D01*
X46036842Y55197932D01*
X45766589Y55085990D01*
X45523368Y54923475D01*
X45316525Y54716632D01*
X45194805Y54534466D01*
X45125178Y54651355D01*
X44930269Y54867588D01*
X44696920Y55041641D01*
X44434099Y55166825D01*
X44286890Y55211476D01*
X44057000Y55090155D01*
X44057000Y53897000D01*
X44077000Y53897000D01*
X44077000Y53643000D01*
X44057000Y53643000D01*
X44057000Y53623000D01*
X43803000Y53623000D01*
X43803000Y53643000D01*
X43783000Y53643000D01*
X43783000Y53897000D01*
X43803000Y53897000D01*
X43803000Y55090155D01*
X43573110Y55211476D01*
X43425901Y55166825D01*
X43163080Y55041641D01*
X42929731Y54867588D01*
X42734822Y54651355D01*
X42665195Y54534466D01*
X42543475Y54716632D01*
X42336632Y54923475D01*
X42093411Y55085990D01*
X41823158Y55197932D01*
X41536260Y55255000D01*
X41243740Y55255000D01*
X40956842Y55197932D01*
X40686589Y55085990D01*
X40443368Y54923475D01*
X40236525Y54716632D01*
X40120000Y54542240D01*
X40003475Y54716632D01*
X39796632Y54923475D01*
X39553411Y55085990D01*
X39283158Y55197932D01*
X38996260Y55255000D01*
X38703740Y55255000D01*
X38416842Y55197932D01*
X38146589Y55085990D01*
X37903368Y54923475D01*
X37696525Y54716632D01*
X37580000Y54542240D01*
X37463475Y54716632D01*
X37256632Y54923475D01*
X37013411Y55085990D01*
X36743158Y55197932D01*
X36456260Y55255000D01*
X36163740Y55255000D01*
X35876842Y55197932D01*
X35606589Y55085990D01*
X35363368Y54923475D01*
X35156525Y54716632D01*
X35040000Y54542240D01*
X34923475Y54716632D01*
X34716632Y54923475D01*
X34473411Y55085990D01*
X34203158Y55197932D01*
X33916260Y55255000D01*
X33623740Y55255000D01*
X33336842Y55197932D01*
X33066589Y55085990D01*
X32823368Y54923475D01*
X32616525Y54716632D01*
X32494805Y54534466D01*
X32425178Y54651355D01*
X32230269Y54867588D01*
X31996920Y55041641D01*
X31734099Y55166825D01*
X31586890Y55211476D01*
X31357000Y55090155D01*
X31357000Y53897000D01*
X31377000Y53897000D01*
X31377000Y53643000D01*
X31357000Y53643000D01*
X31357000Y53623000D01*
X31103000Y53623000D01*
X31103000Y53643000D01*
X31083000Y53643000D01*
X31083000Y53897000D01*
X31103000Y53897000D01*
X31103000Y55090155D01*
X30873110Y55211476D01*
X30725901Y55166825D01*
X30463080Y55041641D01*
X30229731Y54867588D01*
X30034822Y54651355D01*
X29965195Y54534466D01*
X29843475Y54716632D01*
X29636632Y54923475D01*
X29393411Y55085990D01*
X29123158Y55197932D01*
X28836260Y55255000D01*
X28543740Y55255000D01*
X28256842Y55197932D01*
X27986589Y55085990D01*
X27743368Y54923475D01*
X27536525Y54716632D01*
X27420000Y54542240D01*
X27303475Y54716632D01*
X27096632Y54923475D01*
X26853411Y55085990D01*
X26583158Y55197932D01*
X26296260Y55255000D01*
X26003740Y55255000D01*
X25716842Y55197932D01*
X25446589Y55085990D01*
X25203368Y54923475D01*
X24996525Y54716632D01*
X24874805Y54534466D01*
X24805178Y54651355D01*
X24610269Y54867588D01*
X24376920Y55041641D01*
X24114099Y55166825D01*
X23966890Y55211476D01*
X23737000Y55090155D01*
X23737000Y53897000D01*
X23757000Y53897000D01*
X23757000Y53643000D01*
X23737000Y53643000D01*
X23737000Y53623000D01*
X23483000Y53623000D01*
X23483000Y53643000D01*
X23463000Y53643000D01*
X23463000Y53897000D01*
X23483000Y53897000D01*
X23483000Y55090155D01*
X23253110Y55211476D01*
X23105901Y55166825D01*
X22843080Y55041641D01*
X22609731Y54867588D01*
X22414822Y54651355D01*
X22345195Y54534466D01*
X22223475Y54716632D01*
X22016632Y54923475D01*
X21773411Y55085990D01*
X21503158Y55197932D01*
X21216260Y55255000D01*
X20923740Y55255000D01*
X20636842Y55197932D01*
X20366589Y55085990D01*
X20123368Y54923475D01*
X19916525Y54716632D01*
X19800000Y54542240D01*
X19683475Y54716632D01*
X19476632Y54923475D01*
X19233411Y55085990D01*
X18963158Y55197932D01*
X18676260Y55255000D01*
X18383740Y55255000D01*
X18096842Y55197932D01*
X17826589Y55085990D01*
X17583368Y54923475D01*
X17376525Y54716632D01*
X17260000Y54542240D01*
X17143475Y54716632D01*
X16936632Y54923475D01*
X16693411Y55085990D01*
X16423158Y55197932D01*
X16136260Y55255000D01*
X15843740Y55255000D01*
X15556842Y55197932D01*
X15286589Y55085990D01*
X15043368Y54923475D01*
X14836525Y54716632D01*
X14714805Y54534466D01*
X14645178Y54651355D01*
X14450269Y54867588D01*
X14216920Y55041641D01*
X13954099Y55166825D01*
X13806890Y55211476D01*
X13577000Y55090155D01*
X13577000Y53897000D01*
X13597000Y53897000D01*
X13597000Y53643000D01*
X13577000Y53643000D01*
X13577000Y53623000D01*
X13323000Y53623000D01*
X13323000Y53643000D01*
X13303000Y53643000D01*
X13303000Y53897000D01*
X13323000Y53897000D01*
X13323000Y55090155D01*
X13093110Y55211476D01*
X12945901Y55166825D01*
X12683080Y55041641D01*
X12449731Y54867588D01*
X12254822Y54651355D01*
X12185195Y54534466D01*
X12063475Y54716632D01*
X11856632Y54923475D01*
X11613411Y55085990D01*
X11343158Y55197932D01*
X11056260Y55255000D01*
X10763740Y55255000D01*
X10476842Y55197932D01*
X10206589Y55085990D01*
X9963368Y54923475D01*
X9756525Y54716632D01*
X9640000Y54542240D01*
X9523475Y54716632D01*
X9316632Y54923475D01*
X9073411Y55085990D01*
X8803158Y55197932D01*
X8516260Y55255000D01*
X8223740Y55255000D01*
X7936842Y55197932D01*
X7666589Y55085990D01*
X7423368Y54923475D01*
X7216525Y54716632D01*
X7054010Y54473411D01*
X6942068Y54203158D01*
X6885000Y53916260D01*
X6885000Y53623740D01*
X6942068Y53336842D01*
X7054010Y53066589D01*
X7216525Y52823368D01*
X7348380Y52691513D01*
X7275820Y52669502D01*
X7165506Y52610537D01*
X7068815Y52531185D01*
X6989463Y52434494D01*
X6930498Y52324180D01*
X6894188Y52204482D01*
X6881928Y52080000D01*
X6881928Y50380000D01*
X6894188Y50255518D01*
X6930498Y50135820D01*
X6989463Y50025506D01*
X7068815Y49928815D01*
X7165506Y49849463D01*
X7275820Y49790498D01*
X7395518Y49754188D01*
X7520000Y49741928D01*
X9220000Y49741928D01*
X9344482Y49754188D01*
X9464180Y49790498D01*
X9574494Y49849463D01*
X9671185Y49928815D01*
X9750537Y50025506D01*
X9809502Y50135820D01*
X9831513Y50208380D01*
X9963368Y50076525D01*
X10175000Y49935117D01*
X10175001Y21360105D01*
X10175000Y19850447D01*
X9601554Y19277000D01*
X5969000Y19277000D01*
X5969000Y36830000D01*
X5966560Y36854776D01*
X5959333Y36878601D01*
X5947597Y36900557D01*
X5931803Y36919803D01*
X5912557Y36935597D01*
X5890601Y36947333D01*
X5866776Y36954560D01*
X5842000Y36957000D01*
X5195032Y36957000D01*
X5157959Y36981632D01*
X5106694Y37016733D01*
X5098281Y37021282D01*
X5012120Y37067094D01*
X4954704Y37090758D01*
X4897661Y37115208D01*
X4888525Y37118036D01*
X4795107Y37146241D01*
X4734195Y37158302D01*
X4673471Y37171209D01*
X4663959Y37172209D01*
X4566841Y37181731D01*
X4566837Y37181731D01*
X4533647Y37185000D01*
X381000Y37185000D01*
X381000Y47622327D01*
X6347355Y47498028D01*
X6372177Y47499951D01*
X6396146Y47506680D01*
X6418343Y47517957D01*
X6437913Y47533346D01*
X6454104Y47552258D01*
X6466295Y47573966D01*
X6474017Y47597634D01*
X6477000Y47625000D01*
X6477000Y55326441D01*
X58547000Y55315713D01*
G36*
X57689289Y43533710D02*
G01*
X57720130Y43496130D01*
X57757709Y43465290D01*
X57870116Y43373040D01*
X58041233Y43281576D01*
X58226906Y43225253D01*
X58420000Y43206235D01*
X58468380Y43211000D01*
X61519379Y43211000D01*
X61552498Y43101820D01*
X61611463Y42991506D01*
X61690815Y42894815D01*
X61787506Y42815463D01*
X61897820Y42756498D01*
X61970380Y42734487D01*
X61838525Y42602632D01*
X61676010Y42359411D01*
X61564068Y42089158D01*
X61507000Y41802260D01*
X61507000Y41509740D01*
X61564068Y41222842D01*
X61676010Y40952589D01*
X61838525Y40709368D01*
X62045368Y40502525D01*
X62257000Y40361117D01*
X62257001Y25704448D01*
X59562639Y23010085D01*
X59567910Y23122517D01*
X59526922Y23394633D01*
X59433636Y23653523D01*
X59371656Y23769480D01*
X59131565Y23836460D01*
X58345605Y23050500D01*
X58359748Y23036357D01*
X58180143Y22856752D01*
X58166000Y22870895D01*
X57380040Y22084935D01*
X57447020Y21844844D01*
X57696048Y21727744D01*
X57963135Y21661477D01*
X58202795Y21650241D01*
X57861554Y21309000D01*
X50836094Y21309000D01*
X50799999Y21312555D01*
X50763904Y21309000D01*
X50763895Y21309000D01*
X50655915Y21298365D01*
X50517367Y21256337D01*
X50389680Y21188087D01*
X50277762Y21096238D01*
X50254746Y21068193D01*
X47765808Y18579254D01*
X47737762Y18556237D01*
X47645913Y18444319D01*
X47577663Y18316632D01*
X47558079Y18252072D01*
X47535635Y18178085D01*
X47521444Y18034000D01*
X47525000Y17997895D01*
X47525001Y14442748D01*
X47345241Y14322637D01*
X47145363Y14122759D01*
X46988320Y13887727D01*
X46880147Y13626574D01*
X46825000Y13349335D01*
X46825000Y13066665D01*
X46868842Y12846258D01*
X46845914Y12818320D01*
X46777664Y12690633D01*
X46769205Y12662747D01*
X46735636Y12552086D01*
X46721445Y12408001D01*
X46725001Y12371896D01*
X46725002Y3314449D01*
X46177554Y2767000D01*
X46145524Y2767000D01*
X46146207Y2767565D01*
X46189973Y2811638D01*
X46234311Y2855057D01*
X46240408Y2862426D01*
X46363758Y3013668D01*
X46398126Y3065397D01*
X46433191Y3116608D01*
X46437739Y3125019D01*
X46437740Y3125020D01*
X46437742Y3125024D01*
X46529366Y3297343D01*
X46553022Y3354739D01*
X46577482Y3411807D01*
X46580310Y3420944D01*
X46636719Y3607780D01*
X46648780Y3668690D01*
X46661686Y3729409D01*
X46662686Y3738921D01*
X46681731Y3933155D01*
X46681731Y3933163D01*
X46685000Y3966353D01*
X46685000Y19033647D01*
X46681633Y19067831D01*
X46681633Y19080807D01*
X46680634Y19090319D01*
X46658879Y19284268D01*
X46645975Y19344976D01*
X46633911Y19405901D01*
X46631083Y19415038D01*
X46572070Y19601068D01*
X46547618Y19658118D01*
X46523954Y19715530D01*
X46519405Y19723944D01*
X46425383Y19894969D01*
X46390310Y19946191D01*
X46355951Y19997906D01*
X46349854Y20005276D01*
X46224404Y20154782D01*
X46180046Y20198221D01*
X46177296Y20200990D01*
X48458885Y20200990D01*
X48494990Y20197434D01*
X48531095Y20200990D01*
X48639075Y20211625D01*
X48777623Y20253653D01*
X48905310Y20321903D01*
X49017228Y20413752D01*
X49040248Y20441802D01*
X50288441Y21689994D01*
X50471908Y21653500D01*
X50747092Y21653500D01*
X51016990Y21707186D01*
X51271227Y21812495D01*
X51500035Y21965380D01*
X51694620Y22159965D01*
X51847505Y22388773D01*
X51879500Y22466015D01*
X51911495Y22388773D01*
X52064380Y22159965D01*
X52258965Y21965380D01*
X52487773Y21812495D01*
X52742010Y21707186D01*
X53011908Y21653500D01*
X53287092Y21653500D01*
X53556990Y21707186D01*
X53811227Y21812495D01*
X54040035Y21965380D01*
X54234620Y22159965D01*
X54387505Y22388773D01*
X54387750Y22389364D01*
X54387995Y22388773D01*
X54540880Y22159965D01*
X54735465Y21965380D01*
X54964273Y21812495D01*
X55218510Y21707186D01*
X55488408Y21653500D01*
X55763592Y21653500D01*
X56033490Y21707186D01*
X56287727Y21812495D01*
X56516535Y21965380D01*
X56711120Y22159965D01*
X56864005Y22388773D01*
X56893692Y22460443D01*
X56898364Y22447477D01*
X56960344Y22331520D01*
X57200435Y22264540D01*
X57986395Y23050500D01*
X57200435Y23836460D01*
X56960344Y23769480D01*
X56896515Y23633740D01*
X56864005Y23712227D01*
X56711120Y23941035D01*
X56636090Y24016065D01*
X57380040Y24016065D01*
X58166000Y23230105D01*
X58951960Y24016065D01*
X58884980Y24256156D01*
X58635952Y24373256D01*
X58368865Y24439523D01*
X58093983Y24452410D01*
X57821867Y24411422D01*
X57562977Y24318136D01*
X57447020Y24256156D01*
X57380040Y24016065D01*
X56636090Y24016065D01*
X56516535Y24135620D01*
X56361000Y24239545D01*
X56361000Y44861999D01*
X57689289Y43533710D01*
G37*
X57689289Y43533710D02*
X57720130Y43496130D01*
X57757709Y43465290D01*
X57870116Y43373040D01*
X58041233Y43281576D01*
X58226906Y43225253D01*
X58420000Y43206235D01*
X58468380Y43211000D01*
X61519379Y43211000D01*
X61552498Y43101820D01*
X61611463Y42991506D01*
X61690815Y42894815D01*
X61787506Y42815463D01*
X61897820Y42756498D01*
X61970380Y42734487D01*
X61838525Y42602632D01*
X61676010Y42359411D01*
X61564068Y42089158D01*
X61507000Y41802260D01*
X61507000Y41509740D01*
X61564068Y41222842D01*
X61676010Y40952589D01*
X61838525Y40709368D01*
X62045368Y40502525D01*
X62257000Y40361117D01*
X62257001Y25704448D01*
X59562639Y23010085D01*
X59567910Y23122517D01*
X59526922Y23394633D01*
X59433636Y23653523D01*
X59371656Y23769480D01*
X59131565Y23836460D01*
X58345605Y23050500D01*
X58359748Y23036357D01*
X58180143Y22856752D01*
X58166000Y22870895D01*
X57380040Y22084935D01*
X57447020Y21844844D01*
X57696048Y21727744D01*
X57963135Y21661477D01*
X58202795Y21650241D01*
X57861554Y21309000D01*
X50836094Y21309000D01*
X50799999Y21312555D01*
X50763904Y21309000D01*
X50763895Y21309000D01*
X50655915Y21298365D01*
X50517367Y21256337D01*
X50389680Y21188087D01*
X50277762Y21096238D01*
X50254746Y21068193D01*
X47765808Y18579254D01*
X47737762Y18556237D01*
X47645913Y18444319D01*
X47577663Y18316632D01*
X47558079Y18252072D01*
X47535635Y18178085D01*
X47521444Y18034000D01*
X47525000Y17997895D01*
X47525001Y14442748D01*
X47345241Y14322637D01*
X47145363Y14122759D01*
X46988320Y13887727D01*
X46880147Y13626574D01*
X46825000Y13349335D01*
X46825000Y13066665D01*
X46868842Y12846258D01*
X46845914Y12818320D01*
X46777664Y12690633D01*
X46769205Y12662747D01*
X46735636Y12552086D01*
X46721445Y12408001D01*
X46725001Y12371896D01*
X46725002Y3314449D01*
X46177554Y2767000D01*
X46145524Y2767000D01*
X46146207Y2767565D01*
X46189973Y2811638D01*
X46234311Y2855057D01*
X46240408Y2862426D01*
X46363758Y3013668D01*
X46398126Y3065397D01*
X46433191Y3116608D01*
X46437739Y3125019D01*
X46437740Y3125020D01*
X46437742Y3125024D01*
X46529366Y3297343D01*
X46553022Y3354739D01*
X46577482Y3411807D01*
X46580310Y3420944D01*
X46636719Y3607780D01*
X46648780Y3668690D01*
X46661686Y3729409D01*
X46662686Y3738921D01*
X46681731Y3933155D01*
X46681731Y3933163D01*
X46685000Y3966353D01*
X46685000Y19033647D01*
X46681633Y19067831D01*
X46681633Y19080807D01*
X46680634Y19090319D01*
X46658879Y19284268D01*
X46645975Y19344976D01*
X46633911Y19405901D01*
X46631083Y19415038D01*
X46572070Y19601068D01*
X46547618Y19658118D01*
X46523954Y19715530D01*
X46519405Y19723944D01*
X46425383Y19894969D01*
X46390310Y19946191D01*
X46355951Y19997906D01*
X46349854Y20005276D01*
X46224404Y20154782D01*
X46180046Y20198221D01*
X46177296Y20200990D01*
X48458885Y20200990D01*
X48494990Y20197434D01*
X48531095Y20200990D01*
X48639075Y20211625D01*
X48777623Y20253653D01*
X48905310Y20321903D01*
X49017228Y20413752D01*
X49040248Y20441802D01*
X50288441Y21689994D01*
X50471908Y21653500D01*
X50747092Y21653500D01*
X51016990Y21707186D01*
X51271227Y21812495D01*
X51500035Y21965380D01*
X51694620Y22159965D01*
X51847505Y22388773D01*
X51879500Y22466015D01*
X51911495Y22388773D01*
X52064380Y22159965D01*
X52258965Y21965380D01*
X52487773Y21812495D01*
X52742010Y21707186D01*
X53011908Y21653500D01*
X53287092Y21653500D01*
X53556990Y21707186D01*
X53811227Y21812495D01*
X54040035Y21965380D01*
X54234620Y22159965D01*
X54387505Y22388773D01*
X54387750Y22389364D01*
X54387995Y22388773D01*
X54540880Y22159965D01*
X54735465Y21965380D01*
X54964273Y21812495D01*
X55218510Y21707186D01*
X55488408Y21653500D01*
X55763592Y21653500D01*
X56033490Y21707186D01*
X56287727Y21812495D01*
X56516535Y21965380D01*
X56711120Y22159965D01*
X56864005Y22388773D01*
X56893692Y22460443D01*
X56898364Y22447477D01*
X56960344Y22331520D01*
X57200435Y22264540D01*
X57986395Y23050500D01*
X57200435Y23836460D01*
X56960344Y23769480D01*
X56896515Y23633740D01*
X56864005Y23712227D01*
X56711120Y23941035D01*
X56636090Y24016065D01*
X57380040Y24016065D01*
X58166000Y23230105D01*
X58951960Y24016065D01*
X58884980Y24256156D01*
X58635952Y24373256D01*
X58368865Y24439523D01*
X58093983Y24452410D01*
X57821867Y24411422D01*
X57562977Y24318136D01*
X57447020Y24256156D01*
X57380040Y24016065D01*
X56636090Y24016065D01*
X56516535Y24135620D01*
X56361000Y24239545D01*
X56361000Y44861999D01*
X57689289Y43533710D01*
G36*
X18657000Y51357000D02*
G01*
X18677000Y51357000D01*
X18677000Y51103000D01*
X18657000Y51103000D01*
X18657000Y49909845D01*
X18886890Y49788524D01*
X19034099Y49833175D01*
X19296920Y49958359D01*
X19337788Y49988842D01*
X19397762Y49915763D01*
X19425807Y49892747D01*
X21044746Y48273807D01*
X21067762Y48245762D01*
X21179680Y48153913D01*
X21307367Y48085663D01*
X21403886Y48056384D01*
X21445914Y48043635D01*
X21589999Y48029444D01*
X21626104Y48033000D01*
X21673345Y48033000D01*
X21520880Y47880535D01*
X21367995Y47651727D01*
X21336000Y47574485D01*
X21304005Y47651727D01*
X21151120Y47880535D01*
X20956535Y48075120D01*
X20727727Y48228005D01*
X20473490Y48333314D01*
X20203592Y48387000D01*
X19928408Y48387000D01*
X19658510Y48333314D01*
X19404273Y48228005D01*
X19175465Y48075120D01*
X18980880Y47880535D01*
X18827995Y47651727D01*
X18796000Y47574485D01*
X18764005Y47651727D01*
X18611120Y47880535D01*
X18416535Y48075120D01*
X18187727Y48228005D01*
X18007000Y48302865D01*
X18007000Y49842178D01*
X18025901Y49833175D01*
X18173110Y49788524D01*
X18403000Y49909845D01*
X18403000Y51103000D01*
X18383000Y51103000D01*
X18383000Y51357000D01*
X18403000Y51357000D01*
X18403000Y51377000D01*
X18657000Y51377000D01*
X18657000Y51357000D01*
G37*
X18657000Y51357000D02*
X18677000Y51357000D01*
X18677000Y51103000D01*
X18657000Y51103000D01*
X18657000Y49909845D01*
X18886890Y49788524D01*
X19034099Y49833175D01*
X19296920Y49958359D01*
X19337788Y49988842D01*
X19397762Y49915763D01*
X19425807Y49892747D01*
X21044746Y48273807D01*
X21067762Y48245762D01*
X21179680Y48153913D01*
X21307367Y48085663D01*
X21403886Y48056384D01*
X21445914Y48043635D01*
X21589999Y48029444D01*
X21626104Y48033000D01*
X21673345Y48033000D01*
X21520880Y47880535D01*
X21367995Y47651727D01*
X21336000Y47574485D01*
X21304005Y47651727D01*
X21151120Y47880535D01*
X20956535Y48075120D01*
X20727727Y48228005D01*
X20473490Y48333314D01*
X20203592Y48387000D01*
X19928408Y48387000D01*
X19658510Y48333314D01*
X19404273Y48228005D01*
X19175465Y48075120D01*
X18980880Y47880535D01*
X18827995Y47651727D01*
X18796000Y47574485D01*
X18764005Y47651727D01*
X18611120Y47880535D01*
X18416535Y48075120D01*
X18187727Y48228005D01*
X18007000Y48302865D01*
X18007000Y49842178D01*
X18025901Y49833175D01*
X18173110Y49788524D01*
X18403000Y49909845D01*
X18403000Y51103000D01*
X18383000Y51103000D01*
X18383000Y51357000D01*
X18403000Y51357000D01*
X18403000Y51377000D01*
X18657000Y51377000D01*
X18657000Y51357000D01*
%TD*%
M02*
