%TF.GenerationSoftware,KiCad,Pcbnew,5.1.5+dfsg1-2build2*%
%TF.CreationDate,2021-09-07T02:56:07-04:00*%
%TF.ProjectId,rasp_heltec_lora_hat,72617370-5f68-4656-9c74-65635f6c6f72,rev?*%
%TF.SameCoordinates,PXbebc200PY8f0d180*%
%TF.FileFunction,Soldermask,Bot*%
%TF.FilePolarity,Negative*%
%FSLAX46Y46*%
G04 Gerber Fmt 4.6, Leading zero omitted, Abs format (unit mm)*
G04 Created by KiCad (PCBNEW 5.1.5+dfsg1-2build2) date 2021-09-07 02:56:07*
%MOMM*%
%LPD*%
G04 APERTURE LIST*
%TA.AperFunction,Profile*%
%ADD10C,0.100000*%
%TD*%
%ADD11C,7.000000*%
%ADD12R,1.700000X1.700000*%
%ADD13O,1.700000X1.700000*%
%ADD14C,2.700000*%
%ADD15R,1.800000X1.800000*%
%ADD16C,1.800000*%
%ADD17C,0.100000*%
%ADD18O,1.800000X3.600000*%
%ADD19O,1.600000X1.600000*%
%ADD20C,1.600000*%
%ADD21C,1.524000*%
%ADD22R,2.200000X2.200000*%
%ADD23O,2.200000X2.200000*%
G04 APERTURE END LIST*
D10*
X-190000Y36578171D02*
X-40000Y36500000D01*
X-14130098Y36578171D02*
X-190000Y36578171D01*
X-14130098Y36578171D02*
G75*
G02X-16256000Y38608000I-93902J2029829D01*
G01*
X-16256000Y51308000D02*
G75*
G02X-14224000Y53340000I2032000J0D01*
G01*
X-40000Y36500000D02*
X500000Y36500000D01*
X-16256000Y51308000D02*
X-16256000Y38608000D01*
X0Y53340000D02*
X-14224000Y53340000D01*
X44000000Y4000000D02*
X44000000Y19000000D01*
X46000000Y19000000D02*
X46000000Y4000000D01*
X46000000Y19000000D02*
G75*
G03X44000000Y19000000I-1000000J0D01*
G01*
X44000000Y4000000D02*
G75*
G03X46000000Y4000000I1000000J0D01*
G01*
X499127Y19499999D02*
G75*
G03X0Y19000000I873J-499999D01*
G01*
X4500000Y19500000D02*
G75*
G03X5000000Y20000000I0J500000D01*
G01*
X5000000Y36000000D02*
G75*
G03X4500000Y36500000I-500000J0D01*
G01*
X65000000Y53000000D02*
G75*
G03X62000000Y56000000I-3000000J0D01*
G01*
X62000000Y0D02*
G75*
G03X65000000Y3000000I0J3000000D01*
G01*
X0Y3000000D02*
G75*
G03X3000000Y0I3000000J0D01*
G01*
X2794452Y56012200D02*
G75*
G03X0Y53340000I205548J-3012200D01*
G01*
X62000000Y56000000D02*
X2794452Y56012200D01*
X4500000Y19500000D02*
X500000Y19500000D01*
X5000000Y36000000D02*
X5000000Y20000000D01*
X500000Y36500000D02*
X4500000Y36500000D01*
X65000000Y3000000D02*
X65000000Y53000000D01*
X3000000Y0D02*
X62000000Y0D01*
X0Y19000000D02*
X0Y3000000D01*
D11*
%TO.C,ANTENNA (SMA)*%
X-6874000Y44958000D03*
%TD*%
D12*
%TO.C,P1*%
X8370000Y51230000D03*
D13*
X8370000Y53770000D03*
X10910000Y51230000D03*
X10910000Y53770000D03*
X13450000Y51230000D03*
X13450000Y53770000D03*
X15990000Y51230000D03*
X15990000Y53770000D03*
X18530000Y51230000D03*
X18530000Y53770000D03*
X21070000Y51230000D03*
X21070000Y53770000D03*
X23610000Y51230000D03*
X23610000Y53770000D03*
X26150000Y51230000D03*
X26150000Y53770000D03*
X28690000Y51230000D03*
X28690000Y53770000D03*
X31230000Y51230000D03*
X31230000Y53770000D03*
X33770000Y51230000D03*
X33770000Y53770000D03*
X36310000Y51230000D03*
X36310000Y53770000D03*
X38850000Y51230000D03*
X38850000Y53770000D03*
X41390000Y51230000D03*
X41390000Y53770000D03*
X43930000Y51230000D03*
X43930000Y53770000D03*
X46470000Y51230000D03*
X46470000Y53770000D03*
X49010000Y51230000D03*
X49010000Y53770000D03*
X51550000Y51230000D03*
X51550000Y53770000D03*
X54090000Y51230000D03*
X54090000Y53770000D03*
X56630000Y51230000D03*
X56630000Y53770000D03*
%TD*%
D14*
%TO.C,MK4*%
X61500000Y3500000D03*
%TD*%
%TO.C,MK3*%
X3500000Y3500000D03*
%TD*%
%TO.C,MK2*%
X61500000Y52500000D03*
%TD*%
%TO.C,MK1*%
X3500000Y52500000D03*
%TD*%
D15*
%TO.C,D1*%
X62738000Y18542000D03*
D16*
X60198000Y18542000D03*
%TD*%
D12*
%TO.C,J1*%
X22860000Y13462000D03*
D13*
X20320000Y13462000D03*
X17780000Y13462000D03*
X15240000Y13462000D03*
%TD*%
%TO.C,J2*%
X15240000Y18542000D03*
X17780000Y18542000D03*
X20320000Y18542000D03*
D12*
X22860000Y18542000D03*
%TD*%
D17*
%TO.C,J3*%
G36*
X55538504Y8148796D02*
G01*
X55562773Y8145196D01*
X55586571Y8139235D01*
X55609671Y8130970D01*
X55631849Y8120480D01*
X55652893Y8107867D01*
X55672598Y8093253D01*
X55690777Y8076777D01*
X55707253Y8058598D01*
X55721867Y8038893D01*
X55734480Y8017849D01*
X55744970Y7995671D01*
X55753235Y7972571D01*
X55759196Y7948773D01*
X55762796Y7924504D01*
X55764000Y7900000D01*
X55764000Y4800000D01*
X55762796Y4775496D01*
X55759196Y4751227D01*
X55753235Y4727429D01*
X55744970Y4704329D01*
X55734480Y4682151D01*
X55721867Y4661107D01*
X55707253Y4641402D01*
X55690777Y4623223D01*
X55672598Y4606747D01*
X55652893Y4592133D01*
X55631849Y4579520D01*
X55609671Y4569030D01*
X55586571Y4560765D01*
X55562773Y4554804D01*
X55538504Y4551204D01*
X55514000Y4550000D01*
X54214000Y4550000D01*
X54189496Y4551204D01*
X54165227Y4554804D01*
X54141429Y4560765D01*
X54118329Y4569030D01*
X54096151Y4579520D01*
X54075107Y4592133D01*
X54055402Y4606747D01*
X54037223Y4623223D01*
X54020747Y4641402D01*
X54006133Y4661107D01*
X53993520Y4682151D01*
X53983030Y4704329D01*
X53974765Y4727429D01*
X53968804Y4751227D01*
X53965204Y4775496D01*
X53964000Y4800000D01*
X53964000Y7900000D01*
X53965204Y7924504D01*
X53968804Y7948773D01*
X53974765Y7972571D01*
X53983030Y7995671D01*
X53993520Y8017849D01*
X54006133Y8038893D01*
X54020747Y8058598D01*
X54037223Y8076777D01*
X54055402Y8093253D01*
X54075107Y8107867D01*
X54096151Y8120480D01*
X54118329Y8130970D01*
X54141429Y8139235D01*
X54165227Y8145196D01*
X54189496Y8148796D01*
X54214000Y8150000D01*
X55514000Y8150000D01*
X55538504Y8148796D01*
G37*
D18*
X49784000Y6350000D03*
%TD*%
%TO.C,J4*%
X40132000Y4826000D03*
X35052000Y4826000D03*
D17*
G36*
X30646504Y6624796D02*
G01*
X30670773Y6621196D01*
X30694571Y6615235D01*
X30717671Y6606970D01*
X30739849Y6596480D01*
X30760893Y6583867D01*
X30780598Y6569253D01*
X30798777Y6552777D01*
X30815253Y6534598D01*
X30829867Y6514893D01*
X30842480Y6493849D01*
X30852970Y6471671D01*
X30861235Y6448571D01*
X30867196Y6424773D01*
X30870796Y6400504D01*
X30872000Y6376000D01*
X30872000Y3276000D01*
X30870796Y3251496D01*
X30867196Y3227227D01*
X30861235Y3203429D01*
X30852970Y3180329D01*
X30842480Y3158151D01*
X30829867Y3137107D01*
X30815253Y3117402D01*
X30798777Y3099223D01*
X30780598Y3082747D01*
X30760893Y3068133D01*
X30739849Y3055520D01*
X30717671Y3045030D01*
X30694571Y3036765D01*
X30670773Y3030804D01*
X30646504Y3027204D01*
X30622000Y3026000D01*
X29322000Y3026000D01*
X29297496Y3027204D01*
X29273227Y3030804D01*
X29249429Y3036765D01*
X29226329Y3045030D01*
X29204151Y3055520D01*
X29183107Y3068133D01*
X29163402Y3082747D01*
X29145223Y3099223D01*
X29128747Y3117402D01*
X29114133Y3137107D01*
X29101520Y3158151D01*
X29091030Y3180329D01*
X29082765Y3203429D01*
X29076804Y3227227D01*
X29073204Y3251496D01*
X29072000Y3276000D01*
X29072000Y6376000D01*
X29073204Y6400504D01*
X29076804Y6424773D01*
X29082765Y6448571D01*
X29091030Y6471671D01*
X29101520Y6493849D01*
X29114133Y6514893D01*
X29128747Y6534598D01*
X29145223Y6552777D01*
X29163402Y6569253D01*
X29183107Y6583867D01*
X29204151Y6596480D01*
X29226329Y6606970D01*
X29249429Y6615235D01*
X29273227Y6621196D01*
X29297496Y6624796D01*
X29322000Y6626000D01*
X30622000Y6626000D01*
X30646504Y6624796D01*
G37*
%TD*%
%TO.C,J5*%
G36*
X13120504Y6624796D02*
G01*
X13144773Y6621196D01*
X13168571Y6615235D01*
X13191671Y6606970D01*
X13213849Y6596480D01*
X13234893Y6583867D01*
X13254598Y6569253D01*
X13272777Y6552777D01*
X13289253Y6534598D01*
X13303867Y6514893D01*
X13316480Y6493849D01*
X13326970Y6471671D01*
X13335235Y6448571D01*
X13341196Y6424773D01*
X13344796Y6400504D01*
X13346000Y6376000D01*
X13346000Y3276000D01*
X13344796Y3251496D01*
X13341196Y3227227D01*
X13335235Y3203429D01*
X13326970Y3180329D01*
X13316480Y3158151D01*
X13303867Y3137107D01*
X13289253Y3117402D01*
X13272777Y3099223D01*
X13254598Y3082747D01*
X13234893Y3068133D01*
X13213849Y3055520D01*
X13191671Y3045030D01*
X13168571Y3036765D01*
X13144773Y3030804D01*
X13120504Y3027204D01*
X13096000Y3026000D01*
X11796000Y3026000D01*
X11771496Y3027204D01*
X11747227Y3030804D01*
X11723429Y3036765D01*
X11700329Y3045030D01*
X11678151Y3055520D01*
X11657107Y3068133D01*
X11637402Y3082747D01*
X11619223Y3099223D01*
X11602747Y3117402D01*
X11588133Y3137107D01*
X11575520Y3158151D01*
X11565030Y3180329D01*
X11556765Y3203429D01*
X11550804Y3227227D01*
X11547204Y3251496D01*
X11546000Y3276000D01*
X11546000Y6376000D01*
X11547204Y6400504D01*
X11550804Y6424773D01*
X11556765Y6448571D01*
X11565030Y6471671D01*
X11575520Y6493849D01*
X11588133Y6514893D01*
X11602747Y6534598D01*
X11619223Y6552777D01*
X11637402Y6569253D01*
X11657107Y6583867D01*
X11678151Y6596480D01*
X11700329Y6606970D01*
X11723429Y6615235D01*
X11747227Y6621196D01*
X11771496Y6624796D01*
X11796000Y6626000D01*
X13096000Y6626000D01*
X13120504Y6624796D01*
G37*
D18*
X17526000Y4826000D03*
X22606000Y4826000D03*
%TD*%
D12*
%TO.C,JP1*%
X5334000Y16764000D03*
D13*
X2794000Y16764000D03*
%TD*%
%TO.C,JP2*%
X2794000Y9144000D03*
D12*
X5334000Y9144000D03*
%TD*%
D19*
%TO.C,R1*%
X26670000Y14986000D03*
D20*
X41910000Y14986000D03*
%TD*%
%TO.C,R2*%
X41910000Y18542000D03*
D19*
X26670000Y18542000D03*
%TD*%
D20*
%TO.C,R3*%
X48260000Y13208000D03*
D19*
X63500000Y13208000D03*
%TD*%
D12*
%TO.C,JP3*%
X62484000Y27940000D03*
D13*
X62484000Y30480000D03*
%TD*%
D21*
%TO.C,U1*%
X57912000Y24066500D03*
X55372000Y24066500D03*
X52895500Y24066500D03*
X50355500Y24066500D03*
X47815500Y24066500D03*
X45275500Y24066500D03*
X42735500Y24066500D03*
X40195500Y24066500D03*
X37655500Y24066500D03*
X35052000Y24066500D03*
X32512000Y24066500D03*
X29972000Y24066500D03*
X27432000Y24066500D03*
X24892000Y24066500D03*
X22352000Y24066500D03*
X19812000Y24066500D03*
X17272000Y24066500D03*
X14732000Y24066500D03*
X14732000Y48006000D03*
X17272000Y48006000D03*
X19812000Y48006000D03*
X22352000Y48006000D03*
X24892000Y48006000D03*
X27432000Y48006000D03*
X29972000Y48006000D03*
X32512000Y48006000D03*
X35052000Y48006000D03*
X37592000Y48006000D03*
X40132000Y48006000D03*
X42672000Y48006000D03*
X45212000Y48006000D03*
X47752000Y48006000D03*
X50292000Y48006000D03*
X52832000Y48006000D03*
X55372000Y48006000D03*
X57912000Y48006000D03*
%TD*%
D22*
%TO.C,D2*%
X62484000Y36576000D03*
D23*
X62484000Y46736000D03*
%TD*%
M02*
