M48
; DRILL file {KiCad 5.1.5+dfsg1-2build2} date ter 07 set 2021 02:56:13
; FORMAT={-:-/ absolute / inch / decimal}
; #@! TF.CreationDate,2021-09-07T02:56:13-04:00
; #@! TF.GenerationSoftware,Kicad,Pcbnew,5.1.5+dfsg1-2build2
FMAT,2
INCH
T1C0.0315
T2C0.0354
T3C0.0394
T4C0.0433
T5C0.0472
T6C0.1063
T7C0.2756
%
G90
G05
T1
X1.05Y0.59
X1.65Y0.59
X1.9Y0.52
X2.5Y0.52
X1.05Y0.73
X1.65Y0.73
T2
X0.58Y1.89
X0.58Y0.9475
X0.68Y1.89
X0.68Y0.9475
X0.78Y1.89
X0.78Y0.9475
X0.88Y1.89
X0.88Y0.9475
X0.98Y1.89
X0.98Y0.9475
X1.08Y1.89
X1.08Y0.9475
X1.18Y1.89
X1.18Y0.9475
X1.28Y1.89
X1.28Y0.9475
X1.38Y1.89
X1.38Y0.9475
X1.48Y1.89
X1.4825Y0.9475
X1.58Y1.89
X1.5825Y0.9475
X1.68Y1.89
X1.6825Y0.9475
X1.78Y1.89
X1.7825Y0.9475
X1.88Y1.89
X1.8825Y0.9475
X1.98Y1.89
X1.9825Y0.9475
X2.08Y1.89
X2.0825Y0.9475
X2.18Y1.89
X2.18Y0.9475
X2.28Y1.89
X2.28Y0.9475
X2.37Y0.73
X2.47Y0.73
T3
X0.11Y0.36
X0.21Y0.36
X0.6Y0.73
X0.7Y0.73
X0.8Y0.73
X0.9Y0.73
X0.11Y0.66
X0.21Y0.66
X2.46Y1.2
X2.46Y1.1
X0.6Y0.53
X0.7Y0.53
X0.8Y0.53
X0.9Y0.53
X0.3295Y2.1169
X0.3295Y2.0169
X0.4295Y2.1169
X0.4295Y2.0169
X0.5295Y2.1169
X0.5295Y2.0169
X0.6295Y2.1169
X0.6295Y2.0169
X0.7295Y2.1169
X0.7295Y2.0169
X0.8295Y2.1169
X0.8295Y2.0169
X0.9295Y2.1169
X0.9295Y2.0169
X1.0295Y2.1169
X1.0295Y2.0169
X1.1295Y2.1169
X1.1295Y2.0169
X1.2295Y2.1169
X1.2295Y2.0169
X1.3295Y2.1169
X1.3295Y2.0169
X1.4295Y2.1169
X1.4295Y2.0169
X1.5295Y2.1169
X1.5295Y2.0169
X1.6295Y2.1169
X1.6295Y2.0169
X1.7295Y2.1169
X1.7295Y2.0169
X1.8295Y2.1169
X1.8295Y2.0169
X1.9295Y2.1169
X1.9295Y2.0169
X2.0295Y2.1169
X2.0295Y2.0169
X2.1295Y2.1169
X2.1295Y2.0169
X2.2295Y2.1169
X2.2295Y2.0169
T4
X2.46Y1.84
X2.46Y1.44
T5
X1.18Y0.19
X1.38Y0.19
X1.58Y0.19
X1.96Y0.25
X2.16Y0.25
X0.49Y0.19
X0.69Y0.19
X0.89Y0.19
T6
X0.1378Y2.0669
X2.4213Y0.1378
X2.4213Y2.0669
X0.1378Y0.1378
T7
X-0.2706Y1.77
T0
M30
