%TF.GenerationSoftware,KiCad,Pcbnew,5.1.5+dfsg1-2build2*%
%TF.CreationDate,2021-04-13T00:34:59-04:00*%
%TF.ProjectId,rasp_heltec_lora_hat,72617370-5f68-4656-9c74-65635f6c6f72,rev?*%
%TF.SameCoordinates,PXbebc200PY8f0d180*%
%TF.FileFunction,Legend,Bot*%
%TF.FilePolarity,Positive*%
%FSLAX46Y46*%
G04 Gerber Fmt 4.6, Leading zero omitted, Abs format (unit mm)*
G04 Created by KiCad (PCBNEW 5.1.5+dfsg1-2build2) date 2021-04-13 00:34:59*
%MOMM*%
%LPD*%
G04 APERTURE LIST*
%TA.AperFunction,Profile*%
%ADD10C,0.100000*%
%TD*%
%ADD11C,0.120000*%
%ADD12C,0.150000*%
G04 APERTURE END LIST*
D10*
X-190000Y36578171D02*
X-40000Y36500000D01*
X-14130098Y36578171D02*
X-190000Y36578171D01*
X-14130098Y36578171D02*
G75*
G02X-16256000Y38608000I-93902J2029829D01*
G01*
X-16256000Y51308000D02*
G75*
G02X-14224000Y53340000I2032000J0D01*
G01*
X-40000Y36500000D02*
X500000Y36500000D01*
X-16256000Y51308000D02*
X-16256000Y38608000D01*
X0Y53340000D02*
X-14224000Y53340000D01*
X44000000Y4000000D02*
X44000000Y19000000D01*
X46000000Y19000000D02*
X46000000Y4000000D01*
X46000000Y19000000D02*
G75*
G03X44000000Y19000000I-1000000J0D01*
G01*
X44000000Y4000000D02*
G75*
G03X46000000Y4000000I1000000J0D01*
G01*
X499127Y19499999D02*
G75*
G03X0Y19000000I873J-499999D01*
G01*
X4500000Y19500000D02*
G75*
G03X5000000Y20000000I0J500000D01*
G01*
X5000000Y36000000D02*
G75*
G03X4500000Y36500000I-500000J0D01*
G01*
X65000000Y53000000D02*
G75*
G03X62000000Y56000000I-3000000J0D01*
G01*
X62000000Y0D02*
G75*
G03X65000000Y3000000I0J3000000D01*
G01*
X0Y3000000D02*
G75*
G03X3000000Y0I3000000J0D01*
G01*
X2794452Y56012200D02*
G75*
G03X0Y53340000I205548J-3012200D01*
G01*
X62000000Y56000000D02*
X2794452Y56012200D01*
X4500000Y19500000D02*
X500000Y19500000D01*
X5000000Y36000000D02*
X5000000Y20000000D01*
X500000Y36500000D02*
X4500000Y36500000D01*
X65000000Y3000000D02*
X65000000Y53000000D01*
X3000000Y0D02*
X62000000Y0D01*
X0Y19000000D02*
X0Y3000000D01*
D11*
%TO.C,P1*%
X7040000Y55100000D02*
X7040000Y52500000D01*
X7040000Y55100000D02*
X57960000Y55100000D01*
X57960000Y55100000D02*
X57960000Y49900000D01*
X9640000Y49900000D02*
X57960000Y49900000D01*
X9640000Y52500000D02*
X9640000Y49900000D01*
X7040000Y52500000D02*
X9640000Y52500000D01*
X7040000Y49900000D02*
X8370000Y49900000D01*
X7040000Y51230000D02*
X7040000Y49900000D01*
%TD*%
%TO.C,P1*%
D12*
X7596095Y48569620D02*
X7596095Y49569620D01*
X7215142Y49569620D01*
X7119904Y49522000D01*
X7072285Y49474381D01*
X7024666Y49379143D01*
X7024666Y49236286D01*
X7072285Y49141048D01*
X7119904Y49093429D01*
X7215142Y49045810D01*
X7596095Y49045810D01*
X6072285Y48569620D02*
X6643714Y48569620D01*
X6358000Y48569620D02*
X6358000Y49569620D01*
X6453238Y49426762D01*
X6548476Y49331524D01*
X6643714Y49283905D01*
%TD*%
M02*
