M48
; DRILL file {KiCad 5.1.5+dfsg1-2build2} date ter 13 abr 2021 00:35:03
; FORMAT={-:-/ absolute / inch / decimal}
; #@! TF.CreationDate,2021-04-13T00:35:03-04:00
; #@! TF.GenerationSoftware,Kicad,Pcbnew,5.1.5+dfsg1-2build2
FMAT,2
INCH
T1C0.0315
T2C0.0354
T3C0.0394
T4C0.0472
T5C0.1063
T6C0.2756
%
G90
G05
T1
X1.05Y0.73
X1.65Y0.73
X1.9Y0.52
X2.5Y0.52
X1.05Y0.59
X1.65Y0.59
T2
X2.37Y0.73
X2.47Y0.73
X0.59Y1.85
X0.59Y0.9075
X0.69Y1.85
X0.69Y0.9075
X0.79Y1.85
X0.79Y0.9075
X0.89Y1.85
X0.89Y0.9075
X0.99Y1.85
X0.99Y0.9075
X1.09Y1.85
X1.09Y0.9075
X1.19Y1.85
X1.19Y0.9075
X1.29Y1.85
X1.29Y0.9075
X1.39Y1.85
X1.39Y0.9075
X1.49Y1.85
X1.4925Y0.9075
X1.59Y1.85
X1.5925Y0.9075
X1.69Y1.85
X1.6925Y0.9075
X1.79Y1.85
X1.7925Y0.9075
X1.89Y1.85
X1.8925Y0.9075
X1.99Y1.85
X1.9925Y0.9075
X2.09Y1.85
X2.0925Y0.9075
X2.19Y1.85
X2.19Y0.9075
X2.29Y1.85
X2.29Y0.9075
T3
X0.11Y0.36
X0.21Y0.36
X2.48Y1.74
X2.48Y1.64
X0.58Y0.72
X0.68Y0.72
X0.78Y0.72
X0.88Y0.72
X0.58Y0.53
X0.68Y0.53
X0.78Y0.53
X0.88Y0.53
X0.11Y0.66
X0.21Y0.66
X0.3295Y2.1169
X0.3295Y2.0169
X0.4295Y2.1169
X0.4295Y2.0169
X0.5295Y2.1169
X0.5295Y2.0169
X0.6295Y2.1169
X0.6295Y2.0169
X0.7295Y2.1169
X0.7295Y2.0169
X0.8295Y2.1169
X0.8295Y2.0169
X0.9295Y2.1169
X0.9295Y2.0169
X1.0295Y2.1169
X1.0295Y2.0169
X1.1295Y2.1169
X1.1295Y2.0169
X1.2295Y2.1169
X1.2295Y2.0169
X1.3295Y2.1169
X1.3295Y2.0169
X1.4295Y2.1169
X1.4295Y2.0169
X1.5295Y2.1169
X1.5295Y2.0169
X1.6295Y2.1169
X1.6295Y2.0169
X1.7295Y2.1169
X1.7295Y2.0169
X1.8295Y2.1169
X1.8295Y2.0169
X1.9295Y2.1169
X1.9295Y2.0169
X2.0295Y2.1169
X2.0295Y2.0169
X2.1295Y2.1169
X2.1295Y2.0169
X2.2295Y2.1169
X2.2295Y2.0169
T4
X1.18Y0.19
X1.38Y0.19
X1.58Y0.19
X0.49Y0.19
X0.69Y0.19
X0.89Y0.19
X1.96Y0.25
X2.16Y0.25
T5
X0.1378Y0.1378
X2.4213Y0.1378
X2.4213Y2.0669
X0.1378Y2.0669
T6
X-0.2706Y1.77
T0
M30
