%TF.GenerationSoftware,KiCad,Pcbnew,5.1.5+dfsg1-2build2*%
%TF.CreationDate,2021-04-13T00:34:59-04:00*%
%TF.ProjectId,rasp_heltec_lora_hat,72617370-5f68-4656-9c74-65635f6c6f72,rev?*%
%TF.SameCoordinates,PXbebc200PY8f0d180*%
%TF.FileFunction,Copper,L2,Bot*%
%TF.FilePolarity,Positive*%
%FSLAX46Y46*%
G04 Gerber Fmt 4.6, Leading zero omitted, Abs format (unit mm)*
G04 Created by KiCad (PCBNEW 5.1.5+dfsg1-2build2) date 2021-04-13 00:34:59*
%MOMM*%
%LPD*%
G04 APERTURE LIST*
%TA.AperFunction,Profile*%
%ADD10C,0.100000*%
%TD*%
%TA.AperFunction,ComponentPad*%
%ADD11R,1.700000X1.700000*%
%TD*%
%TA.AperFunction,ComponentPad*%
%ADD12O,1.700000X1.700000*%
%TD*%
%TA.AperFunction,ComponentPad*%
%ADD13R,1.800000X1.800000*%
%TD*%
%TA.AperFunction,ComponentPad*%
%ADD14C,1.800000*%
%TD*%
%TA.AperFunction,ComponentPad*%
%ADD15C,0.100000*%
%TD*%
%TA.AperFunction,ComponentPad*%
%ADD16O,1.800000X3.600000*%
%TD*%
%TA.AperFunction,ComponentPad*%
%ADD17O,1.600000X1.600000*%
%TD*%
%TA.AperFunction,ComponentPad*%
%ADD18C,1.600000*%
%TD*%
%TA.AperFunction,ComponentPad*%
%ADD19C,1.524000*%
%TD*%
%TA.AperFunction,Conductor*%
%ADD20C,0.200000*%
%TD*%
%TA.AperFunction,Conductor*%
%ADD21C,0.700000*%
%TD*%
%TA.AperFunction,Conductor*%
%ADD22C,0.254000*%
%TD*%
G04 APERTURE END LIST*
D10*
X-190000Y36578171D02*
X-40000Y36500000D01*
X-14130098Y36578171D02*
X-190000Y36578171D01*
X-14130098Y36578171D02*
G75*
G02X-16256000Y38608000I-93902J2029829D01*
G01*
X-16256000Y51308000D02*
G75*
G02X-14224000Y53340000I2032000J0D01*
G01*
X-40000Y36500000D02*
X500000Y36500000D01*
X-16256000Y51308000D02*
X-16256000Y38608000D01*
X0Y53340000D02*
X-14224000Y53340000D01*
X44000000Y4000000D02*
X44000000Y19000000D01*
X46000000Y19000000D02*
X46000000Y4000000D01*
X46000000Y19000000D02*
G75*
G03X44000000Y19000000I-1000000J0D01*
G01*
X44000000Y4000000D02*
G75*
G03X46000000Y4000000I1000000J0D01*
G01*
X499127Y19499999D02*
G75*
G03X0Y19000000I873J-499999D01*
G01*
X4500000Y19500000D02*
G75*
G03X5000000Y20000000I0J500000D01*
G01*
X5000000Y36000000D02*
G75*
G03X4500000Y36500000I-500000J0D01*
G01*
X65000000Y53000000D02*
G75*
G03X62000000Y56000000I-3000000J0D01*
G01*
X62000000Y0D02*
G75*
G03X65000000Y3000000I0J3000000D01*
G01*
X0Y3000000D02*
G75*
G03X3000000Y0I3000000J0D01*
G01*
X2794452Y56012200D02*
G75*
G03X0Y53340000I205548J-3012200D01*
G01*
X62000000Y56000000D02*
X2794452Y56012200D01*
X4500000Y19500000D02*
X500000Y19500000D01*
X5000000Y36000000D02*
X5000000Y20000000D01*
X500000Y36500000D02*
X4500000Y36500000D01*
X65000000Y3000000D02*
X65000000Y53000000D01*
X3000000Y0D02*
X62000000Y0D01*
X0Y19000000D02*
X0Y3000000D01*
D11*
%TO.P,P1,1*%
%TO.N,+3V3*%
X8370000Y51230000D03*
D12*
%TO.P,P1,2*%
%TO.N,+5V*%
X8370000Y53770000D03*
%TO.P,P1,3*%
%TO.N,/GPIO2(SDA1)*%
X10910000Y51230000D03*
%TO.P,P1,4*%
%TO.N,+5V*%
X10910000Y53770000D03*
%TO.P,P1,5*%
%TO.N,/GPIO3(SCL1)*%
X13450000Y51230000D03*
%TO.P,P1,6*%
%TO.N,GND*%
X13450000Y53770000D03*
%TO.P,P1,7*%
%TO.N,N/C*%
X15990000Y51230000D03*
%TO.P,P1,8*%
%TO.N,HELTEC_RX*%
X15990000Y53770000D03*
%TO.P,P1,9*%
%TO.N,GND*%
X18530000Y51230000D03*
%TO.P,P1,10*%
%TO.N,HELTEC_TX*%
X18530000Y53770000D03*
%TO.P,P1,11*%
%TO.N,N/C*%
X21070000Y51230000D03*
%TO.P,P1,12*%
X21070000Y53770000D03*
%TO.P,P1,13*%
X23610000Y51230000D03*
%TO.P,P1,14*%
%TO.N,GND*%
X23610000Y53770000D03*
%TO.P,P1,15*%
%TO.N,N/C*%
X26150000Y51230000D03*
%TO.P,P1,16*%
X26150000Y53770000D03*
%TO.P,P1,17*%
%TO.N,+3V3*%
X28690000Y51230000D03*
%TO.P,P1,18*%
%TO.N,N/C*%
X28690000Y53770000D03*
%TO.P,P1,19*%
X31230000Y51230000D03*
%TO.P,P1,20*%
%TO.N,GND*%
X31230000Y53770000D03*
%TO.P,P1,21*%
%TO.N,N/C*%
X33770000Y51230000D03*
%TO.P,P1,22*%
X33770000Y53770000D03*
%TO.P,P1,23*%
X36310000Y51230000D03*
%TO.P,P1,24*%
X36310000Y53770000D03*
%TO.P,P1,25*%
%TO.N,GND*%
X38850000Y51230000D03*
%TO.P,P1,26*%
%TO.N,N/C*%
X38850000Y53770000D03*
%TO.P,P1,27*%
X41390000Y51230000D03*
%TO.P,P1,28*%
X41390000Y53770000D03*
%TO.P,P1,29*%
X43930000Y51230000D03*
%TO.P,P1,30*%
%TO.N,GND*%
X43930000Y53770000D03*
%TO.P,P1,31*%
%TO.N,N/C*%
X46470000Y51230000D03*
%TO.P,P1,32*%
X46470000Y53770000D03*
%TO.P,P1,33*%
X49010000Y51230000D03*
%TO.P,P1,34*%
%TO.N,GND*%
X49010000Y53770000D03*
%TO.P,P1,35*%
%TO.N,N/C*%
X51550000Y51230000D03*
%TO.P,P1,36*%
X51550000Y53770000D03*
%TO.P,P1,37*%
X54090000Y51230000D03*
%TO.P,P1,38*%
X54090000Y53770000D03*
%TO.P,P1,39*%
%TO.N,GND*%
X56630000Y51230000D03*
%TO.P,P1,40*%
%TO.N,N/C*%
X56630000Y53770000D03*
%TD*%
D13*
%TO.P,D1,1*%
%TO.N,GND*%
X62738000Y18542000D03*
D14*
%TO.P,D1,2*%
%TO.N,Net-(D1-Pad2)*%
X60198000Y18542000D03*
%TD*%
D11*
%TO.P,J1,1*%
%TO.N,+3V3*%
X14732000Y13462000D03*
D12*
%TO.P,J1,2*%
%TO.N,GND*%
X17272000Y13462000D03*
%TO.P,J1,3*%
%TO.N,I2C_SCL*%
X19812000Y13462000D03*
%TO.P,J1,4*%
%TO.N,I2C_SDA*%
X22352000Y13462000D03*
%TD*%
%TO.P,J2,4*%
%TO.N,I2C_SDA*%
X22352000Y18288000D03*
%TO.P,J2,3*%
%TO.N,I2C_SCL*%
X19812000Y18288000D03*
%TO.P,J2,2*%
%TO.N,GND*%
X17272000Y18288000D03*
D11*
%TO.P,J2,1*%
%TO.N,+3V3*%
X14732000Y18288000D03*
%TD*%
%TA.AperFunction,ComponentPad*%
D15*
%TO.P,J3 - DAC,1*%
%TO.N,GND*%
G36*
X55538504Y8148796D02*
G01*
X55562773Y8145196D01*
X55586571Y8139235D01*
X55609671Y8130970D01*
X55631849Y8120480D01*
X55652893Y8107867D01*
X55672598Y8093253D01*
X55690777Y8076777D01*
X55707253Y8058598D01*
X55721867Y8038893D01*
X55734480Y8017849D01*
X55744970Y7995671D01*
X55753235Y7972571D01*
X55759196Y7948773D01*
X55762796Y7924504D01*
X55764000Y7900000D01*
X55764000Y4800000D01*
X55762796Y4775496D01*
X55759196Y4751227D01*
X55753235Y4727429D01*
X55744970Y4704329D01*
X55734480Y4682151D01*
X55721867Y4661107D01*
X55707253Y4641402D01*
X55690777Y4623223D01*
X55672598Y4606747D01*
X55652893Y4592133D01*
X55631849Y4579520D01*
X55609671Y4569030D01*
X55586571Y4560765D01*
X55562773Y4554804D01*
X55538504Y4551204D01*
X55514000Y4550000D01*
X54214000Y4550000D01*
X54189496Y4551204D01*
X54165227Y4554804D01*
X54141429Y4560765D01*
X54118329Y4569030D01*
X54096151Y4579520D01*
X54075107Y4592133D01*
X54055402Y4606747D01*
X54037223Y4623223D01*
X54020747Y4641402D01*
X54006133Y4661107D01*
X53993520Y4682151D01*
X53983030Y4704329D01*
X53974765Y4727429D01*
X53968804Y4751227D01*
X53965204Y4775496D01*
X53964000Y4800000D01*
X53964000Y7900000D01*
X53965204Y7924504D01*
X53968804Y7948773D01*
X53974765Y7972571D01*
X53983030Y7995671D01*
X53993520Y8017849D01*
X54006133Y8038893D01*
X54020747Y8058598D01*
X54037223Y8076777D01*
X54055402Y8093253D01*
X54075107Y8107867D01*
X54096151Y8120480D01*
X54118329Y8130970D01*
X54141429Y8139235D01*
X54165227Y8145196D01*
X54189496Y8148796D01*
X54214000Y8150000D01*
X55514000Y8150000D01*
X55538504Y8148796D01*
G37*
%TD.AperFunction*%
D16*
%TO.P,J3 - DAC,2*%
%TO.N,DAC_OUTPUT*%
X49784000Y6350000D03*
%TD*%
%TO.P,J4 - ALIMENTACAO,3*%
%TO.N,+5V*%
X40132000Y4826000D03*
%TO.P,J4 - ALIMENTACAO,2*%
%TO.N,+3V3*%
X35052000Y4826000D03*
%TA.AperFunction,ComponentPad*%
D15*
%TO.P,J4 - ALIMENTACAO,1*%
%TO.N,GND*%
G36*
X30646504Y6624796D02*
G01*
X30670773Y6621196D01*
X30694571Y6615235D01*
X30717671Y6606970D01*
X30739849Y6596480D01*
X30760893Y6583867D01*
X30780598Y6569253D01*
X30798777Y6552777D01*
X30815253Y6534598D01*
X30829867Y6514893D01*
X30842480Y6493849D01*
X30852970Y6471671D01*
X30861235Y6448571D01*
X30867196Y6424773D01*
X30870796Y6400504D01*
X30872000Y6376000D01*
X30872000Y3276000D01*
X30870796Y3251496D01*
X30867196Y3227227D01*
X30861235Y3203429D01*
X30852970Y3180329D01*
X30842480Y3158151D01*
X30829867Y3137107D01*
X30815253Y3117402D01*
X30798777Y3099223D01*
X30780598Y3082747D01*
X30760893Y3068133D01*
X30739849Y3055520D01*
X30717671Y3045030D01*
X30694571Y3036765D01*
X30670773Y3030804D01*
X30646504Y3027204D01*
X30622000Y3026000D01*
X29322000Y3026000D01*
X29297496Y3027204D01*
X29273227Y3030804D01*
X29249429Y3036765D01*
X29226329Y3045030D01*
X29204151Y3055520D01*
X29183107Y3068133D01*
X29163402Y3082747D01*
X29145223Y3099223D01*
X29128747Y3117402D01*
X29114133Y3137107D01*
X29101520Y3158151D01*
X29091030Y3180329D01*
X29082765Y3203429D01*
X29076804Y3227227D01*
X29073204Y3251496D01*
X29072000Y3276000D01*
X29072000Y6376000D01*
X29073204Y6400504D01*
X29076804Y6424773D01*
X29082765Y6448571D01*
X29091030Y6471671D01*
X29101520Y6493849D01*
X29114133Y6514893D01*
X29128747Y6534598D01*
X29145223Y6552777D01*
X29163402Y6569253D01*
X29183107Y6583867D01*
X29204151Y6596480D01*
X29226329Y6606970D01*
X29249429Y6615235D01*
X29273227Y6621196D01*
X29297496Y6624796D01*
X29322000Y6626000D01*
X30622000Y6626000D01*
X30646504Y6624796D01*
G37*
%TD.AperFunction*%
%TD*%
%TA.AperFunction,ComponentPad*%
%TO.P,J5 - ADC1,1*%
%TO.N,ADC1_CH_2*%
G36*
X13120504Y6624796D02*
G01*
X13144773Y6621196D01*
X13168571Y6615235D01*
X13191671Y6606970D01*
X13213849Y6596480D01*
X13234893Y6583867D01*
X13254598Y6569253D01*
X13272777Y6552777D01*
X13289253Y6534598D01*
X13303867Y6514893D01*
X13316480Y6493849D01*
X13326970Y6471671D01*
X13335235Y6448571D01*
X13341196Y6424773D01*
X13344796Y6400504D01*
X13346000Y6376000D01*
X13346000Y3276000D01*
X13344796Y3251496D01*
X13341196Y3227227D01*
X13335235Y3203429D01*
X13326970Y3180329D01*
X13316480Y3158151D01*
X13303867Y3137107D01*
X13289253Y3117402D01*
X13272777Y3099223D01*
X13254598Y3082747D01*
X13234893Y3068133D01*
X13213849Y3055520D01*
X13191671Y3045030D01*
X13168571Y3036765D01*
X13144773Y3030804D01*
X13120504Y3027204D01*
X13096000Y3026000D01*
X11796000Y3026000D01*
X11771496Y3027204D01*
X11747227Y3030804D01*
X11723429Y3036765D01*
X11700329Y3045030D01*
X11678151Y3055520D01*
X11657107Y3068133D01*
X11637402Y3082747D01*
X11619223Y3099223D01*
X11602747Y3117402D01*
X11588133Y3137107D01*
X11575520Y3158151D01*
X11565030Y3180329D01*
X11556765Y3203429D01*
X11550804Y3227227D01*
X11547204Y3251496D01*
X11546000Y3276000D01*
X11546000Y6376000D01*
X11547204Y6400504D01*
X11550804Y6424773D01*
X11556765Y6448571D01*
X11565030Y6471671D01*
X11575520Y6493849D01*
X11588133Y6514893D01*
X11602747Y6534598D01*
X11619223Y6552777D01*
X11637402Y6569253D01*
X11657107Y6583867D01*
X11678151Y6596480D01*
X11700329Y6606970D01*
X11723429Y6615235D01*
X11747227Y6621196D01*
X11771496Y6624796D01*
X11796000Y6626000D01*
X13096000Y6626000D01*
X13120504Y6624796D01*
G37*
%TD.AperFunction*%
D16*
%TO.P,J5 - ADC1,2*%
%TO.N,ADC1_CH_1*%
X17526000Y4826000D03*
%TO.P,J5 - ADC1,3*%
%TO.N,ADC1_CH_0*%
X22606000Y4826000D03*
%TD*%
D11*
%TO.P,JP1 - SDA,1*%
%TO.N,I2C_SDA*%
X5334000Y16764000D03*
D12*
%TO.P,JP1 - SDA,2*%
%TO.N,/GPIO2(SDA1)*%
X2794000Y16764000D03*
%TD*%
%TO.P,JP2 - SCL,2*%
%TO.N,/GPIO3(SCL1)*%
X2794000Y9144000D03*
D11*
%TO.P,JP2 - SCL,1*%
%TO.N,I2C_SCL*%
X5334000Y9144000D03*
%TD*%
%TO.P,JP3 - ALIM HELTEC,1*%
%TO.N,Net-(JP3-Pad1)*%
X62992000Y44196000D03*
D12*
%TO.P,JP3 - ALIM HELTEC,2*%
%TO.N,+5V*%
X62992000Y41656000D03*
%TD*%
D17*
%TO.P,R1,2*%
%TO.N,I2C_SDA*%
X26670000Y14986000D03*
D18*
%TO.P,R1,1*%
%TO.N,+3V3*%
X41910000Y14986000D03*
%TD*%
%TO.P,R2,1*%
%TO.N,+3V3*%
X41910000Y18542000D03*
D17*
%TO.P,R2,2*%
%TO.N,I2C_SCL*%
X26670000Y18542000D03*
%TD*%
D18*
%TO.P,R3,1*%
%TO.N,+5V*%
X48260000Y13208000D03*
D17*
%TO.P,R3,2*%
%TO.N,Net-(D1-Pad2)*%
X63500000Y13208000D03*
%TD*%
D19*
%TO.P,U1,1*%
%TO.N,GND*%
X58166000Y46990000D03*
%TO.P,U1,2*%
%TO.N,Net-(JP3-Pad1)*%
X55626000Y46990000D03*
%TO.P,U1,3*%
%TO.N,Net-(U1-Pad3)*%
X53086000Y46990000D03*
%TO.P,U1,4*%
%TO.N,GND*%
X50546000Y46990000D03*
%TO.P,U1,5*%
%TO.N,N/C*%
X48006000Y46990000D03*
%TO.P,U1,6*%
X45466000Y46990000D03*
%TO.P,U1,7*%
X42926000Y46990000D03*
%TO.P,U1,8*%
X40386000Y46990000D03*
%TO.P,U1,9*%
X37846000Y46990000D03*
%TO.P,U1,10*%
X35306000Y46990000D03*
%TO.P,U1,11*%
%TO.N,HELTEC_TX*%
X32766000Y46990000D03*
%TO.P,U1,12*%
%TO.N,N/C*%
X30226000Y46990000D03*
%TO.P,U1,13*%
X27686000Y46990000D03*
%TO.P,U1,14*%
X25146000Y46990000D03*
%TO.P,U1,15*%
X22606000Y46990000D03*
%TO.P,U1,16*%
X20066000Y46990000D03*
%TO.P,U1,17*%
%TO.N,HELTEC_RX*%
X17526000Y46990000D03*
%TO.P,U1,18*%
%TO.N,N/C*%
X14986000Y46990000D03*
%TO.P,U1,19*%
X14986000Y23050500D03*
%TO.P,U1,20*%
X17526000Y23050500D03*
%TO.P,U1,21*%
X20066000Y23050500D03*
%TO.P,U1,22*%
X22606000Y23050500D03*
%TO.P,U1,23*%
X25146000Y23050500D03*
%TO.P,U1,24*%
X27686000Y23050500D03*
%TO.P,U1,25*%
%TO.N,DAC_OUTPUT*%
X30226000Y23050500D03*
%TO.P,U1,26*%
%TO.N,N/C*%
X32766000Y23050500D03*
%TO.P,U1,27*%
X35306000Y23050500D03*
%TO.P,U1,28*%
X37909500Y23050500D03*
%TO.P,U1,29*%
X40449500Y23050500D03*
%TO.P,U1,30*%
X42989500Y23050500D03*
%TO.P,U1,31*%
%TO.N,ADC1_CH_2*%
X45529500Y23050500D03*
%TO.P,U1,32*%
%TO.N,ADC1_CH_1*%
X48069500Y23050500D03*
%TO.P,U1,33*%
%TO.N,ADC1_CH_0*%
X50609500Y23050500D03*
%TO.P,U1,34*%
%TO.N,Net-(U1-Pad3)*%
X53149500Y23050500D03*
%TO.P,U1,35*%
%TO.N,Net-(JP3-Pad1)*%
X55626000Y23050500D03*
%TO.P,U1,36*%
%TO.N,GND*%
X58166000Y23050500D03*
%TD*%
D20*
%TO.N,+3V3*%
X8370000Y50180000D02*
X8370000Y51230000D01*
X2120311Y18688010D02*
X4398577Y18688010D01*
X869990Y17437689D02*
X2120311Y18688010D01*
X869990Y9366008D02*
X869990Y17437689D01*
X2241999Y7993999D02*
X869990Y9366008D01*
X18586001Y7993999D02*
X2241999Y7993999D01*
X23502001Y12909999D02*
X18586001Y7993999D01*
X8370000Y22659433D02*
X8370000Y50180000D01*
X23502001Y14014001D02*
X23502001Y12909999D01*
X4398577Y18688010D02*
X8370000Y22659433D01*
X21367992Y16148010D02*
X23502001Y14014001D01*
X15821990Y16148010D02*
X21367992Y16148010D01*
X14732000Y17238000D02*
X15821990Y16148010D01*
X14732000Y18288000D02*
X14732000Y17238000D01*
D21*
%TO.N,+5V*%
X61214000Y42231919D02*
X61789919Y41656000D01*
X61214000Y46482000D02*
X61214000Y42231919D01*
X59436000Y48260000D02*
X61214000Y46482000D01*
X61789919Y41656000D02*
X62992000Y41656000D01*
X58340000Y49356000D02*
X59436000Y48260000D01*
X58340000Y54350000D02*
X58340000Y49356000D01*
X57350000Y55340000D02*
X58340000Y54350000D01*
X12480000Y55340000D02*
X57350000Y55340000D01*
X10910000Y53770000D02*
X12480000Y55340000D01*
D20*
%TO.N,GND*%
X19379999Y52079999D02*
X18530000Y51230000D01*
X19680001Y52380001D02*
X19379999Y52079999D01*
X22772002Y53770000D02*
X21382003Y52380001D01*
X21382003Y52380001D02*
X19680001Y52380001D01*
X23610000Y53770000D02*
X22772002Y53770000D01*
X58166000Y46990000D02*
X58166000Y23050500D01*
%TO.N,/GPIO3(SCL1)*%
X11938000Y49718000D02*
X13450000Y51230000D01*
X11938000Y20066000D02*
X11938000Y49718000D01*
X10160000Y18288000D02*
X11938000Y20066000D01*
X2286000Y18288000D02*
X10160000Y18288000D01*
X1270000Y17272000D02*
X2286000Y18288000D01*
X1270000Y10668000D02*
X1270000Y17272000D01*
X2794000Y9144000D02*
X1270000Y10668000D01*
%TO.N,I2C_SCL*%
X19812000Y13462000D02*
X18288000Y11938000D01*
X7078000Y11938000D02*
X18288000Y11938000D01*
X5334000Y10194000D02*
X7078000Y11938000D01*
X5334000Y9144000D02*
X5334000Y10194000D01*
%TO.N,I2C_SDA*%
X21502001Y14311999D02*
X22352000Y13462000D01*
X20066000Y15748000D02*
X21502001Y14311999D01*
X20185999Y15628001D02*
X20066000Y15748000D01*
X7400000Y15748000D02*
X20066000Y15748000D01*
X6384000Y16764000D02*
X7400000Y15748000D01*
X5334000Y16764000D02*
X6384000Y16764000D01*
%TO.N,DAC_OUTPUT*%
X30734000Y21336000D02*
X30226000Y21844000D01*
X44574579Y21336000D02*
X30734000Y21336000D01*
X46482000Y19428579D02*
X44574579Y21336000D01*
X30226000Y21844000D02*
X30226000Y23050500D01*
X46482000Y8382000D02*
X46482000Y19428579D01*
X48514000Y6350000D02*
X46482000Y8382000D01*
X49784000Y6350000D02*
X48514000Y6350000D01*
%TD*%
D22*
%TO.N,+3V3*%
G36*
X28817000Y51357000D02*
G01*
X28837000Y51357000D01*
X28837000Y51103000D01*
X28817000Y51103000D01*
X28817000Y49909845D01*
X29046890Y49788524D01*
X29194099Y49833175D01*
X29456920Y49958359D01*
X29690269Y50132412D01*
X29885178Y50348645D01*
X29954805Y50465534D01*
X30076525Y50283368D01*
X30283368Y50076525D01*
X30526589Y49914010D01*
X30796842Y49802068D01*
X31083740Y49745000D01*
X31376260Y49745000D01*
X31663158Y49802068D01*
X31933411Y49914010D01*
X32176632Y50076525D01*
X32383475Y50283368D01*
X32500000Y50457760D01*
X32616525Y50283368D01*
X32823368Y50076525D01*
X33066589Y49914010D01*
X33336842Y49802068D01*
X33623740Y49745000D01*
X33916260Y49745000D01*
X34203158Y49802068D01*
X34473411Y49914010D01*
X34716632Y50076525D01*
X34923475Y50283368D01*
X35040000Y50457760D01*
X35156525Y50283368D01*
X35363368Y50076525D01*
X35606589Y49914010D01*
X35876842Y49802068D01*
X36163740Y49745000D01*
X36456260Y49745000D01*
X36743158Y49802068D01*
X37013411Y49914010D01*
X37256632Y50076525D01*
X37463475Y50283368D01*
X37580000Y50457760D01*
X37696525Y50283368D01*
X37903368Y50076525D01*
X38146589Y49914010D01*
X38416842Y49802068D01*
X38703740Y49745000D01*
X38996260Y49745000D01*
X39283158Y49802068D01*
X39553411Y49914010D01*
X39796632Y50076525D01*
X40003475Y50283368D01*
X40120000Y50457760D01*
X40236525Y50283368D01*
X40443368Y50076525D01*
X40686589Y49914010D01*
X40956842Y49802068D01*
X41243740Y49745000D01*
X41536260Y49745000D01*
X41823158Y49802068D01*
X42093411Y49914010D01*
X42336632Y50076525D01*
X42543475Y50283368D01*
X42660000Y50457760D01*
X42776525Y50283368D01*
X42983368Y50076525D01*
X43226589Y49914010D01*
X43496842Y49802068D01*
X43783740Y49745000D01*
X44076260Y49745000D01*
X44363158Y49802068D01*
X44633411Y49914010D01*
X44876632Y50076525D01*
X45083475Y50283368D01*
X45200000Y50457760D01*
X45316525Y50283368D01*
X45523368Y50076525D01*
X45766589Y49914010D01*
X46036842Y49802068D01*
X46323740Y49745000D01*
X46616260Y49745000D01*
X46903158Y49802068D01*
X47173411Y49914010D01*
X47416632Y50076525D01*
X47623475Y50283368D01*
X47740000Y50457760D01*
X47856525Y50283368D01*
X48063368Y50076525D01*
X48306589Y49914010D01*
X48576842Y49802068D01*
X48863740Y49745000D01*
X49156260Y49745000D01*
X49443158Y49802068D01*
X49713411Y49914010D01*
X49956632Y50076525D01*
X50163475Y50283368D01*
X50280000Y50457760D01*
X50396525Y50283368D01*
X50603368Y50076525D01*
X50846589Y49914010D01*
X51116842Y49802068D01*
X51403740Y49745000D01*
X51696260Y49745000D01*
X51983158Y49802068D01*
X52253411Y49914010D01*
X52496632Y50076525D01*
X52703475Y50283368D01*
X52820000Y50457760D01*
X52936525Y50283368D01*
X53143368Y50076525D01*
X53386589Y49914010D01*
X53656842Y49802068D01*
X53943740Y49745000D01*
X54236260Y49745000D01*
X54523158Y49802068D01*
X54793411Y49914010D01*
X55036632Y50076525D01*
X55243475Y50283368D01*
X55360000Y50457760D01*
X55476525Y50283368D01*
X55683368Y50076525D01*
X55926589Y49914010D01*
X56196842Y49802068D01*
X56483740Y49745000D01*
X56776260Y49745000D01*
X57063158Y49802068D01*
X57333411Y49914010D01*
X57355001Y49928436D01*
X57355001Y49404390D01*
X57350235Y49356000D01*
X57369253Y49162907D01*
X57425576Y48977234D01*
X57425577Y48977233D01*
X57517041Y48806116D01*
X57640131Y48656130D01*
X57677711Y48625289D01*
X57934650Y48368350D01*
X57758510Y48333314D01*
X57504273Y48228005D01*
X57275465Y48075120D01*
X57080880Y47880535D01*
X56927995Y47651727D01*
X56896000Y47574485D01*
X56864005Y47651727D01*
X56711120Y47880535D01*
X56516535Y48075120D01*
X56287727Y48228005D01*
X56033490Y48333314D01*
X55763592Y48387000D01*
X55488408Y48387000D01*
X55218510Y48333314D01*
X54964273Y48228005D01*
X54735465Y48075120D01*
X54540880Y47880535D01*
X54387995Y47651727D01*
X54356000Y47574485D01*
X54324005Y47651727D01*
X54171120Y47880535D01*
X53976535Y48075120D01*
X53747727Y48228005D01*
X53493490Y48333314D01*
X53223592Y48387000D01*
X52948408Y48387000D01*
X52678510Y48333314D01*
X52424273Y48228005D01*
X52195465Y48075120D01*
X52000880Y47880535D01*
X51847995Y47651727D01*
X51816000Y47574485D01*
X51784005Y47651727D01*
X51631120Y47880535D01*
X51436535Y48075120D01*
X51207727Y48228005D01*
X50953490Y48333314D01*
X50683592Y48387000D01*
X50408408Y48387000D01*
X50138510Y48333314D01*
X49884273Y48228005D01*
X49655465Y48075120D01*
X49460880Y47880535D01*
X49307995Y47651727D01*
X49276000Y47574485D01*
X49244005Y47651727D01*
X49091120Y47880535D01*
X48896535Y48075120D01*
X48667727Y48228005D01*
X48413490Y48333314D01*
X48143592Y48387000D01*
X47868408Y48387000D01*
X47598510Y48333314D01*
X47344273Y48228005D01*
X47115465Y48075120D01*
X46920880Y47880535D01*
X46767995Y47651727D01*
X46736000Y47574485D01*
X46704005Y47651727D01*
X46551120Y47880535D01*
X46356535Y48075120D01*
X46127727Y48228005D01*
X45873490Y48333314D01*
X45603592Y48387000D01*
X45328408Y48387000D01*
X45058510Y48333314D01*
X44804273Y48228005D01*
X44575465Y48075120D01*
X44380880Y47880535D01*
X44227995Y47651727D01*
X44196000Y47574485D01*
X44164005Y47651727D01*
X44011120Y47880535D01*
X43816535Y48075120D01*
X43587727Y48228005D01*
X43333490Y48333314D01*
X43063592Y48387000D01*
X42788408Y48387000D01*
X42518510Y48333314D01*
X42264273Y48228005D01*
X42035465Y48075120D01*
X41840880Y47880535D01*
X41687995Y47651727D01*
X41656000Y47574485D01*
X41624005Y47651727D01*
X41471120Y47880535D01*
X41276535Y48075120D01*
X41047727Y48228005D01*
X40793490Y48333314D01*
X40523592Y48387000D01*
X40248408Y48387000D01*
X39978510Y48333314D01*
X39724273Y48228005D01*
X39495465Y48075120D01*
X39300880Y47880535D01*
X39147995Y47651727D01*
X39116000Y47574485D01*
X39084005Y47651727D01*
X38931120Y47880535D01*
X38736535Y48075120D01*
X38507727Y48228005D01*
X38253490Y48333314D01*
X37983592Y48387000D01*
X37708408Y48387000D01*
X37438510Y48333314D01*
X37184273Y48228005D01*
X36955465Y48075120D01*
X36760880Y47880535D01*
X36607995Y47651727D01*
X36576000Y47574485D01*
X36544005Y47651727D01*
X36391120Y47880535D01*
X36196535Y48075120D01*
X35967727Y48228005D01*
X35713490Y48333314D01*
X35443592Y48387000D01*
X35168408Y48387000D01*
X34898510Y48333314D01*
X34644273Y48228005D01*
X34415465Y48075120D01*
X34220880Y47880535D01*
X34067995Y47651727D01*
X34036000Y47574485D01*
X34004005Y47651727D01*
X33851120Y47880535D01*
X33656535Y48075120D01*
X33427727Y48228005D01*
X33173490Y48333314D01*
X32903592Y48387000D01*
X32628408Y48387000D01*
X32358510Y48333314D01*
X32104273Y48228005D01*
X31875465Y48075120D01*
X31680880Y47880535D01*
X31527995Y47651727D01*
X31496000Y47574485D01*
X31464005Y47651727D01*
X31311120Y47880535D01*
X31116535Y48075120D01*
X30887727Y48228005D01*
X30633490Y48333314D01*
X30363592Y48387000D01*
X30088408Y48387000D01*
X29818510Y48333314D01*
X29564273Y48228005D01*
X29335465Y48075120D01*
X29140880Y47880535D01*
X28987995Y47651727D01*
X28956000Y47574485D01*
X28924005Y47651727D01*
X28771120Y47880535D01*
X28576535Y48075120D01*
X28347727Y48228005D01*
X28093490Y48333314D01*
X27823592Y48387000D01*
X27548408Y48387000D01*
X27278510Y48333314D01*
X27024273Y48228005D01*
X26795465Y48075120D01*
X26600880Y47880535D01*
X26447995Y47651727D01*
X26416000Y47574485D01*
X26384005Y47651727D01*
X26231120Y47880535D01*
X26036535Y48075120D01*
X25807727Y48228005D01*
X25553490Y48333314D01*
X25283592Y48387000D01*
X25008408Y48387000D01*
X24738510Y48333314D01*
X24484273Y48228005D01*
X24255465Y48075120D01*
X24060880Y47880535D01*
X23907995Y47651727D01*
X23876000Y47574485D01*
X23844005Y47651727D01*
X23691120Y47880535D01*
X23496535Y48075120D01*
X23267727Y48228005D01*
X23013490Y48333314D01*
X22743592Y48387000D01*
X22468408Y48387000D01*
X22198510Y48333314D01*
X21944273Y48228005D01*
X21715465Y48075120D01*
X21520880Y47880535D01*
X21367995Y47651727D01*
X21336000Y47574485D01*
X21304005Y47651727D01*
X21151120Y47880535D01*
X20956535Y48075120D01*
X20727727Y48228005D01*
X20473490Y48333314D01*
X20203592Y48387000D01*
X19928408Y48387000D01*
X19658510Y48333314D01*
X19404273Y48228005D01*
X19175465Y48075120D01*
X18980880Y47880535D01*
X18827995Y47651727D01*
X18796000Y47574485D01*
X18764005Y47651727D01*
X18611120Y47880535D01*
X18416535Y48075120D01*
X18187727Y48228005D01*
X17933490Y48333314D01*
X17663592Y48387000D01*
X17388408Y48387000D01*
X17118510Y48333314D01*
X16864273Y48228005D01*
X16635465Y48075120D01*
X16440880Y47880535D01*
X16287995Y47651727D01*
X16256000Y47574485D01*
X16224005Y47651727D01*
X16071120Y47880535D01*
X15876535Y48075120D01*
X15647727Y48228005D01*
X15393490Y48333314D01*
X15123592Y48387000D01*
X14848408Y48387000D01*
X14578510Y48333314D01*
X14324273Y48228005D01*
X14095465Y48075120D01*
X13900880Y47880535D01*
X13747995Y47651727D01*
X13642686Y47397490D01*
X13589000Y47127592D01*
X13589000Y46852408D01*
X13642686Y46582510D01*
X13747995Y46328273D01*
X13900880Y46099465D01*
X14095465Y45904880D01*
X14324273Y45751995D01*
X14578510Y45646686D01*
X14848408Y45593000D01*
X15123592Y45593000D01*
X15393490Y45646686D01*
X15647727Y45751995D01*
X15876535Y45904880D01*
X16071120Y46099465D01*
X16224005Y46328273D01*
X16256000Y46405515D01*
X16287995Y46328273D01*
X16440880Y46099465D01*
X16635465Y45904880D01*
X16864273Y45751995D01*
X17118510Y45646686D01*
X17388408Y45593000D01*
X17663592Y45593000D01*
X17933490Y45646686D01*
X18187727Y45751995D01*
X18416535Y45904880D01*
X18611120Y46099465D01*
X18764005Y46328273D01*
X18796000Y46405515D01*
X18827995Y46328273D01*
X18980880Y46099465D01*
X19175465Y45904880D01*
X19404273Y45751995D01*
X19658510Y45646686D01*
X19928408Y45593000D01*
X20203592Y45593000D01*
X20473490Y45646686D01*
X20727727Y45751995D01*
X20956535Y45904880D01*
X21151120Y46099465D01*
X21304005Y46328273D01*
X21336000Y46405515D01*
X21367995Y46328273D01*
X21520880Y46099465D01*
X21715465Y45904880D01*
X21944273Y45751995D01*
X22198510Y45646686D01*
X22468408Y45593000D01*
X22743592Y45593000D01*
X23013490Y45646686D01*
X23267727Y45751995D01*
X23496535Y45904880D01*
X23691120Y46099465D01*
X23844005Y46328273D01*
X23876000Y46405515D01*
X23907995Y46328273D01*
X24060880Y46099465D01*
X24255465Y45904880D01*
X24484273Y45751995D01*
X24738510Y45646686D01*
X25008408Y45593000D01*
X25283592Y45593000D01*
X25553490Y45646686D01*
X25807727Y45751995D01*
X26036535Y45904880D01*
X26231120Y46099465D01*
X26384005Y46328273D01*
X26416000Y46405515D01*
X26447995Y46328273D01*
X26600880Y46099465D01*
X26795465Y45904880D01*
X27024273Y45751995D01*
X27278510Y45646686D01*
X27548408Y45593000D01*
X27823592Y45593000D01*
X28093490Y45646686D01*
X28347727Y45751995D01*
X28576535Y45904880D01*
X28771120Y46099465D01*
X28924005Y46328273D01*
X28956000Y46405515D01*
X28987995Y46328273D01*
X29140880Y46099465D01*
X29335465Y45904880D01*
X29564273Y45751995D01*
X29818510Y45646686D01*
X30088408Y45593000D01*
X30363592Y45593000D01*
X30633490Y45646686D01*
X30887727Y45751995D01*
X31116535Y45904880D01*
X31311120Y46099465D01*
X31464005Y46328273D01*
X31496000Y46405515D01*
X31527995Y46328273D01*
X31680880Y46099465D01*
X31875465Y45904880D01*
X32104273Y45751995D01*
X32358510Y45646686D01*
X32628408Y45593000D01*
X32903592Y45593000D01*
X33173490Y45646686D01*
X33427727Y45751995D01*
X33656535Y45904880D01*
X33851120Y46099465D01*
X34004005Y46328273D01*
X34036000Y46405515D01*
X34067995Y46328273D01*
X34220880Y46099465D01*
X34415465Y45904880D01*
X34644273Y45751995D01*
X34898510Y45646686D01*
X35168408Y45593000D01*
X35443592Y45593000D01*
X35713490Y45646686D01*
X35967727Y45751995D01*
X36196535Y45904880D01*
X36391120Y46099465D01*
X36544005Y46328273D01*
X36576000Y46405515D01*
X36607995Y46328273D01*
X36760880Y46099465D01*
X36955465Y45904880D01*
X37184273Y45751995D01*
X37438510Y45646686D01*
X37708408Y45593000D01*
X37983592Y45593000D01*
X38253490Y45646686D01*
X38507727Y45751995D01*
X38736535Y45904880D01*
X38931120Y46099465D01*
X39084005Y46328273D01*
X39116000Y46405515D01*
X39147995Y46328273D01*
X39300880Y46099465D01*
X39495465Y45904880D01*
X39724273Y45751995D01*
X39978510Y45646686D01*
X40248408Y45593000D01*
X40523592Y45593000D01*
X40793490Y45646686D01*
X41047727Y45751995D01*
X41276535Y45904880D01*
X41471120Y46099465D01*
X41624005Y46328273D01*
X41656000Y46405515D01*
X41687995Y46328273D01*
X41840880Y46099465D01*
X42035465Y45904880D01*
X42264273Y45751995D01*
X42518510Y45646686D01*
X42788408Y45593000D01*
X43063592Y45593000D01*
X43333490Y45646686D01*
X43587727Y45751995D01*
X43816535Y45904880D01*
X44011120Y46099465D01*
X44164005Y46328273D01*
X44196000Y46405515D01*
X44227995Y46328273D01*
X44380880Y46099465D01*
X44575465Y45904880D01*
X44804273Y45751995D01*
X45058510Y45646686D01*
X45328408Y45593000D01*
X45603592Y45593000D01*
X45873490Y45646686D01*
X46127727Y45751995D01*
X46356535Y45904880D01*
X46551120Y46099465D01*
X46704005Y46328273D01*
X46736000Y46405515D01*
X46767995Y46328273D01*
X46920880Y46099465D01*
X47115465Y45904880D01*
X47344273Y45751995D01*
X47598510Y45646686D01*
X47868408Y45593000D01*
X48143592Y45593000D01*
X48413490Y45646686D01*
X48667727Y45751995D01*
X48896535Y45904880D01*
X49091120Y46099465D01*
X49244005Y46328273D01*
X49276000Y46405515D01*
X49307995Y46328273D01*
X49460880Y46099465D01*
X49655465Y45904880D01*
X49884273Y45751995D01*
X50138510Y45646686D01*
X50408408Y45593000D01*
X50683592Y45593000D01*
X50953490Y45646686D01*
X51207727Y45751995D01*
X51436535Y45904880D01*
X51631120Y46099465D01*
X51784005Y46328273D01*
X51816000Y46405515D01*
X51847995Y46328273D01*
X52000880Y46099465D01*
X52195465Y45904880D01*
X52424273Y45751995D01*
X52678510Y45646686D01*
X52948408Y45593000D01*
X53223592Y45593000D01*
X53493490Y45646686D01*
X53747727Y45751995D01*
X53976535Y45904880D01*
X54171120Y46099465D01*
X54324005Y46328273D01*
X54356000Y46405515D01*
X54387995Y46328273D01*
X54540880Y46099465D01*
X54735465Y45904880D01*
X54964273Y45751995D01*
X55218510Y45646686D01*
X55488408Y45593000D01*
X55763592Y45593000D01*
X56033490Y45646686D01*
X56287727Y45751995D01*
X56516535Y45904880D01*
X56711120Y46099465D01*
X56864005Y46328273D01*
X56896000Y46405515D01*
X56927995Y46328273D01*
X57080880Y46099465D01*
X57275465Y45904880D01*
X57431000Y45800955D01*
X57431001Y24239546D01*
X57275465Y24135620D01*
X57080880Y23941035D01*
X56927995Y23712227D01*
X56896000Y23634985D01*
X56864005Y23712227D01*
X56711120Y23941035D01*
X56516535Y24135620D01*
X56287727Y24288505D01*
X56033490Y24393814D01*
X55763592Y24447500D01*
X55488408Y24447500D01*
X55218510Y24393814D01*
X54964273Y24288505D01*
X54735465Y24135620D01*
X54540880Y23941035D01*
X54387995Y23712227D01*
X54387750Y23711636D01*
X54387505Y23712227D01*
X54234620Y23941035D01*
X54040035Y24135620D01*
X53811227Y24288505D01*
X53556990Y24393814D01*
X53287092Y24447500D01*
X53011908Y24447500D01*
X52742010Y24393814D01*
X52487773Y24288505D01*
X52258965Y24135620D01*
X52064380Y23941035D01*
X51911495Y23712227D01*
X51879500Y23634985D01*
X51847505Y23712227D01*
X51694620Y23941035D01*
X51500035Y24135620D01*
X51271227Y24288505D01*
X51016990Y24393814D01*
X50747092Y24447500D01*
X50471908Y24447500D01*
X50202010Y24393814D01*
X49947773Y24288505D01*
X49718965Y24135620D01*
X49524380Y23941035D01*
X49371495Y23712227D01*
X49339500Y23634985D01*
X49307505Y23712227D01*
X49154620Y23941035D01*
X48960035Y24135620D01*
X48731227Y24288505D01*
X48476990Y24393814D01*
X48207092Y24447500D01*
X47931908Y24447500D01*
X47662010Y24393814D01*
X47407773Y24288505D01*
X47178965Y24135620D01*
X46984380Y23941035D01*
X46831495Y23712227D01*
X46799500Y23634985D01*
X46767505Y23712227D01*
X46614620Y23941035D01*
X46420035Y24135620D01*
X46191227Y24288505D01*
X45936990Y24393814D01*
X45667092Y24447500D01*
X45391908Y24447500D01*
X45122010Y24393814D01*
X44867773Y24288505D01*
X44638965Y24135620D01*
X44444380Y23941035D01*
X44291495Y23712227D01*
X44259500Y23634985D01*
X44227505Y23712227D01*
X44074620Y23941035D01*
X43880035Y24135620D01*
X43651227Y24288505D01*
X43396990Y24393814D01*
X43127092Y24447500D01*
X42851908Y24447500D01*
X42582010Y24393814D01*
X42327773Y24288505D01*
X42098965Y24135620D01*
X41904380Y23941035D01*
X41751495Y23712227D01*
X41719500Y23634985D01*
X41687505Y23712227D01*
X41534620Y23941035D01*
X41340035Y24135620D01*
X41111227Y24288505D01*
X40856990Y24393814D01*
X40587092Y24447500D01*
X40311908Y24447500D01*
X40042010Y24393814D01*
X39787773Y24288505D01*
X39558965Y24135620D01*
X39364380Y23941035D01*
X39211495Y23712227D01*
X39179500Y23634985D01*
X39147505Y23712227D01*
X38994620Y23941035D01*
X38800035Y24135620D01*
X38571227Y24288505D01*
X38316990Y24393814D01*
X38047092Y24447500D01*
X37771908Y24447500D01*
X37502010Y24393814D01*
X37247773Y24288505D01*
X37018965Y24135620D01*
X36824380Y23941035D01*
X36671495Y23712227D01*
X36607750Y23558334D01*
X36544005Y23712227D01*
X36391120Y23941035D01*
X36196535Y24135620D01*
X35967727Y24288505D01*
X35713490Y24393814D01*
X35443592Y24447500D01*
X35168408Y24447500D01*
X34898510Y24393814D01*
X34644273Y24288505D01*
X34415465Y24135620D01*
X34220880Y23941035D01*
X34067995Y23712227D01*
X34036000Y23634985D01*
X34004005Y23712227D01*
X33851120Y23941035D01*
X33656535Y24135620D01*
X33427727Y24288505D01*
X33173490Y24393814D01*
X32903592Y24447500D01*
X32628408Y24447500D01*
X32358510Y24393814D01*
X32104273Y24288505D01*
X31875465Y24135620D01*
X31680880Y23941035D01*
X31527995Y23712227D01*
X31496000Y23634985D01*
X31464005Y23712227D01*
X31311120Y23941035D01*
X31116535Y24135620D01*
X30887727Y24288505D01*
X30633490Y24393814D01*
X30363592Y24447500D01*
X30088408Y24447500D01*
X29818510Y24393814D01*
X29564273Y24288505D01*
X29335465Y24135620D01*
X29140880Y23941035D01*
X28987995Y23712227D01*
X28956000Y23634985D01*
X28924005Y23712227D01*
X28771120Y23941035D01*
X28576535Y24135620D01*
X28347727Y24288505D01*
X28093490Y24393814D01*
X27823592Y24447500D01*
X27548408Y24447500D01*
X27278510Y24393814D01*
X27024273Y24288505D01*
X26795465Y24135620D01*
X26600880Y23941035D01*
X26447995Y23712227D01*
X26416000Y23634985D01*
X26384005Y23712227D01*
X26231120Y23941035D01*
X26036535Y24135620D01*
X25807727Y24288505D01*
X25553490Y24393814D01*
X25283592Y24447500D01*
X25008408Y24447500D01*
X24738510Y24393814D01*
X24484273Y24288505D01*
X24255465Y24135620D01*
X24060880Y23941035D01*
X23907995Y23712227D01*
X23876000Y23634985D01*
X23844005Y23712227D01*
X23691120Y23941035D01*
X23496535Y24135620D01*
X23267727Y24288505D01*
X23013490Y24393814D01*
X22743592Y24447500D01*
X22468408Y24447500D01*
X22198510Y24393814D01*
X21944273Y24288505D01*
X21715465Y24135620D01*
X21520880Y23941035D01*
X21367995Y23712227D01*
X21336000Y23634985D01*
X21304005Y23712227D01*
X21151120Y23941035D01*
X20956535Y24135620D01*
X20727727Y24288505D01*
X20473490Y24393814D01*
X20203592Y24447500D01*
X19928408Y24447500D01*
X19658510Y24393814D01*
X19404273Y24288505D01*
X19175465Y24135620D01*
X18980880Y23941035D01*
X18827995Y23712227D01*
X18796000Y23634985D01*
X18764005Y23712227D01*
X18611120Y23941035D01*
X18416535Y24135620D01*
X18187727Y24288505D01*
X17933490Y24393814D01*
X17663592Y24447500D01*
X17388408Y24447500D01*
X17118510Y24393814D01*
X16864273Y24288505D01*
X16635465Y24135620D01*
X16440880Y23941035D01*
X16287995Y23712227D01*
X16256000Y23634985D01*
X16224005Y23712227D01*
X16071120Y23941035D01*
X15876535Y24135620D01*
X15647727Y24288505D01*
X15393490Y24393814D01*
X15123592Y24447500D01*
X14848408Y24447500D01*
X14578510Y24393814D01*
X14324273Y24288505D01*
X14095465Y24135620D01*
X13900880Y23941035D01*
X13747995Y23712227D01*
X13642686Y23457990D01*
X13589000Y23188092D01*
X13589000Y22912908D01*
X13642686Y22643010D01*
X13747995Y22388773D01*
X13900880Y22159965D01*
X14095465Y21965380D01*
X14324273Y21812495D01*
X14578510Y21707186D01*
X14848408Y21653500D01*
X15123592Y21653500D01*
X15393490Y21707186D01*
X15647727Y21812495D01*
X15876535Y21965380D01*
X16071120Y22159965D01*
X16224005Y22388773D01*
X16256000Y22466015D01*
X16287995Y22388773D01*
X16440880Y22159965D01*
X16635465Y21965380D01*
X16864273Y21812495D01*
X17118510Y21707186D01*
X17388408Y21653500D01*
X17663592Y21653500D01*
X17933490Y21707186D01*
X18187727Y21812495D01*
X18416535Y21965380D01*
X18611120Y22159965D01*
X18764005Y22388773D01*
X18796000Y22466015D01*
X18827995Y22388773D01*
X18980880Y22159965D01*
X19175465Y21965380D01*
X19404273Y21812495D01*
X19658510Y21707186D01*
X19928408Y21653500D01*
X20203592Y21653500D01*
X20473490Y21707186D01*
X20727727Y21812495D01*
X20956535Y21965380D01*
X21151120Y22159965D01*
X21304005Y22388773D01*
X21336000Y22466015D01*
X21367995Y22388773D01*
X21520880Y22159965D01*
X21715465Y21965380D01*
X21944273Y21812495D01*
X22198510Y21707186D01*
X22468408Y21653500D01*
X22743592Y21653500D01*
X23013490Y21707186D01*
X23267727Y21812495D01*
X23496535Y21965380D01*
X23691120Y22159965D01*
X23844005Y22388773D01*
X23876000Y22466015D01*
X23907995Y22388773D01*
X24060880Y22159965D01*
X24255465Y21965380D01*
X24484273Y21812495D01*
X24738510Y21707186D01*
X25008408Y21653500D01*
X25283592Y21653500D01*
X25553490Y21707186D01*
X25807727Y21812495D01*
X26036535Y21965380D01*
X26231120Y22159965D01*
X26384005Y22388773D01*
X26416000Y22466015D01*
X26447995Y22388773D01*
X26600880Y22159965D01*
X26795465Y21965380D01*
X27024273Y21812495D01*
X27278510Y21707186D01*
X27548408Y21653500D01*
X27823592Y21653500D01*
X28093490Y21707186D01*
X28347727Y21812495D01*
X28576535Y21965380D01*
X28771120Y22159965D01*
X28924005Y22388773D01*
X28956000Y22466015D01*
X28987995Y22388773D01*
X29140880Y22159965D01*
X29335465Y21965380D01*
X29489277Y21862606D01*
X29487444Y21844000D01*
X29497065Y21746320D01*
X29501635Y21699916D01*
X29543663Y21561368D01*
X29611913Y21433681D01*
X29703762Y21321763D01*
X29731808Y21298746D01*
X30188746Y20841808D01*
X30211762Y20813762D01*
X30323680Y20721913D01*
X30451367Y20653663D01*
X30589915Y20611635D01*
X30697895Y20601000D01*
X30697904Y20601000D01*
X30733999Y20597445D01*
X30770094Y20601000D01*
X44270133Y20601000D01*
X44328668Y20542464D01*
X44295127Y20528913D01*
X44286682Y20524423D01*
X44115006Y20431598D01*
X44063532Y20396878D01*
X44011582Y20362883D01*
X44004170Y20356838D01*
X43853793Y20232435D01*
X43810027Y20188362D01*
X43765689Y20144943D01*
X43759592Y20137574D01*
X43636242Y19986332D01*
X43601881Y19934614D01*
X43566809Y19883393D01*
X43562260Y19874980D01*
X43470635Y19702657D01*
X43446978Y19645261D01*
X43422519Y19588193D01*
X43419690Y19579057D01*
X43363281Y19392220D01*
X43351219Y19331302D01*
X43338314Y19270590D01*
X43337314Y19261078D01*
X43318269Y19066845D01*
X43318269Y19066827D01*
X43315001Y19033647D01*
X43315001Y18850191D01*
X43308787Y18892130D01*
X43213603Y19158292D01*
X43146671Y19283514D01*
X42902702Y19355097D01*
X42089605Y18542000D01*
X42902702Y17728903D01*
X43146671Y17800486D01*
X43267571Y18055996D01*
X43315001Y18245213D01*
X43315001Y15294192D01*
X43308787Y15336130D01*
X43213603Y15602292D01*
X43146671Y15727514D01*
X42902702Y15799097D01*
X42089605Y14986000D01*
X42902702Y14172903D01*
X43146671Y14244486D01*
X43267571Y14499996D01*
X43315001Y14689212D01*
X43315000Y3966354D01*
X43318366Y3932179D01*
X43318366Y3919194D01*
X43319366Y3909682D01*
X43341121Y3715732D01*
X43354025Y3655024D01*
X43366089Y3594099D01*
X43368917Y3584962D01*
X43427930Y3398932D01*
X43452377Y3341895D01*
X43476046Y3284469D01*
X43480595Y3276056D01*
X43574617Y3105031D01*
X43609692Y3053806D01*
X43644050Y3002094D01*
X43650146Y2994724D01*
X43775596Y2845218D01*
X43819974Y2801760D01*
X43863703Y2757725D01*
X43871109Y2751685D01*
X43871113Y2751681D01*
X43871115Y2751680D01*
X44023214Y2629389D01*
X44075139Y2595411D01*
X44126632Y2560678D01*
X44135077Y2556188D01*
X44308033Y2465768D01*
X44365590Y2442513D01*
X44422835Y2418450D01*
X44431991Y2415685D01*
X44619217Y2360582D01*
X44680218Y2348946D01*
X44741015Y2336466D01*
X44750533Y2335532D01*
X44944895Y2317843D01*
X45006986Y2318277D01*
X45069066Y2317844D01*
X45078585Y2318777D01*
X45272682Y2339178D01*
X45333496Y2351661D01*
X45394481Y2363295D01*
X45403637Y2366059D01*
X45590075Y2423771D01*
X45647279Y2447818D01*
X45704873Y2471087D01*
X45713317Y2475577D01*
X45884994Y2568402D01*
X45936468Y2603122D01*
X45988418Y2637117D01*
X45995829Y2643161D01*
X46146207Y2767565D01*
X46189973Y2811638D01*
X46234311Y2855057D01*
X46240408Y2862426D01*
X46363758Y3013668D01*
X46398126Y3065397D01*
X46433191Y3116608D01*
X46437739Y3125019D01*
X46437740Y3125020D01*
X46437742Y3125024D01*
X46529366Y3297343D01*
X46553022Y3354739D01*
X46577482Y3411807D01*
X46580310Y3420944D01*
X46636719Y3607780D01*
X46648780Y3668690D01*
X46661686Y3729409D01*
X46662686Y3738921D01*
X46681731Y3933155D01*
X46681731Y3933163D01*
X46685000Y3966353D01*
X46685000Y7139554D01*
X47968746Y5855807D01*
X47991762Y5827762D01*
X48103680Y5735913D01*
X48231367Y5667663D01*
X48249000Y5662314D01*
X48249000Y5374593D01*
X48271210Y5149088D01*
X48358983Y4859740D01*
X48501519Y4593074D01*
X48693339Y4359339D01*
X48927073Y4167519D01*
X49193739Y4024983D01*
X49483087Y3937210D01*
X49784000Y3907573D01*
X50084912Y3937210D01*
X50374260Y4024983D01*
X50640926Y4167519D01*
X50874661Y4359339D01*
X51066481Y4593073D01*
X51209017Y4859739D01*
X51296790Y5149087D01*
X51319000Y5374592D01*
X51319000Y7325408D01*
X51296790Y7550913D01*
X51209017Y7840261D01*
X51177086Y7900000D01*
X53325928Y7900000D01*
X53325928Y4800000D01*
X53342992Y4626746D01*
X53393528Y4460150D01*
X53475595Y4306614D01*
X53586038Y4172038D01*
X53720614Y4061595D01*
X53874150Y3979528D01*
X54040746Y3928992D01*
X54214000Y3911928D01*
X55514000Y3911928D01*
X55687254Y3928992D01*
X55853850Y3979528D01*
X56007386Y4061595D01*
X56141962Y4172038D01*
X56252405Y4306614D01*
X56334472Y4460150D01*
X56385008Y4626746D01*
X56402072Y4800000D01*
X56402072Y7900000D01*
X56385008Y8073254D01*
X56334472Y8239850D01*
X56252405Y8393386D01*
X56141962Y8527962D01*
X56007386Y8638405D01*
X55853850Y8720472D01*
X55687254Y8771008D01*
X55514000Y8788072D01*
X54214000Y8788072D01*
X54040746Y8771008D01*
X53874150Y8720472D01*
X53720614Y8638405D01*
X53586038Y8527962D01*
X53475595Y8393386D01*
X53393528Y8239850D01*
X53342992Y8073254D01*
X53325928Y7900000D01*
X51177086Y7900000D01*
X51066481Y8106927D01*
X50874661Y8340661D01*
X50640927Y8532481D01*
X50374261Y8675017D01*
X50084913Y8762790D01*
X49784000Y8792427D01*
X49483088Y8762790D01*
X49193740Y8675017D01*
X48927074Y8532481D01*
X48693340Y8340661D01*
X48501520Y8106927D01*
X48358984Y7840261D01*
X48290138Y7613308D01*
X47217000Y8686446D01*
X47217000Y12221604D01*
X47345241Y12093363D01*
X47580273Y11936320D01*
X47841426Y11828147D01*
X48118665Y11773000D01*
X48401335Y11773000D01*
X48678574Y11828147D01*
X48939727Y11936320D01*
X49174759Y12093363D01*
X49374637Y12293241D01*
X49531680Y12528273D01*
X49639853Y12789426D01*
X49695000Y13066665D01*
X49695000Y13349335D01*
X49639853Y13626574D01*
X49531680Y13887727D01*
X49374637Y14122759D01*
X49174759Y14322637D01*
X48939727Y14479680D01*
X48678574Y14587853D01*
X48401335Y14643000D01*
X48118665Y14643000D01*
X47841426Y14587853D01*
X47580273Y14479680D01*
X47345241Y14322637D01*
X47217000Y14194396D01*
X47217000Y18693184D01*
X58663000Y18693184D01*
X58663000Y18390816D01*
X58721989Y18094257D01*
X58837701Y17814905D01*
X59005688Y17563495D01*
X59219495Y17349688D01*
X59470905Y17181701D01*
X59750257Y17065989D01*
X60046816Y17007000D01*
X60349184Y17007000D01*
X60645743Y17065989D01*
X60925095Y17181701D01*
X61176505Y17349688D01*
X61242944Y17416127D01*
X61248498Y17397820D01*
X61307463Y17287506D01*
X61386815Y17190815D01*
X61483506Y17111463D01*
X61593820Y17052498D01*
X61713518Y17016188D01*
X61838000Y17003928D01*
X63638000Y17003928D01*
X63762482Y17016188D01*
X63882180Y17052498D01*
X63992494Y17111463D01*
X64089185Y17190815D01*
X64168537Y17287506D01*
X64227502Y17397820D01*
X64263812Y17517518D01*
X64276072Y17642000D01*
X64276072Y19442000D01*
X64263812Y19566482D01*
X64227502Y19686180D01*
X64168537Y19796494D01*
X64089185Y19893185D01*
X63992494Y19972537D01*
X63882180Y20031502D01*
X63762482Y20067812D01*
X63638000Y20080072D01*
X61838000Y20080072D01*
X61713518Y20067812D01*
X61593820Y20031502D01*
X61483506Y19972537D01*
X61386815Y19893185D01*
X61307463Y19796494D01*
X61248498Y19686180D01*
X61242944Y19667873D01*
X61176505Y19734312D01*
X60925095Y19902299D01*
X60645743Y20018011D01*
X60349184Y20077000D01*
X60046816Y20077000D01*
X59750257Y20018011D01*
X59470905Y19902299D01*
X59219495Y19734312D01*
X59005688Y19520505D01*
X58837701Y19269095D01*
X58721989Y18989743D01*
X58663000Y18693184D01*
X47217000Y18693184D01*
X47217000Y19392474D01*
X47220556Y19428579D01*
X47206365Y19572664D01*
X47164337Y19711213D01*
X47096087Y19838899D01*
X47074078Y19865717D01*
X47004238Y19950817D01*
X46976193Y19973833D01*
X45272841Y21677184D01*
X45391908Y21653500D01*
X45667092Y21653500D01*
X45936990Y21707186D01*
X46191227Y21812495D01*
X46420035Y21965380D01*
X46614620Y22159965D01*
X46767505Y22388773D01*
X46799500Y22466015D01*
X46831495Y22388773D01*
X46984380Y22159965D01*
X47178965Y21965380D01*
X47407773Y21812495D01*
X47662010Y21707186D01*
X47931908Y21653500D01*
X48207092Y21653500D01*
X48476990Y21707186D01*
X48731227Y21812495D01*
X48960035Y21965380D01*
X49154620Y22159965D01*
X49307505Y22388773D01*
X49339500Y22466015D01*
X49371495Y22388773D01*
X49524380Y22159965D01*
X49718965Y21965380D01*
X49947773Y21812495D01*
X50202010Y21707186D01*
X50471908Y21653500D01*
X50747092Y21653500D01*
X51016990Y21707186D01*
X51271227Y21812495D01*
X51500035Y21965380D01*
X51694620Y22159965D01*
X51847505Y22388773D01*
X51879500Y22466015D01*
X51911495Y22388773D01*
X52064380Y22159965D01*
X52258965Y21965380D01*
X52487773Y21812495D01*
X52742010Y21707186D01*
X53011908Y21653500D01*
X53287092Y21653500D01*
X53556990Y21707186D01*
X53811227Y21812495D01*
X54040035Y21965380D01*
X54234620Y22159965D01*
X54387505Y22388773D01*
X54387750Y22389364D01*
X54387995Y22388773D01*
X54540880Y22159965D01*
X54735465Y21965380D01*
X54964273Y21812495D01*
X55218510Y21707186D01*
X55488408Y21653500D01*
X55763592Y21653500D01*
X56033490Y21707186D01*
X56287727Y21812495D01*
X56516535Y21965380D01*
X56711120Y22159965D01*
X56864005Y22388773D01*
X56896000Y22466015D01*
X56927995Y22388773D01*
X57080880Y22159965D01*
X57275465Y21965380D01*
X57504273Y21812495D01*
X57758510Y21707186D01*
X58028408Y21653500D01*
X58303592Y21653500D01*
X58573490Y21707186D01*
X58827727Y21812495D01*
X59056535Y21965380D01*
X59251120Y22159965D01*
X59404005Y22388773D01*
X59509314Y22643010D01*
X59563000Y22912908D01*
X59563000Y23188092D01*
X59509314Y23457990D01*
X59404005Y23712227D01*
X59251120Y23941035D01*
X59056535Y24135620D01*
X58901000Y24239545D01*
X58901000Y45800955D01*
X59056535Y45904880D01*
X59251120Y46099465D01*
X59404005Y46328273D01*
X59509314Y46582510D01*
X59544350Y46758649D01*
X60229000Y46073999D01*
X60229001Y42280309D01*
X60224235Y42231919D01*
X60243253Y42038826D01*
X60299576Y41853153D01*
X60301746Y41849094D01*
X60391041Y41682035D01*
X60514131Y41532049D01*
X60551712Y41501207D01*
X61059199Y40993721D01*
X61090049Y40956130D01*
X61240035Y40833040D01*
X61411152Y40741576D01*
X61596825Y40685253D01*
X61741539Y40671000D01*
X61741540Y40671000D01*
X61789918Y40666235D01*
X61838296Y40671000D01*
X61876893Y40671000D01*
X62045368Y40502525D01*
X62288589Y40340010D01*
X62558842Y40228068D01*
X62845740Y40171000D01*
X63138260Y40171000D01*
X63425158Y40228068D01*
X63695411Y40340010D01*
X63938632Y40502525D01*
X64145475Y40709368D01*
X64307990Y40952589D01*
X64315001Y40969515D01*
X64315000Y14389294D01*
X64179727Y14479680D01*
X63918574Y14587853D01*
X63641335Y14643000D01*
X63358665Y14643000D01*
X63081426Y14587853D01*
X62820273Y14479680D01*
X62585241Y14322637D01*
X62385363Y14122759D01*
X62228320Y13887727D01*
X62120147Y13626574D01*
X62065000Y13349335D01*
X62065000Y13066665D01*
X62120147Y12789426D01*
X62228320Y12528273D01*
X62385363Y12293241D01*
X62585241Y12093363D01*
X62820273Y11936320D01*
X63081426Y11828147D01*
X63358665Y11773000D01*
X63641335Y11773000D01*
X63918574Y11828147D01*
X64179727Y11936320D01*
X64315000Y12026706D01*
X64315000Y7493000D01*
X58420000Y7493000D01*
X58395224Y7490560D01*
X58371399Y7483333D01*
X58349443Y7471597D01*
X58330197Y7455803D01*
X58314403Y7436557D01*
X58302667Y7414601D01*
X58295440Y7390776D01*
X58293000Y7366000D01*
X58293000Y685000D01*
X7239000Y685000D01*
X7239000Y6376000D01*
X10907928Y6376000D01*
X10907928Y3276000D01*
X10924992Y3102746D01*
X10975528Y2936150D01*
X11057595Y2782614D01*
X11168038Y2648038D01*
X11302614Y2537595D01*
X11456150Y2455528D01*
X11622746Y2404992D01*
X11796000Y2387928D01*
X13096000Y2387928D01*
X13269254Y2404992D01*
X13435850Y2455528D01*
X13589386Y2537595D01*
X13723962Y2648038D01*
X13834405Y2782614D01*
X13916472Y2936150D01*
X13967008Y3102746D01*
X13984072Y3276000D01*
X13984072Y5801407D01*
X15991000Y5801407D01*
X15991000Y3850592D01*
X16013211Y3625087D01*
X16100984Y3335739D01*
X16243520Y3069073D01*
X16435340Y2835339D01*
X16669074Y2643519D01*
X16935740Y2500983D01*
X17225088Y2413210D01*
X17526000Y2383573D01*
X17826913Y2413210D01*
X18116261Y2500983D01*
X18382927Y2643519D01*
X18616661Y2835339D01*
X18808481Y3069073D01*
X18951017Y3335739D01*
X19038790Y3625087D01*
X19061000Y3850592D01*
X19061000Y5801407D01*
X21071000Y5801407D01*
X21071000Y3850592D01*
X21093211Y3625087D01*
X21180984Y3335739D01*
X21323520Y3069073D01*
X21515340Y2835339D01*
X21749074Y2643519D01*
X22015740Y2500983D01*
X22305088Y2413210D01*
X22606000Y2383573D01*
X22906913Y2413210D01*
X23196261Y2500983D01*
X23462927Y2643519D01*
X23696661Y2835339D01*
X23888481Y3069073D01*
X24031017Y3335739D01*
X24118790Y3625087D01*
X24141000Y3850592D01*
X24141000Y5801408D01*
X24118790Y6026913D01*
X24031017Y6316261D01*
X23999086Y6376000D01*
X28433928Y6376000D01*
X28433928Y3276000D01*
X28450992Y3102746D01*
X28501528Y2936150D01*
X28583595Y2782614D01*
X28694038Y2648038D01*
X28828614Y2537595D01*
X28982150Y2455528D01*
X29148746Y2404992D01*
X29322000Y2387928D01*
X30622000Y2387928D01*
X30795254Y2404992D01*
X30961850Y2455528D01*
X31115386Y2537595D01*
X31249962Y2648038D01*
X31360405Y2782614D01*
X31442472Y2936150D01*
X31493008Y3102746D01*
X31510072Y3276000D01*
X31510072Y4699000D01*
X33517000Y4699000D01*
X33517000Y3799000D01*
X33571271Y3501977D01*
X33682446Y3221249D01*
X33846252Y2967604D01*
X34056394Y2750790D01*
X34304796Y2579138D01*
X34581913Y2459245D01*
X34687260Y2434964D01*
X34925000Y2555622D01*
X34925000Y4699000D01*
X35179000Y4699000D01*
X35179000Y2555622D01*
X35416740Y2434964D01*
X35522087Y2459245D01*
X35799204Y2579138D01*
X36047606Y2750790D01*
X36257748Y2967604D01*
X36421554Y3221249D01*
X36532729Y3501977D01*
X36587000Y3799000D01*
X36587000Y4699000D01*
X35179000Y4699000D01*
X34925000Y4699000D01*
X33517000Y4699000D01*
X31510072Y4699000D01*
X31510072Y5853000D01*
X33517000Y5853000D01*
X33517000Y4953000D01*
X34925000Y4953000D01*
X34925000Y7096378D01*
X35179000Y7096378D01*
X35179000Y4953000D01*
X36587000Y4953000D01*
X36587000Y5801407D01*
X38597000Y5801407D01*
X38597000Y3850592D01*
X38619211Y3625087D01*
X38706984Y3335739D01*
X38849520Y3069073D01*
X39041340Y2835339D01*
X39275074Y2643519D01*
X39541740Y2500983D01*
X39831088Y2413210D01*
X40132000Y2383573D01*
X40432913Y2413210D01*
X40722261Y2500983D01*
X40988927Y2643519D01*
X41222661Y2835339D01*
X41414481Y3069073D01*
X41557017Y3335739D01*
X41644790Y3625087D01*
X41667000Y3850592D01*
X41667000Y5801408D01*
X41644790Y6026913D01*
X41557017Y6316261D01*
X41414481Y6582927D01*
X41222661Y6816661D01*
X40988926Y7008481D01*
X40722260Y7151017D01*
X40432912Y7238790D01*
X40132000Y7268427D01*
X39831087Y7238790D01*
X39541739Y7151017D01*
X39275073Y7008481D01*
X39041339Y6816661D01*
X38849519Y6582926D01*
X38706983Y6316260D01*
X38619210Y6026912D01*
X38597000Y5801407D01*
X36587000Y5801407D01*
X36587000Y5853000D01*
X36532729Y6150023D01*
X36421554Y6430751D01*
X36257748Y6684396D01*
X36047606Y6901210D01*
X35799204Y7072862D01*
X35522087Y7192755D01*
X35416740Y7217036D01*
X35179000Y7096378D01*
X34925000Y7096378D01*
X34687260Y7217036D01*
X34581913Y7192755D01*
X34304796Y7072862D01*
X34056394Y6901210D01*
X33846252Y6684396D01*
X33682446Y6430751D01*
X33571271Y6150023D01*
X33517000Y5853000D01*
X31510072Y5853000D01*
X31510072Y6376000D01*
X31493008Y6549254D01*
X31442472Y6715850D01*
X31360405Y6869386D01*
X31249962Y7003962D01*
X31115386Y7114405D01*
X30961850Y7196472D01*
X30795254Y7247008D01*
X30622000Y7264072D01*
X29322000Y7264072D01*
X29148746Y7247008D01*
X28982150Y7196472D01*
X28828614Y7114405D01*
X28694038Y7003962D01*
X28583595Y6869386D01*
X28501528Y6715850D01*
X28450992Y6549254D01*
X28433928Y6376000D01*
X23999086Y6376000D01*
X23888481Y6582927D01*
X23696661Y6816661D01*
X23462926Y7008481D01*
X23196260Y7151017D01*
X22906912Y7238790D01*
X22606000Y7268427D01*
X22305087Y7238790D01*
X22015739Y7151017D01*
X21749073Y7008481D01*
X21515339Y6816661D01*
X21323519Y6582926D01*
X21180983Y6316260D01*
X21093210Y6026912D01*
X21071000Y5801407D01*
X19061000Y5801407D01*
X19061000Y5801408D01*
X19038790Y6026913D01*
X18951017Y6316261D01*
X18808481Y6582927D01*
X18616661Y6816661D01*
X18382926Y7008481D01*
X18116260Y7151017D01*
X17826912Y7238790D01*
X17526000Y7268427D01*
X17225087Y7238790D01*
X16935739Y7151017D01*
X16669073Y7008481D01*
X16435339Y6816661D01*
X16243519Y6582926D01*
X16100983Y6316260D01*
X16013210Y6026912D01*
X15991000Y5801407D01*
X13984072Y5801407D01*
X13984072Y6376000D01*
X13967008Y6549254D01*
X13916472Y6715850D01*
X13834405Y6869386D01*
X13723962Y7003962D01*
X13589386Y7114405D01*
X13435850Y7196472D01*
X13269254Y7247008D01*
X13096000Y7264072D01*
X11796000Y7264072D01*
X11622746Y7247008D01*
X11456150Y7196472D01*
X11302614Y7114405D01*
X11168038Y7003962D01*
X11057595Y6869386D01*
X10975528Y6715850D01*
X10924992Y6549254D01*
X10907928Y6376000D01*
X7239000Y6376000D01*
X7239000Y7366000D01*
X7236560Y7390776D01*
X7229333Y7414601D01*
X7217597Y7436557D01*
X7201803Y7455803D01*
X7182557Y7471597D01*
X7160601Y7483333D01*
X7136776Y7490560D01*
X7112000Y7493000D01*
X889000Y7493000D01*
X889000Y10009554D01*
X1358656Y9539897D01*
X1309000Y9290260D01*
X1309000Y8997740D01*
X1366068Y8710842D01*
X1478010Y8440589D01*
X1640525Y8197368D01*
X1847368Y7990525D01*
X2090589Y7828010D01*
X2360842Y7716068D01*
X2647740Y7659000D01*
X2940260Y7659000D01*
X3227158Y7716068D01*
X3497411Y7828010D01*
X3740632Y7990525D01*
X3872487Y8122380D01*
X3894498Y8049820D01*
X3953463Y7939506D01*
X4032815Y7842815D01*
X4129506Y7763463D01*
X4239820Y7704498D01*
X4359518Y7668188D01*
X4484000Y7655928D01*
X6184000Y7655928D01*
X6308482Y7668188D01*
X6428180Y7704498D01*
X6538494Y7763463D01*
X6635185Y7842815D01*
X6714537Y7939506D01*
X6773502Y8049820D01*
X6809812Y8169518D01*
X6822072Y8294000D01*
X6822072Y9994000D01*
X6809812Y10118482D01*
X6773502Y10238180D01*
X6714537Y10348494D01*
X6635185Y10445185D01*
X6629388Y10449942D01*
X7382447Y11203000D01*
X18251895Y11203000D01*
X18288000Y11199444D01*
X18324105Y11203000D01*
X18432085Y11213635D01*
X18570633Y11255663D01*
X18698320Y11323913D01*
X18810238Y11415762D01*
X18833258Y11443812D01*
X19416103Y12026656D01*
X19665740Y11977000D01*
X19958260Y11977000D01*
X20245158Y12034068D01*
X20515411Y12146010D01*
X20758632Y12308525D01*
X20965475Y12515368D01*
X21082000Y12689760D01*
X21198525Y12515368D01*
X21405368Y12308525D01*
X21648589Y12146010D01*
X21918842Y12034068D01*
X22205740Y11977000D01*
X22498260Y11977000D01*
X22785158Y12034068D01*
X23055411Y12146010D01*
X23298632Y12308525D01*
X23505475Y12515368D01*
X23667990Y12758589D01*
X23779932Y13028842D01*
X23837000Y13315740D01*
X23837000Y13608260D01*
X23779932Y13895158D01*
X23667990Y14165411D01*
X23505475Y14408632D01*
X23298632Y14615475D01*
X23055411Y14777990D01*
X22785158Y14889932D01*
X22498260Y14947000D01*
X22205740Y14947000D01*
X21956103Y14897344D01*
X21726112Y15127335D01*
X25235000Y15127335D01*
X25235000Y14844665D01*
X25290147Y14567426D01*
X25398320Y14306273D01*
X25555363Y14071241D01*
X25755241Y13871363D01*
X25990273Y13714320D01*
X26251426Y13606147D01*
X26528665Y13551000D01*
X26811335Y13551000D01*
X27088574Y13606147D01*
X27349727Y13714320D01*
X27584759Y13871363D01*
X27706694Y13993298D01*
X41096903Y13993298D01*
X41168486Y13749329D01*
X41423996Y13628429D01*
X41698184Y13559700D01*
X41980512Y13545783D01*
X42260130Y13587213D01*
X42526292Y13682397D01*
X42651514Y13749329D01*
X42723097Y13993298D01*
X41910000Y14806395D01*
X41096903Y13993298D01*
X27706694Y13993298D01*
X27784637Y14071241D01*
X27941680Y14306273D01*
X28049853Y14567426D01*
X28105000Y14844665D01*
X28105000Y14915488D01*
X40469783Y14915488D01*
X40511213Y14635870D01*
X40606397Y14369708D01*
X40673329Y14244486D01*
X40917298Y14172903D01*
X41730395Y14986000D01*
X40917298Y15799097D01*
X40673329Y15727514D01*
X40552429Y15472004D01*
X40483700Y15197816D01*
X40469783Y14915488D01*
X28105000Y14915488D01*
X28105000Y15127335D01*
X28049853Y15404574D01*
X27941680Y15665727D01*
X27784637Y15900759D01*
X27706694Y15978702D01*
X41096903Y15978702D01*
X41910000Y15165605D01*
X42723097Y15978702D01*
X42651514Y16222671D01*
X42396004Y16343571D01*
X42121816Y16412300D01*
X41839488Y16426217D01*
X41559870Y16384787D01*
X41293708Y16289603D01*
X41168486Y16222671D01*
X41096903Y15978702D01*
X27706694Y15978702D01*
X27584759Y16100637D01*
X27349727Y16257680D01*
X27088574Y16365853D01*
X26811335Y16421000D01*
X26528665Y16421000D01*
X26251426Y16365853D01*
X25990273Y16257680D01*
X25755241Y16100637D01*
X25555363Y15900759D01*
X25398320Y15665727D01*
X25290147Y15404574D01*
X25235000Y15127335D01*
X21726112Y15127335D01*
X20611258Y16242188D01*
X20588238Y16270238D01*
X20476320Y16362087D01*
X20348633Y16430337D01*
X20210085Y16472365D01*
X20102105Y16483000D01*
X20066000Y16486556D01*
X20029895Y16483000D01*
X7704447Y16483000D01*
X6929258Y17258188D01*
X6906238Y17286238D01*
X6822072Y17355311D01*
X6822072Y17438000D01*
X13243928Y17438000D01*
X13256188Y17313518D01*
X13292498Y17193820D01*
X13351463Y17083506D01*
X13430815Y16986815D01*
X13527506Y16907463D01*
X13637820Y16848498D01*
X13757518Y16812188D01*
X13882000Y16799928D01*
X14446250Y16803000D01*
X14605000Y16961750D01*
X14605000Y18161000D01*
X13405750Y18161000D01*
X13247000Y18002250D01*
X13243928Y17438000D01*
X6822072Y17438000D01*
X6822072Y17553000D01*
X10123895Y17553000D01*
X10160000Y17549444D01*
X10196105Y17553000D01*
X10304085Y17563635D01*
X10442633Y17605663D01*
X10570320Y17673913D01*
X10682238Y17765762D01*
X10705258Y17793812D01*
X12049446Y19138000D01*
X13243928Y19138000D01*
X13247000Y18573750D01*
X13405750Y18415000D01*
X14605000Y18415000D01*
X14605000Y19614250D01*
X14859000Y19614250D01*
X14859000Y18415000D01*
X14879000Y18415000D01*
X14879000Y18161000D01*
X14859000Y18161000D01*
X14859000Y16961750D01*
X15017750Y16803000D01*
X15582000Y16799928D01*
X15706482Y16812188D01*
X15826180Y16848498D01*
X15936494Y16907463D01*
X16033185Y16986815D01*
X16112537Y17083506D01*
X16171502Y17193820D01*
X16193513Y17266380D01*
X16325368Y17134525D01*
X16568589Y16972010D01*
X16838842Y16860068D01*
X17125740Y16803000D01*
X17418260Y16803000D01*
X17705158Y16860068D01*
X17975411Y16972010D01*
X18218632Y17134525D01*
X18425475Y17341368D01*
X18542000Y17515760D01*
X18658525Y17341368D01*
X18865368Y17134525D01*
X19108589Y16972010D01*
X19378842Y16860068D01*
X19665740Y16803000D01*
X19958260Y16803000D01*
X20245158Y16860068D01*
X20515411Y16972010D01*
X20758632Y17134525D01*
X20965475Y17341368D01*
X21082000Y17515760D01*
X21198525Y17341368D01*
X21405368Y17134525D01*
X21648589Y16972010D01*
X21918842Y16860068D01*
X22205740Y16803000D01*
X22498260Y16803000D01*
X22785158Y16860068D01*
X23055411Y16972010D01*
X23298632Y17134525D01*
X23505475Y17341368D01*
X23667990Y17584589D01*
X23779932Y17854842D01*
X23837000Y18141740D01*
X23837000Y18434260D01*
X23787456Y18683335D01*
X25235000Y18683335D01*
X25235000Y18400665D01*
X25290147Y18123426D01*
X25398320Y17862273D01*
X25555363Y17627241D01*
X25755241Y17427363D01*
X25990273Y17270320D01*
X26251426Y17162147D01*
X26528665Y17107000D01*
X26811335Y17107000D01*
X27088574Y17162147D01*
X27349727Y17270320D01*
X27584759Y17427363D01*
X27706694Y17549298D01*
X41096903Y17549298D01*
X41168486Y17305329D01*
X41423996Y17184429D01*
X41698184Y17115700D01*
X41980512Y17101783D01*
X42260130Y17143213D01*
X42526292Y17238397D01*
X42651514Y17305329D01*
X42723097Y17549298D01*
X41910000Y18362395D01*
X41096903Y17549298D01*
X27706694Y17549298D01*
X27784637Y17627241D01*
X27941680Y17862273D01*
X28049853Y18123426D01*
X28105000Y18400665D01*
X28105000Y18471488D01*
X40469783Y18471488D01*
X40511213Y18191870D01*
X40606397Y17925708D01*
X40673329Y17800486D01*
X40917298Y17728903D01*
X41730395Y18542000D01*
X40917298Y19355097D01*
X40673329Y19283514D01*
X40552429Y19028004D01*
X40483700Y18753816D01*
X40469783Y18471488D01*
X28105000Y18471488D01*
X28105000Y18683335D01*
X28049853Y18960574D01*
X27941680Y19221727D01*
X27784637Y19456759D01*
X27706694Y19534702D01*
X41096903Y19534702D01*
X41910000Y18721605D01*
X42723097Y19534702D01*
X42651514Y19778671D01*
X42396004Y19899571D01*
X42121816Y19968300D01*
X41839488Y19982217D01*
X41559870Y19940787D01*
X41293708Y19845603D01*
X41168486Y19778671D01*
X41096903Y19534702D01*
X27706694Y19534702D01*
X27584759Y19656637D01*
X27349727Y19813680D01*
X27088574Y19921853D01*
X26811335Y19977000D01*
X26528665Y19977000D01*
X26251426Y19921853D01*
X25990273Y19813680D01*
X25755241Y19656637D01*
X25555363Y19456759D01*
X25398320Y19221727D01*
X25290147Y18960574D01*
X25235000Y18683335D01*
X23787456Y18683335D01*
X23779932Y18721158D01*
X23667990Y18991411D01*
X23505475Y19234632D01*
X23298632Y19441475D01*
X23055411Y19603990D01*
X22785158Y19715932D01*
X22498260Y19773000D01*
X22205740Y19773000D01*
X21918842Y19715932D01*
X21648589Y19603990D01*
X21405368Y19441475D01*
X21198525Y19234632D01*
X21082000Y19060240D01*
X20965475Y19234632D01*
X20758632Y19441475D01*
X20515411Y19603990D01*
X20245158Y19715932D01*
X19958260Y19773000D01*
X19665740Y19773000D01*
X19378842Y19715932D01*
X19108589Y19603990D01*
X18865368Y19441475D01*
X18658525Y19234632D01*
X18542000Y19060240D01*
X18425475Y19234632D01*
X18218632Y19441475D01*
X17975411Y19603990D01*
X17705158Y19715932D01*
X17418260Y19773000D01*
X17125740Y19773000D01*
X16838842Y19715932D01*
X16568589Y19603990D01*
X16325368Y19441475D01*
X16193513Y19309620D01*
X16171502Y19382180D01*
X16112537Y19492494D01*
X16033185Y19589185D01*
X15936494Y19668537D01*
X15826180Y19727502D01*
X15706482Y19763812D01*
X15582000Y19776072D01*
X15017750Y19773000D01*
X14859000Y19614250D01*
X14605000Y19614250D01*
X14446250Y19773000D01*
X13882000Y19776072D01*
X13757518Y19763812D01*
X13637820Y19727502D01*
X13527506Y19668537D01*
X13430815Y19589185D01*
X13351463Y19492494D01*
X13292498Y19382180D01*
X13256188Y19262482D01*
X13243928Y19138000D01*
X12049446Y19138000D01*
X12432197Y19520750D01*
X12460237Y19543762D01*
X12483250Y19571803D01*
X12483253Y19571806D01*
X12552087Y19655680D01*
X12620337Y19783366D01*
X12662365Y19921915D01*
X12676556Y20066000D01*
X12673000Y20102105D01*
X12673000Y49413554D01*
X13054103Y49794656D01*
X13303740Y49745000D01*
X13596260Y49745000D01*
X13883158Y49802068D01*
X14153411Y49914010D01*
X14396632Y50076525D01*
X14603475Y50283368D01*
X14720000Y50457760D01*
X14836525Y50283368D01*
X15043368Y50076525D01*
X15286589Y49914010D01*
X15556842Y49802068D01*
X15843740Y49745000D01*
X16136260Y49745000D01*
X16423158Y49802068D01*
X16693411Y49914010D01*
X16936632Y50076525D01*
X17143475Y50283368D01*
X17260000Y50457760D01*
X17376525Y50283368D01*
X17583368Y50076525D01*
X17826589Y49914010D01*
X18096842Y49802068D01*
X18383740Y49745000D01*
X18676260Y49745000D01*
X18963158Y49802068D01*
X19233411Y49914010D01*
X19476632Y50076525D01*
X19683475Y50283368D01*
X19800000Y50457760D01*
X19916525Y50283368D01*
X20123368Y50076525D01*
X20366589Y49914010D01*
X20636842Y49802068D01*
X20923740Y49745000D01*
X21216260Y49745000D01*
X21503158Y49802068D01*
X21773411Y49914010D01*
X22016632Y50076525D01*
X22223475Y50283368D01*
X22340000Y50457760D01*
X22456525Y50283368D01*
X22663368Y50076525D01*
X22906589Y49914010D01*
X23176842Y49802068D01*
X23463740Y49745000D01*
X23756260Y49745000D01*
X24043158Y49802068D01*
X24313411Y49914010D01*
X24556632Y50076525D01*
X24763475Y50283368D01*
X24880000Y50457760D01*
X24996525Y50283368D01*
X25203368Y50076525D01*
X25446589Y49914010D01*
X25716842Y49802068D01*
X26003740Y49745000D01*
X26296260Y49745000D01*
X26583158Y49802068D01*
X26853411Y49914010D01*
X27096632Y50076525D01*
X27303475Y50283368D01*
X27425195Y50465534D01*
X27494822Y50348645D01*
X27689731Y50132412D01*
X27923080Y49958359D01*
X28185901Y49833175D01*
X28333110Y49788524D01*
X28563000Y49909845D01*
X28563000Y51103000D01*
X28543000Y51103000D01*
X28543000Y51357000D01*
X28563000Y51357000D01*
X28563000Y51377000D01*
X28817000Y51377000D01*
X28817000Y51357000D01*
G37*
X28817000Y51357000D02*
X28837000Y51357000D01*
X28837000Y51103000D01*
X28817000Y51103000D01*
X28817000Y49909845D01*
X29046890Y49788524D01*
X29194099Y49833175D01*
X29456920Y49958359D01*
X29690269Y50132412D01*
X29885178Y50348645D01*
X29954805Y50465534D01*
X30076525Y50283368D01*
X30283368Y50076525D01*
X30526589Y49914010D01*
X30796842Y49802068D01*
X31083740Y49745000D01*
X31376260Y49745000D01*
X31663158Y49802068D01*
X31933411Y49914010D01*
X32176632Y50076525D01*
X32383475Y50283368D01*
X32500000Y50457760D01*
X32616525Y50283368D01*
X32823368Y50076525D01*
X33066589Y49914010D01*
X33336842Y49802068D01*
X33623740Y49745000D01*
X33916260Y49745000D01*
X34203158Y49802068D01*
X34473411Y49914010D01*
X34716632Y50076525D01*
X34923475Y50283368D01*
X35040000Y50457760D01*
X35156525Y50283368D01*
X35363368Y50076525D01*
X35606589Y49914010D01*
X35876842Y49802068D01*
X36163740Y49745000D01*
X36456260Y49745000D01*
X36743158Y49802068D01*
X37013411Y49914010D01*
X37256632Y50076525D01*
X37463475Y50283368D01*
X37580000Y50457760D01*
X37696525Y50283368D01*
X37903368Y50076525D01*
X38146589Y49914010D01*
X38416842Y49802068D01*
X38703740Y49745000D01*
X38996260Y49745000D01*
X39283158Y49802068D01*
X39553411Y49914010D01*
X39796632Y50076525D01*
X40003475Y50283368D01*
X40120000Y50457760D01*
X40236525Y50283368D01*
X40443368Y50076525D01*
X40686589Y49914010D01*
X40956842Y49802068D01*
X41243740Y49745000D01*
X41536260Y49745000D01*
X41823158Y49802068D01*
X42093411Y49914010D01*
X42336632Y50076525D01*
X42543475Y50283368D01*
X42660000Y50457760D01*
X42776525Y50283368D01*
X42983368Y50076525D01*
X43226589Y49914010D01*
X43496842Y49802068D01*
X43783740Y49745000D01*
X44076260Y49745000D01*
X44363158Y49802068D01*
X44633411Y49914010D01*
X44876632Y50076525D01*
X45083475Y50283368D01*
X45200000Y50457760D01*
X45316525Y50283368D01*
X45523368Y50076525D01*
X45766589Y49914010D01*
X46036842Y49802068D01*
X46323740Y49745000D01*
X46616260Y49745000D01*
X46903158Y49802068D01*
X47173411Y49914010D01*
X47416632Y50076525D01*
X47623475Y50283368D01*
X47740000Y50457760D01*
X47856525Y50283368D01*
X48063368Y50076525D01*
X48306589Y49914010D01*
X48576842Y49802068D01*
X48863740Y49745000D01*
X49156260Y49745000D01*
X49443158Y49802068D01*
X49713411Y49914010D01*
X49956632Y50076525D01*
X50163475Y50283368D01*
X50280000Y50457760D01*
X50396525Y50283368D01*
X50603368Y50076525D01*
X50846589Y49914010D01*
X51116842Y49802068D01*
X51403740Y49745000D01*
X51696260Y49745000D01*
X51983158Y49802068D01*
X52253411Y49914010D01*
X52496632Y50076525D01*
X52703475Y50283368D01*
X52820000Y50457760D01*
X52936525Y50283368D01*
X53143368Y50076525D01*
X53386589Y49914010D01*
X53656842Y49802068D01*
X53943740Y49745000D01*
X54236260Y49745000D01*
X54523158Y49802068D01*
X54793411Y49914010D01*
X55036632Y50076525D01*
X55243475Y50283368D01*
X55360000Y50457760D01*
X55476525Y50283368D01*
X55683368Y50076525D01*
X55926589Y49914010D01*
X56196842Y49802068D01*
X56483740Y49745000D01*
X56776260Y49745000D01*
X57063158Y49802068D01*
X57333411Y49914010D01*
X57355001Y49928436D01*
X57355001Y49404390D01*
X57350235Y49356000D01*
X57369253Y49162907D01*
X57425576Y48977234D01*
X57425577Y48977233D01*
X57517041Y48806116D01*
X57640131Y48656130D01*
X57677711Y48625289D01*
X57934650Y48368350D01*
X57758510Y48333314D01*
X57504273Y48228005D01*
X57275465Y48075120D01*
X57080880Y47880535D01*
X56927995Y47651727D01*
X56896000Y47574485D01*
X56864005Y47651727D01*
X56711120Y47880535D01*
X56516535Y48075120D01*
X56287727Y48228005D01*
X56033490Y48333314D01*
X55763592Y48387000D01*
X55488408Y48387000D01*
X55218510Y48333314D01*
X54964273Y48228005D01*
X54735465Y48075120D01*
X54540880Y47880535D01*
X54387995Y47651727D01*
X54356000Y47574485D01*
X54324005Y47651727D01*
X54171120Y47880535D01*
X53976535Y48075120D01*
X53747727Y48228005D01*
X53493490Y48333314D01*
X53223592Y48387000D01*
X52948408Y48387000D01*
X52678510Y48333314D01*
X52424273Y48228005D01*
X52195465Y48075120D01*
X52000880Y47880535D01*
X51847995Y47651727D01*
X51816000Y47574485D01*
X51784005Y47651727D01*
X51631120Y47880535D01*
X51436535Y48075120D01*
X51207727Y48228005D01*
X50953490Y48333314D01*
X50683592Y48387000D01*
X50408408Y48387000D01*
X50138510Y48333314D01*
X49884273Y48228005D01*
X49655465Y48075120D01*
X49460880Y47880535D01*
X49307995Y47651727D01*
X49276000Y47574485D01*
X49244005Y47651727D01*
X49091120Y47880535D01*
X48896535Y48075120D01*
X48667727Y48228005D01*
X48413490Y48333314D01*
X48143592Y48387000D01*
X47868408Y48387000D01*
X47598510Y48333314D01*
X47344273Y48228005D01*
X47115465Y48075120D01*
X46920880Y47880535D01*
X46767995Y47651727D01*
X46736000Y47574485D01*
X46704005Y47651727D01*
X46551120Y47880535D01*
X46356535Y48075120D01*
X46127727Y48228005D01*
X45873490Y48333314D01*
X45603592Y48387000D01*
X45328408Y48387000D01*
X45058510Y48333314D01*
X44804273Y48228005D01*
X44575465Y48075120D01*
X44380880Y47880535D01*
X44227995Y47651727D01*
X44196000Y47574485D01*
X44164005Y47651727D01*
X44011120Y47880535D01*
X43816535Y48075120D01*
X43587727Y48228005D01*
X43333490Y48333314D01*
X43063592Y48387000D01*
X42788408Y48387000D01*
X42518510Y48333314D01*
X42264273Y48228005D01*
X42035465Y48075120D01*
X41840880Y47880535D01*
X41687995Y47651727D01*
X41656000Y47574485D01*
X41624005Y47651727D01*
X41471120Y47880535D01*
X41276535Y48075120D01*
X41047727Y48228005D01*
X40793490Y48333314D01*
X40523592Y48387000D01*
X40248408Y48387000D01*
X39978510Y48333314D01*
X39724273Y48228005D01*
X39495465Y48075120D01*
X39300880Y47880535D01*
X39147995Y47651727D01*
X39116000Y47574485D01*
X39084005Y47651727D01*
X38931120Y47880535D01*
X38736535Y48075120D01*
X38507727Y48228005D01*
X38253490Y48333314D01*
X37983592Y48387000D01*
X37708408Y48387000D01*
X37438510Y48333314D01*
X37184273Y48228005D01*
X36955465Y48075120D01*
X36760880Y47880535D01*
X36607995Y47651727D01*
X36576000Y47574485D01*
X36544005Y47651727D01*
X36391120Y47880535D01*
X36196535Y48075120D01*
X35967727Y48228005D01*
X35713490Y48333314D01*
X35443592Y48387000D01*
X35168408Y48387000D01*
X34898510Y48333314D01*
X34644273Y48228005D01*
X34415465Y48075120D01*
X34220880Y47880535D01*
X34067995Y47651727D01*
X34036000Y47574485D01*
X34004005Y47651727D01*
X33851120Y47880535D01*
X33656535Y48075120D01*
X33427727Y48228005D01*
X33173490Y48333314D01*
X32903592Y48387000D01*
X32628408Y48387000D01*
X32358510Y48333314D01*
X32104273Y48228005D01*
X31875465Y48075120D01*
X31680880Y47880535D01*
X31527995Y47651727D01*
X31496000Y47574485D01*
X31464005Y47651727D01*
X31311120Y47880535D01*
X31116535Y48075120D01*
X30887727Y48228005D01*
X30633490Y48333314D01*
X30363592Y48387000D01*
X30088408Y48387000D01*
X29818510Y48333314D01*
X29564273Y48228005D01*
X29335465Y48075120D01*
X29140880Y47880535D01*
X28987995Y47651727D01*
X28956000Y47574485D01*
X28924005Y47651727D01*
X28771120Y47880535D01*
X28576535Y48075120D01*
X28347727Y48228005D01*
X28093490Y48333314D01*
X27823592Y48387000D01*
X27548408Y48387000D01*
X27278510Y48333314D01*
X27024273Y48228005D01*
X26795465Y48075120D01*
X26600880Y47880535D01*
X26447995Y47651727D01*
X26416000Y47574485D01*
X26384005Y47651727D01*
X26231120Y47880535D01*
X26036535Y48075120D01*
X25807727Y48228005D01*
X25553490Y48333314D01*
X25283592Y48387000D01*
X25008408Y48387000D01*
X24738510Y48333314D01*
X24484273Y48228005D01*
X24255465Y48075120D01*
X24060880Y47880535D01*
X23907995Y47651727D01*
X23876000Y47574485D01*
X23844005Y47651727D01*
X23691120Y47880535D01*
X23496535Y48075120D01*
X23267727Y48228005D01*
X23013490Y48333314D01*
X22743592Y48387000D01*
X22468408Y48387000D01*
X22198510Y48333314D01*
X21944273Y48228005D01*
X21715465Y48075120D01*
X21520880Y47880535D01*
X21367995Y47651727D01*
X21336000Y47574485D01*
X21304005Y47651727D01*
X21151120Y47880535D01*
X20956535Y48075120D01*
X20727727Y48228005D01*
X20473490Y48333314D01*
X20203592Y48387000D01*
X19928408Y48387000D01*
X19658510Y48333314D01*
X19404273Y48228005D01*
X19175465Y48075120D01*
X18980880Y47880535D01*
X18827995Y47651727D01*
X18796000Y47574485D01*
X18764005Y47651727D01*
X18611120Y47880535D01*
X18416535Y48075120D01*
X18187727Y48228005D01*
X17933490Y48333314D01*
X17663592Y48387000D01*
X17388408Y48387000D01*
X17118510Y48333314D01*
X16864273Y48228005D01*
X16635465Y48075120D01*
X16440880Y47880535D01*
X16287995Y47651727D01*
X16256000Y47574485D01*
X16224005Y47651727D01*
X16071120Y47880535D01*
X15876535Y48075120D01*
X15647727Y48228005D01*
X15393490Y48333314D01*
X15123592Y48387000D01*
X14848408Y48387000D01*
X14578510Y48333314D01*
X14324273Y48228005D01*
X14095465Y48075120D01*
X13900880Y47880535D01*
X13747995Y47651727D01*
X13642686Y47397490D01*
X13589000Y47127592D01*
X13589000Y46852408D01*
X13642686Y46582510D01*
X13747995Y46328273D01*
X13900880Y46099465D01*
X14095465Y45904880D01*
X14324273Y45751995D01*
X14578510Y45646686D01*
X14848408Y45593000D01*
X15123592Y45593000D01*
X15393490Y45646686D01*
X15647727Y45751995D01*
X15876535Y45904880D01*
X16071120Y46099465D01*
X16224005Y46328273D01*
X16256000Y46405515D01*
X16287995Y46328273D01*
X16440880Y46099465D01*
X16635465Y45904880D01*
X16864273Y45751995D01*
X17118510Y45646686D01*
X17388408Y45593000D01*
X17663592Y45593000D01*
X17933490Y45646686D01*
X18187727Y45751995D01*
X18416535Y45904880D01*
X18611120Y46099465D01*
X18764005Y46328273D01*
X18796000Y46405515D01*
X18827995Y46328273D01*
X18980880Y46099465D01*
X19175465Y45904880D01*
X19404273Y45751995D01*
X19658510Y45646686D01*
X19928408Y45593000D01*
X20203592Y45593000D01*
X20473490Y45646686D01*
X20727727Y45751995D01*
X20956535Y45904880D01*
X21151120Y46099465D01*
X21304005Y46328273D01*
X21336000Y46405515D01*
X21367995Y46328273D01*
X21520880Y46099465D01*
X21715465Y45904880D01*
X21944273Y45751995D01*
X22198510Y45646686D01*
X22468408Y45593000D01*
X22743592Y45593000D01*
X23013490Y45646686D01*
X23267727Y45751995D01*
X23496535Y45904880D01*
X23691120Y46099465D01*
X23844005Y46328273D01*
X23876000Y46405515D01*
X23907995Y46328273D01*
X24060880Y46099465D01*
X24255465Y45904880D01*
X24484273Y45751995D01*
X24738510Y45646686D01*
X25008408Y45593000D01*
X25283592Y45593000D01*
X25553490Y45646686D01*
X25807727Y45751995D01*
X26036535Y45904880D01*
X26231120Y46099465D01*
X26384005Y46328273D01*
X26416000Y46405515D01*
X26447995Y46328273D01*
X26600880Y46099465D01*
X26795465Y45904880D01*
X27024273Y45751995D01*
X27278510Y45646686D01*
X27548408Y45593000D01*
X27823592Y45593000D01*
X28093490Y45646686D01*
X28347727Y45751995D01*
X28576535Y45904880D01*
X28771120Y46099465D01*
X28924005Y46328273D01*
X28956000Y46405515D01*
X28987995Y46328273D01*
X29140880Y46099465D01*
X29335465Y45904880D01*
X29564273Y45751995D01*
X29818510Y45646686D01*
X30088408Y45593000D01*
X30363592Y45593000D01*
X30633490Y45646686D01*
X30887727Y45751995D01*
X31116535Y45904880D01*
X31311120Y46099465D01*
X31464005Y46328273D01*
X31496000Y46405515D01*
X31527995Y46328273D01*
X31680880Y46099465D01*
X31875465Y45904880D01*
X32104273Y45751995D01*
X32358510Y45646686D01*
X32628408Y45593000D01*
X32903592Y45593000D01*
X33173490Y45646686D01*
X33427727Y45751995D01*
X33656535Y45904880D01*
X33851120Y46099465D01*
X34004005Y46328273D01*
X34036000Y46405515D01*
X34067995Y46328273D01*
X34220880Y46099465D01*
X34415465Y45904880D01*
X34644273Y45751995D01*
X34898510Y45646686D01*
X35168408Y45593000D01*
X35443592Y45593000D01*
X35713490Y45646686D01*
X35967727Y45751995D01*
X36196535Y45904880D01*
X36391120Y46099465D01*
X36544005Y46328273D01*
X36576000Y46405515D01*
X36607995Y46328273D01*
X36760880Y46099465D01*
X36955465Y45904880D01*
X37184273Y45751995D01*
X37438510Y45646686D01*
X37708408Y45593000D01*
X37983592Y45593000D01*
X38253490Y45646686D01*
X38507727Y45751995D01*
X38736535Y45904880D01*
X38931120Y46099465D01*
X39084005Y46328273D01*
X39116000Y46405515D01*
X39147995Y46328273D01*
X39300880Y46099465D01*
X39495465Y45904880D01*
X39724273Y45751995D01*
X39978510Y45646686D01*
X40248408Y45593000D01*
X40523592Y45593000D01*
X40793490Y45646686D01*
X41047727Y45751995D01*
X41276535Y45904880D01*
X41471120Y46099465D01*
X41624005Y46328273D01*
X41656000Y46405515D01*
X41687995Y46328273D01*
X41840880Y46099465D01*
X42035465Y45904880D01*
X42264273Y45751995D01*
X42518510Y45646686D01*
X42788408Y45593000D01*
X43063592Y45593000D01*
X43333490Y45646686D01*
X43587727Y45751995D01*
X43816535Y45904880D01*
X44011120Y46099465D01*
X44164005Y46328273D01*
X44196000Y46405515D01*
X44227995Y46328273D01*
X44380880Y46099465D01*
X44575465Y45904880D01*
X44804273Y45751995D01*
X45058510Y45646686D01*
X45328408Y45593000D01*
X45603592Y45593000D01*
X45873490Y45646686D01*
X46127727Y45751995D01*
X46356535Y45904880D01*
X46551120Y46099465D01*
X46704005Y46328273D01*
X46736000Y46405515D01*
X46767995Y46328273D01*
X46920880Y46099465D01*
X47115465Y45904880D01*
X47344273Y45751995D01*
X47598510Y45646686D01*
X47868408Y45593000D01*
X48143592Y45593000D01*
X48413490Y45646686D01*
X48667727Y45751995D01*
X48896535Y45904880D01*
X49091120Y46099465D01*
X49244005Y46328273D01*
X49276000Y46405515D01*
X49307995Y46328273D01*
X49460880Y46099465D01*
X49655465Y45904880D01*
X49884273Y45751995D01*
X50138510Y45646686D01*
X50408408Y45593000D01*
X50683592Y45593000D01*
X50953490Y45646686D01*
X51207727Y45751995D01*
X51436535Y45904880D01*
X51631120Y46099465D01*
X51784005Y46328273D01*
X51816000Y46405515D01*
X51847995Y46328273D01*
X52000880Y46099465D01*
X52195465Y45904880D01*
X52424273Y45751995D01*
X52678510Y45646686D01*
X52948408Y45593000D01*
X53223592Y45593000D01*
X53493490Y45646686D01*
X53747727Y45751995D01*
X53976535Y45904880D01*
X54171120Y46099465D01*
X54324005Y46328273D01*
X54356000Y46405515D01*
X54387995Y46328273D01*
X54540880Y46099465D01*
X54735465Y45904880D01*
X54964273Y45751995D01*
X55218510Y45646686D01*
X55488408Y45593000D01*
X55763592Y45593000D01*
X56033490Y45646686D01*
X56287727Y45751995D01*
X56516535Y45904880D01*
X56711120Y46099465D01*
X56864005Y46328273D01*
X56896000Y46405515D01*
X56927995Y46328273D01*
X57080880Y46099465D01*
X57275465Y45904880D01*
X57431000Y45800955D01*
X57431001Y24239546D01*
X57275465Y24135620D01*
X57080880Y23941035D01*
X56927995Y23712227D01*
X56896000Y23634985D01*
X56864005Y23712227D01*
X56711120Y23941035D01*
X56516535Y24135620D01*
X56287727Y24288505D01*
X56033490Y24393814D01*
X55763592Y24447500D01*
X55488408Y24447500D01*
X55218510Y24393814D01*
X54964273Y24288505D01*
X54735465Y24135620D01*
X54540880Y23941035D01*
X54387995Y23712227D01*
X54387750Y23711636D01*
X54387505Y23712227D01*
X54234620Y23941035D01*
X54040035Y24135620D01*
X53811227Y24288505D01*
X53556990Y24393814D01*
X53287092Y24447500D01*
X53011908Y24447500D01*
X52742010Y24393814D01*
X52487773Y24288505D01*
X52258965Y24135620D01*
X52064380Y23941035D01*
X51911495Y23712227D01*
X51879500Y23634985D01*
X51847505Y23712227D01*
X51694620Y23941035D01*
X51500035Y24135620D01*
X51271227Y24288505D01*
X51016990Y24393814D01*
X50747092Y24447500D01*
X50471908Y24447500D01*
X50202010Y24393814D01*
X49947773Y24288505D01*
X49718965Y24135620D01*
X49524380Y23941035D01*
X49371495Y23712227D01*
X49339500Y23634985D01*
X49307505Y23712227D01*
X49154620Y23941035D01*
X48960035Y24135620D01*
X48731227Y24288505D01*
X48476990Y24393814D01*
X48207092Y24447500D01*
X47931908Y24447500D01*
X47662010Y24393814D01*
X47407773Y24288505D01*
X47178965Y24135620D01*
X46984380Y23941035D01*
X46831495Y23712227D01*
X46799500Y23634985D01*
X46767505Y23712227D01*
X46614620Y23941035D01*
X46420035Y24135620D01*
X46191227Y24288505D01*
X45936990Y24393814D01*
X45667092Y24447500D01*
X45391908Y24447500D01*
X45122010Y24393814D01*
X44867773Y24288505D01*
X44638965Y24135620D01*
X44444380Y23941035D01*
X44291495Y23712227D01*
X44259500Y23634985D01*
X44227505Y23712227D01*
X44074620Y23941035D01*
X43880035Y24135620D01*
X43651227Y24288505D01*
X43396990Y24393814D01*
X43127092Y24447500D01*
X42851908Y24447500D01*
X42582010Y24393814D01*
X42327773Y24288505D01*
X42098965Y24135620D01*
X41904380Y23941035D01*
X41751495Y23712227D01*
X41719500Y23634985D01*
X41687505Y23712227D01*
X41534620Y23941035D01*
X41340035Y24135620D01*
X41111227Y24288505D01*
X40856990Y24393814D01*
X40587092Y24447500D01*
X40311908Y24447500D01*
X40042010Y24393814D01*
X39787773Y24288505D01*
X39558965Y24135620D01*
X39364380Y23941035D01*
X39211495Y23712227D01*
X39179500Y23634985D01*
X39147505Y23712227D01*
X38994620Y23941035D01*
X38800035Y24135620D01*
X38571227Y24288505D01*
X38316990Y24393814D01*
X38047092Y24447500D01*
X37771908Y24447500D01*
X37502010Y24393814D01*
X37247773Y24288505D01*
X37018965Y24135620D01*
X36824380Y23941035D01*
X36671495Y23712227D01*
X36607750Y23558334D01*
X36544005Y23712227D01*
X36391120Y23941035D01*
X36196535Y24135620D01*
X35967727Y24288505D01*
X35713490Y24393814D01*
X35443592Y24447500D01*
X35168408Y24447500D01*
X34898510Y24393814D01*
X34644273Y24288505D01*
X34415465Y24135620D01*
X34220880Y23941035D01*
X34067995Y23712227D01*
X34036000Y23634985D01*
X34004005Y23712227D01*
X33851120Y23941035D01*
X33656535Y24135620D01*
X33427727Y24288505D01*
X33173490Y24393814D01*
X32903592Y24447500D01*
X32628408Y24447500D01*
X32358510Y24393814D01*
X32104273Y24288505D01*
X31875465Y24135620D01*
X31680880Y23941035D01*
X31527995Y23712227D01*
X31496000Y23634985D01*
X31464005Y23712227D01*
X31311120Y23941035D01*
X31116535Y24135620D01*
X30887727Y24288505D01*
X30633490Y24393814D01*
X30363592Y24447500D01*
X30088408Y24447500D01*
X29818510Y24393814D01*
X29564273Y24288505D01*
X29335465Y24135620D01*
X29140880Y23941035D01*
X28987995Y23712227D01*
X28956000Y23634985D01*
X28924005Y23712227D01*
X28771120Y23941035D01*
X28576535Y24135620D01*
X28347727Y24288505D01*
X28093490Y24393814D01*
X27823592Y24447500D01*
X27548408Y24447500D01*
X27278510Y24393814D01*
X27024273Y24288505D01*
X26795465Y24135620D01*
X26600880Y23941035D01*
X26447995Y23712227D01*
X26416000Y23634985D01*
X26384005Y23712227D01*
X26231120Y23941035D01*
X26036535Y24135620D01*
X25807727Y24288505D01*
X25553490Y24393814D01*
X25283592Y24447500D01*
X25008408Y24447500D01*
X24738510Y24393814D01*
X24484273Y24288505D01*
X24255465Y24135620D01*
X24060880Y23941035D01*
X23907995Y23712227D01*
X23876000Y23634985D01*
X23844005Y23712227D01*
X23691120Y23941035D01*
X23496535Y24135620D01*
X23267727Y24288505D01*
X23013490Y24393814D01*
X22743592Y24447500D01*
X22468408Y24447500D01*
X22198510Y24393814D01*
X21944273Y24288505D01*
X21715465Y24135620D01*
X21520880Y23941035D01*
X21367995Y23712227D01*
X21336000Y23634985D01*
X21304005Y23712227D01*
X21151120Y23941035D01*
X20956535Y24135620D01*
X20727727Y24288505D01*
X20473490Y24393814D01*
X20203592Y24447500D01*
X19928408Y24447500D01*
X19658510Y24393814D01*
X19404273Y24288505D01*
X19175465Y24135620D01*
X18980880Y23941035D01*
X18827995Y23712227D01*
X18796000Y23634985D01*
X18764005Y23712227D01*
X18611120Y23941035D01*
X18416535Y24135620D01*
X18187727Y24288505D01*
X17933490Y24393814D01*
X17663592Y24447500D01*
X17388408Y24447500D01*
X17118510Y24393814D01*
X16864273Y24288505D01*
X16635465Y24135620D01*
X16440880Y23941035D01*
X16287995Y23712227D01*
X16256000Y23634985D01*
X16224005Y23712227D01*
X16071120Y23941035D01*
X15876535Y24135620D01*
X15647727Y24288505D01*
X15393490Y24393814D01*
X15123592Y24447500D01*
X14848408Y24447500D01*
X14578510Y24393814D01*
X14324273Y24288505D01*
X14095465Y24135620D01*
X13900880Y23941035D01*
X13747995Y23712227D01*
X13642686Y23457990D01*
X13589000Y23188092D01*
X13589000Y22912908D01*
X13642686Y22643010D01*
X13747995Y22388773D01*
X13900880Y22159965D01*
X14095465Y21965380D01*
X14324273Y21812495D01*
X14578510Y21707186D01*
X14848408Y21653500D01*
X15123592Y21653500D01*
X15393490Y21707186D01*
X15647727Y21812495D01*
X15876535Y21965380D01*
X16071120Y22159965D01*
X16224005Y22388773D01*
X16256000Y22466015D01*
X16287995Y22388773D01*
X16440880Y22159965D01*
X16635465Y21965380D01*
X16864273Y21812495D01*
X17118510Y21707186D01*
X17388408Y21653500D01*
X17663592Y21653500D01*
X17933490Y21707186D01*
X18187727Y21812495D01*
X18416535Y21965380D01*
X18611120Y22159965D01*
X18764005Y22388773D01*
X18796000Y22466015D01*
X18827995Y22388773D01*
X18980880Y22159965D01*
X19175465Y21965380D01*
X19404273Y21812495D01*
X19658510Y21707186D01*
X19928408Y21653500D01*
X20203592Y21653500D01*
X20473490Y21707186D01*
X20727727Y21812495D01*
X20956535Y21965380D01*
X21151120Y22159965D01*
X21304005Y22388773D01*
X21336000Y22466015D01*
X21367995Y22388773D01*
X21520880Y22159965D01*
X21715465Y21965380D01*
X21944273Y21812495D01*
X22198510Y21707186D01*
X22468408Y21653500D01*
X22743592Y21653500D01*
X23013490Y21707186D01*
X23267727Y21812495D01*
X23496535Y21965380D01*
X23691120Y22159965D01*
X23844005Y22388773D01*
X23876000Y22466015D01*
X23907995Y22388773D01*
X24060880Y22159965D01*
X24255465Y21965380D01*
X24484273Y21812495D01*
X24738510Y21707186D01*
X25008408Y21653500D01*
X25283592Y21653500D01*
X25553490Y21707186D01*
X25807727Y21812495D01*
X26036535Y21965380D01*
X26231120Y22159965D01*
X26384005Y22388773D01*
X26416000Y22466015D01*
X26447995Y22388773D01*
X26600880Y22159965D01*
X26795465Y21965380D01*
X27024273Y21812495D01*
X27278510Y21707186D01*
X27548408Y21653500D01*
X27823592Y21653500D01*
X28093490Y21707186D01*
X28347727Y21812495D01*
X28576535Y21965380D01*
X28771120Y22159965D01*
X28924005Y22388773D01*
X28956000Y22466015D01*
X28987995Y22388773D01*
X29140880Y22159965D01*
X29335465Y21965380D01*
X29489277Y21862606D01*
X29487444Y21844000D01*
X29497065Y21746320D01*
X29501635Y21699916D01*
X29543663Y21561368D01*
X29611913Y21433681D01*
X29703762Y21321763D01*
X29731808Y21298746D01*
X30188746Y20841808D01*
X30211762Y20813762D01*
X30323680Y20721913D01*
X30451367Y20653663D01*
X30589915Y20611635D01*
X30697895Y20601000D01*
X30697904Y20601000D01*
X30733999Y20597445D01*
X30770094Y20601000D01*
X44270133Y20601000D01*
X44328668Y20542464D01*
X44295127Y20528913D01*
X44286682Y20524423D01*
X44115006Y20431598D01*
X44063532Y20396878D01*
X44011582Y20362883D01*
X44004170Y20356838D01*
X43853793Y20232435D01*
X43810027Y20188362D01*
X43765689Y20144943D01*
X43759592Y20137574D01*
X43636242Y19986332D01*
X43601881Y19934614D01*
X43566809Y19883393D01*
X43562260Y19874980D01*
X43470635Y19702657D01*
X43446978Y19645261D01*
X43422519Y19588193D01*
X43419690Y19579057D01*
X43363281Y19392220D01*
X43351219Y19331302D01*
X43338314Y19270590D01*
X43337314Y19261078D01*
X43318269Y19066845D01*
X43318269Y19066827D01*
X43315001Y19033647D01*
X43315001Y18850191D01*
X43308787Y18892130D01*
X43213603Y19158292D01*
X43146671Y19283514D01*
X42902702Y19355097D01*
X42089605Y18542000D01*
X42902702Y17728903D01*
X43146671Y17800486D01*
X43267571Y18055996D01*
X43315001Y18245213D01*
X43315001Y15294192D01*
X43308787Y15336130D01*
X43213603Y15602292D01*
X43146671Y15727514D01*
X42902702Y15799097D01*
X42089605Y14986000D01*
X42902702Y14172903D01*
X43146671Y14244486D01*
X43267571Y14499996D01*
X43315001Y14689212D01*
X43315000Y3966354D01*
X43318366Y3932179D01*
X43318366Y3919194D01*
X43319366Y3909682D01*
X43341121Y3715732D01*
X43354025Y3655024D01*
X43366089Y3594099D01*
X43368917Y3584962D01*
X43427930Y3398932D01*
X43452377Y3341895D01*
X43476046Y3284469D01*
X43480595Y3276056D01*
X43574617Y3105031D01*
X43609692Y3053806D01*
X43644050Y3002094D01*
X43650146Y2994724D01*
X43775596Y2845218D01*
X43819974Y2801760D01*
X43863703Y2757725D01*
X43871109Y2751685D01*
X43871113Y2751681D01*
X43871115Y2751680D01*
X44023214Y2629389D01*
X44075139Y2595411D01*
X44126632Y2560678D01*
X44135077Y2556188D01*
X44308033Y2465768D01*
X44365590Y2442513D01*
X44422835Y2418450D01*
X44431991Y2415685D01*
X44619217Y2360582D01*
X44680218Y2348946D01*
X44741015Y2336466D01*
X44750533Y2335532D01*
X44944895Y2317843D01*
X45006986Y2318277D01*
X45069066Y2317844D01*
X45078585Y2318777D01*
X45272682Y2339178D01*
X45333496Y2351661D01*
X45394481Y2363295D01*
X45403637Y2366059D01*
X45590075Y2423771D01*
X45647279Y2447818D01*
X45704873Y2471087D01*
X45713317Y2475577D01*
X45884994Y2568402D01*
X45936468Y2603122D01*
X45988418Y2637117D01*
X45995829Y2643161D01*
X46146207Y2767565D01*
X46189973Y2811638D01*
X46234311Y2855057D01*
X46240408Y2862426D01*
X46363758Y3013668D01*
X46398126Y3065397D01*
X46433191Y3116608D01*
X46437739Y3125019D01*
X46437740Y3125020D01*
X46437742Y3125024D01*
X46529366Y3297343D01*
X46553022Y3354739D01*
X46577482Y3411807D01*
X46580310Y3420944D01*
X46636719Y3607780D01*
X46648780Y3668690D01*
X46661686Y3729409D01*
X46662686Y3738921D01*
X46681731Y3933155D01*
X46681731Y3933163D01*
X46685000Y3966353D01*
X46685000Y7139554D01*
X47968746Y5855807D01*
X47991762Y5827762D01*
X48103680Y5735913D01*
X48231367Y5667663D01*
X48249000Y5662314D01*
X48249000Y5374593D01*
X48271210Y5149088D01*
X48358983Y4859740D01*
X48501519Y4593074D01*
X48693339Y4359339D01*
X48927073Y4167519D01*
X49193739Y4024983D01*
X49483087Y3937210D01*
X49784000Y3907573D01*
X50084912Y3937210D01*
X50374260Y4024983D01*
X50640926Y4167519D01*
X50874661Y4359339D01*
X51066481Y4593073D01*
X51209017Y4859739D01*
X51296790Y5149087D01*
X51319000Y5374592D01*
X51319000Y7325408D01*
X51296790Y7550913D01*
X51209017Y7840261D01*
X51177086Y7900000D01*
X53325928Y7900000D01*
X53325928Y4800000D01*
X53342992Y4626746D01*
X53393528Y4460150D01*
X53475595Y4306614D01*
X53586038Y4172038D01*
X53720614Y4061595D01*
X53874150Y3979528D01*
X54040746Y3928992D01*
X54214000Y3911928D01*
X55514000Y3911928D01*
X55687254Y3928992D01*
X55853850Y3979528D01*
X56007386Y4061595D01*
X56141962Y4172038D01*
X56252405Y4306614D01*
X56334472Y4460150D01*
X56385008Y4626746D01*
X56402072Y4800000D01*
X56402072Y7900000D01*
X56385008Y8073254D01*
X56334472Y8239850D01*
X56252405Y8393386D01*
X56141962Y8527962D01*
X56007386Y8638405D01*
X55853850Y8720472D01*
X55687254Y8771008D01*
X55514000Y8788072D01*
X54214000Y8788072D01*
X54040746Y8771008D01*
X53874150Y8720472D01*
X53720614Y8638405D01*
X53586038Y8527962D01*
X53475595Y8393386D01*
X53393528Y8239850D01*
X53342992Y8073254D01*
X53325928Y7900000D01*
X51177086Y7900000D01*
X51066481Y8106927D01*
X50874661Y8340661D01*
X50640927Y8532481D01*
X50374261Y8675017D01*
X50084913Y8762790D01*
X49784000Y8792427D01*
X49483088Y8762790D01*
X49193740Y8675017D01*
X48927074Y8532481D01*
X48693340Y8340661D01*
X48501520Y8106927D01*
X48358984Y7840261D01*
X48290138Y7613308D01*
X47217000Y8686446D01*
X47217000Y12221604D01*
X47345241Y12093363D01*
X47580273Y11936320D01*
X47841426Y11828147D01*
X48118665Y11773000D01*
X48401335Y11773000D01*
X48678574Y11828147D01*
X48939727Y11936320D01*
X49174759Y12093363D01*
X49374637Y12293241D01*
X49531680Y12528273D01*
X49639853Y12789426D01*
X49695000Y13066665D01*
X49695000Y13349335D01*
X49639853Y13626574D01*
X49531680Y13887727D01*
X49374637Y14122759D01*
X49174759Y14322637D01*
X48939727Y14479680D01*
X48678574Y14587853D01*
X48401335Y14643000D01*
X48118665Y14643000D01*
X47841426Y14587853D01*
X47580273Y14479680D01*
X47345241Y14322637D01*
X47217000Y14194396D01*
X47217000Y18693184D01*
X58663000Y18693184D01*
X58663000Y18390816D01*
X58721989Y18094257D01*
X58837701Y17814905D01*
X59005688Y17563495D01*
X59219495Y17349688D01*
X59470905Y17181701D01*
X59750257Y17065989D01*
X60046816Y17007000D01*
X60349184Y17007000D01*
X60645743Y17065989D01*
X60925095Y17181701D01*
X61176505Y17349688D01*
X61242944Y17416127D01*
X61248498Y17397820D01*
X61307463Y17287506D01*
X61386815Y17190815D01*
X61483506Y17111463D01*
X61593820Y17052498D01*
X61713518Y17016188D01*
X61838000Y17003928D01*
X63638000Y17003928D01*
X63762482Y17016188D01*
X63882180Y17052498D01*
X63992494Y17111463D01*
X64089185Y17190815D01*
X64168537Y17287506D01*
X64227502Y17397820D01*
X64263812Y17517518D01*
X64276072Y17642000D01*
X64276072Y19442000D01*
X64263812Y19566482D01*
X64227502Y19686180D01*
X64168537Y19796494D01*
X64089185Y19893185D01*
X63992494Y19972537D01*
X63882180Y20031502D01*
X63762482Y20067812D01*
X63638000Y20080072D01*
X61838000Y20080072D01*
X61713518Y20067812D01*
X61593820Y20031502D01*
X61483506Y19972537D01*
X61386815Y19893185D01*
X61307463Y19796494D01*
X61248498Y19686180D01*
X61242944Y19667873D01*
X61176505Y19734312D01*
X60925095Y19902299D01*
X60645743Y20018011D01*
X60349184Y20077000D01*
X60046816Y20077000D01*
X59750257Y20018011D01*
X59470905Y19902299D01*
X59219495Y19734312D01*
X59005688Y19520505D01*
X58837701Y19269095D01*
X58721989Y18989743D01*
X58663000Y18693184D01*
X47217000Y18693184D01*
X47217000Y19392474D01*
X47220556Y19428579D01*
X47206365Y19572664D01*
X47164337Y19711213D01*
X47096087Y19838899D01*
X47074078Y19865717D01*
X47004238Y19950817D01*
X46976193Y19973833D01*
X45272841Y21677184D01*
X45391908Y21653500D01*
X45667092Y21653500D01*
X45936990Y21707186D01*
X46191227Y21812495D01*
X46420035Y21965380D01*
X46614620Y22159965D01*
X46767505Y22388773D01*
X46799500Y22466015D01*
X46831495Y22388773D01*
X46984380Y22159965D01*
X47178965Y21965380D01*
X47407773Y21812495D01*
X47662010Y21707186D01*
X47931908Y21653500D01*
X48207092Y21653500D01*
X48476990Y21707186D01*
X48731227Y21812495D01*
X48960035Y21965380D01*
X49154620Y22159965D01*
X49307505Y22388773D01*
X49339500Y22466015D01*
X49371495Y22388773D01*
X49524380Y22159965D01*
X49718965Y21965380D01*
X49947773Y21812495D01*
X50202010Y21707186D01*
X50471908Y21653500D01*
X50747092Y21653500D01*
X51016990Y21707186D01*
X51271227Y21812495D01*
X51500035Y21965380D01*
X51694620Y22159965D01*
X51847505Y22388773D01*
X51879500Y22466015D01*
X51911495Y22388773D01*
X52064380Y22159965D01*
X52258965Y21965380D01*
X52487773Y21812495D01*
X52742010Y21707186D01*
X53011908Y21653500D01*
X53287092Y21653500D01*
X53556990Y21707186D01*
X53811227Y21812495D01*
X54040035Y21965380D01*
X54234620Y22159965D01*
X54387505Y22388773D01*
X54387750Y22389364D01*
X54387995Y22388773D01*
X54540880Y22159965D01*
X54735465Y21965380D01*
X54964273Y21812495D01*
X55218510Y21707186D01*
X55488408Y21653500D01*
X55763592Y21653500D01*
X56033490Y21707186D01*
X56287727Y21812495D01*
X56516535Y21965380D01*
X56711120Y22159965D01*
X56864005Y22388773D01*
X56896000Y22466015D01*
X56927995Y22388773D01*
X57080880Y22159965D01*
X57275465Y21965380D01*
X57504273Y21812495D01*
X57758510Y21707186D01*
X58028408Y21653500D01*
X58303592Y21653500D01*
X58573490Y21707186D01*
X58827727Y21812495D01*
X59056535Y21965380D01*
X59251120Y22159965D01*
X59404005Y22388773D01*
X59509314Y22643010D01*
X59563000Y22912908D01*
X59563000Y23188092D01*
X59509314Y23457990D01*
X59404005Y23712227D01*
X59251120Y23941035D01*
X59056535Y24135620D01*
X58901000Y24239545D01*
X58901000Y45800955D01*
X59056535Y45904880D01*
X59251120Y46099465D01*
X59404005Y46328273D01*
X59509314Y46582510D01*
X59544350Y46758649D01*
X60229000Y46073999D01*
X60229001Y42280309D01*
X60224235Y42231919D01*
X60243253Y42038826D01*
X60299576Y41853153D01*
X60301746Y41849094D01*
X60391041Y41682035D01*
X60514131Y41532049D01*
X60551712Y41501207D01*
X61059199Y40993721D01*
X61090049Y40956130D01*
X61240035Y40833040D01*
X61411152Y40741576D01*
X61596825Y40685253D01*
X61741539Y40671000D01*
X61741540Y40671000D01*
X61789918Y40666235D01*
X61838296Y40671000D01*
X61876893Y40671000D01*
X62045368Y40502525D01*
X62288589Y40340010D01*
X62558842Y40228068D01*
X62845740Y40171000D01*
X63138260Y40171000D01*
X63425158Y40228068D01*
X63695411Y40340010D01*
X63938632Y40502525D01*
X64145475Y40709368D01*
X64307990Y40952589D01*
X64315001Y40969515D01*
X64315000Y14389294D01*
X64179727Y14479680D01*
X63918574Y14587853D01*
X63641335Y14643000D01*
X63358665Y14643000D01*
X63081426Y14587853D01*
X62820273Y14479680D01*
X62585241Y14322637D01*
X62385363Y14122759D01*
X62228320Y13887727D01*
X62120147Y13626574D01*
X62065000Y13349335D01*
X62065000Y13066665D01*
X62120147Y12789426D01*
X62228320Y12528273D01*
X62385363Y12293241D01*
X62585241Y12093363D01*
X62820273Y11936320D01*
X63081426Y11828147D01*
X63358665Y11773000D01*
X63641335Y11773000D01*
X63918574Y11828147D01*
X64179727Y11936320D01*
X64315000Y12026706D01*
X64315000Y7493000D01*
X58420000Y7493000D01*
X58395224Y7490560D01*
X58371399Y7483333D01*
X58349443Y7471597D01*
X58330197Y7455803D01*
X58314403Y7436557D01*
X58302667Y7414601D01*
X58295440Y7390776D01*
X58293000Y7366000D01*
X58293000Y685000D01*
X7239000Y685000D01*
X7239000Y6376000D01*
X10907928Y6376000D01*
X10907928Y3276000D01*
X10924992Y3102746D01*
X10975528Y2936150D01*
X11057595Y2782614D01*
X11168038Y2648038D01*
X11302614Y2537595D01*
X11456150Y2455528D01*
X11622746Y2404992D01*
X11796000Y2387928D01*
X13096000Y2387928D01*
X13269254Y2404992D01*
X13435850Y2455528D01*
X13589386Y2537595D01*
X13723962Y2648038D01*
X13834405Y2782614D01*
X13916472Y2936150D01*
X13967008Y3102746D01*
X13984072Y3276000D01*
X13984072Y5801407D01*
X15991000Y5801407D01*
X15991000Y3850592D01*
X16013211Y3625087D01*
X16100984Y3335739D01*
X16243520Y3069073D01*
X16435340Y2835339D01*
X16669074Y2643519D01*
X16935740Y2500983D01*
X17225088Y2413210D01*
X17526000Y2383573D01*
X17826913Y2413210D01*
X18116261Y2500983D01*
X18382927Y2643519D01*
X18616661Y2835339D01*
X18808481Y3069073D01*
X18951017Y3335739D01*
X19038790Y3625087D01*
X19061000Y3850592D01*
X19061000Y5801407D01*
X21071000Y5801407D01*
X21071000Y3850592D01*
X21093211Y3625087D01*
X21180984Y3335739D01*
X21323520Y3069073D01*
X21515340Y2835339D01*
X21749074Y2643519D01*
X22015740Y2500983D01*
X22305088Y2413210D01*
X22606000Y2383573D01*
X22906913Y2413210D01*
X23196261Y2500983D01*
X23462927Y2643519D01*
X23696661Y2835339D01*
X23888481Y3069073D01*
X24031017Y3335739D01*
X24118790Y3625087D01*
X24141000Y3850592D01*
X24141000Y5801408D01*
X24118790Y6026913D01*
X24031017Y6316261D01*
X23999086Y6376000D01*
X28433928Y6376000D01*
X28433928Y3276000D01*
X28450992Y3102746D01*
X28501528Y2936150D01*
X28583595Y2782614D01*
X28694038Y2648038D01*
X28828614Y2537595D01*
X28982150Y2455528D01*
X29148746Y2404992D01*
X29322000Y2387928D01*
X30622000Y2387928D01*
X30795254Y2404992D01*
X30961850Y2455528D01*
X31115386Y2537595D01*
X31249962Y2648038D01*
X31360405Y2782614D01*
X31442472Y2936150D01*
X31493008Y3102746D01*
X31510072Y3276000D01*
X31510072Y4699000D01*
X33517000Y4699000D01*
X33517000Y3799000D01*
X33571271Y3501977D01*
X33682446Y3221249D01*
X33846252Y2967604D01*
X34056394Y2750790D01*
X34304796Y2579138D01*
X34581913Y2459245D01*
X34687260Y2434964D01*
X34925000Y2555622D01*
X34925000Y4699000D01*
X35179000Y4699000D01*
X35179000Y2555622D01*
X35416740Y2434964D01*
X35522087Y2459245D01*
X35799204Y2579138D01*
X36047606Y2750790D01*
X36257748Y2967604D01*
X36421554Y3221249D01*
X36532729Y3501977D01*
X36587000Y3799000D01*
X36587000Y4699000D01*
X35179000Y4699000D01*
X34925000Y4699000D01*
X33517000Y4699000D01*
X31510072Y4699000D01*
X31510072Y5853000D01*
X33517000Y5853000D01*
X33517000Y4953000D01*
X34925000Y4953000D01*
X34925000Y7096378D01*
X35179000Y7096378D01*
X35179000Y4953000D01*
X36587000Y4953000D01*
X36587000Y5801407D01*
X38597000Y5801407D01*
X38597000Y3850592D01*
X38619211Y3625087D01*
X38706984Y3335739D01*
X38849520Y3069073D01*
X39041340Y2835339D01*
X39275074Y2643519D01*
X39541740Y2500983D01*
X39831088Y2413210D01*
X40132000Y2383573D01*
X40432913Y2413210D01*
X40722261Y2500983D01*
X40988927Y2643519D01*
X41222661Y2835339D01*
X41414481Y3069073D01*
X41557017Y3335739D01*
X41644790Y3625087D01*
X41667000Y3850592D01*
X41667000Y5801408D01*
X41644790Y6026913D01*
X41557017Y6316261D01*
X41414481Y6582927D01*
X41222661Y6816661D01*
X40988926Y7008481D01*
X40722260Y7151017D01*
X40432912Y7238790D01*
X40132000Y7268427D01*
X39831087Y7238790D01*
X39541739Y7151017D01*
X39275073Y7008481D01*
X39041339Y6816661D01*
X38849519Y6582926D01*
X38706983Y6316260D01*
X38619210Y6026912D01*
X38597000Y5801407D01*
X36587000Y5801407D01*
X36587000Y5853000D01*
X36532729Y6150023D01*
X36421554Y6430751D01*
X36257748Y6684396D01*
X36047606Y6901210D01*
X35799204Y7072862D01*
X35522087Y7192755D01*
X35416740Y7217036D01*
X35179000Y7096378D01*
X34925000Y7096378D01*
X34687260Y7217036D01*
X34581913Y7192755D01*
X34304796Y7072862D01*
X34056394Y6901210D01*
X33846252Y6684396D01*
X33682446Y6430751D01*
X33571271Y6150023D01*
X33517000Y5853000D01*
X31510072Y5853000D01*
X31510072Y6376000D01*
X31493008Y6549254D01*
X31442472Y6715850D01*
X31360405Y6869386D01*
X31249962Y7003962D01*
X31115386Y7114405D01*
X30961850Y7196472D01*
X30795254Y7247008D01*
X30622000Y7264072D01*
X29322000Y7264072D01*
X29148746Y7247008D01*
X28982150Y7196472D01*
X28828614Y7114405D01*
X28694038Y7003962D01*
X28583595Y6869386D01*
X28501528Y6715850D01*
X28450992Y6549254D01*
X28433928Y6376000D01*
X23999086Y6376000D01*
X23888481Y6582927D01*
X23696661Y6816661D01*
X23462926Y7008481D01*
X23196260Y7151017D01*
X22906912Y7238790D01*
X22606000Y7268427D01*
X22305087Y7238790D01*
X22015739Y7151017D01*
X21749073Y7008481D01*
X21515339Y6816661D01*
X21323519Y6582926D01*
X21180983Y6316260D01*
X21093210Y6026912D01*
X21071000Y5801407D01*
X19061000Y5801407D01*
X19061000Y5801408D01*
X19038790Y6026913D01*
X18951017Y6316261D01*
X18808481Y6582927D01*
X18616661Y6816661D01*
X18382926Y7008481D01*
X18116260Y7151017D01*
X17826912Y7238790D01*
X17526000Y7268427D01*
X17225087Y7238790D01*
X16935739Y7151017D01*
X16669073Y7008481D01*
X16435339Y6816661D01*
X16243519Y6582926D01*
X16100983Y6316260D01*
X16013210Y6026912D01*
X15991000Y5801407D01*
X13984072Y5801407D01*
X13984072Y6376000D01*
X13967008Y6549254D01*
X13916472Y6715850D01*
X13834405Y6869386D01*
X13723962Y7003962D01*
X13589386Y7114405D01*
X13435850Y7196472D01*
X13269254Y7247008D01*
X13096000Y7264072D01*
X11796000Y7264072D01*
X11622746Y7247008D01*
X11456150Y7196472D01*
X11302614Y7114405D01*
X11168038Y7003962D01*
X11057595Y6869386D01*
X10975528Y6715850D01*
X10924992Y6549254D01*
X10907928Y6376000D01*
X7239000Y6376000D01*
X7239000Y7366000D01*
X7236560Y7390776D01*
X7229333Y7414601D01*
X7217597Y7436557D01*
X7201803Y7455803D01*
X7182557Y7471597D01*
X7160601Y7483333D01*
X7136776Y7490560D01*
X7112000Y7493000D01*
X889000Y7493000D01*
X889000Y10009554D01*
X1358656Y9539897D01*
X1309000Y9290260D01*
X1309000Y8997740D01*
X1366068Y8710842D01*
X1478010Y8440589D01*
X1640525Y8197368D01*
X1847368Y7990525D01*
X2090589Y7828010D01*
X2360842Y7716068D01*
X2647740Y7659000D01*
X2940260Y7659000D01*
X3227158Y7716068D01*
X3497411Y7828010D01*
X3740632Y7990525D01*
X3872487Y8122380D01*
X3894498Y8049820D01*
X3953463Y7939506D01*
X4032815Y7842815D01*
X4129506Y7763463D01*
X4239820Y7704498D01*
X4359518Y7668188D01*
X4484000Y7655928D01*
X6184000Y7655928D01*
X6308482Y7668188D01*
X6428180Y7704498D01*
X6538494Y7763463D01*
X6635185Y7842815D01*
X6714537Y7939506D01*
X6773502Y8049820D01*
X6809812Y8169518D01*
X6822072Y8294000D01*
X6822072Y9994000D01*
X6809812Y10118482D01*
X6773502Y10238180D01*
X6714537Y10348494D01*
X6635185Y10445185D01*
X6629388Y10449942D01*
X7382447Y11203000D01*
X18251895Y11203000D01*
X18288000Y11199444D01*
X18324105Y11203000D01*
X18432085Y11213635D01*
X18570633Y11255663D01*
X18698320Y11323913D01*
X18810238Y11415762D01*
X18833258Y11443812D01*
X19416103Y12026656D01*
X19665740Y11977000D01*
X19958260Y11977000D01*
X20245158Y12034068D01*
X20515411Y12146010D01*
X20758632Y12308525D01*
X20965475Y12515368D01*
X21082000Y12689760D01*
X21198525Y12515368D01*
X21405368Y12308525D01*
X21648589Y12146010D01*
X21918842Y12034068D01*
X22205740Y11977000D01*
X22498260Y11977000D01*
X22785158Y12034068D01*
X23055411Y12146010D01*
X23298632Y12308525D01*
X23505475Y12515368D01*
X23667990Y12758589D01*
X23779932Y13028842D01*
X23837000Y13315740D01*
X23837000Y13608260D01*
X23779932Y13895158D01*
X23667990Y14165411D01*
X23505475Y14408632D01*
X23298632Y14615475D01*
X23055411Y14777990D01*
X22785158Y14889932D01*
X22498260Y14947000D01*
X22205740Y14947000D01*
X21956103Y14897344D01*
X21726112Y15127335D01*
X25235000Y15127335D01*
X25235000Y14844665D01*
X25290147Y14567426D01*
X25398320Y14306273D01*
X25555363Y14071241D01*
X25755241Y13871363D01*
X25990273Y13714320D01*
X26251426Y13606147D01*
X26528665Y13551000D01*
X26811335Y13551000D01*
X27088574Y13606147D01*
X27349727Y13714320D01*
X27584759Y13871363D01*
X27706694Y13993298D01*
X41096903Y13993298D01*
X41168486Y13749329D01*
X41423996Y13628429D01*
X41698184Y13559700D01*
X41980512Y13545783D01*
X42260130Y13587213D01*
X42526292Y13682397D01*
X42651514Y13749329D01*
X42723097Y13993298D01*
X41910000Y14806395D01*
X41096903Y13993298D01*
X27706694Y13993298D01*
X27784637Y14071241D01*
X27941680Y14306273D01*
X28049853Y14567426D01*
X28105000Y14844665D01*
X28105000Y14915488D01*
X40469783Y14915488D01*
X40511213Y14635870D01*
X40606397Y14369708D01*
X40673329Y14244486D01*
X40917298Y14172903D01*
X41730395Y14986000D01*
X40917298Y15799097D01*
X40673329Y15727514D01*
X40552429Y15472004D01*
X40483700Y15197816D01*
X40469783Y14915488D01*
X28105000Y14915488D01*
X28105000Y15127335D01*
X28049853Y15404574D01*
X27941680Y15665727D01*
X27784637Y15900759D01*
X27706694Y15978702D01*
X41096903Y15978702D01*
X41910000Y15165605D01*
X42723097Y15978702D01*
X42651514Y16222671D01*
X42396004Y16343571D01*
X42121816Y16412300D01*
X41839488Y16426217D01*
X41559870Y16384787D01*
X41293708Y16289603D01*
X41168486Y16222671D01*
X41096903Y15978702D01*
X27706694Y15978702D01*
X27584759Y16100637D01*
X27349727Y16257680D01*
X27088574Y16365853D01*
X26811335Y16421000D01*
X26528665Y16421000D01*
X26251426Y16365853D01*
X25990273Y16257680D01*
X25755241Y16100637D01*
X25555363Y15900759D01*
X25398320Y15665727D01*
X25290147Y15404574D01*
X25235000Y15127335D01*
X21726112Y15127335D01*
X20611258Y16242188D01*
X20588238Y16270238D01*
X20476320Y16362087D01*
X20348633Y16430337D01*
X20210085Y16472365D01*
X20102105Y16483000D01*
X20066000Y16486556D01*
X20029895Y16483000D01*
X7704447Y16483000D01*
X6929258Y17258188D01*
X6906238Y17286238D01*
X6822072Y17355311D01*
X6822072Y17438000D01*
X13243928Y17438000D01*
X13256188Y17313518D01*
X13292498Y17193820D01*
X13351463Y17083506D01*
X13430815Y16986815D01*
X13527506Y16907463D01*
X13637820Y16848498D01*
X13757518Y16812188D01*
X13882000Y16799928D01*
X14446250Y16803000D01*
X14605000Y16961750D01*
X14605000Y18161000D01*
X13405750Y18161000D01*
X13247000Y18002250D01*
X13243928Y17438000D01*
X6822072Y17438000D01*
X6822072Y17553000D01*
X10123895Y17553000D01*
X10160000Y17549444D01*
X10196105Y17553000D01*
X10304085Y17563635D01*
X10442633Y17605663D01*
X10570320Y17673913D01*
X10682238Y17765762D01*
X10705258Y17793812D01*
X12049446Y19138000D01*
X13243928Y19138000D01*
X13247000Y18573750D01*
X13405750Y18415000D01*
X14605000Y18415000D01*
X14605000Y19614250D01*
X14859000Y19614250D01*
X14859000Y18415000D01*
X14879000Y18415000D01*
X14879000Y18161000D01*
X14859000Y18161000D01*
X14859000Y16961750D01*
X15017750Y16803000D01*
X15582000Y16799928D01*
X15706482Y16812188D01*
X15826180Y16848498D01*
X15936494Y16907463D01*
X16033185Y16986815D01*
X16112537Y17083506D01*
X16171502Y17193820D01*
X16193513Y17266380D01*
X16325368Y17134525D01*
X16568589Y16972010D01*
X16838842Y16860068D01*
X17125740Y16803000D01*
X17418260Y16803000D01*
X17705158Y16860068D01*
X17975411Y16972010D01*
X18218632Y17134525D01*
X18425475Y17341368D01*
X18542000Y17515760D01*
X18658525Y17341368D01*
X18865368Y17134525D01*
X19108589Y16972010D01*
X19378842Y16860068D01*
X19665740Y16803000D01*
X19958260Y16803000D01*
X20245158Y16860068D01*
X20515411Y16972010D01*
X20758632Y17134525D01*
X20965475Y17341368D01*
X21082000Y17515760D01*
X21198525Y17341368D01*
X21405368Y17134525D01*
X21648589Y16972010D01*
X21918842Y16860068D01*
X22205740Y16803000D01*
X22498260Y16803000D01*
X22785158Y16860068D01*
X23055411Y16972010D01*
X23298632Y17134525D01*
X23505475Y17341368D01*
X23667990Y17584589D01*
X23779932Y17854842D01*
X23837000Y18141740D01*
X23837000Y18434260D01*
X23787456Y18683335D01*
X25235000Y18683335D01*
X25235000Y18400665D01*
X25290147Y18123426D01*
X25398320Y17862273D01*
X25555363Y17627241D01*
X25755241Y17427363D01*
X25990273Y17270320D01*
X26251426Y17162147D01*
X26528665Y17107000D01*
X26811335Y17107000D01*
X27088574Y17162147D01*
X27349727Y17270320D01*
X27584759Y17427363D01*
X27706694Y17549298D01*
X41096903Y17549298D01*
X41168486Y17305329D01*
X41423996Y17184429D01*
X41698184Y17115700D01*
X41980512Y17101783D01*
X42260130Y17143213D01*
X42526292Y17238397D01*
X42651514Y17305329D01*
X42723097Y17549298D01*
X41910000Y18362395D01*
X41096903Y17549298D01*
X27706694Y17549298D01*
X27784637Y17627241D01*
X27941680Y17862273D01*
X28049853Y18123426D01*
X28105000Y18400665D01*
X28105000Y18471488D01*
X40469783Y18471488D01*
X40511213Y18191870D01*
X40606397Y17925708D01*
X40673329Y17800486D01*
X40917298Y17728903D01*
X41730395Y18542000D01*
X40917298Y19355097D01*
X40673329Y19283514D01*
X40552429Y19028004D01*
X40483700Y18753816D01*
X40469783Y18471488D01*
X28105000Y18471488D01*
X28105000Y18683335D01*
X28049853Y18960574D01*
X27941680Y19221727D01*
X27784637Y19456759D01*
X27706694Y19534702D01*
X41096903Y19534702D01*
X41910000Y18721605D01*
X42723097Y19534702D01*
X42651514Y19778671D01*
X42396004Y19899571D01*
X42121816Y19968300D01*
X41839488Y19982217D01*
X41559870Y19940787D01*
X41293708Y19845603D01*
X41168486Y19778671D01*
X41096903Y19534702D01*
X27706694Y19534702D01*
X27584759Y19656637D01*
X27349727Y19813680D01*
X27088574Y19921853D01*
X26811335Y19977000D01*
X26528665Y19977000D01*
X26251426Y19921853D01*
X25990273Y19813680D01*
X25755241Y19656637D01*
X25555363Y19456759D01*
X25398320Y19221727D01*
X25290147Y18960574D01*
X25235000Y18683335D01*
X23787456Y18683335D01*
X23779932Y18721158D01*
X23667990Y18991411D01*
X23505475Y19234632D01*
X23298632Y19441475D01*
X23055411Y19603990D01*
X22785158Y19715932D01*
X22498260Y19773000D01*
X22205740Y19773000D01*
X21918842Y19715932D01*
X21648589Y19603990D01*
X21405368Y19441475D01*
X21198525Y19234632D01*
X21082000Y19060240D01*
X20965475Y19234632D01*
X20758632Y19441475D01*
X20515411Y19603990D01*
X20245158Y19715932D01*
X19958260Y19773000D01*
X19665740Y19773000D01*
X19378842Y19715932D01*
X19108589Y19603990D01*
X18865368Y19441475D01*
X18658525Y19234632D01*
X18542000Y19060240D01*
X18425475Y19234632D01*
X18218632Y19441475D01*
X17975411Y19603990D01*
X17705158Y19715932D01*
X17418260Y19773000D01*
X17125740Y19773000D01*
X16838842Y19715932D01*
X16568589Y19603990D01*
X16325368Y19441475D01*
X16193513Y19309620D01*
X16171502Y19382180D01*
X16112537Y19492494D01*
X16033185Y19589185D01*
X15936494Y19668537D01*
X15826180Y19727502D01*
X15706482Y19763812D01*
X15582000Y19776072D01*
X15017750Y19773000D01*
X14859000Y19614250D01*
X14605000Y19614250D01*
X14446250Y19773000D01*
X13882000Y19776072D01*
X13757518Y19763812D01*
X13637820Y19727502D01*
X13527506Y19668537D01*
X13430815Y19589185D01*
X13351463Y19492494D01*
X13292498Y19382180D01*
X13256188Y19262482D01*
X13243928Y19138000D01*
X12049446Y19138000D01*
X12432197Y19520750D01*
X12460237Y19543762D01*
X12483250Y19571803D01*
X12483253Y19571806D01*
X12552087Y19655680D01*
X12620337Y19783366D01*
X12662365Y19921915D01*
X12676556Y20066000D01*
X12673000Y20102105D01*
X12673000Y49413554D01*
X13054103Y49794656D01*
X13303740Y49745000D01*
X13596260Y49745000D01*
X13883158Y49802068D01*
X14153411Y49914010D01*
X14396632Y50076525D01*
X14603475Y50283368D01*
X14720000Y50457760D01*
X14836525Y50283368D01*
X15043368Y50076525D01*
X15286589Y49914010D01*
X15556842Y49802068D01*
X15843740Y49745000D01*
X16136260Y49745000D01*
X16423158Y49802068D01*
X16693411Y49914010D01*
X16936632Y50076525D01*
X17143475Y50283368D01*
X17260000Y50457760D01*
X17376525Y50283368D01*
X17583368Y50076525D01*
X17826589Y49914010D01*
X18096842Y49802068D01*
X18383740Y49745000D01*
X18676260Y49745000D01*
X18963158Y49802068D01*
X19233411Y49914010D01*
X19476632Y50076525D01*
X19683475Y50283368D01*
X19800000Y50457760D01*
X19916525Y50283368D01*
X20123368Y50076525D01*
X20366589Y49914010D01*
X20636842Y49802068D01*
X20923740Y49745000D01*
X21216260Y49745000D01*
X21503158Y49802068D01*
X21773411Y49914010D01*
X22016632Y50076525D01*
X22223475Y50283368D01*
X22340000Y50457760D01*
X22456525Y50283368D01*
X22663368Y50076525D01*
X22906589Y49914010D01*
X23176842Y49802068D01*
X23463740Y49745000D01*
X23756260Y49745000D01*
X24043158Y49802068D01*
X24313411Y49914010D01*
X24556632Y50076525D01*
X24763475Y50283368D01*
X24880000Y50457760D01*
X24996525Y50283368D01*
X25203368Y50076525D01*
X25446589Y49914010D01*
X25716842Y49802068D01*
X26003740Y49745000D01*
X26296260Y49745000D01*
X26583158Y49802068D01*
X26853411Y49914010D01*
X27096632Y50076525D01*
X27303475Y50283368D01*
X27425195Y50465534D01*
X27494822Y50348645D01*
X27689731Y50132412D01*
X27923080Y49958359D01*
X28185901Y49833175D01*
X28333110Y49788524D01*
X28563000Y49909845D01*
X28563000Y51103000D01*
X28543000Y51103000D01*
X28543000Y51357000D01*
X28563000Y51357000D01*
X28563000Y51377000D01*
X28817000Y51377000D01*
X28817000Y51357000D01*
G36*
X3894498Y15669820D02*
G01*
X3953463Y15559506D01*
X4032815Y15462815D01*
X4129506Y15383463D01*
X4239820Y15324498D01*
X4359518Y15288188D01*
X4484000Y15275928D01*
X6184000Y15275928D01*
X6308482Y15288188D01*
X6428180Y15324498D01*
X6538494Y15383463D01*
X6635185Y15462815D01*
X6639942Y15468611D01*
X6854746Y15253807D01*
X6877762Y15225762D01*
X6989680Y15133913D01*
X7117367Y15065663D01*
X7213886Y15036384D01*
X7255914Y15023635D01*
X7400000Y15009444D01*
X7436105Y15013000D01*
X19761554Y15013000D01*
X19827554Y14947000D01*
X19665740Y14947000D01*
X19378842Y14889932D01*
X19108589Y14777990D01*
X18865368Y14615475D01*
X18658525Y14408632D01*
X18542000Y14234240D01*
X18425475Y14408632D01*
X18218632Y14615475D01*
X17975411Y14777990D01*
X17705158Y14889932D01*
X17418260Y14947000D01*
X17125740Y14947000D01*
X16838842Y14889932D01*
X16568589Y14777990D01*
X16325368Y14615475D01*
X16193513Y14483620D01*
X16171502Y14556180D01*
X16112537Y14666494D01*
X16033185Y14763185D01*
X15936494Y14842537D01*
X15826180Y14901502D01*
X15706482Y14937812D01*
X15582000Y14950072D01*
X15017750Y14947000D01*
X14859000Y14788250D01*
X14859000Y13589000D01*
X14879000Y13589000D01*
X14879000Y13335000D01*
X14859000Y13335000D01*
X14859000Y13315000D01*
X14605000Y13315000D01*
X14605000Y13335000D01*
X13405750Y13335000D01*
X13247000Y13176250D01*
X13244260Y12673000D01*
X7114094Y12673000D01*
X7077999Y12676555D01*
X7041904Y12673000D01*
X7041895Y12673000D01*
X6933915Y12662365D01*
X6795367Y12620337D01*
X6667680Y12552087D01*
X6555762Y12460238D01*
X6532746Y12432193D01*
X4839808Y10739254D01*
X4811763Y10716238D01*
X4742690Y10632072D01*
X4484000Y10632072D01*
X4359518Y10619812D01*
X4239820Y10583502D01*
X4129506Y10524537D01*
X4032815Y10445185D01*
X3953463Y10348494D01*
X3894498Y10238180D01*
X3872487Y10165620D01*
X3740632Y10297475D01*
X3497411Y10459990D01*
X3227158Y10571932D01*
X2940260Y10629000D01*
X2647740Y10629000D01*
X2398103Y10579344D01*
X2005000Y10972446D01*
X2005000Y14312000D01*
X13243928Y14312000D01*
X13247000Y13747750D01*
X13405750Y13589000D01*
X14605000Y13589000D01*
X14605000Y14788250D01*
X14446250Y14947000D01*
X13882000Y14950072D01*
X13757518Y14937812D01*
X13637820Y14901502D01*
X13527506Y14842537D01*
X13430815Y14763185D01*
X13351463Y14666494D01*
X13292498Y14556180D01*
X13256188Y14436482D01*
X13243928Y14312000D01*
X2005000Y14312000D01*
X2005000Y15505199D01*
X2090589Y15448010D01*
X2360842Y15336068D01*
X2647740Y15279000D01*
X2940260Y15279000D01*
X3227158Y15336068D01*
X3497411Y15448010D01*
X3740632Y15610525D01*
X3872487Y15742380D01*
X3894498Y15669820D01*
G37*
X3894498Y15669820D02*
X3953463Y15559506D01*
X4032815Y15462815D01*
X4129506Y15383463D01*
X4239820Y15324498D01*
X4359518Y15288188D01*
X4484000Y15275928D01*
X6184000Y15275928D01*
X6308482Y15288188D01*
X6428180Y15324498D01*
X6538494Y15383463D01*
X6635185Y15462815D01*
X6639942Y15468611D01*
X6854746Y15253807D01*
X6877762Y15225762D01*
X6989680Y15133913D01*
X7117367Y15065663D01*
X7213886Y15036384D01*
X7255914Y15023635D01*
X7400000Y15009444D01*
X7436105Y15013000D01*
X19761554Y15013000D01*
X19827554Y14947000D01*
X19665740Y14947000D01*
X19378842Y14889932D01*
X19108589Y14777990D01*
X18865368Y14615475D01*
X18658525Y14408632D01*
X18542000Y14234240D01*
X18425475Y14408632D01*
X18218632Y14615475D01*
X17975411Y14777990D01*
X17705158Y14889932D01*
X17418260Y14947000D01*
X17125740Y14947000D01*
X16838842Y14889932D01*
X16568589Y14777990D01*
X16325368Y14615475D01*
X16193513Y14483620D01*
X16171502Y14556180D01*
X16112537Y14666494D01*
X16033185Y14763185D01*
X15936494Y14842537D01*
X15826180Y14901502D01*
X15706482Y14937812D01*
X15582000Y14950072D01*
X15017750Y14947000D01*
X14859000Y14788250D01*
X14859000Y13589000D01*
X14879000Y13589000D01*
X14879000Y13335000D01*
X14859000Y13335000D01*
X14859000Y13315000D01*
X14605000Y13315000D01*
X14605000Y13335000D01*
X13405750Y13335000D01*
X13247000Y13176250D01*
X13244260Y12673000D01*
X7114094Y12673000D01*
X7077999Y12676555D01*
X7041904Y12673000D01*
X7041895Y12673000D01*
X6933915Y12662365D01*
X6795367Y12620337D01*
X6667680Y12552087D01*
X6555762Y12460238D01*
X6532746Y12432193D01*
X4839808Y10739254D01*
X4811763Y10716238D01*
X4742690Y10632072D01*
X4484000Y10632072D01*
X4359518Y10619812D01*
X4239820Y10583502D01*
X4129506Y10524537D01*
X4032815Y10445185D01*
X3953463Y10348494D01*
X3894498Y10238180D01*
X3872487Y10165620D01*
X3740632Y10297475D01*
X3497411Y10459990D01*
X3227158Y10571932D01*
X2940260Y10629000D01*
X2647740Y10629000D01*
X2398103Y10579344D01*
X2005000Y10972446D01*
X2005000Y14312000D01*
X13243928Y14312000D01*
X13247000Y13747750D01*
X13405750Y13589000D01*
X14605000Y13589000D01*
X14605000Y14788250D01*
X14446250Y14947000D01*
X13882000Y14950072D01*
X13757518Y14937812D01*
X13637820Y14901502D01*
X13527506Y14842537D01*
X13430815Y14763185D01*
X13351463Y14666494D01*
X13292498Y14556180D01*
X13256188Y14436482D01*
X13243928Y14312000D01*
X2005000Y14312000D01*
X2005000Y15505199D01*
X2090589Y15448010D01*
X2360842Y15336068D01*
X2647740Y15279000D01*
X2940260Y15279000D01*
X3227158Y15336068D01*
X3497411Y15448010D01*
X3740632Y15610525D01*
X3872487Y15742380D01*
X3894498Y15669820D01*
G36*
X11072494Y55325494D02*
G01*
X11002000Y55255000D01*
X10763740Y55255000D01*
X10476842Y55197932D01*
X10206589Y55085990D01*
X9963368Y54923475D01*
X9756525Y54716632D01*
X9640000Y54542240D01*
X9523475Y54716632D01*
X9316632Y54923475D01*
X9073411Y55085990D01*
X8803158Y55197932D01*
X8516260Y55255000D01*
X8223740Y55255000D01*
X7936842Y55197932D01*
X7666589Y55085990D01*
X7423368Y54923475D01*
X7216525Y54716632D01*
X7054010Y54473411D01*
X6942068Y54203158D01*
X6885000Y53916260D01*
X6885000Y53623740D01*
X6942068Y53336842D01*
X7054010Y53066589D01*
X7216525Y52823368D01*
X7348380Y52691513D01*
X7275820Y52669502D01*
X7165506Y52610537D01*
X7068815Y52531185D01*
X6989463Y52434494D01*
X6930498Y52324180D01*
X6894188Y52204482D01*
X6881928Y52080000D01*
X6885000Y51515750D01*
X7043750Y51357000D01*
X8243000Y51357000D01*
X8243000Y51377000D01*
X8497000Y51377000D01*
X8497000Y51357000D01*
X8517000Y51357000D01*
X8517000Y51103000D01*
X8497000Y51103000D01*
X8497000Y49903750D01*
X8655750Y49745000D01*
X9220000Y49741928D01*
X9344482Y49754188D01*
X9464180Y49790498D01*
X9574494Y49849463D01*
X9671185Y49928815D01*
X9750537Y50025506D01*
X9809502Y50135820D01*
X9831513Y50208380D01*
X9963368Y50076525D01*
X10206589Y49914010D01*
X10476842Y49802068D01*
X10763740Y49745000D01*
X11056260Y49745000D01*
X11205018Y49774590D01*
X11199444Y49718000D01*
X11203001Y49681885D01*
X11203000Y20370447D01*
X9855554Y19023000D01*
X5969000Y19023000D01*
X5969000Y36830000D01*
X5966560Y36854776D01*
X5959333Y36878601D01*
X5947597Y36900557D01*
X5931803Y36919803D01*
X5912557Y36935597D01*
X5890601Y36947333D01*
X5866776Y36954560D01*
X5842000Y36957000D01*
X5195032Y36957000D01*
X5157959Y36981632D01*
X5106694Y37016733D01*
X5098281Y37021282D01*
X5012120Y37067094D01*
X4954704Y37090758D01*
X4897661Y37115208D01*
X4888525Y37118036D01*
X4795107Y37146241D01*
X4734195Y37158302D01*
X4673471Y37171209D01*
X4663959Y37172209D01*
X4566841Y37181731D01*
X4566837Y37181731D01*
X4533647Y37185000D01*
X381000Y37185000D01*
X381000Y47625000D01*
X6350000Y47625000D01*
X6374776Y47627440D01*
X6398601Y47634667D01*
X6420557Y47646403D01*
X6439803Y47662197D01*
X6455597Y47681443D01*
X6467333Y47703399D01*
X6474560Y47727224D01*
X6477000Y47752000D01*
X6477000Y50380000D01*
X6881928Y50380000D01*
X6894188Y50255518D01*
X6930498Y50135820D01*
X6989463Y50025506D01*
X7068815Y49928815D01*
X7165506Y49849463D01*
X7275820Y49790498D01*
X7395518Y49754188D01*
X7520000Y49741928D01*
X8084250Y49745000D01*
X8243000Y49903750D01*
X8243000Y51103000D01*
X7043750Y51103000D01*
X6885000Y50944250D01*
X6881928Y50380000D01*
X6477000Y50380000D01*
X6477000Y55326441D01*
X11072494Y55325494D01*
G37*
X11072494Y55325494D02*
X11002000Y55255000D01*
X10763740Y55255000D01*
X10476842Y55197932D01*
X10206589Y55085990D01*
X9963368Y54923475D01*
X9756525Y54716632D01*
X9640000Y54542240D01*
X9523475Y54716632D01*
X9316632Y54923475D01*
X9073411Y55085990D01*
X8803158Y55197932D01*
X8516260Y55255000D01*
X8223740Y55255000D01*
X7936842Y55197932D01*
X7666589Y55085990D01*
X7423368Y54923475D01*
X7216525Y54716632D01*
X7054010Y54473411D01*
X6942068Y54203158D01*
X6885000Y53916260D01*
X6885000Y53623740D01*
X6942068Y53336842D01*
X7054010Y53066589D01*
X7216525Y52823368D01*
X7348380Y52691513D01*
X7275820Y52669502D01*
X7165506Y52610537D01*
X7068815Y52531185D01*
X6989463Y52434494D01*
X6930498Y52324180D01*
X6894188Y52204482D01*
X6881928Y52080000D01*
X6885000Y51515750D01*
X7043750Y51357000D01*
X8243000Y51357000D01*
X8243000Y51377000D01*
X8497000Y51377000D01*
X8497000Y51357000D01*
X8517000Y51357000D01*
X8517000Y51103000D01*
X8497000Y51103000D01*
X8497000Y49903750D01*
X8655750Y49745000D01*
X9220000Y49741928D01*
X9344482Y49754188D01*
X9464180Y49790498D01*
X9574494Y49849463D01*
X9671185Y49928815D01*
X9750537Y50025506D01*
X9809502Y50135820D01*
X9831513Y50208380D01*
X9963368Y50076525D01*
X10206589Y49914010D01*
X10476842Y49802068D01*
X10763740Y49745000D01*
X11056260Y49745000D01*
X11205018Y49774590D01*
X11199444Y49718000D01*
X11203001Y49681885D01*
X11203000Y20370447D01*
X9855554Y19023000D01*
X5969000Y19023000D01*
X5969000Y36830000D01*
X5966560Y36854776D01*
X5959333Y36878601D01*
X5947597Y36900557D01*
X5931803Y36919803D01*
X5912557Y36935597D01*
X5890601Y36947333D01*
X5866776Y36954560D01*
X5842000Y36957000D01*
X5195032Y36957000D01*
X5157959Y36981632D01*
X5106694Y37016733D01*
X5098281Y37021282D01*
X5012120Y37067094D01*
X4954704Y37090758D01*
X4897661Y37115208D01*
X4888525Y37118036D01*
X4795107Y37146241D01*
X4734195Y37158302D01*
X4673471Y37171209D01*
X4663959Y37172209D01*
X4566841Y37181731D01*
X4566837Y37181731D01*
X4533647Y37185000D01*
X381000Y37185000D01*
X381000Y47625000D01*
X6350000Y47625000D01*
X6374776Y47627440D01*
X6398601Y47634667D01*
X6420557Y47646403D01*
X6439803Y47662197D01*
X6455597Y47681443D01*
X6467333Y47703399D01*
X6474560Y47727224D01*
X6477000Y47752000D01*
X6477000Y50380000D01*
X6881928Y50380000D01*
X6894188Y50255518D01*
X6930498Y50135820D01*
X6989463Y50025506D01*
X7068815Y49928815D01*
X7165506Y49849463D01*
X7275820Y49790498D01*
X7395518Y49754188D01*
X7520000Y49741928D01*
X8084250Y49745000D01*
X8243000Y49903750D01*
X8243000Y51103000D01*
X7043750Y51103000D01*
X6885000Y50944250D01*
X6881928Y50380000D01*
X6477000Y50380000D01*
X6477000Y55326441D01*
X11072494Y55325494D01*
%TD*%
M02*
