%TF.GenerationSoftware,KiCad,Pcbnew,5.1.5+dfsg1-2build2*%
%TF.CreationDate,2021-09-07T02:56:07-04:00*%
%TF.ProjectId,rasp_heltec_lora_hat,72617370-5f68-4656-9c74-65635f6c6f72,rev?*%
%TF.SameCoordinates,PXbebc200PY8f0d180*%
%TF.FileFunction,Copper,L1,Top*%
%TF.FilePolarity,Positive*%
%FSLAX46Y46*%
G04 Gerber Fmt 4.6, Leading zero omitted, Abs format (unit mm)*
G04 Created by KiCad (PCBNEW 5.1.5+dfsg1-2build2) date 2021-09-07 02:56:07*
%MOMM*%
%LPD*%
G04 APERTURE LIST*
%TA.AperFunction,Profile*%
%ADD10C,0.100000*%
%TD*%
%TA.AperFunction,ComponentPad*%
%ADD11R,1.700000X1.700000*%
%TD*%
%TA.AperFunction,ComponentPad*%
%ADD12O,1.700000X1.700000*%
%TD*%
%TA.AperFunction,ComponentPad*%
%ADD13R,1.800000X1.800000*%
%TD*%
%TA.AperFunction,ComponentPad*%
%ADD14C,1.800000*%
%TD*%
%TA.AperFunction,ComponentPad*%
%ADD15C,0.100000*%
%TD*%
%TA.AperFunction,ComponentPad*%
%ADD16O,1.800000X3.600000*%
%TD*%
%TA.AperFunction,ComponentPad*%
%ADD17O,1.600000X1.600000*%
%TD*%
%TA.AperFunction,ComponentPad*%
%ADD18C,1.600000*%
%TD*%
%TA.AperFunction,ComponentPad*%
%ADD19C,1.524000*%
%TD*%
%TA.AperFunction,ComponentPad*%
%ADD20R,2.200000X2.200000*%
%TD*%
%TA.AperFunction,ComponentPad*%
%ADD21O,2.200000X2.200000*%
%TD*%
%TA.AperFunction,Conductor*%
%ADD22C,0.200000*%
%TD*%
%TA.AperFunction,Conductor*%
%ADD23C,0.700000*%
%TD*%
%TA.AperFunction,Conductor*%
%ADD24C,0.254000*%
%TD*%
G04 APERTURE END LIST*
D10*
X-190000Y36578171D02*
X-40000Y36500000D01*
X-14130098Y36578171D02*
X-190000Y36578171D01*
X-14130098Y36578171D02*
G75*
G02X-16256000Y38608000I-93902J2029829D01*
G01*
X-16256000Y51308000D02*
G75*
G02X-14224000Y53340000I2032000J0D01*
G01*
X-40000Y36500000D02*
X500000Y36500000D01*
X-16256000Y51308000D02*
X-16256000Y38608000D01*
X0Y53340000D02*
X-14224000Y53340000D01*
X44000000Y4000000D02*
X44000000Y19000000D01*
X46000000Y19000000D02*
X46000000Y4000000D01*
X46000000Y19000000D02*
G75*
G03X44000000Y19000000I-1000000J0D01*
G01*
X44000000Y4000000D02*
G75*
G03X46000000Y4000000I1000000J0D01*
G01*
X499127Y19499999D02*
G75*
G03X0Y19000000I873J-499999D01*
G01*
X4500000Y19500000D02*
G75*
G03X5000000Y20000000I0J500000D01*
G01*
X5000000Y36000000D02*
G75*
G03X4500000Y36500000I-500000J0D01*
G01*
X65000000Y53000000D02*
G75*
G03X62000000Y56000000I-3000000J0D01*
G01*
X62000000Y0D02*
G75*
G03X65000000Y3000000I0J3000000D01*
G01*
X0Y3000000D02*
G75*
G03X3000000Y0I3000000J0D01*
G01*
X2794452Y56012200D02*
G75*
G03X0Y53340000I205548J-3012200D01*
G01*
X62000000Y56000000D02*
X2794452Y56012200D01*
X4500000Y19500000D02*
X500000Y19500000D01*
X5000000Y36000000D02*
X5000000Y20000000D01*
X500000Y36500000D02*
X4500000Y36500000D01*
X65000000Y3000000D02*
X65000000Y53000000D01*
X3000000Y0D02*
X62000000Y0D01*
X0Y19000000D02*
X0Y3000000D01*
D11*
%TO.P,P1,1*%
%TO.N,+3V3*%
X8370000Y51230000D03*
D12*
%TO.P,P1,2*%
%TO.N,+5V*%
X8370000Y53770000D03*
%TO.P,P1,3*%
%TO.N,/GPIO2(SDA1)*%
X10910000Y51230000D03*
%TO.P,P1,4*%
%TO.N,+5V*%
X10910000Y53770000D03*
%TO.P,P1,5*%
%TO.N,/GPIO3(SCL1)*%
X13450000Y51230000D03*
%TO.P,P1,6*%
%TO.N,GND*%
X13450000Y53770000D03*
%TO.P,P1,7*%
%TO.N,N/C*%
X15990000Y51230000D03*
%TO.P,P1,8*%
%TO.N,HELTEC_RX*%
X15990000Y53770000D03*
%TO.P,P1,9*%
%TO.N,GND*%
X18530000Y51230000D03*
%TO.P,P1,10*%
%TO.N,HELTEC_TX*%
X18530000Y53770000D03*
%TO.P,P1,11*%
%TO.N,N/C*%
X21070000Y51230000D03*
%TO.P,P1,12*%
X21070000Y53770000D03*
%TO.P,P1,13*%
X23610000Y51230000D03*
%TO.P,P1,14*%
%TO.N,GND*%
X23610000Y53770000D03*
%TO.P,P1,15*%
%TO.N,N/C*%
X26150000Y51230000D03*
%TO.P,P1,16*%
X26150000Y53770000D03*
%TO.P,P1,17*%
%TO.N,+3V3*%
X28690000Y51230000D03*
%TO.P,P1,18*%
%TO.N,N/C*%
X28690000Y53770000D03*
%TO.P,P1,19*%
X31230000Y51230000D03*
%TO.P,P1,20*%
%TO.N,GND*%
X31230000Y53770000D03*
%TO.P,P1,21*%
%TO.N,N/C*%
X33770000Y51230000D03*
%TO.P,P1,22*%
X33770000Y53770000D03*
%TO.P,P1,23*%
X36310000Y51230000D03*
%TO.P,P1,24*%
X36310000Y53770000D03*
%TO.P,P1,25*%
%TO.N,GND*%
X38850000Y51230000D03*
%TO.P,P1,26*%
%TO.N,N/C*%
X38850000Y53770000D03*
%TO.P,P1,27*%
X41390000Y51230000D03*
%TO.P,P1,28*%
X41390000Y53770000D03*
%TO.P,P1,29*%
X43930000Y51230000D03*
%TO.P,P1,30*%
%TO.N,GND*%
X43930000Y53770000D03*
%TO.P,P1,31*%
%TO.N,N/C*%
X46470000Y51230000D03*
%TO.P,P1,32*%
X46470000Y53770000D03*
%TO.P,P1,33*%
X49010000Y51230000D03*
%TO.P,P1,34*%
%TO.N,GND*%
X49010000Y53770000D03*
%TO.P,P1,35*%
%TO.N,N/C*%
X51550000Y51230000D03*
%TO.P,P1,36*%
X51550000Y53770000D03*
%TO.P,P1,37*%
X54090000Y51230000D03*
%TO.P,P1,38*%
X54090000Y53770000D03*
%TO.P,P1,39*%
%TO.N,GND*%
X56630000Y51230000D03*
%TO.P,P1,40*%
%TO.N,N/C*%
X56630000Y53770000D03*
%TD*%
D13*
%TO.P,D1,1*%
%TO.N,GND*%
X62738000Y18542000D03*
D14*
%TO.P,D1,2*%
%TO.N,Net-(D1-Pad2)*%
X60198000Y18542000D03*
%TD*%
D11*
%TO.P,J1,1*%
%TO.N,+3V3*%
X22860000Y13462000D03*
D12*
%TO.P,J1,2*%
%TO.N,GND*%
X20320000Y13462000D03*
%TO.P,J1,3*%
%TO.N,I2C_SCL*%
X17780000Y13462000D03*
%TO.P,J1,4*%
%TO.N,I2C_SDA*%
X15240000Y13462000D03*
%TD*%
%TO.P,J2,4*%
%TO.N,I2C_SDA*%
X15240000Y18542000D03*
%TO.P,J2,3*%
%TO.N,I2C_SCL*%
X17780000Y18542000D03*
%TO.P,J2,2*%
%TO.N,GND*%
X20320000Y18542000D03*
D11*
%TO.P,J2,1*%
%TO.N,+3V3*%
X22860000Y18542000D03*
%TD*%
%TA.AperFunction,ComponentPad*%
D15*
%TO.P,J3,1*%
%TO.N,GND*%
G36*
X55538504Y8148796D02*
G01*
X55562773Y8145196D01*
X55586571Y8139235D01*
X55609671Y8130970D01*
X55631849Y8120480D01*
X55652893Y8107867D01*
X55672598Y8093253D01*
X55690777Y8076777D01*
X55707253Y8058598D01*
X55721867Y8038893D01*
X55734480Y8017849D01*
X55744970Y7995671D01*
X55753235Y7972571D01*
X55759196Y7948773D01*
X55762796Y7924504D01*
X55764000Y7900000D01*
X55764000Y4800000D01*
X55762796Y4775496D01*
X55759196Y4751227D01*
X55753235Y4727429D01*
X55744970Y4704329D01*
X55734480Y4682151D01*
X55721867Y4661107D01*
X55707253Y4641402D01*
X55690777Y4623223D01*
X55672598Y4606747D01*
X55652893Y4592133D01*
X55631849Y4579520D01*
X55609671Y4569030D01*
X55586571Y4560765D01*
X55562773Y4554804D01*
X55538504Y4551204D01*
X55514000Y4550000D01*
X54214000Y4550000D01*
X54189496Y4551204D01*
X54165227Y4554804D01*
X54141429Y4560765D01*
X54118329Y4569030D01*
X54096151Y4579520D01*
X54075107Y4592133D01*
X54055402Y4606747D01*
X54037223Y4623223D01*
X54020747Y4641402D01*
X54006133Y4661107D01*
X53993520Y4682151D01*
X53983030Y4704329D01*
X53974765Y4727429D01*
X53968804Y4751227D01*
X53965204Y4775496D01*
X53964000Y4800000D01*
X53964000Y7900000D01*
X53965204Y7924504D01*
X53968804Y7948773D01*
X53974765Y7972571D01*
X53983030Y7995671D01*
X53993520Y8017849D01*
X54006133Y8038893D01*
X54020747Y8058598D01*
X54037223Y8076777D01*
X54055402Y8093253D01*
X54075107Y8107867D01*
X54096151Y8120480D01*
X54118329Y8130970D01*
X54141429Y8139235D01*
X54165227Y8145196D01*
X54189496Y8148796D01*
X54214000Y8150000D01*
X55514000Y8150000D01*
X55538504Y8148796D01*
G37*
%TD.AperFunction*%
D16*
%TO.P,J3,2*%
%TO.N,DAC_OUTPUT*%
X49784000Y6350000D03*
%TD*%
%TO.P,J4,3*%
%TO.N,+5V*%
X40132000Y4826000D03*
%TO.P,J4,2*%
%TO.N,+3V3*%
X35052000Y4826000D03*
%TA.AperFunction,ComponentPad*%
D15*
%TO.P,J4,1*%
%TO.N,GND*%
G36*
X30646504Y6624796D02*
G01*
X30670773Y6621196D01*
X30694571Y6615235D01*
X30717671Y6606970D01*
X30739849Y6596480D01*
X30760893Y6583867D01*
X30780598Y6569253D01*
X30798777Y6552777D01*
X30815253Y6534598D01*
X30829867Y6514893D01*
X30842480Y6493849D01*
X30852970Y6471671D01*
X30861235Y6448571D01*
X30867196Y6424773D01*
X30870796Y6400504D01*
X30872000Y6376000D01*
X30872000Y3276000D01*
X30870796Y3251496D01*
X30867196Y3227227D01*
X30861235Y3203429D01*
X30852970Y3180329D01*
X30842480Y3158151D01*
X30829867Y3137107D01*
X30815253Y3117402D01*
X30798777Y3099223D01*
X30780598Y3082747D01*
X30760893Y3068133D01*
X30739849Y3055520D01*
X30717671Y3045030D01*
X30694571Y3036765D01*
X30670773Y3030804D01*
X30646504Y3027204D01*
X30622000Y3026000D01*
X29322000Y3026000D01*
X29297496Y3027204D01*
X29273227Y3030804D01*
X29249429Y3036765D01*
X29226329Y3045030D01*
X29204151Y3055520D01*
X29183107Y3068133D01*
X29163402Y3082747D01*
X29145223Y3099223D01*
X29128747Y3117402D01*
X29114133Y3137107D01*
X29101520Y3158151D01*
X29091030Y3180329D01*
X29082765Y3203429D01*
X29076804Y3227227D01*
X29073204Y3251496D01*
X29072000Y3276000D01*
X29072000Y6376000D01*
X29073204Y6400504D01*
X29076804Y6424773D01*
X29082765Y6448571D01*
X29091030Y6471671D01*
X29101520Y6493849D01*
X29114133Y6514893D01*
X29128747Y6534598D01*
X29145223Y6552777D01*
X29163402Y6569253D01*
X29183107Y6583867D01*
X29204151Y6596480D01*
X29226329Y6606970D01*
X29249429Y6615235D01*
X29273227Y6621196D01*
X29297496Y6624796D01*
X29322000Y6626000D01*
X30622000Y6626000D01*
X30646504Y6624796D01*
G37*
%TD.AperFunction*%
%TD*%
%TA.AperFunction,ComponentPad*%
%TO.P,J5,1*%
%TO.N,ADC1_CH_2*%
G36*
X13120504Y6624796D02*
G01*
X13144773Y6621196D01*
X13168571Y6615235D01*
X13191671Y6606970D01*
X13213849Y6596480D01*
X13234893Y6583867D01*
X13254598Y6569253D01*
X13272777Y6552777D01*
X13289253Y6534598D01*
X13303867Y6514893D01*
X13316480Y6493849D01*
X13326970Y6471671D01*
X13335235Y6448571D01*
X13341196Y6424773D01*
X13344796Y6400504D01*
X13346000Y6376000D01*
X13346000Y3276000D01*
X13344796Y3251496D01*
X13341196Y3227227D01*
X13335235Y3203429D01*
X13326970Y3180329D01*
X13316480Y3158151D01*
X13303867Y3137107D01*
X13289253Y3117402D01*
X13272777Y3099223D01*
X13254598Y3082747D01*
X13234893Y3068133D01*
X13213849Y3055520D01*
X13191671Y3045030D01*
X13168571Y3036765D01*
X13144773Y3030804D01*
X13120504Y3027204D01*
X13096000Y3026000D01*
X11796000Y3026000D01*
X11771496Y3027204D01*
X11747227Y3030804D01*
X11723429Y3036765D01*
X11700329Y3045030D01*
X11678151Y3055520D01*
X11657107Y3068133D01*
X11637402Y3082747D01*
X11619223Y3099223D01*
X11602747Y3117402D01*
X11588133Y3137107D01*
X11575520Y3158151D01*
X11565030Y3180329D01*
X11556765Y3203429D01*
X11550804Y3227227D01*
X11547204Y3251496D01*
X11546000Y3276000D01*
X11546000Y6376000D01*
X11547204Y6400504D01*
X11550804Y6424773D01*
X11556765Y6448571D01*
X11565030Y6471671D01*
X11575520Y6493849D01*
X11588133Y6514893D01*
X11602747Y6534598D01*
X11619223Y6552777D01*
X11637402Y6569253D01*
X11657107Y6583867D01*
X11678151Y6596480D01*
X11700329Y6606970D01*
X11723429Y6615235D01*
X11747227Y6621196D01*
X11771496Y6624796D01*
X11796000Y6626000D01*
X13096000Y6626000D01*
X13120504Y6624796D01*
G37*
%TD.AperFunction*%
D16*
%TO.P,J5,2*%
%TO.N,ADC1_CH_1*%
X17526000Y4826000D03*
%TO.P,J5,3*%
%TO.N,ADC1_CH_0*%
X22606000Y4826000D03*
%TD*%
D11*
%TO.P,JP1,1*%
%TO.N,I2C_SDA*%
X5334000Y16764000D03*
D12*
%TO.P,JP1,2*%
%TO.N,/GPIO2(SDA1)*%
X2794000Y16764000D03*
%TD*%
%TO.P,JP2,2*%
%TO.N,/GPIO3(SCL1)*%
X2794000Y9144000D03*
D11*
%TO.P,JP2,1*%
%TO.N,I2C_SCL*%
X5334000Y9144000D03*
%TD*%
D17*
%TO.P,R1,2*%
%TO.N,I2C_SDA*%
X26670000Y14986000D03*
D18*
%TO.P,R1,1*%
%TO.N,+3V3*%
X41910000Y14986000D03*
%TD*%
%TO.P,R2,1*%
%TO.N,+3V3*%
X41910000Y18542000D03*
D17*
%TO.P,R2,2*%
%TO.N,I2C_SCL*%
X26670000Y18542000D03*
%TD*%
D18*
%TO.P,R3,1*%
%TO.N,+5V*%
X48260000Y13208000D03*
D17*
%TO.P,R3,2*%
%TO.N,Net-(D1-Pad2)*%
X63500000Y13208000D03*
%TD*%
D11*
%TO.P,JP3,1*%
%TO.N,Net-(JP3-Pad1)*%
X62484000Y27940000D03*
D12*
%TO.P,JP3,2*%
%TO.N,Net-(D2-Pad1)*%
X62484000Y30480000D03*
%TD*%
D19*
%TO.P,U1,36*%
%TO.N,GND*%
X57912000Y24066500D03*
%TO.P,U1,35*%
%TO.N,Net-(U1-Pad34)*%
X55372000Y24066500D03*
%TO.P,U1,34*%
X52895500Y24066500D03*
%TO.P,U1,33*%
%TO.N,ADC1_CH_0*%
X50355500Y24066500D03*
%TO.P,U1,32*%
%TO.N,ADC1_CH_1*%
X47815500Y24066500D03*
%TO.P,U1,31*%
%TO.N,ADC1_CH_2*%
X45275500Y24066500D03*
%TO.P,U1,30*%
%TO.N,N/C*%
X42735500Y24066500D03*
%TO.P,U1,29*%
X40195500Y24066500D03*
%TO.P,U1,28*%
X37655500Y24066500D03*
%TO.P,U1,27*%
X35052000Y24066500D03*
%TO.P,U1,26*%
X32512000Y24066500D03*
%TO.P,U1,25*%
%TO.N,DAC_OUTPUT*%
X29972000Y24066500D03*
%TO.P,U1,24*%
%TO.N,N/C*%
X27432000Y24066500D03*
%TO.P,U1,23*%
X24892000Y24066500D03*
%TO.P,U1,22*%
X22352000Y24066500D03*
%TO.P,U1,21*%
X19812000Y24066500D03*
%TO.P,U1,20*%
X17272000Y24066500D03*
%TO.P,U1,19*%
X14732000Y24066500D03*
%TO.P,U1,18*%
X14732000Y48006000D03*
%TO.P,U1,17*%
%TO.N,HELTEC_RX*%
X17272000Y48006000D03*
%TO.P,U1,16*%
%TO.N,N/C*%
X19812000Y48006000D03*
%TO.P,U1,15*%
X22352000Y48006000D03*
%TO.P,U1,14*%
X24892000Y48006000D03*
%TO.P,U1,13*%
X27432000Y48006000D03*
%TO.P,U1,12*%
X29972000Y48006000D03*
%TO.P,U1,11*%
%TO.N,HELTEC_TX*%
X32512000Y48006000D03*
%TO.P,U1,10*%
%TO.N,N/C*%
X35052000Y48006000D03*
%TO.P,U1,9*%
X37592000Y48006000D03*
%TO.P,U1,8*%
X40132000Y48006000D03*
%TO.P,U1,7*%
X42672000Y48006000D03*
%TO.P,U1,6*%
X45212000Y48006000D03*
%TO.P,U1,5*%
X47752000Y48006000D03*
%TO.P,U1,4*%
%TO.N,VEXT_HELTEC*%
X50292000Y48006000D03*
%TO.P,U1,3*%
X52832000Y48006000D03*
%TO.P,U1,2*%
%TO.N,Net-(JP3-Pad1)*%
X55372000Y48006000D03*
%TO.P,U1,1*%
%TO.N,GND*%
X57912000Y48006000D03*
%TD*%
D20*
%TO.P,D2,1*%
%TO.N,Net-(D2-Pad1)*%
X62484000Y36576000D03*
D21*
%TO.P,D2,2*%
%TO.N,+5V*%
X62484000Y46736000D03*
%TD*%
D22*
%TO.N,*%
X-45466000Y55372000D02*
X-43942000Y55372000D01*
%TO.N,+5V*%
X8370000Y53770000D02*
X10910000Y53770000D01*
D23*
X40132000Y2826000D02*
X40132000Y4826000D01*
X40926000Y2032000D02*
X40132000Y2826000D01*
X46482000Y2032000D02*
X40926000Y2032000D01*
X47460001Y3010001D02*
X46482000Y2032000D01*
X47460001Y12408001D02*
X47460001Y3010001D01*
X48260000Y13208000D02*
X47460001Y12408001D01*
X48260000Y18034000D02*
X48260000Y13208000D01*
X50800000Y20574000D02*
X48260000Y18034000D01*
X60706000Y20574000D02*
X50800000Y20574000D01*
X64399990Y24267990D02*
X60706000Y20574000D01*
X64399990Y44820010D02*
X64399990Y24267990D01*
X62484000Y46736000D02*
X64399990Y44820010D01*
D22*
%TO.N,GND*%
X57912000Y49948000D02*
X57912000Y48006000D01*
X56630000Y51230000D02*
X57912000Y49948000D01*
X22418000Y52578000D02*
X22760001Y52920001D01*
X13450000Y53770000D02*
X14732000Y52488000D01*
X14732000Y52488000D02*
X14732000Y50038000D01*
X14732000Y50038000D02*
X16002000Y48768000D01*
X19812000Y54190002D02*
X19812000Y53325998D01*
X16002000Y47196238D02*
X16716238Y46482000D01*
X17977999Y54920001D02*
X19082001Y54920001D01*
X16716238Y46482000D02*
X17780000Y46482000D01*
X18542000Y51977998D02*
X17272000Y53247998D01*
X19812000Y53325998D02*
X20559998Y52578000D01*
X17780000Y46482000D02*
X18542000Y47244000D01*
X22760001Y52920001D02*
X23610000Y53770000D01*
X20559998Y52578000D02*
X22418000Y52578000D01*
X18542000Y47244000D02*
X18542000Y51977998D01*
X17272000Y53247998D02*
X17272000Y54214002D01*
X17272000Y54214002D02*
X17977999Y54920001D01*
X16002000Y48768000D02*
X16002000Y47196238D01*
X19082001Y54920001D02*
X19812000Y54190002D01*
%TO.N,/GPIO2(SDA1)*%
X10910000Y51230000D02*
X10910000Y21324000D01*
X10910000Y19546000D02*
X10910000Y21324000D01*
X2794000Y16764000D02*
X4572000Y18542000D01*
X9906000Y18542000D02*
X10910000Y19546000D01*
X4572000Y18542000D02*
X9906000Y18542000D01*
%TO.N,Net-(D1-Pad2)*%
X60198000Y16510000D02*
X60198000Y18542000D01*
X63500000Y13208000D02*
X60198000Y16510000D01*
%TO.N,I2C_SCL*%
X17780000Y13462000D02*
X17780000Y18542000D01*
X18930001Y19692001D02*
X17780000Y18542000D01*
X25519999Y19692001D02*
X18930001Y19692001D01*
X26670000Y18542000D02*
X25519999Y19692001D01*
%TO.N,I2C_SDA*%
X15240000Y18542000D02*
X15240000Y13462000D01*
%TO.N,ADC1_CH_2*%
X45275500Y22669500D02*
X45275500Y24066500D01*
X36214011Y21736011D02*
X44342011Y21736011D01*
X24892000Y10414000D02*
X36214011Y21736011D01*
X44342011Y21736011D02*
X45275500Y22669500D01*
X18034000Y10414000D02*
X24892000Y10414000D01*
X12446000Y4826000D02*
X18034000Y10414000D01*
%TO.N,ADC1_CH_1*%
X36518930Y21336000D02*
X47244000Y21336000D01*
X24834930Y9652000D02*
X36518930Y21336000D01*
X18796000Y9652000D02*
X24834930Y9652000D01*
X17526000Y8382000D02*
X18796000Y9652000D01*
X17526000Y4826000D02*
X17526000Y8382000D01*
X47815500Y21907500D02*
X47244000Y21336000D01*
X47815500Y24066500D02*
X47815500Y21907500D01*
%TO.N,ADC1_CH_0*%
X36684618Y20935990D02*
X49383990Y20935990D01*
X24892628Y9144000D02*
X36684618Y20935990D01*
X23622000Y9144000D02*
X24892628Y9144000D01*
X22606000Y8128000D02*
X23622000Y9144000D01*
X22606000Y4826000D02*
X22606000Y8128000D01*
X50355500Y21907500D02*
X49383990Y20935990D01*
X50355500Y24066500D02*
X50355500Y21907500D01*
%TO.N,HELTEC_RX*%
X15990000Y53770000D02*
X17272000Y52488000D01*
X17272000Y52488000D02*
X17272000Y48006000D01*
%TO.N,HELTEC_TX*%
X21082000Y49276000D02*
X31242000Y49276000D01*
X19812000Y50546000D02*
X21082000Y49276000D01*
X19812000Y52488000D02*
X19812000Y50546000D01*
X31242000Y49276000D02*
X32512000Y48006000D01*
X18530000Y53770000D02*
X19812000Y52488000D01*
D23*
%TO.N,Net-(U1-Pad34)*%
X52895500Y24066500D02*
X55372000Y24066500D01*
%TO.N,VEXT_HELTEC*%
X50292000Y48006000D02*
X52832000Y48006000D01*
%TD*%
D24*
%TO.N,GND*%
G36*
X58547000Y55315713D02*
G01*
X58547000Y49251146D01*
X58381952Y49328756D01*
X58114865Y49395023D01*
X57839983Y49407910D01*
X57567867Y49366922D01*
X57308977Y49273636D01*
X57193020Y49211656D01*
X57126040Y48971565D01*
X57912000Y48185605D01*
X57926143Y48199747D01*
X58105748Y48020142D01*
X58091605Y48006000D01*
X58877565Y47220040D01*
X59117656Y47287020D01*
X59234756Y47536048D01*
X59301023Y47803135D01*
X59313910Y48078017D01*
X59272922Y48350133D01*
X59179636Y48609023D01*
X59117656Y48724980D01*
X58877567Y48791959D01*
X58980608Y48895000D01*
X64315001Y48895000D01*
X64315001Y46297999D01*
X64190610Y46422390D01*
X64219000Y46565117D01*
X64219000Y46906883D01*
X64152325Y47242081D01*
X64021537Y47557831D01*
X63831663Y47841998D01*
X63589998Y48083663D01*
X63305831Y48273537D01*
X62990081Y48404325D01*
X62654883Y48471000D01*
X62313117Y48471000D01*
X61977919Y48404325D01*
X61662169Y48273537D01*
X61378002Y48083663D01*
X61136337Y47841998D01*
X60946463Y47557831D01*
X60815675Y47242081D01*
X60749000Y46906883D01*
X60749000Y46565117D01*
X60815675Y46229919D01*
X60946463Y45914169D01*
X61136337Y45630002D01*
X61378002Y45388337D01*
X61662169Y45198463D01*
X61977919Y45067675D01*
X62313117Y45001000D01*
X62654883Y45001000D01*
X62797610Y45029390D01*
X63414990Y44412010D01*
X63414990Y38314072D01*
X61384000Y38314072D01*
X61259518Y38301812D01*
X61139820Y38265502D01*
X61029506Y38206537D01*
X60932815Y38127185D01*
X60853463Y38030494D01*
X60794498Y37920180D01*
X60758188Y37800482D01*
X60745928Y37676000D01*
X60745928Y35476000D01*
X60758188Y35351518D01*
X60794498Y35231820D01*
X60853463Y35121506D01*
X60932815Y35024815D01*
X61029506Y34945463D01*
X61139820Y34886498D01*
X61259518Y34850188D01*
X61384000Y34837928D01*
X63414990Y34837928D01*
X63414991Y31643926D01*
X63187411Y31795990D01*
X62917158Y31907932D01*
X62630260Y31965000D01*
X62337740Y31965000D01*
X62050842Y31907932D01*
X61780589Y31795990D01*
X61537368Y31633475D01*
X61330525Y31426632D01*
X61168010Y31183411D01*
X61056068Y30913158D01*
X60999000Y30626260D01*
X60999000Y30333740D01*
X61056068Y30046842D01*
X61168010Y29776589D01*
X61330525Y29533368D01*
X61462380Y29401513D01*
X61389820Y29379502D01*
X61279506Y29320537D01*
X61182815Y29241185D01*
X61103463Y29144494D01*
X61044498Y29034180D01*
X61008188Y28914482D01*
X60995928Y28790000D01*
X60995928Y27090000D01*
X61008188Y26965518D01*
X61044498Y26845820D01*
X61103463Y26735506D01*
X61182815Y26638815D01*
X61279506Y26559463D01*
X61389820Y26500498D01*
X61509518Y26464188D01*
X61634000Y26451928D01*
X63334000Y26451928D01*
X63414991Y26459905D01*
X63414991Y24675992D01*
X60298000Y21559000D01*
X51002631Y21559000D01*
X51037837Y21624866D01*
X51079865Y21763415D01*
X51094056Y21907500D01*
X51090500Y21943605D01*
X51090500Y22877455D01*
X51246035Y22981380D01*
X51440620Y23175965D01*
X51593505Y23404773D01*
X51625500Y23482015D01*
X51657495Y23404773D01*
X51810380Y23175965D01*
X52004965Y22981380D01*
X52233773Y22828495D01*
X52488010Y22723186D01*
X52757908Y22669500D01*
X53033092Y22669500D01*
X53302990Y22723186D01*
X53557227Y22828495D01*
X53786035Y22981380D01*
X53886155Y23081500D01*
X54381345Y23081500D01*
X54481465Y22981380D01*
X54710273Y22828495D01*
X54964510Y22723186D01*
X55234408Y22669500D01*
X55509592Y22669500D01*
X55779490Y22723186D01*
X56033727Y22828495D01*
X56262535Y22981380D01*
X56382090Y23100935D01*
X57126040Y23100935D01*
X57193020Y22860844D01*
X57442048Y22743744D01*
X57709135Y22677477D01*
X57984017Y22664590D01*
X58256133Y22705578D01*
X58515023Y22798864D01*
X58630980Y22860844D01*
X58697960Y23100935D01*
X57912000Y23886895D01*
X57126040Y23100935D01*
X56382090Y23100935D01*
X56457120Y23175965D01*
X56610005Y23404773D01*
X56639692Y23476443D01*
X56644364Y23463477D01*
X56706344Y23347520D01*
X56946435Y23280540D01*
X57732395Y24066500D01*
X58091605Y24066500D01*
X58877565Y23280540D01*
X59117656Y23347520D01*
X59234756Y23596548D01*
X59301023Y23863635D01*
X59313910Y24138517D01*
X59272922Y24410633D01*
X59179636Y24669523D01*
X59117656Y24785480D01*
X58877565Y24852460D01*
X58091605Y24066500D01*
X57732395Y24066500D01*
X56946435Y24852460D01*
X56706344Y24785480D01*
X56642515Y24649740D01*
X56610005Y24728227D01*
X56457120Y24957035D01*
X56382090Y25032065D01*
X57126040Y25032065D01*
X57912000Y24246105D01*
X58697960Y25032065D01*
X58630980Y25272156D01*
X58381952Y25389256D01*
X58114865Y25455523D01*
X57839983Y25468410D01*
X57567867Y25427422D01*
X57308977Y25334136D01*
X57193020Y25272156D01*
X57126040Y25032065D01*
X56382090Y25032065D01*
X56262535Y25151620D01*
X56033727Y25304505D01*
X55779490Y25409814D01*
X55509592Y25463500D01*
X55234408Y25463500D01*
X54964510Y25409814D01*
X54710273Y25304505D01*
X54481465Y25151620D01*
X54381345Y25051500D01*
X53886155Y25051500D01*
X53786035Y25151620D01*
X53557227Y25304505D01*
X53302990Y25409814D01*
X53033092Y25463500D01*
X52757908Y25463500D01*
X52488010Y25409814D01*
X52233773Y25304505D01*
X52004965Y25151620D01*
X51810380Y24957035D01*
X51657495Y24728227D01*
X51625500Y24650985D01*
X51593505Y24728227D01*
X51440620Y24957035D01*
X51246035Y25151620D01*
X51017227Y25304505D01*
X50762990Y25409814D01*
X50493092Y25463500D01*
X50217908Y25463500D01*
X49948010Y25409814D01*
X49693773Y25304505D01*
X49464965Y25151620D01*
X49270380Y24957035D01*
X49117495Y24728227D01*
X49085500Y24650985D01*
X49053505Y24728227D01*
X48900620Y24957035D01*
X48706035Y25151620D01*
X48477227Y25304505D01*
X48222990Y25409814D01*
X47953092Y25463500D01*
X47677908Y25463500D01*
X47408010Y25409814D01*
X47153773Y25304505D01*
X46924965Y25151620D01*
X46730380Y24957035D01*
X46577495Y24728227D01*
X46545500Y24650985D01*
X46513505Y24728227D01*
X46360620Y24957035D01*
X46166035Y25151620D01*
X45937227Y25304505D01*
X45682990Y25409814D01*
X45413092Y25463500D01*
X45137908Y25463500D01*
X44868010Y25409814D01*
X44613773Y25304505D01*
X44384965Y25151620D01*
X44190380Y24957035D01*
X44037495Y24728227D01*
X44005500Y24650985D01*
X43973505Y24728227D01*
X43820620Y24957035D01*
X43626035Y25151620D01*
X43397227Y25304505D01*
X43142990Y25409814D01*
X42873092Y25463500D01*
X42597908Y25463500D01*
X42328010Y25409814D01*
X42073773Y25304505D01*
X41844965Y25151620D01*
X41650380Y24957035D01*
X41497495Y24728227D01*
X41465500Y24650985D01*
X41433505Y24728227D01*
X41280620Y24957035D01*
X41086035Y25151620D01*
X40857227Y25304505D01*
X40602990Y25409814D01*
X40333092Y25463500D01*
X40057908Y25463500D01*
X39788010Y25409814D01*
X39533773Y25304505D01*
X39304965Y25151620D01*
X39110380Y24957035D01*
X38957495Y24728227D01*
X38925500Y24650985D01*
X38893505Y24728227D01*
X38740620Y24957035D01*
X38546035Y25151620D01*
X38317227Y25304505D01*
X38062990Y25409814D01*
X37793092Y25463500D01*
X37517908Y25463500D01*
X37248010Y25409814D01*
X36993773Y25304505D01*
X36764965Y25151620D01*
X36570380Y24957035D01*
X36417495Y24728227D01*
X36353750Y24574334D01*
X36290005Y24728227D01*
X36137120Y24957035D01*
X35942535Y25151620D01*
X35713727Y25304505D01*
X35459490Y25409814D01*
X35189592Y25463500D01*
X34914408Y25463500D01*
X34644510Y25409814D01*
X34390273Y25304505D01*
X34161465Y25151620D01*
X33966880Y24957035D01*
X33813995Y24728227D01*
X33782000Y24650985D01*
X33750005Y24728227D01*
X33597120Y24957035D01*
X33402535Y25151620D01*
X33173727Y25304505D01*
X32919490Y25409814D01*
X32649592Y25463500D01*
X32374408Y25463500D01*
X32104510Y25409814D01*
X31850273Y25304505D01*
X31621465Y25151620D01*
X31426880Y24957035D01*
X31273995Y24728227D01*
X31242000Y24650985D01*
X31210005Y24728227D01*
X31057120Y24957035D01*
X30862535Y25151620D01*
X30633727Y25304505D01*
X30379490Y25409814D01*
X30109592Y25463500D01*
X29834408Y25463500D01*
X29564510Y25409814D01*
X29310273Y25304505D01*
X29081465Y25151620D01*
X28886880Y24957035D01*
X28733995Y24728227D01*
X28702000Y24650985D01*
X28670005Y24728227D01*
X28517120Y24957035D01*
X28322535Y25151620D01*
X28093727Y25304505D01*
X27839490Y25409814D01*
X27569592Y25463500D01*
X27294408Y25463500D01*
X27024510Y25409814D01*
X26770273Y25304505D01*
X26541465Y25151620D01*
X26346880Y24957035D01*
X26193995Y24728227D01*
X26162000Y24650985D01*
X26130005Y24728227D01*
X25977120Y24957035D01*
X25782535Y25151620D01*
X25553727Y25304505D01*
X25299490Y25409814D01*
X25029592Y25463500D01*
X24754408Y25463500D01*
X24484510Y25409814D01*
X24230273Y25304505D01*
X24001465Y25151620D01*
X23806880Y24957035D01*
X23653995Y24728227D01*
X23622000Y24650985D01*
X23590005Y24728227D01*
X23437120Y24957035D01*
X23242535Y25151620D01*
X23013727Y25304505D01*
X22759490Y25409814D01*
X22489592Y25463500D01*
X22214408Y25463500D01*
X21944510Y25409814D01*
X21690273Y25304505D01*
X21461465Y25151620D01*
X21266880Y24957035D01*
X21113995Y24728227D01*
X21082000Y24650985D01*
X21050005Y24728227D01*
X20897120Y24957035D01*
X20702535Y25151620D01*
X20473727Y25304505D01*
X20219490Y25409814D01*
X19949592Y25463500D01*
X19674408Y25463500D01*
X19404510Y25409814D01*
X19150273Y25304505D01*
X18921465Y25151620D01*
X18726880Y24957035D01*
X18573995Y24728227D01*
X18542000Y24650985D01*
X18510005Y24728227D01*
X18357120Y24957035D01*
X18162535Y25151620D01*
X17933727Y25304505D01*
X17679490Y25409814D01*
X17409592Y25463500D01*
X17134408Y25463500D01*
X16864510Y25409814D01*
X16610273Y25304505D01*
X16381465Y25151620D01*
X16186880Y24957035D01*
X16033995Y24728227D01*
X16002000Y24650985D01*
X15970005Y24728227D01*
X15817120Y24957035D01*
X15622535Y25151620D01*
X15393727Y25304505D01*
X15139490Y25409814D01*
X14869592Y25463500D01*
X14594408Y25463500D01*
X14324510Y25409814D01*
X14070273Y25304505D01*
X13841465Y25151620D01*
X13646880Y24957035D01*
X13493995Y24728227D01*
X13388686Y24473990D01*
X13335000Y24204092D01*
X13335000Y23928908D01*
X13388686Y23659010D01*
X13493995Y23404773D01*
X13646880Y23175965D01*
X13841465Y22981380D01*
X14070273Y22828495D01*
X14324510Y22723186D01*
X14594408Y22669500D01*
X14869592Y22669500D01*
X15139490Y22723186D01*
X15393727Y22828495D01*
X15622535Y22981380D01*
X15817120Y23175965D01*
X15970005Y23404773D01*
X16002000Y23482015D01*
X16033995Y23404773D01*
X16186880Y23175965D01*
X16381465Y22981380D01*
X16610273Y22828495D01*
X16864510Y22723186D01*
X17134408Y22669500D01*
X17409592Y22669500D01*
X17679490Y22723186D01*
X17933727Y22828495D01*
X18162535Y22981380D01*
X18357120Y23175965D01*
X18510005Y23404773D01*
X18542000Y23482015D01*
X18573995Y23404773D01*
X18726880Y23175965D01*
X18921465Y22981380D01*
X19150273Y22828495D01*
X19404510Y22723186D01*
X19674408Y22669500D01*
X19949592Y22669500D01*
X20219490Y22723186D01*
X20473727Y22828495D01*
X20702535Y22981380D01*
X20897120Y23175965D01*
X21050005Y23404773D01*
X21082000Y23482015D01*
X21113995Y23404773D01*
X21266880Y23175965D01*
X21461465Y22981380D01*
X21690273Y22828495D01*
X21944510Y22723186D01*
X22214408Y22669500D01*
X22489592Y22669500D01*
X22759490Y22723186D01*
X23013727Y22828495D01*
X23242535Y22981380D01*
X23437120Y23175965D01*
X23590005Y23404773D01*
X23622000Y23482015D01*
X23653995Y23404773D01*
X23806880Y23175965D01*
X24001465Y22981380D01*
X24230273Y22828495D01*
X24484510Y22723186D01*
X24754408Y22669500D01*
X25029592Y22669500D01*
X25299490Y22723186D01*
X25553727Y22828495D01*
X25782535Y22981380D01*
X25977120Y23175965D01*
X26130005Y23404773D01*
X26162000Y23482015D01*
X26193995Y23404773D01*
X26346880Y23175965D01*
X26541465Y22981380D01*
X26770273Y22828495D01*
X27024510Y22723186D01*
X27294408Y22669500D01*
X27569592Y22669500D01*
X27839490Y22723186D01*
X28093727Y22828495D01*
X28322535Y22981380D01*
X28517120Y23175965D01*
X28670005Y23404773D01*
X28702000Y23482015D01*
X28733995Y23404773D01*
X28886880Y23175965D01*
X29081465Y22981380D01*
X29310273Y22828495D01*
X29564510Y22723186D01*
X29834408Y22669500D01*
X30109592Y22669500D01*
X30379490Y22723186D01*
X30633727Y22828495D01*
X30862535Y22981380D01*
X31057120Y23175965D01*
X31210005Y23404773D01*
X31242000Y23482015D01*
X31273995Y23404773D01*
X31426880Y23175965D01*
X31621465Y22981380D01*
X31850273Y22828495D01*
X32104510Y22723186D01*
X32374408Y22669500D01*
X32649592Y22669500D01*
X32919490Y22723186D01*
X33173727Y22828495D01*
X33402535Y22981380D01*
X33597120Y23175965D01*
X33750005Y23404773D01*
X33782000Y23482015D01*
X33813995Y23404773D01*
X33966880Y23175965D01*
X34161465Y22981380D01*
X34390273Y22828495D01*
X34644510Y22723186D01*
X34914408Y22669500D01*
X35189592Y22669500D01*
X35459490Y22723186D01*
X35713727Y22828495D01*
X35942535Y22981380D01*
X36137120Y23175965D01*
X36290005Y23404773D01*
X36353750Y23558666D01*
X36417495Y23404773D01*
X36570380Y23175965D01*
X36764965Y22981380D01*
X36993773Y22828495D01*
X37248010Y22723186D01*
X37517908Y22669500D01*
X37793092Y22669500D01*
X38062990Y22723186D01*
X38317227Y22828495D01*
X38546035Y22981380D01*
X38740620Y23175965D01*
X38893505Y23404773D01*
X38925500Y23482015D01*
X38957495Y23404773D01*
X39110380Y23175965D01*
X39304965Y22981380D01*
X39533773Y22828495D01*
X39788010Y22723186D01*
X40057908Y22669500D01*
X40333092Y22669500D01*
X40602990Y22723186D01*
X40857227Y22828495D01*
X41086035Y22981380D01*
X41280620Y23175965D01*
X41433505Y23404773D01*
X41465500Y23482015D01*
X41497495Y23404773D01*
X41650380Y23175965D01*
X41844965Y22981380D01*
X42073773Y22828495D01*
X42328010Y22723186D01*
X42597908Y22669500D01*
X42873092Y22669500D01*
X43142990Y22723186D01*
X43397227Y22828495D01*
X43626035Y22981380D01*
X43820620Y23175965D01*
X43973505Y23404773D01*
X44005500Y23482015D01*
X44037495Y23404773D01*
X44190380Y23175965D01*
X44384965Y22981380D01*
X44482657Y22916104D01*
X44037565Y22471011D01*
X36250116Y22471011D01*
X36214011Y22474567D01*
X36069926Y22460376D01*
X35931377Y22418348D01*
X35872481Y22386867D01*
X35803691Y22350098D01*
X35691773Y22258249D01*
X35668757Y22230204D01*
X28060747Y14622193D01*
X28105000Y14844665D01*
X28105000Y15127335D01*
X28049853Y15404574D01*
X27941680Y15665727D01*
X27784637Y15900759D01*
X27584759Y16100637D01*
X27349727Y16257680D01*
X27088574Y16365853D01*
X26811335Y16421000D01*
X26528665Y16421000D01*
X26251426Y16365853D01*
X25990273Y16257680D01*
X25755241Y16100637D01*
X25555363Y15900759D01*
X25398320Y15665727D01*
X25290147Y15404574D01*
X25235000Y15127335D01*
X25235000Y14844665D01*
X25290147Y14567426D01*
X25398320Y14306273D01*
X25555363Y14071241D01*
X25755241Y13871363D01*
X25990273Y13714320D01*
X26251426Y13606147D01*
X26528665Y13551000D01*
X26811335Y13551000D01*
X27033807Y13595253D01*
X24587554Y11149000D01*
X18070094Y11149000D01*
X18033999Y11152555D01*
X17997904Y11149000D01*
X17997895Y11149000D01*
X17889915Y11138365D01*
X17751367Y11096337D01*
X17623680Y11028087D01*
X17511762Y10936238D01*
X17488746Y10908193D01*
X13647372Y7066818D01*
X13589386Y7114405D01*
X13435850Y7196472D01*
X13269254Y7247008D01*
X13096000Y7264072D01*
X11796000Y7264072D01*
X11622746Y7247008D01*
X11456150Y7196472D01*
X11302614Y7114405D01*
X11168038Y7003962D01*
X11057595Y6869386D01*
X10975528Y6715850D01*
X10924992Y6549254D01*
X10907928Y6376000D01*
X10907928Y3276000D01*
X10924992Y3102746D01*
X10975528Y2936150D01*
X11057595Y2782614D01*
X11168038Y2648038D01*
X11302614Y2537595D01*
X11456150Y2455528D01*
X11622746Y2404992D01*
X11796000Y2387928D01*
X13096000Y2387928D01*
X13269254Y2404992D01*
X13435850Y2455528D01*
X13589386Y2537595D01*
X13723962Y2648038D01*
X13834405Y2782614D01*
X13916472Y2936150D01*
X13967008Y3102746D01*
X13984072Y3276000D01*
X13984072Y5324626D01*
X16791001Y8131554D01*
X16791001Y7073653D01*
X16669073Y7008481D01*
X16435339Y6816661D01*
X16243519Y6582926D01*
X16100983Y6316260D01*
X16013210Y6026912D01*
X15991000Y5801407D01*
X15991000Y3850592D01*
X16013211Y3625087D01*
X16100984Y3335739D01*
X16243520Y3069073D01*
X16435340Y2835339D01*
X16669074Y2643519D01*
X16935740Y2500983D01*
X17225088Y2413210D01*
X17526000Y2383573D01*
X17826913Y2413210D01*
X18116261Y2500983D01*
X18382927Y2643519D01*
X18616661Y2835339D01*
X18808481Y3069073D01*
X18951017Y3335739D01*
X19038790Y3625087D01*
X19061000Y3850592D01*
X19061000Y5801408D01*
X19038790Y6026913D01*
X18951017Y6316261D01*
X18808481Y6582927D01*
X18616661Y6816661D01*
X18382926Y7008481D01*
X18261000Y7073652D01*
X18261000Y8077554D01*
X19100447Y8917000D01*
X22355554Y8917000D01*
X22111808Y8673254D01*
X22083763Y8650238D01*
X21991914Y8538320D01*
X21973834Y8504494D01*
X21923664Y8410633D01*
X21881635Y8272085D01*
X21867444Y8128000D01*
X21871001Y8091885D01*
X21871001Y7073653D01*
X21749073Y7008481D01*
X21515339Y6816661D01*
X21323519Y6582926D01*
X21180983Y6316260D01*
X21093210Y6026912D01*
X21071000Y5801407D01*
X21071000Y3850592D01*
X21093211Y3625087D01*
X21180984Y3335739D01*
X21323520Y3069073D01*
X21515340Y2835339D01*
X21749074Y2643519D01*
X22015740Y2500983D01*
X22305088Y2413210D01*
X22606000Y2383573D01*
X22906913Y2413210D01*
X23196261Y2500983D01*
X23462927Y2643519D01*
X23696661Y2835339D01*
X23853132Y3026000D01*
X28433928Y3026000D01*
X28446188Y2901518D01*
X28482498Y2781820D01*
X28541463Y2671506D01*
X28620815Y2574815D01*
X28717506Y2495463D01*
X28827820Y2436498D01*
X28947518Y2400188D01*
X29072000Y2387928D01*
X29686250Y2391000D01*
X29845000Y2549750D01*
X29845000Y4699000D01*
X30099000Y4699000D01*
X30099000Y2549750D01*
X30257750Y2391000D01*
X30872000Y2387928D01*
X30996482Y2400188D01*
X31116180Y2436498D01*
X31226494Y2495463D01*
X31323185Y2574815D01*
X31402537Y2671506D01*
X31461502Y2781820D01*
X31497812Y2901518D01*
X31510072Y3026000D01*
X31507000Y4540250D01*
X31348250Y4699000D01*
X30099000Y4699000D01*
X29845000Y4699000D01*
X28595750Y4699000D01*
X28437000Y4540250D01*
X28433928Y3026000D01*
X23853132Y3026000D01*
X23888481Y3069073D01*
X24031017Y3335739D01*
X24118790Y3625087D01*
X24141000Y3850592D01*
X24141000Y5801408D01*
X24118790Y6026913D01*
X24031017Y6316261D01*
X23888481Y6582927D01*
X23853133Y6626000D01*
X28433928Y6626000D01*
X28437000Y5111750D01*
X28595750Y4953000D01*
X29845000Y4953000D01*
X29845000Y7102250D01*
X30099000Y7102250D01*
X30099000Y4953000D01*
X31348250Y4953000D01*
X31507000Y5111750D01*
X31508399Y5801407D01*
X33517000Y5801407D01*
X33517000Y3850592D01*
X33539211Y3625087D01*
X33626984Y3335739D01*
X33769520Y3069073D01*
X33961340Y2835339D01*
X34195074Y2643519D01*
X34461740Y2500983D01*
X34751088Y2413210D01*
X35052000Y2383573D01*
X35352913Y2413210D01*
X35642261Y2500983D01*
X35908927Y2643519D01*
X36142661Y2835339D01*
X36334481Y3069073D01*
X36477017Y3335739D01*
X36564790Y3625087D01*
X36587000Y3850592D01*
X36587000Y5801408D01*
X36564790Y6026913D01*
X36477017Y6316261D01*
X36334481Y6582927D01*
X36142661Y6816661D01*
X35908926Y7008481D01*
X35642260Y7151017D01*
X35352912Y7238790D01*
X35052000Y7268427D01*
X34751087Y7238790D01*
X34461739Y7151017D01*
X34195073Y7008481D01*
X33961339Y6816661D01*
X33769519Y6582926D01*
X33626983Y6316260D01*
X33539210Y6026912D01*
X33517000Y5801407D01*
X31508399Y5801407D01*
X31510072Y6626000D01*
X31497812Y6750482D01*
X31461502Y6870180D01*
X31402537Y6980494D01*
X31323185Y7077185D01*
X31226494Y7156537D01*
X31116180Y7215502D01*
X30996482Y7251812D01*
X30872000Y7264072D01*
X30257750Y7261000D01*
X30099000Y7102250D01*
X29845000Y7102250D01*
X29686250Y7261000D01*
X29072000Y7264072D01*
X28947518Y7251812D01*
X28827820Y7215502D01*
X28717506Y7156537D01*
X28620815Y7077185D01*
X28541463Y6980494D01*
X28482498Y6870180D01*
X28446188Y6750482D01*
X28433928Y6626000D01*
X23853133Y6626000D01*
X23696661Y6816661D01*
X23462926Y7008481D01*
X23341000Y7073652D01*
X23341000Y7823554D01*
X23926447Y8409000D01*
X24856523Y8409000D01*
X24892628Y8405444D01*
X24928733Y8409000D01*
X25036713Y8419635D01*
X25175261Y8461663D01*
X25302948Y8529913D01*
X25414866Y8621762D01*
X25437887Y8649813D01*
X36989065Y20200990D01*
X43822567Y20200990D01*
X43810027Y20188362D01*
X43765689Y20144943D01*
X43759592Y20137574D01*
X43636242Y19986332D01*
X43601881Y19934614D01*
X43566809Y19883393D01*
X43562260Y19874980D01*
X43470635Y19702657D01*
X43446978Y19645261D01*
X43422519Y19588193D01*
X43419690Y19579057D01*
X43363281Y19392220D01*
X43351219Y19331302D01*
X43338314Y19270590D01*
X43337314Y19261078D01*
X43318269Y19066845D01*
X43318269Y19066827D01*
X43315001Y19033647D01*
X43315001Y18834148D01*
X43289853Y18960574D01*
X43181680Y19221727D01*
X43024637Y19456759D01*
X42824759Y19656637D01*
X42589727Y19813680D01*
X42328574Y19921853D01*
X42051335Y19977000D01*
X41768665Y19977000D01*
X41491426Y19921853D01*
X41230273Y19813680D01*
X40995241Y19656637D01*
X40795363Y19456759D01*
X40638320Y19221727D01*
X40530147Y18960574D01*
X40475000Y18683335D01*
X40475000Y18400665D01*
X40530147Y18123426D01*
X40638320Y17862273D01*
X40795363Y17627241D01*
X40995241Y17427363D01*
X41230273Y17270320D01*
X41491426Y17162147D01*
X41768665Y17107000D01*
X42051335Y17107000D01*
X42328574Y17162147D01*
X42589727Y17270320D01*
X42824759Y17427363D01*
X43024637Y17627241D01*
X43181680Y17862273D01*
X43289853Y18123426D01*
X43315001Y18249852D01*
X43315001Y15278149D01*
X43289853Y15404574D01*
X43181680Y15665727D01*
X43024637Y15900759D01*
X42824759Y16100637D01*
X42589727Y16257680D01*
X42328574Y16365853D01*
X42051335Y16421000D01*
X41768665Y16421000D01*
X41491426Y16365853D01*
X41230273Y16257680D01*
X40995241Y16100637D01*
X40795363Y15900759D01*
X40638320Y15665727D01*
X40530147Y15404574D01*
X40475000Y15127335D01*
X40475000Y14844665D01*
X40530147Y14567426D01*
X40638320Y14306273D01*
X40795363Y14071241D01*
X40995241Y13871363D01*
X41230273Y13714320D01*
X41491426Y13606147D01*
X41768665Y13551000D01*
X42051335Y13551000D01*
X42328574Y13606147D01*
X42589727Y13714320D01*
X42824759Y13871363D01*
X43024637Y14071241D01*
X43181680Y14306273D01*
X43289853Y14567426D01*
X43315001Y14693850D01*
X43315000Y3966354D01*
X43318366Y3932179D01*
X43318366Y3919194D01*
X43319366Y3909682D01*
X43341121Y3715732D01*
X43354025Y3655024D01*
X43366089Y3594099D01*
X43368917Y3584962D01*
X43427930Y3398932D01*
X43452377Y3341895D01*
X43476046Y3284469D01*
X43480595Y3276056D01*
X43574617Y3105031D01*
X43609692Y3053806D01*
X43634146Y3017000D01*
X41371746Y3017000D01*
X41414481Y3069073D01*
X41557017Y3335739D01*
X41644790Y3625087D01*
X41667000Y3850592D01*
X41667000Y5801408D01*
X41644790Y6026913D01*
X41557017Y6316261D01*
X41414481Y6582927D01*
X41222661Y6816661D01*
X40988926Y7008481D01*
X40722260Y7151017D01*
X40432912Y7238790D01*
X40132000Y7268427D01*
X39831087Y7238790D01*
X39541739Y7151017D01*
X39275073Y7008481D01*
X39041339Y6816661D01*
X38849519Y6582926D01*
X38706983Y6316260D01*
X38619210Y6026912D01*
X38597000Y5801407D01*
X38597000Y3850592D01*
X38619211Y3625087D01*
X38706984Y3335739D01*
X38849520Y3069073D01*
X39041340Y2835339D01*
X39150107Y2746077D01*
X39150815Y2738885D01*
X39161253Y2632907D01*
X39217576Y2447234D01*
X39309040Y2276116D01*
X39432130Y2126130D01*
X39469715Y2095285D01*
X40195288Y1369711D01*
X40226130Y1332130D01*
X40263709Y1301290D01*
X40376116Y1209040D01*
X40547233Y1117576D01*
X40732906Y1061253D01*
X40926000Y1042235D01*
X40974380Y1047000D01*
X46433620Y1047000D01*
X46482000Y1042235D01*
X46530380Y1047000D01*
X46675094Y1061253D01*
X46860767Y1117576D01*
X47031884Y1209040D01*
X47181870Y1332130D01*
X47212716Y1369716D01*
X48122285Y2279285D01*
X48159871Y2310131D01*
X48282961Y2460117D01*
X48374425Y2631234D01*
X48417639Y2773692D01*
X48430748Y2816906D01*
X48449766Y3010000D01*
X48445001Y3058380D01*
X48445001Y4698812D01*
X48501519Y4593074D01*
X48693339Y4359339D01*
X48927073Y4167519D01*
X49193739Y4024983D01*
X49483087Y3937210D01*
X49784000Y3907573D01*
X50084912Y3937210D01*
X50374260Y4024983D01*
X50640926Y4167519D01*
X50874661Y4359339D01*
X51031132Y4550000D01*
X53325928Y4550000D01*
X53338188Y4425518D01*
X53374498Y4305820D01*
X53433463Y4195506D01*
X53512815Y4098815D01*
X53609506Y4019463D01*
X53719820Y3960498D01*
X53839518Y3924188D01*
X53964000Y3911928D01*
X54578250Y3915000D01*
X54737000Y4073750D01*
X54737000Y6223000D01*
X54991000Y6223000D01*
X54991000Y4073750D01*
X55149750Y3915000D01*
X55764000Y3911928D01*
X55888482Y3924188D01*
X56008180Y3960498D01*
X56118494Y4019463D01*
X56215185Y4098815D01*
X56294537Y4195506D01*
X56353502Y4305820D01*
X56389812Y4425518D01*
X56402072Y4550000D01*
X56399000Y6064250D01*
X56240250Y6223000D01*
X54991000Y6223000D01*
X54737000Y6223000D01*
X53487750Y6223000D01*
X53329000Y6064250D01*
X53325928Y4550000D01*
X51031132Y4550000D01*
X51066481Y4593073D01*
X51209017Y4859739D01*
X51296790Y5149087D01*
X51319000Y5374592D01*
X51319000Y7325408D01*
X51296790Y7550913D01*
X51209017Y7840261D01*
X51066481Y8106927D01*
X51031133Y8150000D01*
X53325928Y8150000D01*
X53329000Y6635750D01*
X53487750Y6477000D01*
X54737000Y6477000D01*
X54737000Y8626250D01*
X54991000Y8626250D01*
X54991000Y6477000D01*
X56240250Y6477000D01*
X56399000Y6635750D01*
X56402072Y8150000D01*
X56389812Y8274482D01*
X56353502Y8394180D01*
X56294537Y8504494D01*
X56215185Y8601185D01*
X56118494Y8680537D01*
X56008180Y8739502D01*
X55888482Y8775812D01*
X55764000Y8788072D01*
X55149750Y8785000D01*
X54991000Y8626250D01*
X54737000Y8626250D01*
X54578250Y8785000D01*
X53964000Y8788072D01*
X53839518Y8775812D01*
X53719820Y8739502D01*
X53609506Y8680537D01*
X53512815Y8601185D01*
X53433463Y8504494D01*
X53374498Y8394180D01*
X53338188Y8274482D01*
X53325928Y8150000D01*
X51031133Y8150000D01*
X50874661Y8340661D01*
X50640927Y8532481D01*
X50374261Y8675017D01*
X50084913Y8762790D01*
X49784000Y8792427D01*
X49483088Y8762790D01*
X49193740Y8675017D01*
X48927074Y8532481D01*
X48693340Y8340661D01*
X48501520Y8106927D01*
X48445001Y8001187D01*
X48445001Y11781686D01*
X48678574Y11828147D01*
X48939727Y11936320D01*
X49174759Y12093363D01*
X49374637Y12293241D01*
X49531680Y12528273D01*
X49639853Y12789426D01*
X49695000Y13066665D01*
X49695000Y13349335D01*
X49639853Y13626574D01*
X49531680Y13887727D01*
X49374637Y14122759D01*
X49245000Y14252396D01*
X49245000Y17626000D01*
X51208000Y19589000D01*
X59074183Y19589000D01*
X59005688Y19520505D01*
X58837701Y19269095D01*
X58721989Y18989743D01*
X58663000Y18693184D01*
X58663000Y18390816D01*
X58721989Y18094257D01*
X58837701Y17814905D01*
X59005688Y17563495D01*
X59219495Y17349688D01*
X59463000Y17186983D01*
X59463000Y16546105D01*
X59459444Y16510000D01*
X59463000Y16473896D01*
X59473635Y16365916D01*
X59515663Y16227368D01*
X59583913Y16099681D01*
X59675762Y15987763D01*
X59703808Y15964746D01*
X62107178Y13561375D01*
X62065000Y13349335D01*
X62065000Y13066665D01*
X62120147Y12789426D01*
X62228320Y12528273D01*
X62385363Y12293241D01*
X62585241Y12093363D01*
X62820273Y11936320D01*
X63081426Y11828147D01*
X63358665Y11773000D01*
X63641335Y11773000D01*
X63918574Y11828147D01*
X64179727Y11936320D01*
X64315000Y12026706D01*
X64315000Y7493000D01*
X58420000Y7493000D01*
X58395224Y7490560D01*
X58371399Y7483333D01*
X58349443Y7471597D01*
X58330197Y7455803D01*
X58314403Y7436557D01*
X58302667Y7414601D01*
X58295440Y7390776D01*
X58293000Y7366000D01*
X58293000Y685000D01*
X7239000Y685000D01*
X7239000Y7366000D01*
X7236560Y7390776D01*
X7229333Y7414601D01*
X7217597Y7436557D01*
X7201803Y7455803D01*
X7182557Y7471597D01*
X7160601Y7483333D01*
X7136776Y7490560D01*
X7112000Y7493000D01*
X889000Y7493000D01*
X889000Y9290260D01*
X1309000Y9290260D01*
X1309000Y8997740D01*
X1366068Y8710842D01*
X1478010Y8440589D01*
X1640525Y8197368D01*
X1847368Y7990525D01*
X2090589Y7828010D01*
X2360842Y7716068D01*
X2647740Y7659000D01*
X2940260Y7659000D01*
X3227158Y7716068D01*
X3497411Y7828010D01*
X3740632Y7990525D01*
X3872487Y8122380D01*
X3894498Y8049820D01*
X3953463Y7939506D01*
X4032815Y7842815D01*
X4129506Y7763463D01*
X4239820Y7704498D01*
X4359518Y7668188D01*
X4484000Y7655928D01*
X6184000Y7655928D01*
X6308482Y7668188D01*
X6428180Y7704498D01*
X6538494Y7763463D01*
X6635185Y7842815D01*
X6714537Y7939506D01*
X6773502Y8049820D01*
X6809812Y8169518D01*
X6822072Y8294000D01*
X6822072Y9994000D01*
X6809812Y10118482D01*
X6773502Y10238180D01*
X6714537Y10348494D01*
X6635185Y10445185D01*
X6538494Y10524537D01*
X6428180Y10583502D01*
X6308482Y10619812D01*
X6184000Y10632072D01*
X4484000Y10632072D01*
X4359518Y10619812D01*
X4239820Y10583502D01*
X4129506Y10524537D01*
X4032815Y10445185D01*
X3953463Y10348494D01*
X3894498Y10238180D01*
X3872487Y10165620D01*
X3740632Y10297475D01*
X3497411Y10459990D01*
X3227158Y10571932D01*
X2940260Y10629000D01*
X2647740Y10629000D01*
X2360842Y10571932D01*
X2090589Y10459990D01*
X1847368Y10297475D01*
X1640525Y10090632D01*
X1478010Y9847411D01*
X1366068Y9577158D01*
X1309000Y9290260D01*
X889000Y9290260D01*
X889000Y18415000D01*
X3405553Y18415000D01*
X3189897Y18199344D01*
X2940260Y18249000D01*
X2647740Y18249000D01*
X2360842Y18191932D01*
X2090589Y18079990D01*
X1847368Y17917475D01*
X1640525Y17710632D01*
X1478010Y17467411D01*
X1366068Y17197158D01*
X1309000Y16910260D01*
X1309000Y16617740D01*
X1366068Y16330842D01*
X1478010Y16060589D01*
X1640525Y15817368D01*
X1847368Y15610525D01*
X2090589Y15448010D01*
X2360842Y15336068D01*
X2647740Y15279000D01*
X2940260Y15279000D01*
X3227158Y15336068D01*
X3497411Y15448010D01*
X3740632Y15610525D01*
X3872487Y15742380D01*
X3894498Y15669820D01*
X3953463Y15559506D01*
X4032815Y15462815D01*
X4129506Y15383463D01*
X4239820Y15324498D01*
X4359518Y15288188D01*
X4484000Y15275928D01*
X6184000Y15275928D01*
X6308482Y15288188D01*
X6428180Y15324498D01*
X6538494Y15383463D01*
X6635185Y15462815D01*
X6714537Y15559506D01*
X6773502Y15669820D01*
X6809812Y15789518D01*
X6822072Y15914000D01*
X6822072Y17614000D01*
X6809812Y17738482D01*
X6789027Y17807000D01*
X9869895Y17807000D01*
X9906000Y17803444D01*
X9942105Y17807000D01*
X10050085Y17817635D01*
X10188633Y17859663D01*
X10316320Y17927913D01*
X10428238Y18019762D01*
X10451258Y18047812D01*
X11091706Y18688260D01*
X13755000Y18688260D01*
X13755000Y18395740D01*
X13812068Y18108842D01*
X13924010Y17838589D01*
X14086525Y17595368D01*
X14293368Y17388525D01*
X14505000Y17247117D01*
X14505001Y14756883D01*
X14293368Y14615475D01*
X14086525Y14408632D01*
X13924010Y14165411D01*
X13812068Y13895158D01*
X13755000Y13608260D01*
X13755000Y13315740D01*
X13812068Y13028842D01*
X13924010Y12758589D01*
X14086525Y12515368D01*
X14293368Y12308525D01*
X14536589Y12146010D01*
X14806842Y12034068D01*
X15093740Y11977000D01*
X15386260Y11977000D01*
X15673158Y12034068D01*
X15943411Y12146010D01*
X16186632Y12308525D01*
X16393475Y12515368D01*
X16510000Y12689760D01*
X16626525Y12515368D01*
X16833368Y12308525D01*
X17076589Y12146010D01*
X17346842Y12034068D01*
X17633740Y11977000D01*
X17926260Y11977000D01*
X18213158Y12034068D01*
X18483411Y12146010D01*
X18726632Y12308525D01*
X18933475Y12515368D01*
X19055195Y12697534D01*
X19124822Y12580645D01*
X19319731Y12364412D01*
X19553080Y12190359D01*
X19815901Y12065175D01*
X19963110Y12020524D01*
X20193000Y12141845D01*
X20193000Y13335000D01*
X20173000Y13335000D01*
X20173000Y13589000D01*
X20193000Y13589000D01*
X20193000Y14782155D01*
X20447000Y14782155D01*
X20447000Y13589000D01*
X20467000Y13589000D01*
X20467000Y13335000D01*
X20447000Y13335000D01*
X20447000Y12141845D01*
X20676890Y12020524D01*
X20824099Y12065175D01*
X21086920Y12190359D01*
X21320269Y12364412D01*
X21396034Y12448466D01*
X21420498Y12367820D01*
X21479463Y12257506D01*
X21558815Y12160815D01*
X21655506Y12081463D01*
X21765820Y12022498D01*
X21885518Y11986188D01*
X22010000Y11973928D01*
X23710000Y11973928D01*
X23834482Y11986188D01*
X23954180Y12022498D01*
X24064494Y12081463D01*
X24161185Y12160815D01*
X24240537Y12257506D01*
X24299502Y12367820D01*
X24335812Y12487518D01*
X24348072Y12612000D01*
X24348072Y14312000D01*
X24335812Y14436482D01*
X24299502Y14556180D01*
X24240537Y14666494D01*
X24161185Y14763185D01*
X24064494Y14842537D01*
X23954180Y14901502D01*
X23834482Y14937812D01*
X23710000Y14950072D01*
X22010000Y14950072D01*
X21885518Y14937812D01*
X21765820Y14901502D01*
X21655506Y14842537D01*
X21558815Y14763185D01*
X21479463Y14666494D01*
X21420498Y14556180D01*
X21396034Y14475534D01*
X21320269Y14559588D01*
X21086920Y14733641D01*
X20824099Y14858825D01*
X20676890Y14903476D01*
X20447000Y14782155D01*
X20193000Y14782155D01*
X19963110Y14903476D01*
X19815901Y14858825D01*
X19553080Y14733641D01*
X19319731Y14559588D01*
X19124822Y14343355D01*
X19055195Y14226466D01*
X18933475Y14408632D01*
X18726632Y14615475D01*
X18515000Y14756883D01*
X18515000Y17247117D01*
X18726632Y17388525D01*
X18933475Y17595368D01*
X19055195Y17777534D01*
X19124822Y17660645D01*
X19319731Y17444412D01*
X19553080Y17270359D01*
X19815901Y17145175D01*
X19963110Y17100524D01*
X20193000Y17221845D01*
X20193000Y18415000D01*
X20173000Y18415000D01*
X20173000Y18669000D01*
X20193000Y18669000D01*
X20193000Y18689000D01*
X20447000Y18689000D01*
X20447000Y18669000D01*
X20467000Y18669000D01*
X20467000Y18415000D01*
X20447000Y18415000D01*
X20447000Y17221845D01*
X20676890Y17100524D01*
X20824099Y17145175D01*
X21086920Y17270359D01*
X21320269Y17444412D01*
X21396034Y17528466D01*
X21420498Y17447820D01*
X21479463Y17337506D01*
X21558815Y17240815D01*
X21655506Y17161463D01*
X21765820Y17102498D01*
X21885518Y17066188D01*
X22010000Y17053928D01*
X23710000Y17053928D01*
X23834482Y17066188D01*
X23954180Y17102498D01*
X24064494Y17161463D01*
X24161185Y17240815D01*
X24240537Y17337506D01*
X24299502Y17447820D01*
X24335812Y17567518D01*
X24348072Y17692000D01*
X24348072Y18957001D01*
X25215553Y18957001D01*
X25277178Y18895376D01*
X25235000Y18683335D01*
X25235000Y18400665D01*
X25290147Y18123426D01*
X25398320Y17862273D01*
X25555363Y17627241D01*
X25755241Y17427363D01*
X25990273Y17270320D01*
X26251426Y17162147D01*
X26528665Y17107000D01*
X26811335Y17107000D01*
X27088574Y17162147D01*
X27349727Y17270320D01*
X27584759Y17427363D01*
X27784637Y17627241D01*
X27941680Y17862273D01*
X28049853Y18123426D01*
X28105000Y18400665D01*
X28105000Y18683335D01*
X28049853Y18960574D01*
X27941680Y19221727D01*
X27784637Y19456759D01*
X27584759Y19656637D01*
X27349727Y19813680D01*
X27088574Y19921853D01*
X26811335Y19977000D01*
X26528665Y19977000D01*
X26316624Y19934822D01*
X26065257Y20186189D01*
X26042237Y20214239D01*
X25930319Y20306088D01*
X25802632Y20374338D01*
X25664084Y20416366D01*
X25556104Y20427001D01*
X25519999Y20430557D01*
X25483894Y20427001D01*
X18966105Y20427001D01*
X18930000Y20430557D01*
X18785915Y20416366D01*
X18750046Y20405485D01*
X18647368Y20374338D01*
X18519681Y20306088D01*
X18407763Y20214239D01*
X18384747Y20186194D01*
X18175897Y19977344D01*
X17926260Y20027000D01*
X17633740Y20027000D01*
X17346842Y19969932D01*
X17076589Y19857990D01*
X16833368Y19695475D01*
X16626525Y19488632D01*
X16510000Y19314240D01*
X16393475Y19488632D01*
X16186632Y19695475D01*
X15943411Y19857990D01*
X15673158Y19969932D01*
X15386260Y20027000D01*
X15093740Y20027000D01*
X14806842Y19969932D01*
X14536589Y19857990D01*
X14293368Y19695475D01*
X14086525Y19488632D01*
X13924010Y19245411D01*
X13812068Y18975158D01*
X13755000Y18688260D01*
X11091706Y18688260D01*
X11404197Y19000750D01*
X11432237Y19023762D01*
X11455250Y19051803D01*
X11455253Y19051806D01*
X11511124Y19119885D01*
X11524087Y19135680D01*
X11592337Y19263367D01*
X11634365Y19401915D01*
X11645000Y19509895D01*
X11645000Y19509904D01*
X11648555Y19545999D01*
X11645000Y19582094D01*
X11645000Y49935117D01*
X11856632Y50076525D01*
X12063475Y50283368D01*
X12180000Y50457760D01*
X12296525Y50283368D01*
X12503368Y50076525D01*
X12746589Y49914010D01*
X13016842Y49802068D01*
X13303740Y49745000D01*
X13596260Y49745000D01*
X13883158Y49802068D01*
X14153411Y49914010D01*
X14396632Y50076525D01*
X14603475Y50283368D01*
X14720000Y50457760D01*
X14836525Y50283368D01*
X15043368Y50076525D01*
X15286589Y49914010D01*
X15556842Y49802068D01*
X15843740Y49745000D01*
X16136260Y49745000D01*
X16423158Y49802068D01*
X16537001Y49849223D01*
X16537001Y49195046D01*
X16381465Y49091120D01*
X16186880Y48896535D01*
X16033995Y48667727D01*
X16002000Y48590485D01*
X15970005Y48667727D01*
X15817120Y48896535D01*
X15622535Y49091120D01*
X15393727Y49244005D01*
X15139490Y49349314D01*
X14869592Y49403000D01*
X14594408Y49403000D01*
X14324510Y49349314D01*
X14070273Y49244005D01*
X13841465Y49091120D01*
X13646880Y48896535D01*
X13493995Y48667727D01*
X13388686Y48413490D01*
X13335000Y48143592D01*
X13335000Y47868408D01*
X13388686Y47598510D01*
X13493995Y47344273D01*
X13646880Y47115465D01*
X13841465Y46920880D01*
X14070273Y46767995D01*
X14324510Y46662686D01*
X14594408Y46609000D01*
X14869592Y46609000D01*
X15139490Y46662686D01*
X15393727Y46767995D01*
X15622535Y46920880D01*
X15817120Y47115465D01*
X15970005Y47344273D01*
X16002000Y47421515D01*
X16033995Y47344273D01*
X16186880Y47115465D01*
X16381465Y46920880D01*
X16610273Y46767995D01*
X16864510Y46662686D01*
X17134408Y46609000D01*
X17409592Y46609000D01*
X17679490Y46662686D01*
X17933727Y46767995D01*
X18162535Y46920880D01*
X18357120Y47115465D01*
X18510005Y47344273D01*
X18542000Y47421515D01*
X18573995Y47344273D01*
X18726880Y47115465D01*
X18921465Y46920880D01*
X19150273Y46767995D01*
X19404510Y46662686D01*
X19674408Y46609000D01*
X19949592Y46609000D01*
X20219490Y46662686D01*
X20473727Y46767995D01*
X20702535Y46920880D01*
X20897120Y47115465D01*
X21050005Y47344273D01*
X21082000Y47421515D01*
X21113995Y47344273D01*
X21266880Y47115465D01*
X21461465Y46920880D01*
X21690273Y46767995D01*
X21944510Y46662686D01*
X22214408Y46609000D01*
X22489592Y46609000D01*
X22759490Y46662686D01*
X23013727Y46767995D01*
X23242535Y46920880D01*
X23437120Y47115465D01*
X23590005Y47344273D01*
X23622000Y47421515D01*
X23653995Y47344273D01*
X23806880Y47115465D01*
X24001465Y46920880D01*
X24230273Y46767995D01*
X24484510Y46662686D01*
X24754408Y46609000D01*
X25029592Y46609000D01*
X25299490Y46662686D01*
X25553727Y46767995D01*
X25782535Y46920880D01*
X25977120Y47115465D01*
X26130005Y47344273D01*
X26162000Y47421515D01*
X26193995Y47344273D01*
X26346880Y47115465D01*
X26541465Y46920880D01*
X26770273Y46767995D01*
X27024510Y46662686D01*
X27294408Y46609000D01*
X27569592Y46609000D01*
X27839490Y46662686D01*
X28093727Y46767995D01*
X28322535Y46920880D01*
X28517120Y47115465D01*
X28670005Y47344273D01*
X28702000Y47421515D01*
X28733995Y47344273D01*
X28886880Y47115465D01*
X29081465Y46920880D01*
X29310273Y46767995D01*
X29564510Y46662686D01*
X29834408Y46609000D01*
X30109592Y46609000D01*
X30379490Y46662686D01*
X30633727Y46767995D01*
X30862535Y46920880D01*
X31057120Y47115465D01*
X31210005Y47344273D01*
X31242000Y47421515D01*
X31273995Y47344273D01*
X31426880Y47115465D01*
X31621465Y46920880D01*
X31850273Y46767995D01*
X32104510Y46662686D01*
X32374408Y46609000D01*
X32649592Y46609000D01*
X32919490Y46662686D01*
X33173727Y46767995D01*
X33402535Y46920880D01*
X33597120Y47115465D01*
X33750005Y47344273D01*
X33782000Y47421515D01*
X33813995Y47344273D01*
X33966880Y47115465D01*
X34161465Y46920880D01*
X34390273Y46767995D01*
X34644510Y46662686D01*
X34914408Y46609000D01*
X35189592Y46609000D01*
X35459490Y46662686D01*
X35713727Y46767995D01*
X35942535Y46920880D01*
X36137120Y47115465D01*
X36290005Y47344273D01*
X36322000Y47421515D01*
X36353995Y47344273D01*
X36506880Y47115465D01*
X36701465Y46920880D01*
X36930273Y46767995D01*
X37184510Y46662686D01*
X37454408Y46609000D01*
X37729592Y46609000D01*
X37999490Y46662686D01*
X38253727Y46767995D01*
X38482535Y46920880D01*
X38677120Y47115465D01*
X38830005Y47344273D01*
X38862000Y47421515D01*
X38893995Y47344273D01*
X39046880Y47115465D01*
X39241465Y46920880D01*
X39470273Y46767995D01*
X39724510Y46662686D01*
X39994408Y46609000D01*
X40269592Y46609000D01*
X40539490Y46662686D01*
X40793727Y46767995D01*
X41022535Y46920880D01*
X41217120Y47115465D01*
X41370005Y47344273D01*
X41402000Y47421515D01*
X41433995Y47344273D01*
X41586880Y47115465D01*
X41781465Y46920880D01*
X42010273Y46767995D01*
X42264510Y46662686D01*
X42534408Y46609000D01*
X42809592Y46609000D01*
X43079490Y46662686D01*
X43333727Y46767995D01*
X43562535Y46920880D01*
X43757120Y47115465D01*
X43910005Y47344273D01*
X43942000Y47421515D01*
X43973995Y47344273D01*
X44126880Y47115465D01*
X44321465Y46920880D01*
X44550273Y46767995D01*
X44804510Y46662686D01*
X45074408Y46609000D01*
X45349592Y46609000D01*
X45619490Y46662686D01*
X45873727Y46767995D01*
X46102535Y46920880D01*
X46297120Y47115465D01*
X46450005Y47344273D01*
X46482000Y47421515D01*
X46513995Y47344273D01*
X46666880Y47115465D01*
X46861465Y46920880D01*
X47090273Y46767995D01*
X47344510Y46662686D01*
X47614408Y46609000D01*
X47889592Y46609000D01*
X48159490Y46662686D01*
X48413727Y46767995D01*
X48642535Y46920880D01*
X48837120Y47115465D01*
X48990005Y47344273D01*
X49022000Y47421515D01*
X49053995Y47344273D01*
X49206880Y47115465D01*
X49401465Y46920880D01*
X49630273Y46767995D01*
X49884510Y46662686D01*
X50154408Y46609000D01*
X50429592Y46609000D01*
X50699490Y46662686D01*
X50953727Y46767995D01*
X51182535Y46920880D01*
X51282655Y47021000D01*
X51841345Y47021000D01*
X51941465Y46920880D01*
X52170273Y46767995D01*
X52424510Y46662686D01*
X52694408Y46609000D01*
X52969592Y46609000D01*
X53239490Y46662686D01*
X53493727Y46767995D01*
X53722535Y46920880D01*
X53917120Y47115465D01*
X54070005Y47344273D01*
X54102000Y47421515D01*
X54133995Y47344273D01*
X54286880Y47115465D01*
X54481465Y46920880D01*
X54710273Y46767995D01*
X54964510Y46662686D01*
X55234408Y46609000D01*
X55509592Y46609000D01*
X55779490Y46662686D01*
X56033727Y46767995D01*
X56262535Y46920880D01*
X56382090Y47040435D01*
X57126040Y47040435D01*
X57193020Y46800344D01*
X57442048Y46683244D01*
X57709135Y46616977D01*
X57984017Y46604090D01*
X58256133Y46645078D01*
X58515023Y46738364D01*
X58630980Y46800344D01*
X58697960Y47040435D01*
X57912000Y47826395D01*
X57126040Y47040435D01*
X56382090Y47040435D01*
X56457120Y47115465D01*
X56610005Y47344273D01*
X56639692Y47415943D01*
X56644364Y47402977D01*
X56706344Y47287020D01*
X56946435Y47220040D01*
X57732395Y48006000D01*
X56946435Y48791960D01*
X56706344Y48724980D01*
X56642515Y48589240D01*
X56610005Y48667727D01*
X56457120Y48896535D01*
X56262535Y49091120D01*
X56033727Y49244005D01*
X55779490Y49349314D01*
X55509592Y49403000D01*
X55234408Y49403000D01*
X54964510Y49349314D01*
X54710273Y49244005D01*
X54481465Y49091120D01*
X54286880Y48896535D01*
X54133995Y48667727D01*
X54102000Y48590485D01*
X54070005Y48667727D01*
X53917120Y48896535D01*
X53722535Y49091120D01*
X53493727Y49244005D01*
X53239490Y49349314D01*
X52969592Y49403000D01*
X52694408Y49403000D01*
X52424510Y49349314D01*
X52170273Y49244005D01*
X51941465Y49091120D01*
X51841345Y48991000D01*
X51282655Y48991000D01*
X51182535Y49091120D01*
X50953727Y49244005D01*
X50699490Y49349314D01*
X50429592Y49403000D01*
X50154408Y49403000D01*
X49884510Y49349314D01*
X49630273Y49244005D01*
X49401465Y49091120D01*
X49206880Y48896535D01*
X49053995Y48667727D01*
X49022000Y48590485D01*
X48990005Y48667727D01*
X48837120Y48896535D01*
X48642535Y49091120D01*
X48413727Y49244005D01*
X48159490Y49349314D01*
X47889592Y49403000D01*
X47614408Y49403000D01*
X47344510Y49349314D01*
X47090273Y49244005D01*
X46861465Y49091120D01*
X46666880Y48896535D01*
X46513995Y48667727D01*
X46482000Y48590485D01*
X46450005Y48667727D01*
X46297120Y48896535D01*
X46102535Y49091120D01*
X45873727Y49244005D01*
X45619490Y49349314D01*
X45349592Y49403000D01*
X45074408Y49403000D01*
X44804510Y49349314D01*
X44550273Y49244005D01*
X44321465Y49091120D01*
X44126880Y48896535D01*
X43973995Y48667727D01*
X43942000Y48590485D01*
X43910005Y48667727D01*
X43757120Y48896535D01*
X43562535Y49091120D01*
X43333727Y49244005D01*
X43079490Y49349314D01*
X42809592Y49403000D01*
X42534408Y49403000D01*
X42264510Y49349314D01*
X42010273Y49244005D01*
X41781465Y49091120D01*
X41586880Y48896535D01*
X41433995Y48667727D01*
X41402000Y48590485D01*
X41370005Y48667727D01*
X41217120Y48896535D01*
X41022535Y49091120D01*
X40793727Y49244005D01*
X40539490Y49349314D01*
X40269592Y49403000D01*
X39994408Y49403000D01*
X39724510Y49349314D01*
X39470273Y49244005D01*
X39241465Y49091120D01*
X39046880Y48896535D01*
X38893995Y48667727D01*
X38862000Y48590485D01*
X38830005Y48667727D01*
X38677120Y48896535D01*
X38482535Y49091120D01*
X38253727Y49244005D01*
X37999490Y49349314D01*
X37729592Y49403000D01*
X37454408Y49403000D01*
X37184510Y49349314D01*
X36930273Y49244005D01*
X36701465Y49091120D01*
X36506880Y48896535D01*
X36353995Y48667727D01*
X36322000Y48590485D01*
X36290005Y48667727D01*
X36137120Y48896535D01*
X35942535Y49091120D01*
X35713727Y49244005D01*
X35459490Y49349314D01*
X35189592Y49403000D01*
X34914408Y49403000D01*
X34644510Y49349314D01*
X34390273Y49244005D01*
X34161465Y49091120D01*
X33966880Y48896535D01*
X33813995Y48667727D01*
X33782000Y48590485D01*
X33750005Y48667727D01*
X33597120Y48896535D01*
X33402535Y49091120D01*
X33173727Y49244005D01*
X32919490Y49349314D01*
X32649592Y49403000D01*
X32374408Y49403000D01*
X32190940Y49366506D01*
X31787258Y49770188D01*
X31764238Y49798238D01*
X31727232Y49828608D01*
X31933411Y49914010D01*
X32176632Y50076525D01*
X32383475Y50283368D01*
X32500000Y50457760D01*
X32616525Y50283368D01*
X32823368Y50076525D01*
X33066589Y49914010D01*
X33336842Y49802068D01*
X33623740Y49745000D01*
X33916260Y49745000D01*
X34203158Y49802068D01*
X34473411Y49914010D01*
X34716632Y50076525D01*
X34923475Y50283368D01*
X35040000Y50457760D01*
X35156525Y50283368D01*
X35363368Y50076525D01*
X35606589Y49914010D01*
X35876842Y49802068D01*
X36163740Y49745000D01*
X36456260Y49745000D01*
X36743158Y49802068D01*
X37013411Y49914010D01*
X37256632Y50076525D01*
X37463475Y50283368D01*
X37585195Y50465534D01*
X37654822Y50348645D01*
X37849731Y50132412D01*
X38083080Y49958359D01*
X38345901Y49833175D01*
X38493110Y49788524D01*
X38723000Y49909845D01*
X38723000Y51103000D01*
X38703000Y51103000D01*
X38703000Y51357000D01*
X38723000Y51357000D01*
X38723000Y51377000D01*
X38977000Y51377000D01*
X38977000Y51357000D01*
X38997000Y51357000D01*
X38997000Y51103000D01*
X38977000Y51103000D01*
X38977000Y49909845D01*
X39206890Y49788524D01*
X39354099Y49833175D01*
X39616920Y49958359D01*
X39850269Y50132412D01*
X40045178Y50348645D01*
X40114805Y50465534D01*
X40236525Y50283368D01*
X40443368Y50076525D01*
X40686589Y49914010D01*
X40956842Y49802068D01*
X41243740Y49745000D01*
X41536260Y49745000D01*
X41823158Y49802068D01*
X42093411Y49914010D01*
X42336632Y50076525D01*
X42543475Y50283368D01*
X42660000Y50457760D01*
X42776525Y50283368D01*
X42983368Y50076525D01*
X43226589Y49914010D01*
X43496842Y49802068D01*
X43783740Y49745000D01*
X44076260Y49745000D01*
X44363158Y49802068D01*
X44633411Y49914010D01*
X44876632Y50076525D01*
X45083475Y50283368D01*
X45200000Y50457760D01*
X45316525Y50283368D01*
X45523368Y50076525D01*
X45766589Y49914010D01*
X46036842Y49802068D01*
X46323740Y49745000D01*
X46616260Y49745000D01*
X46903158Y49802068D01*
X47173411Y49914010D01*
X47416632Y50076525D01*
X47623475Y50283368D01*
X47740000Y50457760D01*
X47856525Y50283368D01*
X48063368Y50076525D01*
X48306589Y49914010D01*
X48576842Y49802068D01*
X48863740Y49745000D01*
X49156260Y49745000D01*
X49443158Y49802068D01*
X49713411Y49914010D01*
X49956632Y50076525D01*
X50163475Y50283368D01*
X50280000Y50457760D01*
X50396525Y50283368D01*
X50603368Y50076525D01*
X50846589Y49914010D01*
X51116842Y49802068D01*
X51403740Y49745000D01*
X51696260Y49745000D01*
X51983158Y49802068D01*
X52253411Y49914010D01*
X52496632Y50076525D01*
X52703475Y50283368D01*
X52820000Y50457760D01*
X52936525Y50283368D01*
X53143368Y50076525D01*
X53386589Y49914010D01*
X53656842Y49802068D01*
X53943740Y49745000D01*
X54236260Y49745000D01*
X54523158Y49802068D01*
X54793411Y49914010D01*
X55036632Y50076525D01*
X55243475Y50283368D01*
X55365195Y50465534D01*
X55434822Y50348645D01*
X55629731Y50132412D01*
X55863080Y49958359D01*
X56125901Y49833175D01*
X56273110Y49788524D01*
X56503000Y49909845D01*
X56503000Y51103000D01*
X56757000Y51103000D01*
X56757000Y49909845D01*
X56986890Y49788524D01*
X57134099Y49833175D01*
X57396920Y49958359D01*
X57630269Y50132412D01*
X57825178Y50348645D01*
X57974157Y50598748D01*
X58071481Y50873109D01*
X57950814Y51103000D01*
X56757000Y51103000D01*
X56503000Y51103000D01*
X56483000Y51103000D01*
X56483000Y51357000D01*
X56503000Y51357000D01*
X56503000Y51377000D01*
X56757000Y51377000D01*
X56757000Y51357000D01*
X57950814Y51357000D01*
X58071481Y51586891D01*
X57974157Y51861252D01*
X57825178Y52111355D01*
X57630269Y52327588D01*
X57400594Y52498900D01*
X57576632Y52616525D01*
X57783475Y52823368D01*
X57945990Y53066589D01*
X58057932Y53336842D01*
X58115000Y53623740D01*
X58115000Y53916260D01*
X58057932Y54203158D01*
X57945990Y54473411D01*
X57783475Y54716632D01*
X57576632Y54923475D01*
X57333411Y55085990D01*
X57063158Y55197932D01*
X56776260Y55255000D01*
X56483740Y55255000D01*
X56196842Y55197932D01*
X55926589Y55085990D01*
X55683368Y54923475D01*
X55476525Y54716632D01*
X55360000Y54542240D01*
X55243475Y54716632D01*
X55036632Y54923475D01*
X54793411Y55085990D01*
X54523158Y55197932D01*
X54236260Y55255000D01*
X53943740Y55255000D01*
X53656842Y55197932D01*
X53386589Y55085990D01*
X53143368Y54923475D01*
X52936525Y54716632D01*
X52820000Y54542240D01*
X52703475Y54716632D01*
X52496632Y54923475D01*
X52253411Y55085990D01*
X51983158Y55197932D01*
X51696260Y55255000D01*
X51403740Y55255000D01*
X51116842Y55197932D01*
X50846589Y55085990D01*
X50603368Y54923475D01*
X50396525Y54716632D01*
X50274805Y54534466D01*
X50205178Y54651355D01*
X50010269Y54867588D01*
X49776920Y55041641D01*
X49514099Y55166825D01*
X49366890Y55211476D01*
X49137000Y55090155D01*
X49137000Y53897000D01*
X49157000Y53897000D01*
X49157000Y53643000D01*
X49137000Y53643000D01*
X49137000Y53623000D01*
X48883000Y53623000D01*
X48883000Y53643000D01*
X48863000Y53643000D01*
X48863000Y53897000D01*
X48883000Y53897000D01*
X48883000Y55090155D01*
X48653110Y55211476D01*
X48505901Y55166825D01*
X48243080Y55041641D01*
X48009731Y54867588D01*
X47814822Y54651355D01*
X47745195Y54534466D01*
X47623475Y54716632D01*
X47416632Y54923475D01*
X47173411Y55085990D01*
X46903158Y55197932D01*
X46616260Y55255000D01*
X46323740Y55255000D01*
X46036842Y55197932D01*
X45766589Y55085990D01*
X45523368Y54923475D01*
X45316525Y54716632D01*
X45194805Y54534466D01*
X45125178Y54651355D01*
X44930269Y54867588D01*
X44696920Y55041641D01*
X44434099Y55166825D01*
X44286890Y55211476D01*
X44057000Y55090155D01*
X44057000Y53897000D01*
X44077000Y53897000D01*
X44077000Y53643000D01*
X44057000Y53643000D01*
X44057000Y53623000D01*
X43803000Y53623000D01*
X43803000Y53643000D01*
X43783000Y53643000D01*
X43783000Y53897000D01*
X43803000Y53897000D01*
X43803000Y55090155D01*
X43573110Y55211476D01*
X43425901Y55166825D01*
X43163080Y55041641D01*
X42929731Y54867588D01*
X42734822Y54651355D01*
X42665195Y54534466D01*
X42543475Y54716632D01*
X42336632Y54923475D01*
X42093411Y55085990D01*
X41823158Y55197932D01*
X41536260Y55255000D01*
X41243740Y55255000D01*
X40956842Y55197932D01*
X40686589Y55085990D01*
X40443368Y54923475D01*
X40236525Y54716632D01*
X40120000Y54542240D01*
X40003475Y54716632D01*
X39796632Y54923475D01*
X39553411Y55085990D01*
X39283158Y55197932D01*
X38996260Y55255000D01*
X38703740Y55255000D01*
X38416842Y55197932D01*
X38146589Y55085990D01*
X37903368Y54923475D01*
X37696525Y54716632D01*
X37580000Y54542240D01*
X37463475Y54716632D01*
X37256632Y54923475D01*
X37013411Y55085990D01*
X36743158Y55197932D01*
X36456260Y55255000D01*
X36163740Y55255000D01*
X35876842Y55197932D01*
X35606589Y55085990D01*
X35363368Y54923475D01*
X35156525Y54716632D01*
X35040000Y54542240D01*
X34923475Y54716632D01*
X34716632Y54923475D01*
X34473411Y55085990D01*
X34203158Y55197932D01*
X33916260Y55255000D01*
X33623740Y55255000D01*
X33336842Y55197932D01*
X33066589Y55085990D01*
X32823368Y54923475D01*
X32616525Y54716632D01*
X32494805Y54534466D01*
X32425178Y54651355D01*
X32230269Y54867588D01*
X31996920Y55041641D01*
X31734099Y55166825D01*
X31586890Y55211476D01*
X31357000Y55090155D01*
X31357000Y53897000D01*
X31377000Y53897000D01*
X31377000Y53643000D01*
X31357000Y53643000D01*
X31357000Y53623000D01*
X31103000Y53623000D01*
X31103000Y53643000D01*
X31083000Y53643000D01*
X31083000Y53897000D01*
X31103000Y53897000D01*
X31103000Y55090155D01*
X30873110Y55211476D01*
X30725901Y55166825D01*
X30463080Y55041641D01*
X30229731Y54867588D01*
X30034822Y54651355D01*
X29965195Y54534466D01*
X29843475Y54716632D01*
X29636632Y54923475D01*
X29393411Y55085990D01*
X29123158Y55197932D01*
X28836260Y55255000D01*
X28543740Y55255000D01*
X28256842Y55197932D01*
X27986589Y55085990D01*
X27743368Y54923475D01*
X27536525Y54716632D01*
X27420000Y54542240D01*
X27303475Y54716632D01*
X27096632Y54923475D01*
X26853411Y55085990D01*
X26583158Y55197932D01*
X26296260Y55255000D01*
X26003740Y55255000D01*
X25716842Y55197932D01*
X25446589Y55085990D01*
X25203368Y54923475D01*
X24996525Y54716632D01*
X24874805Y54534466D01*
X24805178Y54651355D01*
X24610269Y54867588D01*
X24376920Y55041641D01*
X24114099Y55166825D01*
X23966890Y55211476D01*
X23737000Y55090155D01*
X23737000Y53897000D01*
X23757000Y53897000D01*
X23757000Y53643000D01*
X23737000Y53643000D01*
X23737000Y53623000D01*
X23483000Y53623000D01*
X23483000Y53643000D01*
X23463000Y53643000D01*
X23463000Y53897000D01*
X23483000Y53897000D01*
X23483000Y55090155D01*
X23253110Y55211476D01*
X23105901Y55166825D01*
X22843080Y55041641D01*
X22609731Y54867588D01*
X22414822Y54651355D01*
X22345195Y54534466D01*
X22223475Y54716632D01*
X22016632Y54923475D01*
X21773411Y55085990D01*
X21503158Y55197932D01*
X21216260Y55255000D01*
X20923740Y55255000D01*
X20636842Y55197932D01*
X20366589Y55085990D01*
X20123368Y54923475D01*
X19916525Y54716632D01*
X19800000Y54542240D01*
X19683475Y54716632D01*
X19476632Y54923475D01*
X19233411Y55085990D01*
X18963158Y55197932D01*
X18676260Y55255000D01*
X18383740Y55255000D01*
X18096842Y55197932D01*
X17826589Y55085990D01*
X17583368Y54923475D01*
X17376525Y54716632D01*
X17260000Y54542240D01*
X17143475Y54716632D01*
X16936632Y54923475D01*
X16693411Y55085990D01*
X16423158Y55197932D01*
X16136260Y55255000D01*
X15843740Y55255000D01*
X15556842Y55197932D01*
X15286589Y55085990D01*
X15043368Y54923475D01*
X14836525Y54716632D01*
X14714805Y54534466D01*
X14645178Y54651355D01*
X14450269Y54867588D01*
X14216920Y55041641D01*
X13954099Y55166825D01*
X13806890Y55211476D01*
X13577000Y55090155D01*
X13577000Y53897000D01*
X13597000Y53897000D01*
X13597000Y53643000D01*
X13577000Y53643000D01*
X13577000Y53623000D01*
X13323000Y53623000D01*
X13323000Y53643000D01*
X13303000Y53643000D01*
X13303000Y53897000D01*
X13323000Y53897000D01*
X13323000Y55090155D01*
X13093110Y55211476D01*
X12945901Y55166825D01*
X12683080Y55041641D01*
X12449731Y54867588D01*
X12254822Y54651355D01*
X12185195Y54534466D01*
X12063475Y54716632D01*
X11856632Y54923475D01*
X11613411Y55085990D01*
X11343158Y55197932D01*
X11056260Y55255000D01*
X10763740Y55255000D01*
X10476842Y55197932D01*
X10206589Y55085990D01*
X9963368Y54923475D01*
X9756525Y54716632D01*
X9640000Y54542240D01*
X9523475Y54716632D01*
X9316632Y54923475D01*
X9073411Y55085990D01*
X8803158Y55197932D01*
X8516260Y55255000D01*
X8223740Y55255000D01*
X7936842Y55197932D01*
X7666589Y55085990D01*
X7423368Y54923475D01*
X7216525Y54716632D01*
X7054010Y54473411D01*
X6942068Y54203158D01*
X6885000Y53916260D01*
X6885000Y53623740D01*
X6942068Y53336842D01*
X7054010Y53066589D01*
X7216525Y52823368D01*
X7348380Y52691513D01*
X7275820Y52669502D01*
X7165506Y52610537D01*
X7068815Y52531185D01*
X6989463Y52434494D01*
X6930498Y52324180D01*
X6894188Y52204482D01*
X6881928Y52080000D01*
X6881928Y50380000D01*
X6894188Y50255518D01*
X6930498Y50135820D01*
X6989463Y50025506D01*
X7068815Y49928815D01*
X7165506Y49849463D01*
X7275820Y49790498D01*
X7395518Y49754188D01*
X7520000Y49741928D01*
X9220000Y49741928D01*
X9344482Y49754188D01*
X9464180Y49790498D01*
X9574494Y49849463D01*
X9671185Y49928815D01*
X9750537Y50025506D01*
X9809502Y50135820D01*
X9831513Y50208380D01*
X9963368Y50076525D01*
X10175000Y49935117D01*
X10175001Y21360105D01*
X10175000Y19850447D01*
X9601554Y19277000D01*
X5969000Y19277000D01*
X5969000Y36830000D01*
X5966560Y36854776D01*
X5959333Y36878601D01*
X5947597Y36900557D01*
X5931803Y36919803D01*
X5912557Y36935597D01*
X5890601Y36947333D01*
X5866776Y36954560D01*
X5842000Y36957000D01*
X5195032Y36957000D01*
X5157959Y36981632D01*
X5106694Y37016733D01*
X5098281Y37021282D01*
X5012120Y37067094D01*
X4954704Y37090758D01*
X4897661Y37115208D01*
X4888525Y37118036D01*
X4795107Y37146241D01*
X4734195Y37158302D01*
X4673471Y37171209D01*
X4663959Y37172209D01*
X4566841Y37181731D01*
X4566837Y37181731D01*
X4533647Y37185000D01*
X381000Y37185000D01*
X381000Y47622327D01*
X6347355Y47498028D01*
X6372177Y47499951D01*
X6396146Y47506680D01*
X6418343Y47517957D01*
X6437913Y47533346D01*
X6454104Y47552258D01*
X6466295Y47573966D01*
X6474017Y47597634D01*
X6477000Y47625000D01*
X6477000Y55326441D01*
X58547000Y55315713D01*
G37*
X58547000Y55315713D02*
X58547000Y49251146D01*
X58381952Y49328756D01*
X58114865Y49395023D01*
X57839983Y49407910D01*
X57567867Y49366922D01*
X57308977Y49273636D01*
X57193020Y49211656D01*
X57126040Y48971565D01*
X57912000Y48185605D01*
X57926143Y48199747D01*
X58105748Y48020142D01*
X58091605Y48006000D01*
X58877565Y47220040D01*
X59117656Y47287020D01*
X59234756Y47536048D01*
X59301023Y47803135D01*
X59313910Y48078017D01*
X59272922Y48350133D01*
X59179636Y48609023D01*
X59117656Y48724980D01*
X58877567Y48791959D01*
X58980608Y48895000D01*
X64315001Y48895000D01*
X64315001Y46297999D01*
X64190610Y46422390D01*
X64219000Y46565117D01*
X64219000Y46906883D01*
X64152325Y47242081D01*
X64021537Y47557831D01*
X63831663Y47841998D01*
X63589998Y48083663D01*
X63305831Y48273537D01*
X62990081Y48404325D01*
X62654883Y48471000D01*
X62313117Y48471000D01*
X61977919Y48404325D01*
X61662169Y48273537D01*
X61378002Y48083663D01*
X61136337Y47841998D01*
X60946463Y47557831D01*
X60815675Y47242081D01*
X60749000Y46906883D01*
X60749000Y46565117D01*
X60815675Y46229919D01*
X60946463Y45914169D01*
X61136337Y45630002D01*
X61378002Y45388337D01*
X61662169Y45198463D01*
X61977919Y45067675D01*
X62313117Y45001000D01*
X62654883Y45001000D01*
X62797610Y45029390D01*
X63414990Y44412010D01*
X63414990Y38314072D01*
X61384000Y38314072D01*
X61259518Y38301812D01*
X61139820Y38265502D01*
X61029506Y38206537D01*
X60932815Y38127185D01*
X60853463Y38030494D01*
X60794498Y37920180D01*
X60758188Y37800482D01*
X60745928Y37676000D01*
X60745928Y35476000D01*
X60758188Y35351518D01*
X60794498Y35231820D01*
X60853463Y35121506D01*
X60932815Y35024815D01*
X61029506Y34945463D01*
X61139820Y34886498D01*
X61259518Y34850188D01*
X61384000Y34837928D01*
X63414990Y34837928D01*
X63414991Y31643926D01*
X63187411Y31795990D01*
X62917158Y31907932D01*
X62630260Y31965000D01*
X62337740Y31965000D01*
X62050842Y31907932D01*
X61780589Y31795990D01*
X61537368Y31633475D01*
X61330525Y31426632D01*
X61168010Y31183411D01*
X61056068Y30913158D01*
X60999000Y30626260D01*
X60999000Y30333740D01*
X61056068Y30046842D01*
X61168010Y29776589D01*
X61330525Y29533368D01*
X61462380Y29401513D01*
X61389820Y29379502D01*
X61279506Y29320537D01*
X61182815Y29241185D01*
X61103463Y29144494D01*
X61044498Y29034180D01*
X61008188Y28914482D01*
X60995928Y28790000D01*
X60995928Y27090000D01*
X61008188Y26965518D01*
X61044498Y26845820D01*
X61103463Y26735506D01*
X61182815Y26638815D01*
X61279506Y26559463D01*
X61389820Y26500498D01*
X61509518Y26464188D01*
X61634000Y26451928D01*
X63334000Y26451928D01*
X63414991Y26459905D01*
X63414991Y24675992D01*
X60298000Y21559000D01*
X51002631Y21559000D01*
X51037837Y21624866D01*
X51079865Y21763415D01*
X51094056Y21907500D01*
X51090500Y21943605D01*
X51090500Y22877455D01*
X51246035Y22981380D01*
X51440620Y23175965D01*
X51593505Y23404773D01*
X51625500Y23482015D01*
X51657495Y23404773D01*
X51810380Y23175965D01*
X52004965Y22981380D01*
X52233773Y22828495D01*
X52488010Y22723186D01*
X52757908Y22669500D01*
X53033092Y22669500D01*
X53302990Y22723186D01*
X53557227Y22828495D01*
X53786035Y22981380D01*
X53886155Y23081500D01*
X54381345Y23081500D01*
X54481465Y22981380D01*
X54710273Y22828495D01*
X54964510Y22723186D01*
X55234408Y22669500D01*
X55509592Y22669500D01*
X55779490Y22723186D01*
X56033727Y22828495D01*
X56262535Y22981380D01*
X56382090Y23100935D01*
X57126040Y23100935D01*
X57193020Y22860844D01*
X57442048Y22743744D01*
X57709135Y22677477D01*
X57984017Y22664590D01*
X58256133Y22705578D01*
X58515023Y22798864D01*
X58630980Y22860844D01*
X58697960Y23100935D01*
X57912000Y23886895D01*
X57126040Y23100935D01*
X56382090Y23100935D01*
X56457120Y23175965D01*
X56610005Y23404773D01*
X56639692Y23476443D01*
X56644364Y23463477D01*
X56706344Y23347520D01*
X56946435Y23280540D01*
X57732395Y24066500D01*
X58091605Y24066500D01*
X58877565Y23280540D01*
X59117656Y23347520D01*
X59234756Y23596548D01*
X59301023Y23863635D01*
X59313910Y24138517D01*
X59272922Y24410633D01*
X59179636Y24669523D01*
X59117656Y24785480D01*
X58877565Y24852460D01*
X58091605Y24066500D01*
X57732395Y24066500D01*
X56946435Y24852460D01*
X56706344Y24785480D01*
X56642515Y24649740D01*
X56610005Y24728227D01*
X56457120Y24957035D01*
X56382090Y25032065D01*
X57126040Y25032065D01*
X57912000Y24246105D01*
X58697960Y25032065D01*
X58630980Y25272156D01*
X58381952Y25389256D01*
X58114865Y25455523D01*
X57839983Y25468410D01*
X57567867Y25427422D01*
X57308977Y25334136D01*
X57193020Y25272156D01*
X57126040Y25032065D01*
X56382090Y25032065D01*
X56262535Y25151620D01*
X56033727Y25304505D01*
X55779490Y25409814D01*
X55509592Y25463500D01*
X55234408Y25463500D01*
X54964510Y25409814D01*
X54710273Y25304505D01*
X54481465Y25151620D01*
X54381345Y25051500D01*
X53886155Y25051500D01*
X53786035Y25151620D01*
X53557227Y25304505D01*
X53302990Y25409814D01*
X53033092Y25463500D01*
X52757908Y25463500D01*
X52488010Y25409814D01*
X52233773Y25304505D01*
X52004965Y25151620D01*
X51810380Y24957035D01*
X51657495Y24728227D01*
X51625500Y24650985D01*
X51593505Y24728227D01*
X51440620Y24957035D01*
X51246035Y25151620D01*
X51017227Y25304505D01*
X50762990Y25409814D01*
X50493092Y25463500D01*
X50217908Y25463500D01*
X49948010Y25409814D01*
X49693773Y25304505D01*
X49464965Y25151620D01*
X49270380Y24957035D01*
X49117495Y24728227D01*
X49085500Y24650985D01*
X49053505Y24728227D01*
X48900620Y24957035D01*
X48706035Y25151620D01*
X48477227Y25304505D01*
X48222990Y25409814D01*
X47953092Y25463500D01*
X47677908Y25463500D01*
X47408010Y25409814D01*
X47153773Y25304505D01*
X46924965Y25151620D01*
X46730380Y24957035D01*
X46577495Y24728227D01*
X46545500Y24650985D01*
X46513505Y24728227D01*
X46360620Y24957035D01*
X46166035Y25151620D01*
X45937227Y25304505D01*
X45682990Y25409814D01*
X45413092Y25463500D01*
X45137908Y25463500D01*
X44868010Y25409814D01*
X44613773Y25304505D01*
X44384965Y25151620D01*
X44190380Y24957035D01*
X44037495Y24728227D01*
X44005500Y24650985D01*
X43973505Y24728227D01*
X43820620Y24957035D01*
X43626035Y25151620D01*
X43397227Y25304505D01*
X43142990Y25409814D01*
X42873092Y25463500D01*
X42597908Y25463500D01*
X42328010Y25409814D01*
X42073773Y25304505D01*
X41844965Y25151620D01*
X41650380Y24957035D01*
X41497495Y24728227D01*
X41465500Y24650985D01*
X41433505Y24728227D01*
X41280620Y24957035D01*
X41086035Y25151620D01*
X40857227Y25304505D01*
X40602990Y25409814D01*
X40333092Y25463500D01*
X40057908Y25463500D01*
X39788010Y25409814D01*
X39533773Y25304505D01*
X39304965Y25151620D01*
X39110380Y24957035D01*
X38957495Y24728227D01*
X38925500Y24650985D01*
X38893505Y24728227D01*
X38740620Y24957035D01*
X38546035Y25151620D01*
X38317227Y25304505D01*
X38062990Y25409814D01*
X37793092Y25463500D01*
X37517908Y25463500D01*
X37248010Y25409814D01*
X36993773Y25304505D01*
X36764965Y25151620D01*
X36570380Y24957035D01*
X36417495Y24728227D01*
X36353750Y24574334D01*
X36290005Y24728227D01*
X36137120Y24957035D01*
X35942535Y25151620D01*
X35713727Y25304505D01*
X35459490Y25409814D01*
X35189592Y25463500D01*
X34914408Y25463500D01*
X34644510Y25409814D01*
X34390273Y25304505D01*
X34161465Y25151620D01*
X33966880Y24957035D01*
X33813995Y24728227D01*
X33782000Y24650985D01*
X33750005Y24728227D01*
X33597120Y24957035D01*
X33402535Y25151620D01*
X33173727Y25304505D01*
X32919490Y25409814D01*
X32649592Y25463500D01*
X32374408Y25463500D01*
X32104510Y25409814D01*
X31850273Y25304505D01*
X31621465Y25151620D01*
X31426880Y24957035D01*
X31273995Y24728227D01*
X31242000Y24650985D01*
X31210005Y24728227D01*
X31057120Y24957035D01*
X30862535Y25151620D01*
X30633727Y25304505D01*
X30379490Y25409814D01*
X30109592Y25463500D01*
X29834408Y25463500D01*
X29564510Y25409814D01*
X29310273Y25304505D01*
X29081465Y25151620D01*
X28886880Y24957035D01*
X28733995Y24728227D01*
X28702000Y24650985D01*
X28670005Y24728227D01*
X28517120Y24957035D01*
X28322535Y25151620D01*
X28093727Y25304505D01*
X27839490Y25409814D01*
X27569592Y25463500D01*
X27294408Y25463500D01*
X27024510Y25409814D01*
X26770273Y25304505D01*
X26541465Y25151620D01*
X26346880Y24957035D01*
X26193995Y24728227D01*
X26162000Y24650985D01*
X26130005Y24728227D01*
X25977120Y24957035D01*
X25782535Y25151620D01*
X25553727Y25304505D01*
X25299490Y25409814D01*
X25029592Y25463500D01*
X24754408Y25463500D01*
X24484510Y25409814D01*
X24230273Y25304505D01*
X24001465Y25151620D01*
X23806880Y24957035D01*
X23653995Y24728227D01*
X23622000Y24650985D01*
X23590005Y24728227D01*
X23437120Y24957035D01*
X23242535Y25151620D01*
X23013727Y25304505D01*
X22759490Y25409814D01*
X22489592Y25463500D01*
X22214408Y25463500D01*
X21944510Y25409814D01*
X21690273Y25304505D01*
X21461465Y25151620D01*
X21266880Y24957035D01*
X21113995Y24728227D01*
X21082000Y24650985D01*
X21050005Y24728227D01*
X20897120Y24957035D01*
X20702535Y25151620D01*
X20473727Y25304505D01*
X20219490Y25409814D01*
X19949592Y25463500D01*
X19674408Y25463500D01*
X19404510Y25409814D01*
X19150273Y25304505D01*
X18921465Y25151620D01*
X18726880Y24957035D01*
X18573995Y24728227D01*
X18542000Y24650985D01*
X18510005Y24728227D01*
X18357120Y24957035D01*
X18162535Y25151620D01*
X17933727Y25304505D01*
X17679490Y25409814D01*
X17409592Y25463500D01*
X17134408Y25463500D01*
X16864510Y25409814D01*
X16610273Y25304505D01*
X16381465Y25151620D01*
X16186880Y24957035D01*
X16033995Y24728227D01*
X16002000Y24650985D01*
X15970005Y24728227D01*
X15817120Y24957035D01*
X15622535Y25151620D01*
X15393727Y25304505D01*
X15139490Y25409814D01*
X14869592Y25463500D01*
X14594408Y25463500D01*
X14324510Y25409814D01*
X14070273Y25304505D01*
X13841465Y25151620D01*
X13646880Y24957035D01*
X13493995Y24728227D01*
X13388686Y24473990D01*
X13335000Y24204092D01*
X13335000Y23928908D01*
X13388686Y23659010D01*
X13493995Y23404773D01*
X13646880Y23175965D01*
X13841465Y22981380D01*
X14070273Y22828495D01*
X14324510Y22723186D01*
X14594408Y22669500D01*
X14869592Y22669500D01*
X15139490Y22723186D01*
X15393727Y22828495D01*
X15622535Y22981380D01*
X15817120Y23175965D01*
X15970005Y23404773D01*
X16002000Y23482015D01*
X16033995Y23404773D01*
X16186880Y23175965D01*
X16381465Y22981380D01*
X16610273Y22828495D01*
X16864510Y22723186D01*
X17134408Y22669500D01*
X17409592Y22669500D01*
X17679490Y22723186D01*
X17933727Y22828495D01*
X18162535Y22981380D01*
X18357120Y23175965D01*
X18510005Y23404773D01*
X18542000Y23482015D01*
X18573995Y23404773D01*
X18726880Y23175965D01*
X18921465Y22981380D01*
X19150273Y22828495D01*
X19404510Y22723186D01*
X19674408Y22669500D01*
X19949592Y22669500D01*
X20219490Y22723186D01*
X20473727Y22828495D01*
X20702535Y22981380D01*
X20897120Y23175965D01*
X21050005Y23404773D01*
X21082000Y23482015D01*
X21113995Y23404773D01*
X21266880Y23175965D01*
X21461465Y22981380D01*
X21690273Y22828495D01*
X21944510Y22723186D01*
X22214408Y22669500D01*
X22489592Y22669500D01*
X22759490Y22723186D01*
X23013727Y22828495D01*
X23242535Y22981380D01*
X23437120Y23175965D01*
X23590005Y23404773D01*
X23622000Y23482015D01*
X23653995Y23404773D01*
X23806880Y23175965D01*
X24001465Y22981380D01*
X24230273Y22828495D01*
X24484510Y22723186D01*
X24754408Y22669500D01*
X25029592Y22669500D01*
X25299490Y22723186D01*
X25553727Y22828495D01*
X25782535Y22981380D01*
X25977120Y23175965D01*
X26130005Y23404773D01*
X26162000Y23482015D01*
X26193995Y23404773D01*
X26346880Y23175965D01*
X26541465Y22981380D01*
X26770273Y22828495D01*
X27024510Y22723186D01*
X27294408Y22669500D01*
X27569592Y22669500D01*
X27839490Y22723186D01*
X28093727Y22828495D01*
X28322535Y22981380D01*
X28517120Y23175965D01*
X28670005Y23404773D01*
X28702000Y23482015D01*
X28733995Y23404773D01*
X28886880Y23175965D01*
X29081465Y22981380D01*
X29310273Y22828495D01*
X29564510Y22723186D01*
X29834408Y22669500D01*
X30109592Y22669500D01*
X30379490Y22723186D01*
X30633727Y22828495D01*
X30862535Y22981380D01*
X31057120Y23175965D01*
X31210005Y23404773D01*
X31242000Y23482015D01*
X31273995Y23404773D01*
X31426880Y23175965D01*
X31621465Y22981380D01*
X31850273Y22828495D01*
X32104510Y22723186D01*
X32374408Y22669500D01*
X32649592Y22669500D01*
X32919490Y22723186D01*
X33173727Y22828495D01*
X33402535Y22981380D01*
X33597120Y23175965D01*
X33750005Y23404773D01*
X33782000Y23482015D01*
X33813995Y23404773D01*
X33966880Y23175965D01*
X34161465Y22981380D01*
X34390273Y22828495D01*
X34644510Y22723186D01*
X34914408Y22669500D01*
X35189592Y22669500D01*
X35459490Y22723186D01*
X35713727Y22828495D01*
X35942535Y22981380D01*
X36137120Y23175965D01*
X36290005Y23404773D01*
X36353750Y23558666D01*
X36417495Y23404773D01*
X36570380Y23175965D01*
X36764965Y22981380D01*
X36993773Y22828495D01*
X37248010Y22723186D01*
X37517908Y22669500D01*
X37793092Y22669500D01*
X38062990Y22723186D01*
X38317227Y22828495D01*
X38546035Y22981380D01*
X38740620Y23175965D01*
X38893505Y23404773D01*
X38925500Y23482015D01*
X38957495Y23404773D01*
X39110380Y23175965D01*
X39304965Y22981380D01*
X39533773Y22828495D01*
X39788010Y22723186D01*
X40057908Y22669500D01*
X40333092Y22669500D01*
X40602990Y22723186D01*
X40857227Y22828495D01*
X41086035Y22981380D01*
X41280620Y23175965D01*
X41433505Y23404773D01*
X41465500Y23482015D01*
X41497495Y23404773D01*
X41650380Y23175965D01*
X41844965Y22981380D01*
X42073773Y22828495D01*
X42328010Y22723186D01*
X42597908Y22669500D01*
X42873092Y22669500D01*
X43142990Y22723186D01*
X43397227Y22828495D01*
X43626035Y22981380D01*
X43820620Y23175965D01*
X43973505Y23404773D01*
X44005500Y23482015D01*
X44037495Y23404773D01*
X44190380Y23175965D01*
X44384965Y22981380D01*
X44482657Y22916104D01*
X44037565Y22471011D01*
X36250116Y22471011D01*
X36214011Y22474567D01*
X36069926Y22460376D01*
X35931377Y22418348D01*
X35872481Y22386867D01*
X35803691Y22350098D01*
X35691773Y22258249D01*
X35668757Y22230204D01*
X28060747Y14622193D01*
X28105000Y14844665D01*
X28105000Y15127335D01*
X28049853Y15404574D01*
X27941680Y15665727D01*
X27784637Y15900759D01*
X27584759Y16100637D01*
X27349727Y16257680D01*
X27088574Y16365853D01*
X26811335Y16421000D01*
X26528665Y16421000D01*
X26251426Y16365853D01*
X25990273Y16257680D01*
X25755241Y16100637D01*
X25555363Y15900759D01*
X25398320Y15665727D01*
X25290147Y15404574D01*
X25235000Y15127335D01*
X25235000Y14844665D01*
X25290147Y14567426D01*
X25398320Y14306273D01*
X25555363Y14071241D01*
X25755241Y13871363D01*
X25990273Y13714320D01*
X26251426Y13606147D01*
X26528665Y13551000D01*
X26811335Y13551000D01*
X27033807Y13595253D01*
X24587554Y11149000D01*
X18070094Y11149000D01*
X18033999Y11152555D01*
X17997904Y11149000D01*
X17997895Y11149000D01*
X17889915Y11138365D01*
X17751367Y11096337D01*
X17623680Y11028087D01*
X17511762Y10936238D01*
X17488746Y10908193D01*
X13647372Y7066818D01*
X13589386Y7114405D01*
X13435850Y7196472D01*
X13269254Y7247008D01*
X13096000Y7264072D01*
X11796000Y7264072D01*
X11622746Y7247008D01*
X11456150Y7196472D01*
X11302614Y7114405D01*
X11168038Y7003962D01*
X11057595Y6869386D01*
X10975528Y6715850D01*
X10924992Y6549254D01*
X10907928Y6376000D01*
X10907928Y3276000D01*
X10924992Y3102746D01*
X10975528Y2936150D01*
X11057595Y2782614D01*
X11168038Y2648038D01*
X11302614Y2537595D01*
X11456150Y2455528D01*
X11622746Y2404992D01*
X11796000Y2387928D01*
X13096000Y2387928D01*
X13269254Y2404992D01*
X13435850Y2455528D01*
X13589386Y2537595D01*
X13723962Y2648038D01*
X13834405Y2782614D01*
X13916472Y2936150D01*
X13967008Y3102746D01*
X13984072Y3276000D01*
X13984072Y5324626D01*
X16791001Y8131554D01*
X16791001Y7073653D01*
X16669073Y7008481D01*
X16435339Y6816661D01*
X16243519Y6582926D01*
X16100983Y6316260D01*
X16013210Y6026912D01*
X15991000Y5801407D01*
X15991000Y3850592D01*
X16013211Y3625087D01*
X16100984Y3335739D01*
X16243520Y3069073D01*
X16435340Y2835339D01*
X16669074Y2643519D01*
X16935740Y2500983D01*
X17225088Y2413210D01*
X17526000Y2383573D01*
X17826913Y2413210D01*
X18116261Y2500983D01*
X18382927Y2643519D01*
X18616661Y2835339D01*
X18808481Y3069073D01*
X18951017Y3335739D01*
X19038790Y3625087D01*
X19061000Y3850592D01*
X19061000Y5801408D01*
X19038790Y6026913D01*
X18951017Y6316261D01*
X18808481Y6582927D01*
X18616661Y6816661D01*
X18382926Y7008481D01*
X18261000Y7073652D01*
X18261000Y8077554D01*
X19100447Y8917000D01*
X22355554Y8917000D01*
X22111808Y8673254D01*
X22083763Y8650238D01*
X21991914Y8538320D01*
X21973834Y8504494D01*
X21923664Y8410633D01*
X21881635Y8272085D01*
X21867444Y8128000D01*
X21871001Y8091885D01*
X21871001Y7073653D01*
X21749073Y7008481D01*
X21515339Y6816661D01*
X21323519Y6582926D01*
X21180983Y6316260D01*
X21093210Y6026912D01*
X21071000Y5801407D01*
X21071000Y3850592D01*
X21093211Y3625087D01*
X21180984Y3335739D01*
X21323520Y3069073D01*
X21515340Y2835339D01*
X21749074Y2643519D01*
X22015740Y2500983D01*
X22305088Y2413210D01*
X22606000Y2383573D01*
X22906913Y2413210D01*
X23196261Y2500983D01*
X23462927Y2643519D01*
X23696661Y2835339D01*
X23853132Y3026000D01*
X28433928Y3026000D01*
X28446188Y2901518D01*
X28482498Y2781820D01*
X28541463Y2671506D01*
X28620815Y2574815D01*
X28717506Y2495463D01*
X28827820Y2436498D01*
X28947518Y2400188D01*
X29072000Y2387928D01*
X29686250Y2391000D01*
X29845000Y2549750D01*
X29845000Y4699000D01*
X30099000Y4699000D01*
X30099000Y2549750D01*
X30257750Y2391000D01*
X30872000Y2387928D01*
X30996482Y2400188D01*
X31116180Y2436498D01*
X31226494Y2495463D01*
X31323185Y2574815D01*
X31402537Y2671506D01*
X31461502Y2781820D01*
X31497812Y2901518D01*
X31510072Y3026000D01*
X31507000Y4540250D01*
X31348250Y4699000D01*
X30099000Y4699000D01*
X29845000Y4699000D01*
X28595750Y4699000D01*
X28437000Y4540250D01*
X28433928Y3026000D01*
X23853132Y3026000D01*
X23888481Y3069073D01*
X24031017Y3335739D01*
X24118790Y3625087D01*
X24141000Y3850592D01*
X24141000Y5801408D01*
X24118790Y6026913D01*
X24031017Y6316261D01*
X23888481Y6582927D01*
X23853133Y6626000D01*
X28433928Y6626000D01*
X28437000Y5111750D01*
X28595750Y4953000D01*
X29845000Y4953000D01*
X29845000Y7102250D01*
X30099000Y7102250D01*
X30099000Y4953000D01*
X31348250Y4953000D01*
X31507000Y5111750D01*
X31508399Y5801407D01*
X33517000Y5801407D01*
X33517000Y3850592D01*
X33539211Y3625087D01*
X33626984Y3335739D01*
X33769520Y3069073D01*
X33961340Y2835339D01*
X34195074Y2643519D01*
X34461740Y2500983D01*
X34751088Y2413210D01*
X35052000Y2383573D01*
X35352913Y2413210D01*
X35642261Y2500983D01*
X35908927Y2643519D01*
X36142661Y2835339D01*
X36334481Y3069073D01*
X36477017Y3335739D01*
X36564790Y3625087D01*
X36587000Y3850592D01*
X36587000Y5801408D01*
X36564790Y6026913D01*
X36477017Y6316261D01*
X36334481Y6582927D01*
X36142661Y6816661D01*
X35908926Y7008481D01*
X35642260Y7151017D01*
X35352912Y7238790D01*
X35052000Y7268427D01*
X34751087Y7238790D01*
X34461739Y7151017D01*
X34195073Y7008481D01*
X33961339Y6816661D01*
X33769519Y6582926D01*
X33626983Y6316260D01*
X33539210Y6026912D01*
X33517000Y5801407D01*
X31508399Y5801407D01*
X31510072Y6626000D01*
X31497812Y6750482D01*
X31461502Y6870180D01*
X31402537Y6980494D01*
X31323185Y7077185D01*
X31226494Y7156537D01*
X31116180Y7215502D01*
X30996482Y7251812D01*
X30872000Y7264072D01*
X30257750Y7261000D01*
X30099000Y7102250D01*
X29845000Y7102250D01*
X29686250Y7261000D01*
X29072000Y7264072D01*
X28947518Y7251812D01*
X28827820Y7215502D01*
X28717506Y7156537D01*
X28620815Y7077185D01*
X28541463Y6980494D01*
X28482498Y6870180D01*
X28446188Y6750482D01*
X28433928Y6626000D01*
X23853133Y6626000D01*
X23696661Y6816661D01*
X23462926Y7008481D01*
X23341000Y7073652D01*
X23341000Y7823554D01*
X23926447Y8409000D01*
X24856523Y8409000D01*
X24892628Y8405444D01*
X24928733Y8409000D01*
X25036713Y8419635D01*
X25175261Y8461663D01*
X25302948Y8529913D01*
X25414866Y8621762D01*
X25437887Y8649813D01*
X36989065Y20200990D01*
X43822567Y20200990D01*
X43810027Y20188362D01*
X43765689Y20144943D01*
X43759592Y20137574D01*
X43636242Y19986332D01*
X43601881Y19934614D01*
X43566809Y19883393D01*
X43562260Y19874980D01*
X43470635Y19702657D01*
X43446978Y19645261D01*
X43422519Y19588193D01*
X43419690Y19579057D01*
X43363281Y19392220D01*
X43351219Y19331302D01*
X43338314Y19270590D01*
X43337314Y19261078D01*
X43318269Y19066845D01*
X43318269Y19066827D01*
X43315001Y19033647D01*
X43315001Y18834148D01*
X43289853Y18960574D01*
X43181680Y19221727D01*
X43024637Y19456759D01*
X42824759Y19656637D01*
X42589727Y19813680D01*
X42328574Y19921853D01*
X42051335Y19977000D01*
X41768665Y19977000D01*
X41491426Y19921853D01*
X41230273Y19813680D01*
X40995241Y19656637D01*
X40795363Y19456759D01*
X40638320Y19221727D01*
X40530147Y18960574D01*
X40475000Y18683335D01*
X40475000Y18400665D01*
X40530147Y18123426D01*
X40638320Y17862273D01*
X40795363Y17627241D01*
X40995241Y17427363D01*
X41230273Y17270320D01*
X41491426Y17162147D01*
X41768665Y17107000D01*
X42051335Y17107000D01*
X42328574Y17162147D01*
X42589727Y17270320D01*
X42824759Y17427363D01*
X43024637Y17627241D01*
X43181680Y17862273D01*
X43289853Y18123426D01*
X43315001Y18249852D01*
X43315001Y15278149D01*
X43289853Y15404574D01*
X43181680Y15665727D01*
X43024637Y15900759D01*
X42824759Y16100637D01*
X42589727Y16257680D01*
X42328574Y16365853D01*
X42051335Y16421000D01*
X41768665Y16421000D01*
X41491426Y16365853D01*
X41230273Y16257680D01*
X40995241Y16100637D01*
X40795363Y15900759D01*
X40638320Y15665727D01*
X40530147Y15404574D01*
X40475000Y15127335D01*
X40475000Y14844665D01*
X40530147Y14567426D01*
X40638320Y14306273D01*
X40795363Y14071241D01*
X40995241Y13871363D01*
X41230273Y13714320D01*
X41491426Y13606147D01*
X41768665Y13551000D01*
X42051335Y13551000D01*
X42328574Y13606147D01*
X42589727Y13714320D01*
X42824759Y13871363D01*
X43024637Y14071241D01*
X43181680Y14306273D01*
X43289853Y14567426D01*
X43315001Y14693850D01*
X43315000Y3966354D01*
X43318366Y3932179D01*
X43318366Y3919194D01*
X43319366Y3909682D01*
X43341121Y3715732D01*
X43354025Y3655024D01*
X43366089Y3594099D01*
X43368917Y3584962D01*
X43427930Y3398932D01*
X43452377Y3341895D01*
X43476046Y3284469D01*
X43480595Y3276056D01*
X43574617Y3105031D01*
X43609692Y3053806D01*
X43634146Y3017000D01*
X41371746Y3017000D01*
X41414481Y3069073D01*
X41557017Y3335739D01*
X41644790Y3625087D01*
X41667000Y3850592D01*
X41667000Y5801408D01*
X41644790Y6026913D01*
X41557017Y6316261D01*
X41414481Y6582927D01*
X41222661Y6816661D01*
X40988926Y7008481D01*
X40722260Y7151017D01*
X40432912Y7238790D01*
X40132000Y7268427D01*
X39831087Y7238790D01*
X39541739Y7151017D01*
X39275073Y7008481D01*
X39041339Y6816661D01*
X38849519Y6582926D01*
X38706983Y6316260D01*
X38619210Y6026912D01*
X38597000Y5801407D01*
X38597000Y3850592D01*
X38619211Y3625087D01*
X38706984Y3335739D01*
X38849520Y3069073D01*
X39041340Y2835339D01*
X39150107Y2746077D01*
X39150815Y2738885D01*
X39161253Y2632907D01*
X39217576Y2447234D01*
X39309040Y2276116D01*
X39432130Y2126130D01*
X39469715Y2095285D01*
X40195288Y1369711D01*
X40226130Y1332130D01*
X40263709Y1301290D01*
X40376116Y1209040D01*
X40547233Y1117576D01*
X40732906Y1061253D01*
X40926000Y1042235D01*
X40974380Y1047000D01*
X46433620Y1047000D01*
X46482000Y1042235D01*
X46530380Y1047000D01*
X46675094Y1061253D01*
X46860767Y1117576D01*
X47031884Y1209040D01*
X47181870Y1332130D01*
X47212716Y1369716D01*
X48122285Y2279285D01*
X48159871Y2310131D01*
X48282961Y2460117D01*
X48374425Y2631234D01*
X48417639Y2773692D01*
X48430748Y2816906D01*
X48449766Y3010000D01*
X48445001Y3058380D01*
X48445001Y4698812D01*
X48501519Y4593074D01*
X48693339Y4359339D01*
X48927073Y4167519D01*
X49193739Y4024983D01*
X49483087Y3937210D01*
X49784000Y3907573D01*
X50084912Y3937210D01*
X50374260Y4024983D01*
X50640926Y4167519D01*
X50874661Y4359339D01*
X51031132Y4550000D01*
X53325928Y4550000D01*
X53338188Y4425518D01*
X53374498Y4305820D01*
X53433463Y4195506D01*
X53512815Y4098815D01*
X53609506Y4019463D01*
X53719820Y3960498D01*
X53839518Y3924188D01*
X53964000Y3911928D01*
X54578250Y3915000D01*
X54737000Y4073750D01*
X54737000Y6223000D01*
X54991000Y6223000D01*
X54991000Y4073750D01*
X55149750Y3915000D01*
X55764000Y3911928D01*
X55888482Y3924188D01*
X56008180Y3960498D01*
X56118494Y4019463D01*
X56215185Y4098815D01*
X56294537Y4195506D01*
X56353502Y4305820D01*
X56389812Y4425518D01*
X56402072Y4550000D01*
X56399000Y6064250D01*
X56240250Y6223000D01*
X54991000Y6223000D01*
X54737000Y6223000D01*
X53487750Y6223000D01*
X53329000Y6064250D01*
X53325928Y4550000D01*
X51031132Y4550000D01*
X51066481Y4593073D01*
X51209017Y4859739D01*
X51296790Y5149087D01*
X51319000Y5374592D01*
X51319000Y7325408D01*
X51296790Y7550913D01*
X51209017Y7840261D01*
X51066481Y8106927D01*
X51031133Y8150000D01*
X53325928Y8150000D01*
X53329000Y6635750D01*
X53487750Y6477000D01*
X54737000Y6477000D01*
X54737000Y8626250D01*
X54991000Y8626250D01*
X54991000Y6477000D01*
X56240250Y6477000D01*
X56399000Y6635750D01*
X56402072Y8150000D01*
X56389812Y8274482D01*
X56353502Y8394180D01*
X56294537Y8504494D01*
X56215185Y8601185D01*
X56118494Y8680537D01*
X56008180Y8739502D01*
X55888482Y8775812D01*
X55764000Y8788072D01*
X55149750Y8785000D01*
X54991000Y8626250D01*
X54737000Y8626250D01*
X54578250Y8785000D01*
X53964000Y8788072D01*
X53839518Y8775812D01*
X53719820Y8739502D01*
X53609506Y8680537D01*
X53512815Y8601185D01*
X53433463Y8504494D01*
X53374498Y8394180D01*
X53338188Y8274482D01*
X53325928Y8150000D01*
X51031133Y8150000D01*
X50874661Y8340661D01*
X50640927Y8532481D01*
X50374261Y8675017D01*
X50084913Y8762790D01*
X49784000Y8792427D01*
X49483088Y8762790D01*
X49193740Y8675017D01*
X48927074Y8532481D01*
X48693340Y8340661D01*
X48501520Y8106927D01*
X48445001Y8001187D01*
X48445001Y11781686D01*
X48678574Y11828147D01*
X48939727Y11936320D01*
X49174759Y12093363D01*
X49374637Y12293241D01*
X49531680Y12528273D01*
X49639853Y12789426D01*
X49695000Y13066665D01*
X49695000Y13349335D01*
X49639853Y13626574D01*
X49531680Y13887727D01*
X49374637Y14122759D01*
X49245000Y14252396D01*
X49245000Y17626000D01*
X51208000Y19589000D01*
X59074183Y19589000D01*
X59005688Y19520505D01*
X58837701Y19269095D01*
X58721989Y18989743D01*
X58663000Y18693184D01*
X58663000Y18390816D01*
X58721989Y18094257D01*
X58837701Y17814905D01*
X59005688Y17563495D01*
X59219495Y17349688D01*
X59463000Y17186983D01*
X59463000Y16546105D01*
X59459444Y16510000D01*
X59463000Y16473896D01*
X59473635Y16365916D01*
X59515663Y16227368D01*
X59583913Y16099681D01*
X59675762Y15987763D01*
X59703808Y15964746D01*
X62107178Y13561375D01*
X62065000Y13349335D01*
X62065000Y13066665D01*
X62120147Y12789426D01*
X62228320Y12528273D01*
X62385363Y12293241D01*
X62585241Y12093363D01*
X62820273Y11936320D01*
X63081426Y11828147D01*
X63358665Y11773000D01*
X63641335Y11773000D01*
X63918574Y11828147D01*
X64179727Y11936320D01*
X64315000Y12026706D01*
X64315000Y7493000D01*
X58420000Y7493000D01*
X58395224Y7490560D01*
X58371399Y7483333D01*
X58349443Y7471597D01*
X58330197Y7455803D01*
X58314403Y7436557D01*
X58302667Y7414601D01*
X58295440Y7390776D01*
X58293000Y7366000D01*
X58293000Y685000D01*
X7239000Y685000D01*
X7239000Y7366000D01*
X7236560Y7390776D01*
X7229333Y7414601D01*
X7217597Y7436557D01*
X7201803Y7455803D01*
X7182557Y7471597D01*
X7160601Y7483333D01*
X7136776Y7490560D01*
X7112000Y7493000D01*
X889000Y7493000D01*
X889000Y9290260D01*
X1309000Y9290260D01*
X1309000Y8997740D01*
X1366068Y8710842D01*
X1478010Y8440589D01*
X1640525Y8197368D01*
X1847368Y7990525D01*
X2090589Y7828010D01*
X2360842Y7716068D01*
X2647740Y7659000D01*
X2940260Y7659000D01*
X3227158Y7716068D01*
X3497411Y7828010D01*
X3740632Y7990525D01*
X3872487Y8122380D01*
X3894498Y8049820D01*
X3953463Y7939506D01*
X4032815Y7842815D01*
X4129506Y7763463D01*
X4239820Y7704498D01*
X4359518Y7668188D01*
X4484000Y7655928D01*
X6184000Y7655928D01*
X6308482Y7668188D01*
X6428180Y7704498D01*
X6538494Y7763463D01*
X6635185Y7842815D01*
X6714537Y7939506D01*
X6773502Y8049820D01*
X6809812Y8169518D01*
X6822072Y8294000D01*
X6822072Y9994000D01*
X6809812Y10118482D01*
X6773502Y10238180D01*
X6714537Y10348494D01*
X6635185Y10445185D01*
X6538494Y10524537D01*
X6428180Y10583502D01*
X6308482Y10619812D01*
X6184000Y10632072D01*
X4484000Y10632072D01*
X4359518Y10619812D01*
X4239820Y10583502D01*
X4129506Y10524537D01*
X4032815Y10445185D01*
X3953463Y10348494D01*
X3894498Y10238180D01*
X3872487Y10165620D01*
X3740632Y10297475D01*
X3497411Y10459990D01*
X3227158Y10571932D01*
X2940260Y10629000D01*
X2647740Y10629000D01*
X2360842Y10571932D01*
X2090589Y10459990D01*
X1847368Y10297475D01*
X1640525Y10090632D01*
X1478010Y9847411D01*
X1366068Y9577158D01*
X1309000Y9290260D01*
X889000Y9290260D01*
X889000Y18415000D01*
X3405553Y18415000D01*
X3189897Y18199344D01*
X2940260Y18249000D01*
X2647740Y18249000D01*
X2360842Y18191932D01*
X2090589Y18079990D01*
X1847368Y17917475D01*
X1640525Y17710632D01*
X1478010Y17467411D01*
X1366068Y17197158D01*
X1309000Y16910260D01*
X1309000Y16617740D01*
X1366068Y16330842D01*
X1478010Y16060589D01*
X1640525Y15817368D01*
X1847368Y15610525D01*
X2090589Y15448010D01*
X2360842Y15336068D01*
X2647740Y15279000D01*
X2940260Y15279000D01*
X3227158Y15336068D01*
X3497411Y15448010D01*
X3740632Y15610525D01*
X3872487Y15742380D01*
X3894498Y15669820D01*
X3953463Y15559506D01*
X4032815Y15462815D01*
X4129506Y15383463D01*
X4239820Y15324498D01*
X4359518Y15288188D01*
X4484000Y15275928D01*
X6184000Y15275928D01*
X6308482Y15288188D01*
X6428180Y15324498D01*
X6538494Y15383463D01*
X6635185Y15462815D01*
X6714537Y15559506D01*
X6773502Y15669820D01*
X6809812Y15789518D01*
X6822072Y15914000D01*
X6822072Y17614000D01*
X6809812Y17738482D01*
X6789027Y17807000D01*
X9869895Y17807000D01*
X9906000Y17803444D01*
X9942105Y17807000D01*
X10050085Y17817635D01*
X10188633Y17859663D01*
X10316320Y17927913D01*
X10428238Y18019762D01*
X10451258Y18047812D01*
X11091706Y18688260D01*
X13755000Y18688260D01*
X13755000Y18395740D01*
X13812068Y18108842D01*
X13924010Y17838589D01*
X14086525Y17595368D01*
X14293368Y17388525D01*
X14505000Y17247117D01*
X14505001Y14756883D01*
X14293368Y14615475D01*
X14086525Y14408632D01*
X13924010Y14165411D01*
X13812068Y13895158D01*
X13755000Y13608260D01*
X13755000Y13315740D01*
X13812068Y13028842D01*
X13924010Y12758589D01*
X14086525Y12515368D01*
X14293368Y12308525D01*
X14536589Y12146010D01*
X14806842Y12034068D01*
X15093740Y11977000D01*
X15386260Y11977000D01*
X15673158Y12034068D01*
X15943411Y12146010D01*
X16186632Y12308525D01*
X16393475Y12515368D01*
X16510000Y12689760D01*
X16626525Y12515368D01*
X16833368Y12308525D01*
X17076589Y12146010D01*
X17346842Y12034068D01*
X17633740Y11977000D01*
X17926260Y11977000D01*
X18213158Y12034068D01*
X18483411Y12146010D01*
X18726632Y12308525D01*
X18933475Y12515368D01*
X19055195Y12697534D01*
X19124822Y12580645D01*
X19319731Y12364412D01*
X19553080Y12190359D01*
X19815901Y12065175D01*
X19963110Y12020524D01*
X20193000Y12141845D01*
X20193000Y13335000D01*
X20173000Y13335000D01*
X20173000Y13589000D01*
X20193000Y13589000D01*
X20193000Y14782155D01*
X20447000Y14782155D01*
X20447000Y13589000D01*
X20467000Y13589000D01*
X20467000Y13335000D01*
X20447000Y13335000D01*
X20447000Y12141845D01*
X20676890Y12020524D01*
X20824099Y12065175D01*
X21086920Y12190359D01*
X21320269Y12364412D01*
X21396034Y12448466D01*
X21420498Y12367820D01*
X21479463Y12257506D01*
X21558815Y12160815D01*
X21655506Y12081463D01*
X21765820Y12022498D01*
X21885518Y11986188D01*
X22010000Y11973928D01*
X23710000Y11973928D01*
X23834482Y11986188D01*
X23954180Y12022498D01*
X24064494Y12081463D01*
X24161185Y12160815D01*
X24240537Y12257506D01*
X24299502Y12367820D01*
X24335812Y12487518D01*
X24348072Y12612000D01*
X24348072Y14312000D01*
X24335812Y14436482D01*
X24299502Y14556180D01*
X24240537Y14666494D01*
X24161185Y14763185D01*
X24064494Y14842537D01*
X23954180Y14901502D01*
X23834482Y14937812D01*
X23710000Y14950072D01*
X22010000Y14950072D01*
X21885518Y14937812D01*
X21765820Y14901502D01*
X21655506Y14842537D01*
X21558815Y14763185D01*
X21479463Y14666494D01*
X21420498Y14556180D01*
X21396034Y14475534D01*
X21320269Y14559588D01*
X21086920Y14733641D01*
X20824099Y14858825D01*
X20676890Y14903476D01*
X20447000Y14782155D01*
X20193000Y14782155D01*
X19963110Y14903476D01*
X19815901Y14858825D01*
X19553080Y14733641D01*
X19319731Y14559588D01*
X19124822Y14343355D01*
X19055195Y14226466D01*
X18933475Y14408632D01*
X18726632Y14615475D01*
X18515000Y14756883D01*
X18515000Y17247117D01*
X18726632Y17388525D01*
X18933475Y17595368D01*
X19055195Y17777534D01*
X19124822Y17660645D01*
X19319731Y17444412D01*
X19553080Y17270359D01*
X19815901Y17145175D01*
X19963110Y17100524D01*
X20193000Y17221845D01*
X20193000Y18415000D01*
X20173000Y18415000D01*
X20173000Y18669000D01*
X20193000Y18669000D01*
X20193000Y18689000D01*
X20447000Y18689000D01*
X20447000Y18669000D01*
X20467000Y18669000D01*
X20467000Y18415000D01*
X20447000Y18415000D01*
X20447000Y17221845D01*
X20676890Y17100524D01*
X20824099Y17145175D01*
X21086920Y17270359D01*
X21320269Y17444412D01*
X21396034Y17528466D01*
X21420498Y17447820D01*
X21479463Y17337506D01*
X21558815Y17240815D01*
X21655506Y17161463D01*
X21765820Y17102498D01*
X21885518Y17066188D01*
X22010000Y17053928D01*
X23710000Y17053928D01*
X23834482Y17066188D01*
X23954180Y17102498D01*
X24064494Y17161463D01*
X24161185Y17240815D01*
X24240537Y17337506D01*
X24299502Y17447820D01*
X24335812Y17567518D01*
X24348072Y17692000D01*
X24348072Y18957001D01*
X25215553Y18957001D01*
X25277178Y18895376D01*
X25235000Y18683335D01*
X25235000Y18400665D01*
X25290147Y18123426D01*
X25398320Y17862273D01*
X25555363Y17627241D01*
X25755241Y17427363D01*
X25990273Y17270320D01*
X26251426Y17162147D01*
X26528665Y17107000D01*
X26811335Y17107000D01*
X27088574Y17162147D01*
X27349727Y17270320D01*
X27584759Y17427363D01*
X27784637Y17627241D01*
X27941680Y17862273D01*
X28049853Y18123426D01*
X28105000Y18400665D01*
X28105000Y18683335D01*
X28049853Y18960574D01*
X27941680Y19221727D01*
X27784637Y19456759D01*
X27584759Y19656637D01*
X27349727Y19813680D01*
X27088574Y19921853D01*
X26811335Y19977000D01*
X26528665Y19977000D01*
X26316624Y19934822D01*
X26065257Y20186189D01*
X26042237Y20214239D01*
X25930319Y20306088D01*
X25802632Y20374338D01*
X25664084Y20416366D01*
X25556104Y20427001D01*
X25519999Y20430557D01*
X25483894Y20427001D01*
X18966105Y20427001D01*
X18930000Y20430557D01*
X18785915Y20416366D01*
X18750046Y20405485D01*
X18647368Y20374338D01*
X18519681Y20306088D01*
X18407763Y20214239D01*
X18384747Y20186194D01*
X18175897Y19977344D01*
X17926260Y20027000D01*
X17633740Y20027000D01*
X17346842Y19969932D01*
X17076589Y19857990D01*
X16833368Y19695475D01*
X16626525Y19488632D01*
X16510000Y19314240D01*
X16393475Y19488632D01*
X16186632Y19695475D01*
X15943411Y19857990D01*
X15673158Y19969932D01*
X15386260Y20027000D01*
X15093740Y20027000D01*
X14806842Y19969932D01*
X14536589Y19857990D01*
X14293368Y19695475D01*
X14086525Y19488632D01*
X13924010Y19245411D01*
X13812068Y18975158D01*
X13755000Y18688260D01*
X11091706Y18688260D01*
X11404197Y19000750D01*
X11432237Y19023762D01*
X11455250Y19051803D01*
X11455253Y19051806D01*
X11511124Y19119885D01*
X11524087Y19135680D01*
X11592337Y19263367D01*
X11634365Y19401915D01*
X11645000Y19509895D01*
X11645000Y19509904D01*
X11648555Y19545999D01*
X11645000Y19582094D01*
X11645000Y49935117D01*
X11856632Y50076525D01*
X12063475Y50283368D01*
X12180000Y50457760D01*
X12296525Y50283368D01*
X12503368Y50076525D01*
X12746589Y49914010D01*
X13016842Y49802068D01*
X13303740Y49745000D01*
X13596260Y49745000D01*
X13883158Y49802068D01*
X14153411Y49914010D01*
X14396632Y50076525D01*
X14603475Y50283368D01*
X14720000Y50457760D01*
X14836525Y50283368D01*
X15043368Y50076525D01*
X15286589Y49914010D01*
X15556842Y49802068D01*
X15843740Y49745000D01*
X16136260Y49745000D01*
X16423158Y49802068D01*
X16537001Y49849223D01*
X16537001Y49195046D01*
X16381465Y49091120D01*
X16186880Y48896535D01*
X16033995Y48667727D01*
X16002000Y48590485D01*
X15970005Y48667727D01*
X15817120Y48896535D01*
X15622535Y49091120D01*
X15393727Y49244005D01*
X15139490Y49349314D01*
X14869592Y49403000D01*
X14594408Y49403000D01*
X14324510Y49349314D01*
X14070273Y49244005D01*
X13841465Y49091120D01*
X13646880Y48896535D01*
X13493995Y48667727D01*
X13388686Y48413490D01*
X13335000Y48143592D01*
X13335000Y47868408D01*
X13388686Y47598510D01*
X13493995Y47344273D01*
X13646880Y47115465D01*
X13841465Y46920880D01*
X14070273Y46767995D01*
X14324510Y46662686D01*
X14594408Y46609000D01*
X14869592Y46609000D01*
X15139490Y46662686D01*
X15393727Y46767995D01*
X15622535Y46920880D01*
X15817120Y47115465D01*
X15970005Y47344273D01*
X16002000Y47421515D01*
X16033995Y47344273D01*
X16186880Y47115465D01*
X16381465Y46920880D01*
X16610273Y46767995D01*
X16864510Y46662686D01*
X17134408Y46609000D01*
X17409592Y46609000D01*
X17679490Y46662686D01*
X17933727Y46767995D01*
X18162535Y46920880D01*
X18357120Y47115465D01*
X18510005Y47344273D01*
X18542000Y47421515D01*
X18573995Y47344273D01*
X18726880Y47115465D01*
X18921465Y46920880D01*
X19150273Y46767995D01*
X19404510Y46662686D01*
X19674408Y46609000D01*
X19949592Y46609000D01*
X20219490Y46662686D01*
X20473727Y46767995D01*
X20702535Y46920880D01*
X20897120Y47115465D01*
X21050005Y47344273D01*
X21082000Y47421515D01*
X21113995Y47344273D01*
X21266880Y47115465D01*
X21461465Y46920880D01*
X21690273Y46767995D01*
X21944510Y46662686D01*
X22214408Y46609000D01*
X22489592Y46609000D01*
X22759490Y46662686D01*
X23013727Y46767995D01*
X23242535Y46920880D01*
X23437120Y47115465D01*
X23590005Y47344273D01*
X23622000Y47421515D01*
X23653995Y47344273D01*
X23806880Y47115465D01*
X24001465Y46920880D01*
X24230273Y46767995D01*
X24484510Y46662686D01*
X24754408Y46609000D01*
X25029592Y46609000D01*
X25299490Y46662686D01*
X25553727Y46767995D01*
X25782535Y46920880D01*
X25977120Y47115465D01*
X26130005Y47344273D01*
X26162000Y47421515D01*
X26193995Y47344273D01*
X26346880Y47115465D01*
X26541465Y46920880D01*
X26770273Y46767995D01*
X27024510Y46662686D01*
X27294408Y46609000D01*
X27569592Y46609000D01*
X27839490Y46662686D01*
X28093727Y46767995D01*
X28322535Y46920880D01*
X28517120Y47115465D01*
X28670005Y47344273D01*
X28702000Y47421515D01*
X28733995Y47344273D01*
X28886880Y47115465D01*
X29081465Y46920880D01*
X29310273Y46767995D01*
X29564510Y46662686D01*
X29834408Y46609000D01*
X30109592Y46609000D01*
X30379490Y46662686D01*
X30633727Y46767995D01*
X30862535Y46920880D01*
X31057120Y47115465D01*
X31210005Y47344273D01*
X31242000Y47421515D01*
X31273995Y47344273D01*
X31426880Y47115465D01*
X31621465Y46920880D01*
X31850273Y46767995D01*
X32104510Y46662686D01*
X32374408Y46609000D01*
X32649592Y46609000D01*
X32919490Y46662686D01*
X33173727Y46767995D01*
X33402535Y46920880D01*
X33597120Y47115465D01*
X33750005Y47344273D01*
X33782000Y47421515D01*
X33813995Y47344273D01*
X33966880Y47115465D01*
X34161465Y46920880D01*
X34390273Y46767995D01*
X34644510Y46662686D01*
X34914408Y46609000D01*
X35189592Y46609000D01*
X35459490Y46662686D01*
X35713727Y46767995D01*
X35942535Y46920880D01*
X36137120Y47115465D01*
X36290005Y47344273D01*
X36322000Y47421515D01*
X36353995Y47344273D01*
X36506880Y47115465D01*
X36701465Y46920880D01*
X36930273Y46767995D01*
X37184510Y46662686D01*
X37454408Y46609000D01*
X37729592Y46609000D01*
X37999490Y46662686D01*
X38253727Y46767995D01*
X38482535Y46920880D01*
X38677120Y47115465D01*
X38830005Y47344273D01*
X38862000Y47421515D01*
X38893995Y47344273D01*
X39046880Y47115465D01*
X39241465Y46920880D01*
X39470273Y46767995D01*
X39724510Y46662686D01*
X39994408Y46609000D01*
X40269592Y46609000D01*
X40539490Y46662686D01*
X40793727Y46767995D01*
X41022535Y46920880D01*
X41217120Y47115465D01*
X41370005Y47344273D01*
X41402000Y47421515D01*
X41433995Y47344273D01*
X41586880Y47115465D01*
X41781465Y46920880D01*
X42010273Y46767995D01*
X42264510Y46662686D01*
X42534408Y46609000D01*
X42809592Y46609000D01*
X43079490Y46662686D01*
X43333727Y46767995D01*
X43562535Y46920880D01*
X43757120Y47115465D01*
X43910005Y47344273D01*
X43942000Y47421515D01*
X43973995Y47344273D01*
X44126880Y47115465D01*
X44321465Y46920880D01*
X44550273Y46767995D01*
X44804510Y46662686D01*
X45074408Y46609000D01*
X45349592Y46609000D01*
X45619490Y46662686D01*
X45873727Y46767995D01*
X46102535Y46920880D01*
X46297120Y47115465D01*
X46450005Y47344273D01*
X46482000Y47421515D01*
X46513995Y47344273D01*
X46666880Y47115465D01*
X46861465Y46920880D01*
X47090273Y46767995D01*
X47344510Y46662686D01*
X47614408Y46609000D01*
X47889592Y46609000D01*
X48159490Y46662686D01*
X48413727Y46767995D01*
X48642535Y46920880D01*
X48837120Y47115465D01*
X48990005Y47344273D01*
X49022000Y47421515D01*
X49053995Y47344273D01*
X49206880Y47115465D01*
X49401465Y46920880D01*
X49630273Y46767995D01*
X49884510Y46662686D01*
X50154408Y46609000D01*
X50429592Y46609000D01*
X50699490Y46662686D01*
X50953727Y46767995D01*
X51182535Y46920880D01*
X51282655Y47021000D01*
X51841345Y47021000D01*
X51941465Y46920880D01*
X52170273Y46767995D01*
X52424510Y46662686D01*
X52694408Y46609000D01*
X52969592Y46609000D01*
X53239490Y46662686D01*
X53493727Y46767995D01*
X53722535Y46920880D01*
X53917120Y47115465D01*
X54070005Y47344273D01*
X54102000Y47421515D01*
X54133995Y47344273D01*
X54286880Y47115465D01*
X54481465Y46920880D01*
X54710273Y46767995D01*
X54964510Y46662686D01*
X55234408Y46609000D01*
X55509592Y46609000D01*
X55779490Y46662686D01*
X56033727Y46767995D01*
X56262535Y46920880D01*
X56382090Y47040435D01*
X57126040Y47040435D01*
X57193020Y46800344D01*
X57442048Y46683244D01*
X57709135Y46616977D01*
X57984017Y46604090D01*
X58256133Y46645078D01*
X58515023Y46738364D01*
X58630980Y46800344D01*
X58697960Y47040435D01*
X57912000Y47826395D01*
X57126040Y47040435D01*
X56382090Y47040435D01*
X56457120Y47115465D01*
X56610005Y47344273D01*
X56639692Y47415943D01*
X56644364Y47402977D01*
X56706344Y47287020D01*
X56946435Y47220040D01*
X57732395Y48006000D01*
X56946435Y48791960D01*
X56706344Y48724980D01*
X56642515Y48589240D01*
X56610005Y48667727D01*
X56457120Y48896535D01*
X56262535Y49091120D01*
X56033727Y49244005D01*
X55779490Y49349314D01*
X55509592Y49403000D01*
X55234408Y49403000D01*
X54964510Y49349314D01*
X54710273Y49244005D01*
X54481465Y49091120D01*
X54286880Y48896535D01*
X54133995Y48667727D01*
X54102000Y48590485D01*
X54070005Y48667727D01*
X53917120Y48896535D01*
X53722535Y49091120D01*
X53493727Y49244005D01*
X53239490Y49349314D01*
X52969592Y49403000D01*
X52694408Y49403000D01*
X52424510Y49349314D01*
X52170273Y49244005D01*
X51941465Y49091120D01*
X51841345Y48991000D01*
X51282655Y48991000D01*
X51182535Y49091120D01*
X50953727Y49244005D01*
X50699490Y49349314D01*
X50429592Y49403000D01*
X50154408Y49403000D01*
X49884510Y49349314D01*
X49630273Y49244005D01*
X49401465Y49091120D01*
X49206880Y48896535D01*
X49053995Y48667727D01*
X49022000Y48590485D01*
X48990005Y48667727D01*
X48837120Y48896535D01*
X48642535Y49091120D01*
X48413727Y49244005D01*
X48159490Y49349314D01*
X47889592Y49403000D01*
X47614408Y49403000D01*
X47344510Y49349314D01*
X47090273Y49244005D01*
X46861465Y49091120D01*
X46666880Y48896535D01*
X46513995Y48667727D01*
X46482000Y48590485D01*
X46450005Y48667727D01*
X46297120Y48896535D01*
X46102535Y49091120D01*
X45873727Y49244005D01*
X45619490Y49349314D01*
X45349592Y49403000D01*
X45074408Y49403000D01*
X44804510Y49349314D01*
X44550273Y49244005D01*
X44321465Y49091120D01*
X44126880Y48896535D01*
X43973995Y48667727D01*
X43942000Y48590485D01*
X43910005Y48667727D01*
X43757120Y48896535D01*
X43562535Y49091120D01*
X43333727Y49244005D01*
X43079490Y49349314D01*
X42809592Y49403000D01*
X42534408Y49403000D01*
X42264510Y49349314D01*
X42010273Y49244005D01*
X41781465Y49091120D01*
X41586880Y48896535D01*
X41433995Y48667727D01*
X41402000Y48590485D01*
X41370005Y48667727D01*
X41217120Y48896535D01*
X41022535Y49091120D01*
X40793727Y49244005D01*
X40539490Y49349314D01*
X40269592Y49403000D01*
X39994408Y49403000D01*
X39724510Y49349314D01*
X39470273Y49244005D01*
X39241465Y49091120D01*
X39046880Y48896535D01*
X38893995Y48667727D01*
X38862000Y48590485D01*
X38830005Y48667727D01*
X38677120Y48896535D01*
X38482535Y49091120D01*
X38253727Y49244005D01*
X37999490Y49349314D01*
X37729592Y49403000D01*
X37454408Y49403000D01*
X37184510Y49349314D01*
X36930273Y49244005D01*
X36701465Y49091120D01*
X36506880Y48896535D01*
X36353995Y48667727D01*
X36322000Y48590485D01*
X36290005Y48667727D01*
X36137120Y48896535D01*
X35942535Y49091120D01*
X35713727Y49244005D01*
X35459490Y49349314D01*
X35189592Y49403000D01*
X34914408Y49403000D01*
X34644510Y49349314D01*
X34390273Y49244005D01*
X34161465Y49091120D01*
X33966880Y48896535D01*
X33813995Y48667727D01*
X33782000Y48590485D01*
X33750005Y48667727D01*
X33597120Y48896535D01*
X33402535Y49091120D01*
X33173727Y49244005D01*
X32919490Y49349314D01*
X32649592Y49403000D01*
X32374408Y49403000D01*
X32190940Y49366506D01*
X31787258Y49770188D01*
X31764238Y49798238D01*
X31727232Y49828608D01*
X31933411Y49914010D01*
X32176632Y50076525D01*
X32383475Y50283368D01*
X32500000Y50457760D01*
X32616525Y50283368D01*
X32823368Y50076525D01*
X33066589Y49914010D01*
X33336842Y49802068D01*
X33623740Y49745000D01*
X33916260Y49745000D01*
X34203158Y49802068D01*
X34473411Y49914010D01*
X34716632Y50076525D01*
X34923475Y50283368D01*
X35040000Y50457760D01*
X35156525Y50283368D01*
X35363368Y50076525D01*
X35606589Y49914010D01*
X35876842Y49802068D01*
X36163740Y49745000D01*
X36456260Y49745000D01*
X36743158Y49802068D01*
X37013411Y49914010D01*
X37256632Y50076525D01*
X37463475Y50283368D01*
X37585195Y50465534D01*
X37654822Y50348645D01*
X37849731Y50132412D01*
X38083080Y49958359D01*
X38345901Y49833175D01*
X38493110Y49788524D01*
X38723000Y49909845D01*
X38723000Y51103000D01*
X38703000Y51103000D01*
X38703000Y51357000D01*
X38723000Y51357000D01*
X38723000Y51377000D01*
X38977000Y51377000D01*
X38977000Y51357000D01*
X38997000Y51357000D01*
X38997000Y51103000D01*
X38977000Y51103000D01*
X38977000Y49909845D01*
X39206890Y49788524D01*
X39354099Y49833175D01*
X39616920Y49958359D01*
X39850269Y50132412D01*
X40045178Y50348645D01*
X40114805Y50465534D01*
X40236525Y50283368D01*
X40443368Y50076525D01*
X40686589Y49914010D01*
X40956842Y49802068D01*
X41243740Y49745000D01*
X41536260Y49745000D01*
X41823158Y49802068D01*
X42093411Y49914010D01*
X42336632Y50076525D01*
X42543475Y50283368D01*
X42660000Y50457760D01*
X42776525Y50283368D01*
X42983368Y50076525D01*
X43226589Y49914010D01*
X43496842Y49802068D01*
X43783740Y49745000D01*
X44076260Y49745000D01*
X44363158Y49802068D01*
X44633411Y49914010D01*
X44876632Y50076525D01*
X45083475Y50283368D01*
X45200000Y50457760D01*
X45316525Y50283368D01*
X45523368Y50076525D01*
X45766589Y49914010D01*
X46036842Y49802068D01*
X46323740Y49745000D01*
X46616260Y49745000D01*
X46903158Y49802068D01*
X47173411Y49914010D01*
X47416632Y50076525D01*
X47623475Y50283368D01*
X47740000Y50457760D01*
X47856525Y50283368D01*
X48063368Y50076525D01*
X48306589Y49914010D01*
X48576842Y49802068D01*
X48863740Y49745000D01*
X49156260Y49745000D01*
X49443158Y49802068D01*
X49713411Y49914010D01*
X49956632Y50076525D01*
X50163475Y50283368D01*
X50280000Y50457760D01*
X50396525Y50283368D01*
X50603368Y50076525D01*
X50846589Y49914010D01*
X51116842Y49802068D01*
X51403740Y49745000D01*
X51696260Y49745000D01*
X51983158Y49802068D01*
X52253411Y49914010D01*
X52496632Y50076525D01*
X52703475Y50283368D01*
X52820000Y50457760D01*
X52936525Y50283368D01*
X53143368Y50076525D01*
X53386589Y49914010D01*
X53656842Y49802068D01*
X53943740Y49745000D01*
X54236260Y49745000D01*
X54523158Y49802068D01*
X54793411Y49914010D01*
X55036632Y50076525D01*
X55243475Y50283368D01*
X55365195Y50465534D01*
X55434822Y50348645D01*
X55629731Y50132412D01*
X55863080Y49958359D01*
X56125901Y49833175D01*
X56273110Y49788524D01*
X56503000Y49909845D01*
X56503000Y51103000D01*
X56757000Y51103000D01*
X56757000Y49909845D01*
X56986890Y49788524D01*
X57134099Y49833175D01*
X57396920Y49958359D01*
X57630269Y50132412D01*
X57825178Y50348645D01*
X57974157Y50598748D01*
X58071481Y50873109D01*
X57950814Y51103000D01*
X56757000Y51103000D01*
X56503000Y51103000D01*
X56483000Y51103000D01*
X56483000Y51357000D01*
X56503000Y51357000D01*
X56503000Y51377000D01*
X56757000Y51377000D01*
X56757000Y51357000D01*
X57950814Y51357000D01*
X58071481Y51586891D01*
X57974157Y51861252D01*
X57825178Y52111355D01*
X57630269Y52327588D01*
X57400594Y52498900D01*
X57576632Y52616525D01*
X57783475Y52823368D01*
X57945990Y53066589D01*
X58057932Y53336842D01*
X58115000Y53623740D01*
X58115000Y53916260D01*
X58057932Y54203158D01*
X57945990Y54473411D01*
X57783475Y54716632D01*
X57576632Y54923475D01*
X57333411Y55085990D01*
X57063158Y55197932D01*
X56776260Y55255000D01*
X56483740Y55255000D01*
X56196842Y55197932D01*
X55926589Y55085990D01*
X55683368Y54923475D01*
X55476525Y54716632D01*
X55360000Y54542240D01*
X55243475Y54716632D01*
X55036632Y54923475D01*
X54793411Y55085990D01*
X54523158Y55197932D01*
X54236260Y55255000D01*
X53943740Y55255000D01*
X53656842Y55197932D01*
X53386589Y55085990D01*
X53143368Y54923475D01*
X52936525Y54716632D01*
X52820000Y54542240D01*
X52703475Y54716632D01*
X52496632Y54923475D01*
X52253411Y55085990D01*
X51983158Y55197932D01*
X51696260Y55255000D01*
X51403740Y55255000D01*
X51116842Y55197932D01*
X50846589Y55085990D01*
X50603368Y54923475D01*
X50396525Y54716632D01*
X50274805Y54534466D01*
X50205178Y54651355D01*
X50010269Y54867588D01*
X49776920Y55041641D01*
X49514099Y55166825D01*
X49366890Y55211476D01*
X49137000Y55090155D01*
X49137000Y53897000D01*
X49157000Y53897000D01*
X49157000Y53643000D01*
X49137000Y53643000D01*
X49137000Y53623000D01*
X48883000Y53623000D01*
X48883000Y53643000D01*
X48863000Y53643000D01*
X48863000Y53897000D01*
X48883000Y53897000D01*
X48883000Y55090155D01*
X48653110Y55211476D01*
X48505901Y55166825D01*
X48243080Y55041641D01*
X48009731Y54867588D01*
X47814822Y54651355D01*
X47745195Y54534466D01*
X47623475Y54716632D01*
X47416632Y54923475D01*
X47173411Y55085990D01*
X46903158Y55197932D01*
X46616260Y55255000D01*
X46323740Y55255000D01*
X46036842Y55197932D01*
X45766589Y55085990D01*
X45523368Y54923475D01*
X45316525Y54716632D01*
X45194805Y54534466D01*
X45125178Y54651355D01*
X44930269Y54867588D01*
X44696920Y55041641D01*
X44434099Y55166825D01*
X44286890Y55211476D01*
X44057000Y55090155D01*
X44057000Y53897000D01*
X44077000Y53897000D01*
X44077000Y53643000D01*
X44057000Y53643000D01*
X44057000Y53623000D01*
X43803000Y53623000D01*
X43803000Y53643000D01*
X43783000Y53643000D01*
X43783000Y53897000D01*
X43803000Y53897000D01*
X43803000Y55090155D01*
X43573110Y55211476D01*
X43425901Y55166825D01*
X43163080Y55041641D01*
X42929731Y54867588D01*
X42734822Y54651355D01*
X42665195Y54534466D01*
X42543475Y54716632D01*
X42336632Y54923475D01*
X42093411Y55085990D01*
X41823158Y55197932D01*
X41536260Y55255000D01*
X41243740Y55255000D01*
X40956842Y55197932D01*
X40686589Y55085990D01*
X40443368Y54923475D01*
X40236525Y54716632D01*
X40120000Y54542240D01*
X40003475Y54716632D01*
X39796632Y54923475D01*
X39553411Y55085990D01*
X39283158Y55197932D01*
X38996260Y55255000D01*
X38703740Y55255000D01*
X38416842Y55197932D01*
X38146589Y55085990D01*
X37903368Y54923475D01*
X37696525Y54716632D01*
X37580000Y54542240D01*
X37463475Y54716632D01*
X37256632Y54923475D01*
X37013411Y55085990D01*
X36743158Y55197932D01*
X36456260Y55255000D01*
X36163740Y55255000D01*
X35876842Y55197932D01*
X35606589Y55085990D01*
X35363368Y54923475D01*
X35156525Y54716632D01*
X35040000Y54542240D01*
X34923475Y54716632D01*
X34716632Y54923475D01*
X34473411Y55085990D01*
X34203158Y55197932D01*
X33916260Y55255000D01*
X33623740Y55255000D01*
X33336842Y55197932D01*
X33066589Y55085990D01*
X32823368Y54923475D01*
X32616525Y54716632D01*
X32494805Y54534466D01*
X32425178Y54651355D01*
X32230269Y54867588D01*
X31996920Y55041641D01*
X31734099Y55166825D01*
X31586890Y55211476D01*
X31357000Y55090155D01*
X31357000Y53897000D01*
X31377000Y53897000D01*
X31377000Y53643000D01*
X31357000Y53643000D01*
X31357000Y53623000D01*
X31103000Y53623000D01*
X31103000Y53643000D01*
X31083000Y53643000D01*
X31083000Y53897000D01*
X31103000Y53897000D01*
X31103000Y55090155D01*
X30873110Y55211476D01*
X30725901Y55166825D01*
X30463080Y55041641D01*
X30229731Y54867588D01*
X30034822Y54651355D01*
X29965195Y54534466D01*
X29843475Y54716632D01*
X29636632Y54923475D01*
X29393411Y55085990D01*
X29123158Y55197932D01*
X28836260Y55255000D01*
X28543740Y55255000D01*
X28256842Y55197932D01*
X27986589Y55085990D01*
X27743368Y54923475D01*
X27536525Y54716632D01*
X27420000Y54542240D01*
X27303475Y54716632D01*
X27096632Y54923475D01*
X26853411Y55085990D01*
X26583158Y55197932D01*
X26296260Y55255000D01*
X26003740Y55255000D01*
X25716842Y55197932D01*
X25446589Y55085990D01*
X25203368Y54923475D01*
X24996525Y54716632D01*
X24874805Y54534466D01*
X24805178Y54651355D01*
X24610269Y54867588D01*
X24376920Y55041641D01*
X24114099Y55166825D01*
X23966890Y55211476D01*
X23737000Y55090155D01*
X23737000Y53897000D01*
X23757000Y53897000D01*
X23757000Y53643000D01*
X23737000Y53643000D01*
X23737000Y53623000D01*
X23483000Y53623000D01*
X23483000Y53643000D01*
X23463000Y53643000D01*
X23463000Y53897000D01*
X23483000Y53897000D01*
X23483000Y55090155D01*
X23253110Y55211476D01*
X23105901Y55166825D01*
X22843080Y55041641D01*
X22609731Y54867588D01*
X22414822Y54651355D01*
X22345195Y54534466D01*
X22223475Y54716632D01*
X22016632Y54923475D01*
X21773411Y55085990D01*
X21503158Y55197932D01*
X21216260Y55255000D01*
X20923740Y55255000D01*
X20636842Y55197932D01*
X20366589Y55085990D01*
X20123368Y54923475D01*
X19916525Y54716632D01*
X19800000Y54542240D01*
X19683475Y54716632D01*
X19476632Y54923475D01*
X19233411Y55085990D01*
X18963158Y55197932D01*
X18676260Y55255000D01*
X18383740Y55255000D01*
X18096842Y55197932D01*
X17826589Y55085990D01*
X17583368Y54923475D01*
X17376525Y54716632D01*
X17260000Y54542240D01*
X17143475Y54716632D01*
X16936632Y54923475D01*
X16693411Y55085990D01*
X16423158Y55197932D01*
X16136260Y55255000D01*
X15843740Y55255000D01*
X15556842Y55197932D01*
X15286589Y55085990D01*
X15043368Y54923475D01*
X14836525Y54716632D01*
X14714805Y54534466D01*
X14645178Y54651355D01*
X14450269Y54867588D01*
X14216920Y55041641D01*
X13954099Y55166825D01*
X13806890Y55211476D01*
X13577000Y55090155D01*
X13577000Y53897000D01*
X13597000Y53897000D01*
X13597000Y53643000D01*
X13577000Y53643000D01*
X13577000Y53623000D01*
X13323000Y53623000D01*
X13323000Y53643000D01*
X13303000Y53643000D01*
X13303000Y53897000D01*
X13323000Y53897000D01*
X13323000Y55090155D01*
X13093110Y55211476D01*
X12945901Y55166825D01*
X12683080Y55041641D01*
X12449731Y54867588D01*
X12254822Y54651355D01*
X12185195Y54534466D01*
X12063475Y54716632D01*
X11856632Y54923475D01*
X11613411Y55085990D01*
X11343158Y55197932D01*
X11056260Y55255000D01*
X10763740Y55255000D01*
X10476842Y55197932D01*
X10206589Y55085990D01*
X9963368Y54923475D01*
X9756525Y54716632D01*
X9640000Y54542240D01*
X9523475Y54716632D01*
X9316632Y54923475D01*
X9073411Y55085990D01*
X8803158Y55197932D01*
X8516260Y55255000D01*
X8223740Y55255000D01*
X7936842Y55197932D01*
X7666589Y55085990D01*
X7423368Y54923475D01*
X7216525Y54716632D01*
X7054010Y54473411D01*
X6942068Y54203158D01*
X6885000Y53916260D01*
X6885000Y53623740D01*
X6942068Y53336842D01*
X7054010Y53066589D01*
X7216525Y52823368D01*
X7348380Y52691513D01*
X7275820Y52669502D01*
X7165506Y52610537D01*
X7068815Y52531185D01*
X6989463Y52434494D01*
X6930498Y52324180D01*
X6894188Y52204482D01*
X6881928Y52080000D01*
X6881928Y50380000D01*
X6894188Y50255518D01*
X6930498Y50135820D01*
X6989463Y50025506D01*
X7068815Y49928815D01*
X7165506Y49849463D01*
X7275820Y49790498D01*
X7395518Y49754188D01*
X7520000Y49741928D01*
X9220000Y49741928D01*
X9344482Y49754188D01*
X9464180Y49790498D01*
X9574494Y49849463D01*
X9671185Y49928815D01*
X9750537Y50025506D01*
X9809502Y50135820D01*
X9831513Y50208380D01*
X9963368Y50076525D01*
X10175000Y49935117D01*
X10175001Y21360105D01*
X10175000Y19850447D01*
X9601554Y19277000D01*
X5969000Y19277000D01*
X5969000Y36830000D01*
X5966560Y36854776D01*
X5959333Y36878601D01*
X5947597Y36900557D01*
X5931803Y36919803D01*
X5912557Y36935597D01*
X5890601Y36947333D01*
X5866776Y36954560D01*
X5842000Y36957000D01*
X5195032Y36957000D01*
X5157959Y36981632D01*
X5106694Y37016733D01*
X5098281Y37021282D01*
X5012120Y37067094D01*
X4954704Y37090758D01*
X4897661Y37115208D01*
X4888525Y37118036D01*
X4795107Y37146241D01*
X4734195Y37158302D01*
X4673471Y37171209D01*
X4663959Y37172209D01*
X4566841Y37181731D01*
X4566837Y37181731D01*
X4533647Y37185000D01*
X381000Y37185000D01*
X381000Y47622327D01*
X6347355Y47498028D01*
X6372177Y47499951D01*
X6396146Y47506680D01*
X6418343Y47517957D01*
X6437913Y47533346D01*
X6454104Y47552258D01*
X6466295Y47573966D01*
X6474017Y47597634D01*
X6477000Y47625000D01*
X6477000Y55326441D01*
X58547000Y55315713D01*
G36*
X64315000Y14389294D02*
G01*
X64179727Y14479680D01*
X63918574Y14587853D01*
X63641335Y14643000D01*
X63358665Y14643000D01*
X63146625Y14600822D01*
X60933000Y16814446D01*
X60933000Y17186983D01*
X61176505Y17349688D01*
X61242944Y17416127D01*
X61248498Y17397820D01*
X61307463Y17287506D01*
X61386815Y17190815D01*
X61483506Y17111463D01*
X61593820Y17052498D01*
X61713518Y17016188D01*
X61838000Y17003928D01*
X62452250Y17007000D01*
X62611000Y17165750D01*
X62611000Y18415000D01*
X62865000Y18415000D01*
X62865000Y17165750D01*
X63023750Y17007000D01*
X63638000Y17003928D01*
X63762482Y17016188D01*
X63882180Y17052498D01*
X63992494Y17111463D01*
X64089185Y17190815D01*
X64168537Y17287506D01*
X64227502Y17397820D01*
X64263812Y17517518D01*
X64276072Y17642000D01*
X64273000Y18256250D01*
X64114250Y18415000D01*
X62865000Y18415000D01*
X62611000Y18415000D01*
X62591000Y18415000D01*
X62591000Y18669000D01*
X62611000Y18669000D01*
X62611000Y19918250D01*
X62865000Y19918250D01*
X62865000Y18669000D01*
X64114250Y18669000D01*
X64273000Y18827750D01*
X64276072Y19442000D01*
X64263812Y19566482D01*
X64227502Y19686180D01*
X64168537Y19796494D01*
X64089185Y19893185D01*
X63992494Y19972537D01*
X63882180Y20031502D01*
X63762482Y20067812D01*
X63638000Y20080072D01*
X63023750Y20077000D01*
X62865000Y19918250D01*
X62611000Y19918250D01*
X62452250Y20077000D01*
X61838000Y20080072D01*
X61713518Y20067812D01*
X61593820Y20031502D01*
X61513649Y19988649D01*
X64315000Y22790000D01*
X64315000Y14389294D01*
G37*
X64315000Y14389294D02*
X64179727Y14479680D01*
X63918574Y14587853D01*
X63641335Y14643000D01*
X63358665Y14643000D01*
X63146625Y14600822D01*
X60933000Y16814446D01*
X60933000Y17186983D01*
X61176505Y17349688D01*
X61242944Y17416127D01*
X61248498Y17397820D01*
X61307463Y17287506D01*
X61386815Y17190815D01*
X61483506Y17111463D01*
X61593820Y17052498D01*
X61713518Y17016188D01*
X61838000Y17003928D01*
X62452250Y17007000D01*
X62611000Y17165750D01*
X62611000Y18415000D01*
X62865000Y18415000D01*
X62865000Y17165750D01*
X63023750Y17007000D01*
X63638000Y17003928D01*
X63762482Y17016188D01*
X63882180Y17052498D01*
X63992494Y17111463D01*
X64089185Y17190815D01*
X64168537Y17287506D01*
X64227502Y17397820D01*
X64263812Y17517518D01*
X64276072Y17642000D01*
X64273000Y18256250D01*
X64114250Y18415000D01*
X62865000Y18415000D01*
X62611000Y18415000D01*
X62591000Y18415000D01*
X62591000Y18669000D01*
X62611000Y18669000D01*
X62611000Y19918250D01*
X62865000Y19918250D01*
X62865000Y18669000D01*
X64114250Y18669000D01*
X64273000Y18827750D01*
X64276072Y19442000D01*
X64263812Y19566482D01*
X64227502Y19686180D01*
X64168537Y19796494D01*
X64089185Y19893185D01*
X63992494Y19972537D01*
X63882180Y20031502D01*
X63762482Y20067812D01*
X63638000Y20080072D01*
X63023750Y20077000D01*
X62865000Y19918250D01*
X62611000Y19918250D01*
X62452250Y20077000D01*
X61838000Y20080072D01*
X61713518Y20067812D01*
X61593820Y20031502D01*
X61513649Y19988649D01*
X64315000Y22790000D01*
X64315000Y14389294D01*
G36*
X18657000Y51357000D02*
G01*
X18677000Y51357000D01*
X18677000Y51103000D01*
X18657000Y51103000D01*
X18657000Y49909845D01*
X18886890Y49788524D01*
X19034099Y49833175D01*
X19296920Y49958359D01*
X19333162Y49985392D01*
X19915554Y49403000D01*
X19674408Y49403000D01*
X19404510Y49349314D01*
X19150273Y49244005D01*
X18921465Y49091120D01*
X18726880Y48896535D01*
X18573995Y48667727D01*
X18542000Y48590485D01*
X18510005Y48667727D01*
X18357120Y48896535D01*
X18162535Y49091120D01*
X18007000Y49195045D01*
X18007000Y49842178D01*
X18025901Y49833175D01*
X18173110Y49788524D01*
X18403000Y49909845D01*
X18403000Y51103000D01*
X18383000Y51103000D01*
X18383000Y51357000D01*
X18403000Y51357000D01*
X18403000Y51377000D01*
X18657000Y51377000D01*
X18657000Y51357000D01*
G37*
X18657000Y51357000D02*
X18677000Y51357000D01*
X18677000Y51103000D01*
X18657000Y51103000D01*
X18657000Y49909845D01*
X18886890Y49788524D01*
X19034099Y49833175D01*
X19296920Y49958359D01*
X19333162Y49985392D01*
X19915554Y49403000D01*
X19674408Y49403000D01*
X19404510Y49349314D01*
X19150273Y49244005D01*
X18921465Y49091120D01*
X18726880Y48896535D01*
X18573995Y48667727D01*
X18542000Y48590485D01*
X18510005Y48667727D01*
X18357120Y48896535D01*
X18162535Y49091120D01*
X18007000Y49195045D01*
X18007000Y49842178D01*
X18025901Y49833175D01*
X18173110Y49788524D01*
X18403000Y49909845D01*
X18403000Y51103000D01*
X18383000Y51103000D01*
X18383000Y51357000D01*
X18403000Y51357000D01*
X18403000Y51377000D01*
X18657000Y51377000D01*
X18657000Y51357000D01*
G36*
X14836525Y52823368D02*
G01*
X15043368Y52616525D01*
X15217760Y52500000D01*
X15043368Y52383475D01*
X14836525Y52176632D01*
X14720000Y52002240D01*
X14603475Y52176632D01*
X14396632Y52383475D01*
X14220594Y52501100D01*
X14450269Y52672412D01*
X14645178Y52888645D01*
X14714805Y53005534D01*
X14836525Y52823368D01*
G37*
X14836525Y52823368D02*
X15043368Y52616525D01*
X15217760Y52500000D01*
X15043368Y52383475D01*
X14836525Y52176632D01*
X14720000Y52002240D01*
X14603475Y52176632D01*
X14396632Y52383475D01*
X14220594Y52501100D01*
X14450269Y52672412D01*
X14645178Y52888645D01*
X14714805Y53005534D01*
X14836525Y52823368D01*
G36*
X22414822Y52888645D02*
G01*
X22609731Y52672412D01*
X22839406Y52501100D01*
X22663368Y52383475D01*
X22456525Y52176632D01*
X22340000Y52002240D01*
X22223475Y52176632D01*
X22016632Y52383475D01*
X21842240Y52500000D01*
X22016632Y52616525D01*
X22223475Y52823368D01*
X22345195Y53005534D01*
X22414822Y52888645D01*
G37*
X22414822Y52888645D02*
X22609731Y52672412D01*
X22839406Y52501100D01*
X22663368Y52383475D01*
X22456525Y52176632D01*
X22340000Y52002240D01*
X22223475Y52176632D01*
X22016632Y52383475D01*
X21842240Y52500000D01*
X22016632Y52616525D01*
X22223475Y52823368D01*
X22345195Y53005534D01*
X22414822Y52888645D01*
%TD*%
M02*
